<svg xmlns="http://www.w3.org/2000/svg" width="13.893" height="20.058" viewBox="0 0 13.893 20.058"><defs><style>.a{fill:#437ef3;}</style></defs><path class="a" d="M202.941,63.7a.572.572,0,0,0-.582.582v1.237h4.116V64.282a.589.589,0,0,0-.582-.582S202.941,63.7,202.941,63.7Zm10.886,20a1.553,1.553,0,0,0,1.566-1.541V73.476a2.161,2.161,0,0,0-.732-1.591l-6.72-5.051a1.4,1.4,0,0,0-.908-.277h-4.7a.82.82,0,0,0-.834.808V82.217a1.553,1.553,0,0,0,1.566,1.541h10.761Zm-7.678-5.658a1.338,1.338,0,0,1-2.676,0c0-.582.277-1.313,1.338-3.537C205.869,76.76,206.149,77.492,206.149,78.049Zm6.87-5.28a.873.873,0,0,1-.555,1.566.914.914,0,0,1-.555-.177l-4.8-3.613a.859.859,0,0,1-.152-1.237.915.915,0,0,1,1.264-.152Z" transform="translate(-201.5 -63.7)"/></svg>