<svg xmlns="http://www.w3.org/2000/svg" xmlns:xlink="http://www.w3.org/1999/xlink" width="41.646" height="20.754" viewBox="0 0 41.646 20.754"><defs><style>.a{fill:url(#a);}.b{fill:url(#b);}.c{fill:url(#c);}.d{fill:#fff;}.e{filter:url(#d);}</style><linearGradient id="a" x1="0.241" y1="0.609" x2="0.908" y2="0.684" gradientUnits="objectBoundingBox"><stop offset="0" stop-color="#3e9e95"/><stop offset="1" stop-color="#389890"/></linearGradient><linearGradient id="b" x1="0.019" y1="0.5" x2="1" y2="0.5" gradientUnits="objectBoundingBox"><stop offset="0" stop-color="#47cbbf"/><stop offset="0.146" stop-color="#40c5b9"/><stop offset="0.49" stop-color="#3eaea4"/><stop offset="0.709" stop-color="#44bbb1"/><stop offset="1" stop-color="#3eb4a9"/></linearGradient><radialGradient id="c" cx="0.5" cy="0.5" r="0.711" gradientTransform="matrix(0.695, -0.719, 0.693, 0.671, -0.194, 0.524)" gradientUnits="objectBoundingBox"><stop offset="0" stop-color="#3db9ae"/><stop offset="1" stop-color="#42c4b8"/></radialGradient><filter id="d"><feOffset dx="5" dy="2" input="SourceAlpha"/><feGaussianBlur stdDeviation="3" result="e"/><feFlood flood-color="#42d1c4" result="f"/><feComposite operator="out" in="SourceGraphic" in2="e"/><feComposite operator="in" in="f"/><feComposite operator="in" in2="SourceGraphic"/></filter></defs><g transform="translate(4.5 1.027)"><ellipse class="a" cx="16.323" cy="5.877" rx="16.323" ry="5.877" transform="translate(0 3.473)"/><path class="b" d="M.039,6.454H0v-.64H.01C.312,2.584,7.344,0,15.976,0S31.639,2.584,31.941,5.814h.01v.64h-.039c-.576,3.132-7.491,5.606-15.936,5.606S.615,9.586.039,6.454Z" transform="translate(0.695 0.951)"/><g data-type="innerShadowGroup"><ellipse class="c" cx="15.975" cy="6.03" rx="15.975" ry="6.03" transform="translate(0.695)"/><g class="e" transform="matrix(1, 0, 0, 1, -4.5, -1.03)"><ellipse class="d" cx="15.975" cy="6.03" rx="15.975" ry="6.03" transform="translate(5.19 1.03)"/></g></g></g></svg>