<?xml version="1.0" encoding="UTF-8"?>
<svg width="60px" height="60px" viewBox="0 0 60 60" version="1.1" xmlns="http://www.w3.org/2000/svg" xmlns:xlink="http://www.w3.org/1999/xlink">
    <title>-mockplus-</title>
    <defs>
        <linearGradient x1="50%" y1="0.855004371%" x2="50%" y2="99.9808785%" id="linearGradient-1">
            <stop stop-color="#FFFFFF" offset="0.0191215035%"></stop>
            <stop stop-color="#FFFFFF" offset="100%"></stop>
        </linearGradient>
        <linearGradient x1="50%" y1="0.855004371%" x2="50%" y2="99.9808785%" id="linearGradient-2">
            <stop stop-color="#FFFFFF" offset="0.0191215035%"></stop>
            <stop stop-color="#FFFFFF" offset="100%"></stop>
        </linearGradient>
        <linearGradient x1="50%" y1="0.855004371%" x2="50%" y2="99.9808785%" id="linearGradient-3">
            <stop stop-color="#FFFFFF" offset="0.0191215035%"></stop>
            <stop stop-color="#FFFFFF" offset="100%"></stop>
        </linearGradient>
    </defs>
    <g id="页面" stroke="none" stroke-width="1" fill="none" fill-rule="evenodd">
        <g id="摄像头" transform="translate(-615.000000, -282.000000)">
            <g id="气泡展开" transform="translate(243.000000, 230.000000)">
                <g id="-mockplus-" transform="translate(372.000000, 52.000000)">
                    <g id="4.沉浸式/10.内容/智慧停车_摄像头" transform="translate(-8.000000, -8.000000)">
                        <g id="-mockplus-" transform="translate(8.000000, 8.000000)">
                            <g id="5.大屏/10.内容/园区安全-图标-1" transform="translate(1.000000, 1.000000)">
                                <circle id="椭圆形" stroke="#FFFFFF" stroke-width="1.5" opacity="0.2" cx="29" cy="29" r="29"></circle>
                                <path d="M0,29 C0,45.0162577 12.9837423,58 29,58 C45.0162577,58 58,45.0162577 58,29 C58,12.9837423 45.0162577,0 29,0" id="路径" stroke="url(#linearGradient-1)" stroke-width="2.5" stroke-linecap="round"></path>
                                <g id="-mockplus-" transform="translate(13.000000, 13.000000)" fill="url(#linearGradient-3)">
                                    <g id="1.图标/2.设计/" transform="translate(0.000000, 3.000000)">
                                        <path d="M0,14.8457865 C0,14.3795902 0.349834895,14.1513717 0.777744572,14.3398022 L3.03888941,15.7856863 C3.46679904,15.973366 3.81663398,16.5078777 3.81663398,16.974074 L3.81663398,18.8561258 L9.33441633,18.8561258 L10.4004369,16.5521701 L13.6615589,18.0686219 L12.1195827,21.4018129 C11.8238762,22.0373776 11.1862564,22.443615 10.4852681,22.4430597 L3.81513253,22.4430597 L3.81513253,24.3251114 C3.81513253,24.7920584 3.46604834,25.3258194 3.03738795,25.5134991 L0.777744572,26.9608848 C0.349834933,27.1478137 0,26.9210967 0,26.4541497 L0,14.8457865 Z M30.0249742,14.972658 L27.7765717,19.7787591 L24.5597421,18.2833274 L30.0249742,14.972658 Z M8.99509148,0.157975375 L31.3387319,10.5449192 C32.1847918,10.9397972 32.2245799,11.6574843 31.4258152,12.1409471 L21.4059729,18.2112585 C20.6072082,18.6947213 19.2604189,18.7682917 18.4128574,18.3749151 L3.67850172,11.5253578 C2.83087763,11.1292738 2.46303642,10.1224092 2.85571405,9.27320171 L6.73542823,0.977760184 C7.13600201,0.130640713 8.14453385,-0.235245259 8.99509148,0.157975375 Z" id="形状"></path>
                                    </g>
                                </g>
                            </g>
                        </g>
                    </g>
                </g>
            </g>
        </g>
    </g>
</svg>