<svg xmlns="http://www.w3.org/2000/svg" width="111" height="112" viewBox="0 0 111 112"><defs><style>.a,.b,.c,.e,.g{fill:none;}.a{stroke:rgba(56,183,253,0.66);}.b{stroke:rgba(56,183,253,0.49);}.c{stroke:rgba(56,183,253,0.55);stroke-width:2px;stroke-dasharray:8 10;}.d{fill:#38b7fd;}.e{stroke:rgba(56,183,253,0.52);}.f{stroke:none;}</style></defs><g transform="translate(-1314 -908)"><g class="a" transform="translate(1328 923)"><circle class="f" cx="41" cy="41" r="41"/><circle class="g" cx="41" cy="41" r="40.5"/></g><g class="b" transform="translate(1314 909)"><circle class="f" cx="55.5" cy="55.5" r="55.5"/><circle class="g" cx="55.5" cy="55.5" r="55"/></g><g class="c" transform="matrix(0.998, 0.07, -0.07, 0.998, 1333.743, 923.442)"><circle class="f" cx="38" cy="38" r="38"/><circle class="g" cx="38" cy="38" r="37"/></g><path class="d" d="M513.5,120a53.545,53.545,0,0,1-50.909-70H473.25A43.5,43.5,0,1,0,516,23.071V13.056A53.516,53.516,0,0,1,534.325,115.8,53.164,53.164,0,0,1,513.5,120Z" transform="translate(856 898)"/><g class="e" transform="translate(1314 908)"><rect class="f" width="9" height="9" rx="2"/><rect class="g" x="0.5" y="0.5" width="8" height="8" rx="1.5"/></g><g class="e" transform="translate(1416 909)"><rect class="f" width="9" height="9" rx="2"/><rect class="g" x="0.5" y="0.5" width="8" height="8" rx="1.5"/></g><g class="e" transform="translate(1416 1011)"><rect class="f" width="9" height="9" rx="2"/><rect class="g" x="0.5" y="0.5" width="8" height="8" rx="1.5"/></g><g class="e" transform="translate(1314 1011)"><rect class="f" width="9" height="9" rx="2"/><rect class="g" x="0.5" y="0.5" width="8" height="8" rx="1.5"/></g></g></svg>