<svg xmlns="http://www.w3.org/2000/svg" xmlns:xlink="http://www.w3.org/1999/xlink" width="69" height="69"
  viewBox="0 0 69 69">
  <defs>
    <style>
      .a,
      .e {
        fill: #fff;
      }

      .a {
        stroke: #707070;
      }

      .b {
        clip-path: url(#a);
      }

      .c {
        fill: #00a4ff;
        opacity: 0.07;
      }

      .d,
      .j {
        fill: #3889ff;
      }

      .d {
        opacity: 0.19;
      }

      .e {
        opacity: 0.05;
      }

      .f {
        fill: #09f;
        opacity: 0.43;
      }

      .g {
        fill: #046aff;
        opacity: 0.56;
      }

      .h,
      .i {
        fill: #38b7fd;
      }

      .i {
        opacity: 0.23;
      }

      .k,
      .l,
      .n {
        fill: none;
      }

      .k {
        stroke: #fff;
        stroke-width: 0.3px;
        stroke-dasharray: 0 1;
      }

      .l {
        stroke: #005fe9;
        stroke-width: 0.5px;
        stroke-dasharray: 0.5 1;
      }

      .m {
        stroke: none;
      }
    </style>
    <clipPath id="a">
      <circle class="a" cx="34.5" cy="34.5" r="34.5" transform="translate(902 471)" />
    </clipPath>
  </defs>
  <g class="b" transform="translate(-902 -471)">
    <g transform="translate(30 -253)">
      <circle class="c" cx="32" cy="32" r="32" transform="translate(874 726)" />
      <g transform="translate(0 -9)">
        <circle class="d" cx="23" cy="23" r="23" transform="translate(883 744)" />
        <circle class="e" cx="23" cy="23" r="23" transform="translate(883 744)" />
        <path class="g"
          d="M-929,1441a24.844,24.844,0,0,1-9.731-1.964,24.918,24.918,0,0,1-7.947-5.358,24.917,24.917,0,0,1-5.358-7.947A24.844,24.844,0,0,1-954,1416a24.841,24.841,0,0,1,1.965-9.731,24.914,24.914,0,0,1,5.358-7.946,24.92,24.92,0,0,1,7.947-5.358A24.844,24.844,0,0,1-929,1391a24.844,24.844,0,0,1,9.731,1.964,24.92,24.92,0,0,1,7.947,5.358,24.915,24.915,0,0,1,5.358,7.946A24.841,24.841,0,0,1-904,1416a24.844,24.844,0,0,1-1.965,9.731,24.917,24.917,0,0,1-5.358,7.947,24.918,24.918,0,0,1-7.947,5.358A24.844,24.844,0,0,1-929,1441Zm0-49a24.027,24.027,0,0,0-24,24,24.027,24.027,0,0,0,24,24,24.027,24.027,0,0,0,24-24A24.027,24.027,0,0,0-929,1392Z"
          transform="translate(1835 -649)" />
        <path class="h"
          d="M-929,1441a24.844,24.844,0,0,1-9.731-1.964,24.918,24.918,0,0,1-7.947-5.358,24.917,24.917,0,0,1-5.358-7.947A24.844,24.844,0,0,1-954,1416a24.841,24.841,0,0,1,1.965-9.731,24.914,24.914,0,0,1,5.358-7.946,24.92,24.92,0,0,1,7.947-5.358A24.844,24.844,0,0,1-929,1391a24.844,24.844,0,0,1,9.731,1.964,24.92,24.92,0,0,1,7.947,5.358,24.915,24.915,0,0,1,5.358,7.946A24.841,24.841,0,0,1-904,1416a24.844,24.844,0,0,1-1.965,9.731,24.917,24.917,0,0,1-5.358,7.947,24.918,24.918,0,0,1-7.947,5.358A24.844,24.844,0,0,1-929,1441Zm0-49a24.027,24.027,0,0,0-24,24,24.027,24.027,0,0,0,24,24,24.027,24.027,0,0,0,24-24A24.027,24.027,0,0,0-929,1392Z"
          transform="translate(1835 -649)" />
        <path class="i"
          d="M-929,1441a24.844,24.844,0,0,1-9.731-1.964,24.918,24.918,0,0,1-7.947-5.358,24.917,24.917,0,0,1-5.358-7.947A24.844,24.844,0,0,1-954,1416a24.841,24.841,0,0,1,1.965-9.731,24.914,24.914,0,0,1,5.358-7.946,24.92,24.92,0,0,1,7.947-5.358A24.844,24.844,0,0,1-929,1391a24.844,24.844,0,0,1,9.731,1.964,24.92,24.92,0,0,1,7.947,5.358,24.915,24.915,0,0,1,5.358,7.946A24.841,24.841,0,0,1-904,1416a24.844,24.844,0,0,1-1.965,9.731,24.917,24.917,0,0,1-5.358,7.947,24.918,24.918,0,0,1-7.947,5.358A24.844,24.844,0,0,1-929,1441Zm0-49a24.027,24.027,0,0,0-24,24,24.027,24.027,0,0,0,24,24,24.027,24.027,0,0,0,24-24A24.027,24.027,0,0,0-929,1392Z"
          transform="translate(1835 -649)" />
        <path class="j"
          d="M-934.4,1399.339h0l-1.6-1.254a25.931,25.931,0,0,1,7.72-5.043,25.856,25.856,0,0,1,10.12-2.041v2a23.908,23.908,0,0,0-16.235,6.338Z"
          transform="translate(1824.165 -650)" />
        <path class="j" d="M1.605,8.338h0L0,7.084A25.9,25.9,0,0,1,17.841,0V2A23.908,23.908,0,0,0,1.606,8.338Z"
          transform="translate(923.841 793) rotate(180)" />
        <path class="j" d="M1.605,8.338h0L0,7.084A25.9,25.9,0,0,1,17.841,0V2A23.908,23.908,0,0,0,1.606,8.338Z"
          transform="translate(923.841 793) rotate(180)" />
        <path class="j"
          d="M-934.4,1399.339h0l-1.6-1.254a25.931,25.931,0,0,1,7.72-5.043,25.856,25.856,0,0,1,10.12-2.041v2a23.908,23.908,0,0,0-16.235,6.338Z"
          transform="translate(1824.165 -650)" />
      </g>
      <g class="k" transform="translate(884 736)">
        <circle class="m" cx="22" cy="22" r="22" />
        <circle class="n" cx="22" cy="22" r="21.85" />
      </g>
      <g class="l" transform="translate(878 730)">
        <circle class="m" cx="28" cy="28" r="28" />
        <circle class="n" cx="28" cy="28" r="27.75" />
      </g>
    </g>
  </g>
</svg>