<?xml version="1.0" encoding="UTF-8"?>
<svg width="50px" height="50px" viewBox="0 0 50 50" version="1.1" xmlns="http://www.w3.org/2000/svg" xmlns:xlink="http://www.w3.org/1999/xlink">
    <title>湿度3</title>
    <g id="控件" stroke="none" stroke-width="1" fill="none" fill-rule="evenodd" opacity="0.64">
        <g id="湿度" transform="translate(-159.000000, 1.000000)">
            <g id="湿度3" transform="translate(160.000000, 0.000000)">
                <g id="底" stroke="#38B7FD" stroke-linecap="round">
                    <circle id="椭圆形" stroke-width="2" cx="24" cy="24" r="24"></circle>
                    <circle id="椭圆形" stroke-width="0.5" cx="24" cy="24" r="20"></circle>
                </g>
                <g id="编组" transform="translate(14.000000, 14.000000)" fill="#38B7FD" fill-rule="nonzero">
                    <g id="1.图标/2.设计/">
                        <path d="M8.125,0.625 C7.76908851,0.625 7.11457027,1.1281466 6.33299312,1.93481423 L5.96386793,2.32794726 C5.83823533,2.46569093 5.71022008,2.60989162 5.58044684,2.75982244 L5.18647784,3.22607838 L4.78570888,3.72235365 L4.38188794,4.24428684 C4.31453834,4.33317156 4.24721774,4.42294364 4.18000422,4.51351221 L3.77863277,5.06575463 L3.38357928,5.63275142 L2.99859171,6.21014119 L2.62741804,6.79356251 C2.56691514,6.89105973 2.50714399,6.98862653 2.44818266,7.08617207 L2.1047573,7.67046307 C1.16279265,9.32111181 0.5,10.9130938 0.5,12 C0.5,16.2111712 3.91382878,19.625 8.125,19.625 C12.3361712,19.625 15.75,16.2111712 15.75,12 C15.75,10.9130938 15.0872074,9.32111181 14.1452427,7.67046307 L13.8018173,7.08617207 C13.742856,6.98862653 13.6830849,6.89105973 13.622582,6.79356251 L13.2514083,6.21014119 L12.8664207,5.63275142 L12.4713672,5.06575463 L12.0699958,4.51351221 C12.0027823,4.42294364 11.9354617,4.33317156 11.8681121,4.24428684 L11.4642911,3.72235365 L11.0635222,3.22607838 L10.6695532,2.75982244 C10.6046665,2.68485703 10.5402194,2.61132415 10.4762899,2.53931467 L10.0995482,2.12626539 C9.23789175,1.20853097 8.50828929,0.625 8.125,0.625 Z M4.375,11.25 C4.78921356,11.25 5.125,11.5857864 5.125,12 C5.125,13.6568542 6.46814575,15 8.125,15 C8.53921356,15 8.875,15.3357864 8.875,15.75 C8.875,16.1642136 8.53921356,16.5 8.125,16.5 C5.63971863,16.5 3.625,14.4852814 3.625,12 C3.625,11.5857864 3.96078644,11.25 4.375,11.25 Z M16.25,3.55271368e-14 C17.6307119,3.55271368e-14 18.75,1.11928813 18.75,2.5 C18.75,3.88071187 17.6307119,5 16.25,5 C14.8692881,5 13.75,3.88071187 13.75,2.5 C13.75,1.11928813 14.8692881,3.55271368e-14 16.25,3.55271368e-14 Z" id="形状结合"></path>
                    </g>
                </g>
            </g>
        </g>
    </g>
</svg>