<?xml version="1.0" encoding="UTF-8"?>
<svg width="50px" height="50px" viewBox="0 0 50 50" version="1.1" xmlns="http://www.w3.org/2000/svg" xmlns:xlink="http://www.w3.org/1999/xlink">
    <title>温度2</title>
    <g id="控件" stroke="none" stroke-width="1" fill="none" fill-rule="evenodd">
        <g id="温度" transform="translate(-79.000000, 1.000000)">
            <g id="温度2" transform="translate(80.000000, 0.000000)">
                <g id="底" stroke="#FF4848" stroke-linecap="round">
                    <circle id="椭圆形" stroke-width="2" cx="24" cy="24" r="24"></circle>
                    <circle id="椭圆形" stroke-width="0.5" cx="24" cy="24" r="20"></circle>
                </g>
                <g id="编组" transform="translate(14.000000, 14.000000)" fill="#FF4848" fill-rule="nonzero">
                    <g id="1.图标/2.设计/">
                        <path d="M10,0 C11.6245431,0 12.9706934,1.19194143 13.2116204,2.74890175 L10.225,2.75 C9.89362915,2.75 9.625,3.01862915 9.625,3.35 L9.625,3.35 L9.625,3.4 C9.625,3.73137085 9.89362915,4 10.225,4 L10.225,4 L13.249,3.999 L13.25,5.249 L10.225,5.25 C9.92676624,5.25 9.67935325,5.46758961 9.63285299,5.75267688 L9.625,5.85 L9.625,5.9 C9.625,6.23137085 9.89362915,6.5 10.225,6.5 L10.225,6.5 L13.25,6.499 L13.25,6.8 L13.3295687,6.84098988 C15.4745504,8.00126495 16.8880874,10.2133239 16.9936479,12.7002938 L16.9936479,12.7002938 L17,13 C17,16.8659932 13.8659932,20 10,20 C6.13400675,20 3,16.8659932 3,13 C3,10.3914637 4.44021131,8.04679179 6.6716658,6.84032133 L6.6716658,6.84032133 L6.75,6.79875 L6.75,3.25 C6.75,1.52411016 8.09529823,0.112431551 9.79446488,0.00639397999 L9.79446488,0.00639397999 Z M6.875,12.25 C7.28921356,12.25 7.625,12.5857864 7.625,13 C7.625,14.3116763 8.68832372,15.375 10,15.375 C10.4142136,15.375 10.75,15.7107864 10.75,16.125 C10.75,16.5392136 10.4142136,16.875 10,16.875 C7.85989659,16.875 6.125,15.1401034 6.125,13 C6.125,12.5857864 6.46078644,12.25 6.875,12.25 Z M18.15,1.875 C18.4813708,1.875 18.75,2.14362915 18.75,2.475 L18.75,2.775 C18.75,3.10637085 18.4813708,3.375 18.15,3.375 L15.6,3.375 C15.2686292,3.375 15,3.10637085 15,2.775 L15,2.475 C15,2.14362915 15.2686292,1.875 15.6,1.875 L18.15,1.875 Z" id="形状结合"></path>
                    </g>
                </g>
            </g>
        </g>
    </g>
</svg>