<?xml version="1.0" encoding="UTF-8"?>
<svg width="50px" height="50px" viewBox="0 0 50 50" version="1.1" xmlns="http://www.w3.org/2000/svg" xmlns:xlink="http://www.w3.org/1999/xlink">
    <title>整体环境1</title>
    <g id="控件" stroke="none" stroke-width="1" fill="none" fill-rule="evenodd">
        <g id="整体环境1" transform="translate(1.000000, 1.000000)">
            <g id="底备份-4" stroke="#20F09D" stroke-linecap="round">
                <circle id="椭圆形" stroke-width="2" cx="24" cy="24" r="24"></circle>
                <circle id="椭圆形" stroke-width="0.5" cx="24" cy="24" r="20"></circle>
            </g>
            <g id="编组" transform="translate(14.000000, 14.000000)" fill="#20F09D" fill-rule="nonzero">
                <g id="1.图标/2.设计/">
                    <path d="M9.44715974,13.6396012 C9.44715974,13.6396012 14.0413736,17.2722559 18.0783957,8.47048694 C18.0783957,8.47048694 9.5591851,6.86837754 9.44715974,13.6396012 Z M10.1351618,18.1423358 C8.74262296,16.2588422 7.58108141,13.1400366 9.81513125,8.84755746 C13.7021666,1.37385162 8.75465712,0 8.75465712,0 C8.75465712,0 12.9521348,1.86871998 8.97968623,8.20808344 C10.1606977,2.87812228 2.75,1.30389692 2.75,1.30389692 C2.89088779,9.33880578 6.86108611,9.58545725 8.18073506,9.44408027 C5.73897357,13.2980462 6.44986987,16.3107945 7.48471025,18.170709 C5.76891223,18.4317428 4.49299719,19.1386277 4.33498762,20 L13.4929874,20 C13.3280313,19.1043842 11.9548645,18.3748007 10.1351618,18.1423358 Z" id="形状"></path>
                </g>
            </g>
        </g>
    </g>
</svg>