<?xml version="1.0" encoding="UTF-8"?>
<svg width="50px" height="50px" viewBox="0 0 50 50" version="1.1" xmlns="http://www.w3.org/2000/svg" xmlns:xlink="http://www.w3.org/1999/xlink">
    <title>空气质量1</title>
    <g id="控件" stroke="none" stroke-width="1" fill="none" fill-rule="evenodd">
        <g id="空气质量1" transform="translate(1.000000, 1.000000)">
            <g id="底备份" stroke="#20F09D" stroke-linecap="round">
                <circle id="椭圆形" stroke-width="2" cx="24" cy="24" r="24"></circle>
                <circle id="椭圆形" stroke-width="0.5" cx="24" cy="24" r="20"></circle>
            </g>
            <g id="编组" transform="translate(14.000000, 14.000000)" fill="#20F09D" fill-rule="nonzero">
                <g id="1.图标/2.设计/">
                    <path d="M1.24164332,15.8805883 C0.935311817,9.6116338 3.20699293,6.73485842 6.29922439,5.07757015 C7.58896738,4.38507022 8.86998758,3.92067002 10.1200617,3.5201103 L11.9691853,2.94661865 C13.5872815,2.44290655 15.1306083,1.90668039 16.5464882,0.948584895 L17.0713662,0.568763499 C18.347408,-0.417926041 18.9025923,0.0747750557 19.1362668,0.583415545 L19.1998372,0.742861802 C19.2088063,0.768955519 19.2170013,0.794666665 19.2244803,0.819781878 L19.2612288,0.961615061 L19.2612288,0.961615061 L19.2902476,1.12514482 L19.2902476,1.12514482 L19.2943568,1.1614087 C19.6915305,5.30897145 18.3999849,9.64503551 14.1659793,12.5385198 C13.0114431,13.3272346 11.7793426,13.7614221 10.5446915,14.0724385 L9.92750073,14.2187535 L9.92750073,14.2187535 L9.00547555,14.4137931 L9.00547555,14.4137931 L7.79406871,14.6619771 L7.79406871,14.6619771 L7.20075082,14.7954424 L7.20075082,14.7954424 L6.61846823,14.9437251 C4.41019845,15.5487543 2.49109344,16.6220383 1.38933025,19.7925753 C1.3723595,19.8412441 1.33121888,19.8783211 1.28008487,19.8901156 L0.821250651,19.9959491 C0.711873753,20.0211776 0.61506099,19.9245481 0.642076765,19.8177046 C1.3935572,16.8535066 2.83253397,14.1186914 4.92221335,11.720993 C6.8057169,9.56223148 9.21789028,7.66704617 12.0880101,5.9380134 C12.3204517,5.79796137 12.1292315,5.45400372 11.8847439,5.57239654 C9.62988362,6.6639356 7.64270769,7.86878532 5.90339047,9.4426945 C4.21553346,10.969838 2.76042876,12.8470001 1.52327751,15.303352 L1.24164332,15.8805883 Z" id="路径"></path>
                </g>
            </g>
        </g>
    </g>
</svg>