<svg xmlns="http://www.w3.org/2000/svg" xmlns:xlink="http://www.w3.org/1999/xlink" width="369.5" height="203" viewBox="0 0 369.5 203">
  <defs>
    <clipPath id="clip-path">
      <rect id="矩形_138" data-name="矩形 138" width="366" height="203" fill="#fff" stroke="#707070" stroke-width="1"/>
    </clipPath>
    <linearGradient id="linear-gradient" x1="0.5" x2="0.5" y2="1" gradientUnits="objectBoundingBox">
      <stop offset="0" stop-color="#38b7fd" stop-opacity="0"/>
      <stop offset="0.51" stop-color="#38b7fd" stop-opacity="0.149"/>
      <stop offset="1" stop-color="#38b7fd" stop-opacity="0"/>
    </linearGradient>
    <linearGradient id="linear-gradient-11" x1="0.5" x2="0.5" y2="1" gradientUnits="objectBoundingBox">
      <stop offset="0" stop-color="#38b7fd" stop-opacity="0"/>
      <stop offset="0.494" stop-color="#38b7fd" stop-opacity="0.149"/>
      <stop offset="1" stop-color="#38b7fd" stop-opacity="0"/>
    </linearGradient>
    <radialGradient id="radial-gradient" cx="0.5" cy="0.5" r="0.5" gradientUnits="objectBoundingBox">
      <stop offset="0" stop-color="#44d5fa" stop-opacity="0"/>
      <stop offset="0.912" stop-color="#44d5fa" stop-opacity="0.059"/>
      <stop offset="1" stop-color="#44d5fa" stop-opacity="0.11"/>
    </radialGradient>
    <radialGradient id="radial-gradient-2" cx="0.5" cy="0.5" r="0.5" gradientUnits="objectBoundingBox">
      <stop offset="0" stop-color="#38b7fd" stop-opacity="0"/>
      <stop offset="0.807" stop-color="#38b7fd" stop-opacity="0.059"/>
      <stop offset="1" stop-color="#38b7fd" stop-opacity="0.11"/>
    </radialGradient>
    <linearGradient id="linear-gradient-19" x1="0.482" x2="0.5" y2="1" gradientUnits="objectBoundingBox">
      <stop offset="0" stop-color="#38b7fd" stop-opacity="0.529"/>
      <stop offset="0.335" stop-color="#38b7fd" stop-opacity="0.278"/>
      <stop offset="0.598" stop-color="#38b7fd" stop-opacity="0.02"/>
      <stop offset="1" stop-color="#38b7fd" stop-opacity="0"/>
    </linearGradient>
    <filter id="路径_48">
      <feOffset dx="3" dy="7" input="SourceAlpha"/>
      <feGaussianBlur stdDeviation="5" result="blur"/>
      <feFlood flood-color="#38b7fd" flood-opacity="0.149" result="color"/>
      <feComposite operator="out" in="SourceGraphic" in2="blur"/>
      <feComposite operator="in" in="color"/>
      <feComposite operator="in" in2="SourceGraphic"/>
    </filter>
    <filter id="路径_49">
      <feOffset dx="3" dy="7" input="SourceAlpha"/>
      <feGaussianBlur stdDeviation="5" result="blur-2"/>
      <feFlood flood-color="#44d5fa" flood-opacity="0.149" result="color-2"/>
      <feComposite operator="out" in="SourceGraphic" in2="blur-2"/>
      <feComposite operator="in" in="color-2"/>
      <feComposite operator="in" in2="SourceGraphic"/>
    </filter>
    <linearGradient id="linear-gradient-20" x1="0.482" y1="1" x2="0.5" gradientUnits="objectBoundingBox">
      <stop offset="0" stop-color="#38b7fd"/>
      <stop offset="0.335" stop-color="#38b7fd" stop-opacity="0.671"/>
      <stop offset="0.598" stop-color="#38b7fd" stop-opacity="0.251"/>
      <stop offset="1" stop-color="#38b7fd" stop-opacity="0"/>
    </linearGradient>
    <linearGradient id="linear-gradient-21" x1="0.84" y1="0.715" x2="0" y2="0.741" gradientUnits="objectBoundingBox">
      <stop offset="0" stop-color="#5fafdb"/>
      <stop offset="1" stop-color="#5b7685"/>
    </linearGradient>
    <linearGradient id="linear-gradient-22" x1="0.594" y1="-0.152" x2="0.5" y2="0.778" gradientUnits="objectBoundingBox">
      <stop offset="0" stop-color="#38b7fd"/>
      <stop offset="1" stop-color="#3a4f5b"/>
    </linearGradient>
    <linearGradient id="linear-gradient-23" x1="0.784" y1="1" x2="0.689" y2="-0.124" gradientUnits="objectBoundingBox">
      <stop offset="0" stop-color="#38b7fd" stop-opacity="0.329"/>
      <stop offset="1" stop-color="#38b7fd" stop-opacity="0"/>
    </linearGradient>
    <linearGradient id="linear-gradient-24" x1="0.244" y1="0.651" x2="1" y2="0.5" gradientUnits="objectBoundingBox">
      <stop offset="0" stop-color="#4f7488"/>
      <stop offset="1" stop-color="#6fb8e1"/>
    </linearGradient>
    <linearGradient id="linear-gradient-25" x1="0.5" x2="0.5" y2="1" gradientUnits="objectBoundingBox">
      <stop offset="0" stop-color="#3a4a53"/>
      <stop offset="1" stop-color="#60b6e5"/>
    </linearGradient>
    <linearGradient id="linear-gradient-26" x1="0.551" x2="0.596" y2="0.039" xlink:href="#linear-gradient-23"/>
    <linearGradient id="linear-gradient-27" x1="0.552" y1="0.765" x2="0.548" y2="0.192" xlink:href="#linear-gradient-24"/>
    <linearGradient id="linear-gradient-28" x1="0.828" y1="0.801" x2="0.264" y2="0.445" xlink:href="#linear-gradient-25"/>
    <linearGradient id="linear-gradient-29" x1="0.551" y1="0" x2="0.596" y2="0.961" xlink:href="#linear-gradient-23"/>
    <linearGradient id="linear-gradient-30" x1="0.864" y1="0.688" x2="0.057" y2="0.442" gradientUnits="objectBoundingBox">
      <stop offset="0" stop-color="#38b7fd"/>
      <stop offset="1" stop-color="#24282a"/>
    </linearGradient>
    <linearGradient id="linear-gradient-31" x1="0.391" y1="0.177" x2="0.414" y2="0.939" xlink:href="#linear-gradient-23"/>
    <linearGradient id="linear-gradient-32" y1="0.777" x2="0.923" y2="0.244" gradientUnits="objectBoundingBox">
      <stop offset="0" stop-color="#5094b9"/>
      <stop offset="1" stop-color="#3e535e"/>
    </linearGradient>
    <linearGradient id="linear-gradient-33" x1="0.136" y1="0.688" x2="0.943" y2="0.442" xlink:href="#linear-gradient-30"/>
    <linearGradient id="linear-gradient-34" x1="0.391" y1="0.823" x2="0.414" y2="0.061" xlink:href="#linear-gradient-23"/>
    <linearGradient id="linear-gradient-35" y1="0.223" x2="0.923" y2="0.756" xlink:href="#linear-gradient-32"/>
  </defs>
  <g id="智慧停车" transform="translate(-30 -127)">
    <g id="蒙版组_4" data-name="蒙版组 4" transform="translate(30 127)" clip-path="url(#clip-path)">
      <g id="网格" transform="translate(-97.685 -197.435)">
        <g id="组_70" data-name="组 70" transform="translate(45.405 216.684)">
          <path id="_1" data-name="1" d="M5.183,0,6.74-.027,3.622,180.925l-1.558.024Z" transform="translate(112.616 -0.731) rotate(9)" fill="url(#linear-gradient)"/>
          <path id="_1-2" data-name="1" d="M5.577,0,7.134-.031,3.675,181.413l-1.557.027Z" transform="translate(75.718 -0.64) rotate(10)" fill="url(#linear-gradient)"/>
          <path id="_1-3" data-name="1" d="M6.325-.007,7.879-.039l-4.1,181.33-1.555.032Z" transform="matrix(0.978, 0.208, -0.208, 0.978, 35.527, -0.407)" fill="url(#linear-gradient)"/>
          <path id="_2" data-name="2" d="M.34,0,1.9-.017-.19,179.959l-1.56.016Z" transform="matrix(0.995, 0.105, -0.105, 0.995, 151.621, 6.597)" fill="url(#linear-gradient)"/>
          <path id="_3" data-name="3" d="M.228,0,1.789-.011.39,179.843l-1.561.011Z" transform="matrix(0.998, 0.07, -0.07, 0.998, 188.724, 9.265)" fill="url(#linear-gradient)"/>
          <path id="_4" data-name="4" d="M0,0,1.5,0,1.211,179.759l-1.5,0Z" transform="matrix(1, 0.017, -0.017, 1, 225.589, 13.408)" fill="url(#linear-gradient)"/>
          <path id="_5" data-name="5" d="M0,0,1.561.005l.7,179.78L.7,179.78Z" transform="translate(260.825 16.384) rotate(-2)" fill="url(#linear-gradient)"/>
          <path id="_6" data-name="6" d="M0,0,1.561.011l1.4,179.854L1.4,179.854Z" transform="matrix(0.998, -0.07, 0.07, 0.998, 298.429, 20.867)" fill="url(#linear-gradient)"/>
          <path id="_7" data-name="7" d="M0,0,1.559.019,3.99,180.073l-1.559-.019Z" transform="translate(334.474 24.253) rotate(-7)" fill="url(#linear-gradient)"/>
          <path id="路径_225" data-name="路径 225" d="M0,0,1.558.024,4.432,166.819l-1.558-.024Z" transform="translate(373.671 29.008) rotate(-9)" fill="url(#linear-gradient)"/>
        </g>
        <g id="组_71" data-name="组 71" transform="matrix(-0.174, -0.985, 0.985, -0.174, 74.519, 458.06)">
          <path id="_1-4" data-name="1" d="M0,0,1.4.005l1.5,427.766-1.4-.005Z" transform="matrix(0.978, 0.208, -0.208, 0.978, 133.247, 15.836)" fill="url(#linear-gradient-11)"/>
          <path id="_1-5" data-name="1" d="M0,0,1.4.005l1.437,409.7-1.4-.005Z" transform="translate(105.359 8.759) rotate(12)" fill="url(#linear-gradient-11)"/>
          <path id="_1-6" data-name="1" d="M0,0,1.4.005,2.812,401.232l-1.4-.005Z" transform="matrix(0.978, 0.208, -0.208, 0.978, 76.503, -1.221)" fill="url(#linear-gradient-11)"/>
          <path id="_2-2" data-name="2" d="M0,0,1.4.005l1.52,433.231-1.4-.005Z" transform="matrix(0.978, 0.208, -0.208, 0.978, 158.824, 22.119)" fill="url(#linear-gradient-11)"/>
          <path id="_3-2" data-name="3" d="M0,0,1.4.005,2.851,412.16l-1.4-.005Z" transform="matrix(0.978, 0.208, -0.208, 0.978, 183.347, 22.54)" fill="url(#linear-gradient-11)"/>
          <path id="_3-3" data-name="3" d="M0,0,1.4.005,2.913,429.9l-1.4-.005Z" transform="matrix(0.978, 0.208, -0.208, 0.978, 206.858, 26.685)" fill="url(#linear-gradient-11)"/>
          <path id="_7-2" data-name="7" d="M7.882-.015,9.3-.059,3.68,198.08l-1.418.044Z" transform="translate(318.405 126.644) rotate(-7)" fill="url(#linear-gradient-11)"/>
          <path id="路径_226" data-name="路径 226" d="M8.54-.019,9.961-.067,3.773,197.659l-1.421.048Z" transform="translate(353.077 131.621) rotate(-9)" fill="url(#linear-gradient-11)"/>
        </g>
      </g>
    </g>
    <g id="组_69" data-name="组 69" transform="translate(33 144.645)">
      <g id="园区总面积" transform="translate(0 10.355)">
        <g id="椭圆">
          <g id="椭圆_62" data-name="椭圆 62" transform="translate(59.898 25)" stroke="rgba(56,183,253,0.07)" stroke-width="2" fill="url(#radial-gradient)">
            <ellipse cx="120.5" cy="60.5" rx="120.5" ry="60.5" stroke="none"/>
            <ellipse cx="120.5" cy="60.5" rx="119.5" ry="59.5" fill="none"/>
          </g>
          <g id="椭圆_64" data-name="椭圆 64" stroke="rgba(253,209,90,0)" stroke-width="2" fill="url(#radial-gradient-2)">
            <ellipse cx="182.5" cy="78" rx="182.5" ry="78" stroke="none"/>
            <ellipse cx="182.5" cy="78" rx="181.5" ry="77" fill="none"/>
          </g>
        </g>
        <g id="组_75" data-name="组 75" transform="translate(119.742 20.024)">
          <g id="路径_54" data-name="路径 54" transform="translate(43.304 60.344)" fill="url(#linear-gradient-19)">
            <path d="M-32.974,16.315l49.394,19.8,50.76-16.5L15.716-.586Z" stroke="none"/>
            <path d="M 15.69473266601562 0.4797248840332031 L -30.11835479736328 16.3820858001709 L 16.45611190795898 35.05252075195312 L 64.21829986572266 19.52445793151855 L 15.69473266601562 0.4797248840332031 M 15.71599769592285 -0.5861892700195312 L 67.1806640625 19.61287879943848 L 16.42051696777344 36.1156120300293 L -32.97388458251953 16.31474494934082 L 15.71599769592285 -0.5861892700195312 Z" stroke="none" fill="rgba(68,213,250,0.11)"/>
          </g>
          <g transform="matrix(1, 0, 0, 1, -122.74, -48.02)" filter="url(#路径_48)">
            <path id="路径_48-2" data-name="路径 48" d="M9.26-14.828l52.7-16.9L58.426,28.193,7.83,44.514Z" transform="translate(174.56 99.57)" fill="#fff"/>
          </g>
          <path id="路径_50" data-name="路径 50" d="M9.26-14.828l52.7-16.9L58.426,28.193,7.83,44.514Z" transform="translate(51.82 51.549)" fill="rgba(56,183,253,0.25)"/>
          <g transform="matrix(1, 0, 0, 1, -122.74, -48.02)" filter="url(#路径_49)">
            <path id="路径_49-2" data-name="路径 49" d="M20.141-60.8l48.536,19.93L67.3,18.585,17.64-1.1Z" transform="translate(115.17 125.57)" fill="#fff"/>
          </g>
          <g id="路径_47" data-name="路径 47" transform="translate(45.302 0.586)" fill="url(#linear-gradient-20)">
            <path d="M-32.773,16.161,17.162-.586l51.471,19.82-52.854,16.9Z" stroke="none"/>
            <path d="M 17.13841819763184 0.4763908386230469 L -29.91238403320312 16.25651168823242 L 15.82196235656738 35.0712776184082 L 65.62290191650391 19.14653968811035 L 17.13841819763184 0.4763908386230469 M 17.16179084777832 -0.5861854553222656 L 68.63273620605469 19.23397636413574 L 15.77897834777832 36.13491058349609 L -32.77274322509766 16.16109657287598 L 17.16179084777832 -0.5861854553222656 Z" stroke="none" fill="rgba(56,183,253,0.11)"/>
          </g>
          <g id="路径_52" data-name="路径 52" transform="translate(34.973 17.334)" fill="none">
            <path d="M-34.973,20.468,27.324-.586l61.752,24.23L25.64,44.114Z" stroke="none"/>
            <path d="M 27.28520965576172 1.010116577148438 L -30.58682250976562 20.56871604919434 L 25.68783187866211 42.52278900146484 L 84.61798095703125 23.5061206817627 L 27.28520965576172 1.010116577148438 M 27.32353019714355 -0.586181640625 L 89.0755615234375 23.64383506774902 L 25.64023017883301 44.11431884765625 L -34.972900390625 20.46770286560059 L 27.32353019714355 -0.586181640625 Z" stroke="none" fill="rgba(56,183,253,0.25)"/>
          </g>
          <g id="路径_53" data-name="路径 53" transform="translate(34.973 31.759)" fill="none">
            <path d="M-34.973,20.468,27.324-.586l61.752,24.23L25.64,44.114Z" stroke="none"/>
            <path d="M 27.28520965576172 1.010116577148438 L -30.58682250976562 20.56871604919434 L 25.68783187866211 42.52278900146484 L 84.61798095703125 23.5061206817627 L 27.28520965576172 1.010116577148438 M 27.32353019714355 -0.586181640625 L 89.0755615234375 23.64383506774902 L 25.64023017883301 44.11431884765625 L -34.972900390625 20.46770286560059 L 27.32353019714355 -0.586181640625 Z" stroke="none" fill="rgba(56,183,253,0.25)"/>
          </g>
          <path id="路径_51" data-name="路径 51" d="M20.141-60.8l48.536,19.93L67.3,18.585,17.64-1.1Z" transform="translate(-7.575 77.551)" fill="rgba(56,183,253,0.25)"/>
          <g id="椭圆_61" data-name="椭圆 61" transform="translate(32.24 66.586)" fill="none" stroke="rgba(56,183,253,0.2)" stroke-width="1.5">
            <ellipse cx="28" cy="10.5" rx="28" ry="10.5" stroke="none"/>
            <ellipse cx="28" cy="10.5" rx="27.25" ry="9.75" fill="none"/>
          </g>
        </g>
      </g>
      <g id="组_74" data-name="组 74" transform="translate(174.017 102.817)">
        <path id="联合_3" data-name="联合 3" d="M.12,15.421H0V5.875H7.932C15.434,2.313,27.559,0,41.241,0s25.807,2.313,33.31,5.875h7.932v9.546h-.12C80.742,22.815,62.95,28.64,41.241,28.64S1.74,22.815.12,15.421Z" transform="translate(0 44.678)" fill="url(#linear-gradient-21)"/>
        <ellipse id="椭圆_65" data-name="椭圆 65" cx="41.241" cy="14.32" rx="41.241" ry="14.32" transform="translate(0 35.513)" fill="url(#linear-gradient-22)"/>
        <path id="联合_4" data-name="联合 4" d="M.013,49.98H0V0H82.483V49.98H82.47c-.56,7.862-18.8,14.173-41.228,14.173S.574,57.841.013,49.98Z" fill="url(#linear-gradient-23)"/>
      </g>
      <g id="组_76" data-name="组 76" transform="translate(6.516 13)">
        <path id="减去_1" data-name="减去 1" d="M43.362,21.17.007,11.957l0-.008H0V2.792L78.784,0V9.125l.02.014-.02.007v.013h-.041L43.362,21.17h0Z" transform="translate(3.507 48.005)" fill="url(#linear-gradient-24)"/>
        <path id="路径_55" data-name="路径 55" d="M18.789,0,50.536,35.474l2.273,27.664-32-19.417L0,4.588Z" transform="translate(0 47.855) rotate(-50)" fill="url(#linear-gradient-25)"/>
        <path id="联合_6" data-name="联合 6" d="M.318,50.833l-.3.011L0,0H79.15l-.115,47.988-.073,0L43.535,60.017Z" transform="translate(3.334)" fill="url(#linear-gradient-26)"/>
      </g>
      <g id="组_342" data-name="组 342" transform="translate(230.395 -12)">
        <path id="减去_1-2" data-name="减去 1" d="M43.361,0h0L.007,9.213l0,.007H0v9.158L78.784,21.17V12.046l.02-.014-.02-.007v-.013h-.041L43.362,0Z" transform="translate(78.977 69.175) rotate(180)" fill="url(#linear-gradient-27)"/>
        <path id="路径_55-2" data-name="路径 55" d="M18.789,63.138,50.536,27.664,52.808,0l-32,19.417L0,58.551Z" transform="translate(34.117 88.439) rotate(-130)" fill="url(#linear-gradient-28)"/>
        <path id="联合_6-2" data-name="联合 6" d="M.318,9.184l-.3-.011L0,60.017H79.15l-.115-47.988-.073,0L43.535,0Z" transform="translate(79.15 60.017) rotate(180)" fill="url(#linear-gradient-29)"/>
      </g>
      <g id="组_72" data-name="组 72" transform="translate(34.178 97.871)">
        <path id="路径_61" data-name="路径 61" d="M3.57-5.178l-19.105,34.6L64.928,13.676Z" transform="translate(28.589 32.016)" fill="url(#linear-gradient-30)"/>
        <path id="联合_8" data-name="联合 8" d="M8.875,16.067l.543-.111-.66-.209L86.909,0l-.1.178,1.54-.314,13.05,61.13L0,61.439Z" transform="translate(101.404 61.439) rotate(180)" fill="url(#linear-gradient-31)"/>
        <path id="联合_7" data-name="联合 7" d="M0,15.747v-.133l23.072-4.382L80.464,0l-.244.426.234,9.2-6.217,1.224-.14.244-28.9,5.678L19.718,21.91,19.06,21.7,0,25.455Z" transform="translate(93.517 71.137) rotate(180)" fill="url(#linear-gradient-32)"/>
      </g>
      <g id="组_341" data-name="组 341" transform="translate(262.178 80.871)">
        <path id="路径_61-2" data-name="路径 61" d="M45.823-5.178l19.105,34.6L-15.535,13.676Z" transform="translate(23.422 32.016)" fill="url(#linear-gradient-33)"/>
        <path id="联合_8-2" data-name="联合 8" d="M86.739,61.121l.171.318L8.758,45.692l.662-.209-.545-.11L0,0,101.4.446,88.384,61.454Z" transform="translate(0)" fill="url(#linear-gradient-34)"/>
        <path id="联合_7-2" data-name="联合 7" d="M23.4,14.6,0,10.155V.317L19.051,4.065l.667-.209L45.192,9l28.9,5.678.142.247,6.216,1.223-.234,9.194.244.426Z" transform="translate(7.887 45.371)" fill="url(#linear-gradient-35)"/>
      </g>
    </g>
  </g>
</svg>
