<svg xmlns="http://www.w3.org/2000/svg" width="164" height="29" viewBox="0 0 164 29"><defs><style>.a{fill:#728f91;}.b{fill:#43d2c4;}.c{fill:#fff;}</style></defs><g transform="translate(-1549 -229)"><rect class="a" width="164" height="2.87" rx="1.435" transform="translate(1549 242.13)"/><rect class="b" width="86" height="2.87" rx="1.435" transform="translate(1549 242.13)"/><path class="b" d="M3.5,0C5.433,0,7,1.119,7,2.5S5.433,5,3.5,5,0,3.881,0,2.5,1.567,0,3.5,0Z" transform="translate(1631 241)"/><path class="b" d="M3.5,0C5.433,0,7,1.119,7,2.5S5.433,5,3.5,5,0,3.881,0,2.5,1.567,0,3.5,0Z" transform="translate(1631 241)"/><path class="c" d="M3.5,0C5.433,0,7,1.119,7,2.5S5.433,5,3.5,5,0,3.881,0,2.5,1.567,0,3.5,0Z" transform="translate(1631 241)"/></g></svg>