<?xml version="1.0" encoding="UTF-8"?>
<svg width="60px" height="34px" viewBox="0 0 60 34" version="1.1" xmlns="http://www.w3.org/2000/svg" xmlns:xlink="http://www.w3.org/1999/xlink">
    <title>3.导航/开关/关-选中</title>
    <defs>
        <linearGradient x1="50%" y1="0%" x2="50%" y2="100%" id="linearGradient-1">
            <stop stop-color="#0085CE" offset="0%"></stop>
            <stop stop-color="#38B7FD" offset="100%"></stop>
        </linearGradient>
    </defs>
    <g id="3.导航/开关/关-选中" stroke="none" stroke-width="1" fill="none" fill-rule="evenodd">
        <path d="M59.5,0.5 L59.5,33.5 L0.5,33.5 L0.5,0.5 L59.5,0.5 Z" id="矩形" stroke="#3889FF" fill="url(#linearGradient-1)" transform="translate(30.000000, 17.000000) scale(-1, 1) translate(-30.000000, -17.000000) "></path>
        <path d="M50,8 C51.1045695,8 52,7.1045695 52,6 C52,4.8954305 51.1045695,4 50,4 C48.8954305,4 48,4.8954305 48,6 C48,7.1045695 48.8954305,8 50,8 Z" id="椭圆形" fill="#FFFFFF"></path>
        <g id="编组" transform="translate(20.000000, 7.000000)" fill="#FFFFFF" fill-rule="nonzero">
            <g id="1.图标/2.设计/">
                <path d="M4.77003175,0.923480877 L5.816,2.73387652 L18.125,2.734375 C18.4392756,2.734375 18.6986699,2.96519886 18.7432352,3.26689871 L18.75,3.359375 L18.75,13.046875 C18.75,13.3925781 18.4707031,13.671875 18.125,13.671875 L18.125,13.671875 L12.13,13.6708765 L13.393,15.8588765 L13.7083333,15.859375 C14.0430514,15.859375 14.3201553,16.1060501 14.3677716,16.4275266 L14.375,16.5260417 L14.375,16.5989583 C14.375,16.8106449 14.2763372,16.9992875 14.1224878,17.1214099 L14.7700318,18.243989 C14.9426207,18.5429218 14.8401988,18.9251658 14.5412659,19.0977548 C14.242333,19.2703438 13.860089,19.1679218 13.6875,18.868989 L3.6875,1.54848088 C3.51491102,1.24954799 3.61733299,0.867303984 3.91626588,0.694715 C4.21519877,0.522126016 4.59744277,0.624547988 4.77003175,0.923480877 Z M9.296,13.7638765 L11.317,17.2648765 L6.29166667,17.265625 C5.95694864,17.265625 5.67984466,17.0189499 5.63222838,16.6974734 L5.625,16.5989583 L5.625,16.5260417 C5.625,16.1578518 5.92347683,15.859375 6.29166667,15.859375 L6.29166667,15.859375 L9.296875,15.859375 L9.296,13.7638765 Z M2.928,2.73387652 L9.242,13.6708765 L1.875,13.671875 C1.56072443,13.671875 1.30133006,13.4410511 1.25676477,13.1393513 L1.25,13.046875 L1.25,3.359375 C1.25,3.01367188 1.52929688,2.734375 1.875,2.734375 L1.875,2.734375 L2.928,2.73387652 Z" id="形状结合"></path>
            </g>
        </g>
    </g>
</svg>