<svg xmlns="http://www.w3.org/2000/svg" xmlns:xlink="http://www.w3.org/1999/xlink" width="229.026" height="148.108" viewBox="0 0 229.026 148.108"><defs><style>.a{fill:rgba(77,100,113,0.27);}.b{fill:rgba(79,100,112,0.27);}.c{fill:rgba(127,138,143,0.57);}.d{fill:rgba(116,163,191,0.39);}.e{fill:rgba(117,130,138,0.57);}.f{fill:url(#a);}.g{fill:rgba(74,94,106,0.27);}.h{fill:rgba(151,179,196,0.57);}.i,.j{fill:none;}.i{stroke:rgba(67,98,116,0.65);}.j{stroke:#38b7fd;}</style><linearGradient id="a" x1="0.587" y1="0.701" x2="0.637" y2="0.182" gradientUnits="objectBoundingBox"><stop offset="0" stop-color="#22b2ff"/><stop offset="1" stop-color="#2ee0f6"/></linearGradient></defs><g transform="translate(-79.187 -676.796)"><path class="a" d="M-9.358-8.565l8.026-2,16.206-3.859,11.962,1.775,10.418,1.235,4.322,9.106L55.311,10.658,30.694,16.291,36.4,20.458l3.709,1.983L56.285,44.613,42.353,49.055l3.265,7L-.708,63.946l-7.956-9.731,4.956-9.6,1.866-9.059-1.866-3.592-5.651-3.555-3.859-3.473L-23.712,21l-4.476-1.7,1.08-1-4.013-9.569V2.346L-32.557-.827V-4.8l.815-1.885,3.555-1.882Z" transform="translate(113 695)"/><path class="b" d="M-31.363-14.423l21.469-6.022,27.489,3.511L30.235-.481,60,11.325l-4.5.333H30.737l-15.4-.867L2.6,12.206l-9.087,1.416-4.475,1.187-13.379,3.014h-3.973L-48.04,17.5l-5.982-3.927,24.476-5.525-13.608-12.6-2.877-5.388-1.507-3.653,5.343.685Z" transform="translate(198 697.727)"/><path class="c" d="M15.341-15.916l3.762,2.56,1.638,3.275L20.2-2.133,14.568,9.057l7.64,9.955-30.88,6.844-.51-2.271-1.066-10.52L-9.182-.42l7.037-11.1Z" transform="translate(90 740.049)"/><path class="d" d="M-23.945-25.91,22.208-33.6,38.917-15.737,3.573-6.217-39.7,10.9l-.663-.482-5.121-4.277L-49.216.052-52.409-8.2l-1.325-2.711-.542-3.142-.931-4.912Z" transform="translate(136.629 784.826)"/><path class="e" d="M-12.276-30.215l35.136-8.821,1.158,1.08-1.158,4.322,6.405,8.257,2.006,8.412L55.443,7.607-20.5,15.433-49.5,5.2l-6.2-18.3Z" transform="translate(152.629 808.826)"/><path class="f" d="M-21.648-30.721l2.608-.913-.652-2-9.26-5.7H.654l21.78,7.695L48.616-2.2,32.607,29.142,7.175,11.4-4.433,8.926l-7.825-4.173L-22.692,3.71l-7.695-25.432L-41.342-22.9l-19.954,3-3.521-4.826,3.521-2.739,15.39-2.608Z" transform="translate(258.753 748.948)"/><path class="g" d="M-16.112-16.934,15.341-27.481,26.275-25,51.837-7.135l-21.1,18.793L15.341,25.34-3.461,26.9l-28.171,4.043L-54.977,6.429l-2.478-9-6.26-7.37,1.826-4.483,22.824-1.32Z" transform="translate(239 785.353)"/><path class="h" d="M-33.2-11.823l19.37-7.409,24.464-2.624,6.729,1.12L24.931,4.306l10.711.849L42.51,9.631,11.873,20.281-33.581,22.21l-17.287-17.9-4.708-7.872.6-1.312,14.141-3.55-1.775-3.087Z" transform="translate(211 748.353)"/><path class="e" d="M-15.072-18.462,1.682-20.87H14.423l11.738,4.515,3.411,2.909-.6,2.207-23.877.7L-9.855-8.731l-4.314,1.906-1.5,2.207,2.508,3.712L-17.379,1.3l-9.129,3.411-5.518,2.408H-42.094L-58.411-13.446h21.77Z" transform="translate(210 729.353)"/><g transform="translate(121 -280)"><path class="i" d="M28.959,963.585l4.7,9.191,13.891,13L22.2,991.415l9.914,5.877,16.918,22.32s-8.311,3.562-13.594,3.74,8.548,15.434,8.548,15.434l12,11.9-1.543,4.408,6.612,8.155,1.984,8.6,23.71,24.321"/><path class="i" d="M-39.811,1045.952-8.6,1039.23l-8.155-10.359s13.886-18.955,1.763-24.245,44.082-9.037,44.082-9.037H52.457s40.776-11.02,55.323-5.731,10.139,8.376,10.139,8.376-59.511-1.543-40.776,10.8c28.874-5.51,30.637-.882,30.637-.882l7.053,24.465,10.58.882,6.833,4.188,12.343,2.645,11.241,8.376,13.886,9.257"/><path class="i" d="M-23.768,1075.6l43.538-17.153,35.211-8.943"/><path class="i" d="M-9.033,1039.295l46.855-8.066"/><path class="i" d="M107.736,989.682h31.388" transform="translate(-0.242)"/><path class="i" d="M46.991,1016.5h9.742l19.484-7.62"/><path class="j" d="M95.73,961.029,67.794,957.3l-29.8,7.45-27.937-3.725s-1.862-1.49-11.547,1.49a134.935,134.935,0,0,1-15.02,3.9s-16.84-1.425-21.665.662-1.081,10.55-1.081,10.55v6.391s6,10.042,2.869,9.651c-2.889-.361,12.407,5.452,15.028,6.413l.145.125,4.7,3.74-16.636,4.241-4.1,7.229s-7.019,2.711-2.585,29.448,15.586,30.623,15.586,30.623l6.246,19,29.084,9.912,76.569-8.282,46.416-5.674,36.415-32.276,16.124-31.3-26.725-29.447-52.722-19.771Z"/></g></g></svg>