<?xml version="1.0" encoding="UTF-8"?>
<svg width="152px" height="48px" viewBox="0 0 152 48" version="1.1" xmlns="http://www.w3.org/2000/svg" xmlns:xlink="http://www.w3.org/1999/xlink">
    <title>-mockplus-</title>
    <defs>
        <filter x="-14.8%" y="-14.8%" width="129.5%" height="129.5%" filterUnits="objectBoundingBox" id="filter-1">
            <feGaussianBlur stdDeviation="1.53846154" in="SourceGraphic"></feGaussianBlur>
        </filter>
    </defs>
    <g id="页面" stroke="none" stroke-width="1" fill="none" fill-rule="evenodd">
        <g id="摄像头" transform="translate(-268.000000, -356.000000)">
            <g id="气泡展开" transform="translate(248.000000, 168.000000)">
                <g id="数据" transform="translate(20.000000, 188.000000)">
                    <g id="1" transform="translate(-4.000000, -4.000000)">
                        <path d="M160,52 L156,56 L4,56 L0,52 L0,4 L4,0 L156,0 L160,4 L160,52 Z" id="形状结合" fill="#38B7FD"></path>
                        <text id="3" font-family="HelveticaNeue-Bold, Helvetica Neue" font-size="28" font-weight="bold" fill="#FFFFFF">
                            <tspan x="56" y="47">3</tspan>
                        </text>
                        <text id="停车场总数/个" font-family="SourceHanSansCN-Regular, Source Han Sans CN" font-size="12" font-weight="normal" fill="#FFFFFF">
                            <tspan x="56" y="19">停车场总数/个</tspan>
                        </text>
                        <g id="图标" transform="translate(8.000000, 8.000000)">
                            <g id="图标bg" stroke="#FFFFFF">
                                <path d="M20,0 C8.954305,0 0,8.954305 0,20 C0,31.045695 8.954305,40 20,40 C31.045695,40 40,31.045695 40,20" id="路径" stroke-width="1.53846154" opacity="0.244396391"></path>
                                <path d="M40,20 C40,8.954305 31.045695,0 20,0" id="路径" stroke-width="1.53846154" stroke-dasharray="1.538461538461539,1.538461538461539"></path>
                                <path d="M40,20 C40,8.954305 31.045695,0 20,0" id="路径" stroke-width="0.5" stroke-dasharray="1.538461538461539,1.538461538461539"></path>
                                <circle id="椭圆形" stroke-width="0.769230769" filter="url(#filter-1)" cx="20" cy="20" r="16.9230769"></circle>
                                <circle id="椭圆形" stroke-width="0.5" cx="20" cy="20" r="16.9230769"></circle>
                            </g>
                            <g id="编组" transform="translate(10.000000, 10.000000)" fill="#FFFFFF" fill-rule="nonzero">
                                <g id="1.图标/2.设计/">
                                    <path d="M10,3.125 C13.7906805,3.125 16.875,6.20931952 16.875,10 C16.875,13.7906805 13.7906805,16.875 10,16.875 C6.20931952,16.875 3.125,13.7906805 3.125,10 C3.125,6.20931952 6.20931954,3.125 10,3.125 Z M9.83725134,7.25 C9.49367087,7.25 9.15732367,7.30063291 8.83544304,7.40189873 C8.5352622,7.49593129 8.32911392,7.77802894 8.32911392,8.09267631 L8.32911392,12.5556058 L9.77576853,12.5556058 L9.77576853,11.6008137 L9.83725134,11.6008137 C11.6130199,11.6008137 12.5424955,10.5049729 12.5424955,9.42721519 C12.5424955,8.20479205 11.3562387,7.25 9.83725134,7.25 Z M9.77576853,8.70027124 C10.5135624,8.68942134 11.0922242,9.07640144 11.0922242,9.42721519 C11.0958409,9.8539783 10.5786618,10.1541591 9.83725134,10.1541591 L9.77576853,10.1541591 L9.77576853,8.70027124 Z M18.1735706,6.13474274 C18.5813459,5.94744848 19.0637451,6.12618367 19.2510394,6.53395896 C19.7462772,7.61218599 20.0061288,8.7885165 20.0061288,10 C20.0061288,11.210961 19.7465015,12.3868023 19.2516749,13.4646571 C19.0644557,13.8724668 18.5820894,14.0512908 18.1742796,13.8640716 C17.7664699,13.6768524 17.5876459,13.1944861 17.7748651,12.7866763 C18.172537,11.9204486 18.3811288,10.975745 18.3811288,10 C18.3811288,9.0238347 18.1723569,8.07873888 17.7743544,7.21221149 C17.5870601,6.80443619 17.7657953,6.322037 18.1735706,6.13474274 Z M0.755089437,6.53395896 C0.9423837,6.12618367 1.42478289,5.94744848 1.83255819,6.13474274 C2.24033348,6.322037 2.41906867,6.80443619 2.23177441,7.21221149 C1.83377185,8.07873888 1.625,9.0238347 1.625,10 C1.625,10.975745 1.83359182,11.9204486 2.23126371,12.7866763 C2.41848291,13.1944861 2.23965894,13.6768524 1.83184918,13.8640716 C1.42403942,14.0512908 0.94167313,13.8724668 0.754453922,13.4646571 C0.259627328,12.3868023 0,11.210961 0,10 C0,8.7885165 0.259851645,7.61218599 0.755089437,6.53395896 Z" id="形状"></path>
                                </g>
                            </g>
                        </g>
                    </g>
                </g>
            </g>
        </g>
    </g>
</svg>