<?xml version="1.0" encoding="UTF-8"?>
<svg width="44px" height="44px" viewBox="0 0 44 44" version="1.1" xmlns="http://www.w3.org/2000/svg" xmlns:xlink="http://www.w3.org/1999/xlink">
    <title>图标</title>
    <defs>
        <filter x="-14.8%" y="-14.8%" width="129.5%" height="129.5%" filterUnits="objectBoundingBox" id="filter-1">
            <feGaussianBlur stdDeviation="1.53846154" in="SourceGraphic"></feGaussianBlur>
        </filter>
    </defs>
    <g id="页面" stroke="none" stroke-width="1" fill="none" fill-rule="evenodd">
        <g id="摄像头" transform="translate(-270.000000, -414.000000)">
            <g id="气泡展开" transform="translate(248.000000, 168.000000)">
                <g id="数据" transform="translate(20.000000, 188.000000)">
                    <g id="-mockplus-" transform="translate(0.000000, 56.000000)">
                        <g id="图标" transform="translate(4.000000, 4.000000)">
                            <g id="图标bg">
                                <path d="M20,0 C8.954305,0 0,8.954305 0,20 C0,31.045695 8.954305,40 20,40 C31.045695,40 40,31.045695 40,20" id="路径" stroke="#FFFFFF" stroke-width="1.53846154" opacity="0.244396391"></path>
                                <path d="M40,20 C40,8.954305 31.045695,0 20,0" id="路径" stroke="#A92929" stroke-width="1.53846154" stroke-dasharray="1.538461538461539,1.538461538461539"></path>
                                <path d="M40,20 C40,8.954305 31.045695,0 20,0" id="路径" stroke="#FF3434" stroke-width="0.5" stroke-dasharray="1.538461538461539,1.538461538461539"></path>
                                <circle id="椭圆形" stroke="#38FDDF" stroke-width="0.769230769" filter="url(#filter-1)" cx="20" cy="20" r="16.9230769"></circle>
                                <circle id="椭圆形" stroke="#38FDDF" stroke-width="0.5" cx="20" cy="20" r="16.9230769"></circle>
                            </g>
                            <g id="编组" transform="translate(10.000000, 10.000000)" fill="#38B7FD" fill-rule="nonzero">
                                <g id="1.图标/2.设计/">
                                    <path d="M8.30133334,0.92933334 L8.096,0.92933334 C8.096,0.92933334 8.04466666,0.92933334 8.04466666,0.98066666 L7.99333334,0.98066666 L7.942,1.032 L7.89066666,1.08333334 L7.89066666,1.28833334 C7.89066666,1.28833334 7.89066666,1.33966668 7.942,1.33966666 L7.942,1.391 C8.71066666,2.67233334 8.40333334,4.15833334 7.01966666,5.84966666 C6.76333332,6.157 6.40466666,6.516 5.99466666,6.977 C4.96966666,7.84833334 4.04733332,8.822 3.53466666,9.642 C2.86833332,10.6156667 2.66333332,11.743 2.91966666,12.768 C3.227,14.1003333 4.30333332,15.3303333 6.097,16.3553333 C6.14833334,16.4066667 6.19933334,16.4066667 6.25066666,16.4066667 C6.302,16.4066667 6.35333332,16.4066667 6.40433334,16.3553333 C6.45566668,16.304 6.50666668,16.304 6.50666666,16.253 L6.50666666,16.0476667 C6.50666666,15.9963333 6.50666666,15.9963333 6.45533334,15.9963333 L6.45533334,15.945 C5.43033334,14.4586667 6.45533334,12.7676667 7.12166666,11.9476667 L7.173,11.8963333 C7.83933334,11.025 8.50533334,10.359 9.06933334,9.744 C9.47933334,9.334 9.838,8.97533334 10.1456667,8.56533334 C11.2736667,7.18133334 11.6836667,5.90033334 11.4786667,4.67033334 C11.2223333,3.28666668 10.1463333,2.00533334 8.30133334,0.92933334 Z M14.656,4.92633334 C16.347,5.9 17.3206667,7.07866666 17.577,8.36 C17.782,9.48766666 17.4233333,10.615 16.5516667,11.999 C16.2953333,12.3066667 15.9366667,12.6653333 15.578,13.024 C15.0143333,13.5363333 14.4506667,14.1513333 13.8356667,14.9713333 L13.8356667,14.9713333 L13.7843333,15.0226667 C13.1693333,15.7913333 12.298,17.2776667 13.1693333,18.61 L13.1693333,18.61 L13.1693333,18.6613333 C13.2206667,18.6613333 13.2206667,18.7126667 13.2206667,18.7126667 L13.2206667,18.918 C13.2206667,18.969 13.1693333,18.969 13.118,19.0203333 C13.0666667,19.0716667 13.0156667,19.0716667 12.9643333,19.0716667 C12.9133333,19.0716667 12.862,19.0716667 12.8106667,19.0203333 C11.171,18.0463333 10.197,16.9703333 9.88966666,15.7403333 C9.68466668,14.7666667 9.88966668,13.7416667 10.4533333,12.8703333 C10.9143333,12.1016667 11.7856667,11.179 12.5543333,10.4103333 C12.913,10.0003333 13.2716667,9.64166668 13.4766667,9.38533334 C14.7066667,7.848 15.014,6.51533334 14.2966667,5.388 L14.2966667,5.388 L14.2966667,5.33666666 C14.2453333,5.33666668 14.2453333,5.28533334 14.2453333,5.28533334 L14.2453333,5.28533334 L14.2453333,5.08033334 L14.2966667,5.029 L14.348,4.97766666 L14.3993333,4.97766666 C14.3993333,4.92633334 14.3993333,4.92633334 14.4506667,4.92633334 L14.4506667,4.92633334 Z M4.2862657,0.625 C4.69165138,0.969165329 4.92506978,1.38579272 4.98652091,1.83871006 C5.03566583,2.2373103 4.94968219,2.63579272 4.74071639,3.125 C4.67926526,3.233752 4.59328162,3.36053116 4.50729799,3.4873103 C4.37216943,3.66840654 4.23704087,3.88579273 4.0896061,4.17564097 L4.0896061,4.17564097 L4.0772999,4.19378594 C3.92986513,4.46548921 3.72097924,4.9908686 3.92986513,5.46181309 L3.92986513,5.46181309 L3.92986513,5.47995806 C3.94217134,5.47995805 3.94217134,5.49810303 3.94217134,5.49810303 L3.94217134,5.49810303 L3.94217134,5.57068291 C3.94217134,5.58871006 3.92986513,5.58871006 3.91755892,5.60685503 C3.90525272,5.625 3.89302642,5.625 3.88072021,5.625 C3.86849391,5.625 3.8561877,5.625 3.84388149,5.60685503 C3.45080203,5.26257188 3.21730372,4.88223443 3.14362629,4.44746206 C3.09448137,4.10329673 3.14362629,3.74098643 3.27875485,3.43299322 C3.38927099,3.16128995 3.59815689,2.83515176 3.78243037,2.56344849 C3.868414,2.41852437 3.95439764,2.29174522 4.00354256,2.20113819 C4.29841209,1.65773164 4.37208952,1.18666934 4.20012225,0.788186915 L4.20012225,0.788186915 L4.20012225,0.770041941 C4.18781604,0.770041948 4.18781604,0.751896974 4.18781604,0.751896974 L4.18781604,0.751896974 L4.18781604,0.679434914 L4.20012225,0.66128994 L4.21242846,0.643144967 L4.22473466,0.643144967 C4.22473466,0.625 4.22473466,0.625 4.23704087,0.625 Z" id="形状"></path>
                                </g>
                            </g>
                        </g>
                    </g>
                </g>
            </g>
        </g>
    </g>
</svg>