<?xml version="1.0" encoding="UTF-8"?>
<svg width="44px" height="44px" viewBox="0 0 44 44" version="1.1" xmlns="http://www.w3.org/2000/svg" xmlns:xlink="http://www.w3.org/1999/xlink">
    <title>图标</title>
    <defs>
        <filter x="-14.8%" y="-14.8%" width="129.5%" height="129.5%" filterUnits="objectBoundingBox" id="filter-1">
            <feGaussianBlur stdDeviation="1.53846154" in="SourceGraphic"></feGaussianBlur>
        </filter>
    </defs>
    <g id="页面" stroke="none" stroke-width="1" fill="none" fill-rule="evenodd">
        <g id="摄像头" transform="translate(-438.000000, -414.000000)">
            <g id="气泡展开" transform="translate(248.000000, 168.000000)">
                <g id="数据" transform="translate(20.000000, 188.000000)">
                    <g id="-mockplus-" transform="translate(168.000000, 56.000000)">
                        <g id="图标" transform="translate(4.000000, 4.000000)">
                            <g id="图标bg">
                                <path d="M20,0 C8.954305,0 0,8.954305 0,20 C0,31.045695 8.954305,40 20,40 C31.045695,40 40,31.045695 40,20" id="路径" stroke="#FFFFFF" stroke-width="1.53846154" opacity="0.244396391"></path>
                                <path d="M40,20 C40,8.954305 31.045695,0 20,0" id="路径" stroke="#A92929" stroke-width="1.53846154" stroke-dasharray="1.538461538461539,1.538461538461539"></path>
                                <path d="M40,20 C40,8.954305 31.045695,0 20,0" id="路径" stroke="#FF3434" stroke-width="0.5" stroke-dasharray="1.538461538461539,1.538461538461539"></path>
                                <circle id="椭圆形" stroke="#38FDDF" stroke-width="0.769230769" filter="url(#filter-1)" cx="20" cy="20" r="16.9230769"></circle>
                                <circle id="椭圆形" stroke="#38FDDF" stroke-width="0.5" cx="20" cy="20" r="16.9230769"></circle>
                            </g>
                            <g id="编组" transform="translate(10.000000, 10.000000)" fill="#38B7FD" fill-rule="nonzero">
                                <g id="1.图标/2.设计/">
                                    <polygon id="路径" points="12.46875 5.21912494e-15 12.2276786 8.54026442 16.875 8.54026442 7.53571429 20 7.77678571 11.4597356 3.125 11.4597356"></polygon>
                                </g>
                            </g>
                        </g>
                    </g>
                </g>
            </g>
        </g>
    </g>
</svg>