<svg xmlns="http://www.w3.org/2000/svg" xmlns:xlink="http://www.w3.org/1999/xlink" viewBox="0 -15 330 240">
  <defs>
    <style>
      .a,
      .ax,
      .b,
      .c,
      .e,
      .i,
      .j {
        fill: none;
      }

      .a {
        stroke: rgba(56, 183, 253, 0.66);
      }

      .b {
        stroke: rgba(56, 183, 253, 0.55);
        stroke-width: 2px;
        stroke-dasharray: 8 10;
      }

      .c {
        stroke: rgba(56, 183, 253, 0.49);
      }

      .d,
      .g,
      .m {
        fill: #38b7fd;
      }

      .e {
        stroke: rgba(56, 183, 253, 0.52);
      }

      .f,
      .k,
      .q {
        fill: #fff;
      }

      .f {
        font-size: 24px;
      }

      .f,
      .m,
      .n,
      .t {
        font-family: SegoeUI, Segoe UI;
      }

      .g,
      .k {
        font-size: 12px;
      }

      .g,
      .l {
        font-family: MicrosoftJhengHeiUIRegular, Microsoft JhengHei UI;
      }

      .h,
      .k {
        font-family: YuGothicUI-Regular, Yu Gothic UI;
      }

      .j {
        stroke-dasharray: 5 4;
      }

      .k {
        opacity: 0.75;
      }

      .m,
      .n {
        font-size: 22px;
      }

      .n,
      .u {
        fill: #20f09d;
      }

      .o {
        fill: rgba(120, 164, 251, 0.41);
      }

      .p {
        fill: #437ef3;
      }

      .r {
        fill: #728f91;
      }

      .s {
        fill: #43d2c4;
      }

      .t {
        fill: #2cfcbd;
        font-size: 18px;
      }

      .v {
        fill: url(#a);
      }

      .w {
        fill: url(#b);
      }

      .x {
        fill: url(#f);
      }

      .y {
        fill: url(#g);
      }

      .z {
        fill: url(#h);
      }

      .aa {
        fill: url(#l);
      }

      .ab {
        fill: url(#m);
      }

      .ac {
        fill: url(#n);
      }

      .ad {
        fill: url(#r);
      }

      .ae {
        fill: url(#s);
      }

      .af {
        fill: url(#t);
      }

      .ag {
        fill: url(#x);
      }

      .ah {
        fill: url(#y);
      }

      .ai {
        fill: url(#z);
      }

      .aj {
        fill: url(#ad);
      }

      .ak {
        fill: url(#ae);
      }

      .al {
        fill: url(#af);
      }

      .am {
        fill: url(#aj);
      }

      .an {
        fill: url(#ak);
      }

      .ao {
        fill: url(#al);
      }

      .ap {
        fill: url(#ap);
      }

      .aq {
        fill: url(#aq);
      }

      .ar {
        fill: url(#ar);
      }

      .as {
        fill: url(#av);
      }

      .at {
        fill: url(#aw);
      }

      .au {
        fill: #718e8f;
      }

      .av {
        fill: #4d5f83;
      }

      .aw,
      .ay,
      .az {
        stroke: none;
      }

      .ay {
        fill: rgba(56, 183, 253, 0.63);
      }

      .az {
        fill: rgba(32, 240, 157, 0.47);
      }

      .ba {
        filter: url(#as);
      }

      .bb {
        filter: url(#am);
      }

      .bc {
        filter: url(#ag);
      }

      .bd {
        filter: url(#aa);
      }

      .be {
        filter: url(#u);
      }

      .bf {
        filter: url(#o);
      }

      .bg {
        filter: url(#i);
      }

      .bh {
        filter: url(#c);
      }
    </style>
    <linearGradient id="a" x1="-0.023" y1="0.643" x2="1" y2="0.626" gradientUnits="objectBoundingBox">
      <stop offset="0" stop-color="#42d1c4" />
      <stop offset="1" stop-color="#2e827a" />
    </linearGradient>
    <radialGradient id="b" cx="0.5" cy="0.5" r="0.641"
      gradientTransform="matrix(0.699, 0.715, -0.698, 0.682, 0.499, -0.199)" gradientUnits="objectBoundingBox">
      <stop offset="0" stop-color="#42d1c4" />
      <stop offset="1" stop-color="#439890" />
    </radialGradient>
    <filter id="c">
      <feOffset dx="15" dy="3" input="SourceAlpha" />
      <feGaussianBlur stdDeviation="4.5" result="d" />
      <feFlood flood-color="#36b2a7" result="e" />
      <feComposite operator="out" in="SourceGraphic" in2="d" />
      <feComposite operator="in" in="e" />
      <feComposite operator="in" in2="SourceGraphic" />
    </filter>
    <linearGradient id="f" x1="0.241" y1="0.609" x2="0.908" y2="0.684" gradientUnits="objectBoundingBox">
      <stop offset="0" stop-color="#3e9e95" />
      <stop offset="1" stop-color="#389890" />
    </linearGradient>
    <linearGradient id="g" x1="0.019" y1="0.5" x2="1" y2="0.5" gradientUnits="objectBoundingBox">
      <stop offset="0" stop-color="#47cbbf" />
      <stop offset="0.146" stop-color="#40c5b9" />
      <stop offset="0.49" stop-color="#3eaea4" />
      <stop offset="0.709" stop-color="#44bbb1" />
      <stop offset="1" stop-color="#3eb4a9" />
    </linearGradient>
    <radialGradient id="h" cx="0.5" cy="0.5" r="0.711"
      gradientTransform="matrix(0.695, -0.719, 0.693, 0.671, -0.194, 0.524)" gradientUnits="objectBoundingBox">
      <stop offset="0" stop-color="#3db9ae" />
      <stop offset="1" stop-color="#42c4b8" />
    </radialGradient>
    <filter id="i">
      <feOffset dx="5" dy="2" input="SourceAlpha" />
      <feGaussianBlur stdDeviation="3" result="j" />
      <feFlood flood-color="#42d1c4" result="k" />
      <feComposite operator="out" in="SourceGraphic" in2="j" />
      <feComposite operator="in" in="k" />
      <feComposite operator="in" in2="SourceGraphic" />
    </filter>
    <linearGradient id="l" x1="0.712" y1="0.5" x2="0.107" y2="0.5" gradientUnits="objectBoundingBox">
      <stop offset="0" stop-color="#2c8b83" stop-opacity="0.322" />
      <stop offset="1" stop-color="#38a197" stop-opacity="0.631" />
    </linearGradient>
    <linearGradient id="m" x1="-0.023" y1="0.643" x2="1" y2="0.626" gradientUnits="objectBoundingBox">
      <stop offset="0" stop-color="#437ef3" />
      <stop offset="1" stop-color="#324a7b" />
    </linearGradient>
    <radialGradient id="n" cx="0.5" cy="0.5" r="0.641"
      gradientTransform="matrix(0.699, 0.715, -0.698, 0.682, 0.499, -0.199)" gradientUnits="objectBoundingBox">
      <stop offset="0" stop-color="#437ef3" />
      <stop offset="1" stop-color="#476298" />
    </radialGradient>
    <filter id="o">
      <feOffset dx="15" dy="3" input="SourceAlpha" />
      <feGaussianBlur stdDeviation="4.5" result="p" />
      <feFlood flood-color="#4774ce" result="q" />
      <feComposite operator="out" in="SourceGraphic" in2="p" />
      <feComposite operator="in" in="q" />
      <feComposite operator="in" in2="SourceGraphic" />
    </filter>
    <linearGradient id="r" x1="0.241" y1="0.609" x2="0.908" y2="0.684" gradientUnits="objectBoundingBox">
      <stop offset="0" stop-color="#4367ae" />
      <stop offset="1" stop-color="#3c5a97" />
    </linearGradient>
    <linearGradient id="s" x1="0.019" y1="0.5" x2="1" y2="0.5" gradientUnits="objectBoundingBox">
      <stop offset="0" stop-color="#4d87f8" />
      <stop offset="0.146" stop-color="#437ef3" />
      <stop offset="0.49" stop-color="#3f75e1" />
      <stop offset="0.709" stop-color="#3d6ac5" />
      <stop offset="1" stop-color="#3a63b5" />
    </linearGradient>
    <radialGradient id="t" cx="0.5" cy="0.5" r="0.711"
      gradientTransform="matrix(0.695, -0.719, 0.693, 0.671, -0.194, 0.524)" gradientUnits="objectBoundingBox">
      <stop offset="0" stop-color="#437ef3" />
      <stop offset="1" stop-color="#4171d1" />
    </radialGradient>
    <filter id="u">
      <feOffset dx="5" dy="2" input="SourceAlpha" />
      <feGaussianBlur stdDeviation="3" result="v" />
      <feFlood flood-color="#477ce4" result="w" />
      <feComposite operator="out" in="SourceGraphic" in2="v" />
      <feComposite operator="in" in="w" />
      <feComposite operator="in" in2="SourceGraphic" />
    </filter>
    <linearGradient id="x" x1="0.712" y1="0.5" x2="0.107" y2="0.5" gradientUnits="objectBoundingBox">
      <stop offset="0" stop-color="#2e4d8b" stop-opacity="0.4" />
      <stop offset="1" stop-color="#38599b" stop-opacity="0.6" />
    </linearGradient>
    <linearGradient id="y" x1="-0.023" y1="0.643" x2="1" y2="0.626" gradientUnits="objectBoundingBox">
      <stop offset="0" stop-color="#718e8f" />
      <stop offset="1" stop-color="#4c6061" />
    </linearGradient>
    <radialGradient id="z" cx="0.5" cy="0.5" r="0.641"
      gradientTransform="matrix(0.699, 0.715, -0.698, 0.682, 0.499, -0.199)" gradientUnits="objectBoundingBox">
      <stop offset="0" stop-color="#718e8f" />
      <stop offset="1" stop-color="#718e8f" />
    </radialGradient>
    <filter id="aa">
      <feOffset dx="15" dy="3" input="SourceAlpha" />
      <feGaussianBlur stdDeviation="4.5" result="ab" />
      <feFlood flood-color="#678384" result="ac" />
      <feComposite operator="out" in="SourceGraphic" in2="ab" />
      <feComposite operator="in" in="ac" />
      <feComposite operator="in" in2="SourceGraphic" />
    </filter>
    <linearGradient id="ad" x1="0.241" y1="0.609" x2="0.908" y2="0.684" gradientUnits="objectBoundingBox">
      <stop offset="0" stop-color="#546c6d" />
      <stop offset="1" stop-color="#627a7b" />
    </linearGradient>
    <linearGradient id="ae" x1="0.019" y1="0.5" x2="1" y2="0.5" gradientUnits="objectBoundingBox">
      <stop offset="0" stop-color="#87a4a5" />
      <stop offset="0.146" stop-color="#718e8f" />
      <stop offset="0.49" stop-color="#6a8384" />
      <stop offset="0.709" stop-color="#5c7374" />
      <stop offset="1" stop-color="#404f50" />
    </linearGradient>
    <radialGradient id="af" cx="0.5" cy="0.5" r="0.711"
      gradientTransform="matrix(0.695, -0.719, 0.693, 0.671, -0.194, 0.524)" gradientUnits="objectBoundingBox">
      <stop offset="0" stop-color="#5d6f70" />
      <stop offset="1" stop-color="#718e8f" />
    </radialGradient>
    <filter id="ag">
      <feOffset dx="5" dy="2" input="SourceAlpha" />
      <feGaussianBlur stdDeviation="3" result="ah" />
      <feFlood flood-color="#738f8f" result="ai" />
      <feComposite operator="out" in="SourceGraphic" in2="ah" />
      <feComposite operator="in" in="ai" />
      <feComposite operator="in" in2="SourceGraphic" />
    </filter>
    <linearGradient id="aj" x1="0.712" y1="0.5" x2="0.107" y2="0.5" gradientUnits="objectBoundingBox">
      <stop offset="0" stop-color="#5d7677" stop-opacity="0.651" />
      <stop offset="1" stop-color="#506364" stop-opacity="0.302" />
    </linearGradient>
    <linearGradient id="ak" x1="-0.023" y1="0.643" x2="1" y2="0.626" gradientUnits="objectBoundingBox">
      <stop offset="0" stop-color="#4d5f83" />
      <stop offset="1" stop-color="#3a455b" />
    </linearGradient>
    <radialGradient id="al" cx="0.5" cy="0.5" r="0.641"
      gradientTransform="matrix(0.699, 0.715, -0.698, 0.682, 0.499, -0.199)" gradientUnits="objectBoundingBox">
      <stop offset="0" stop-color="#4d5f83" />
      <stop offset="1" stop-color="#415377" />
    </radialGradient>
    <filter id="am">
      <feOffset dx="15" dy="3" input="SourceAlpha" />
      <feGaussianBlur stdDeviation="4.5" result="an" />
      <feFlood flood-color="#526488" result="ao" />
      <feComposite operator="out" in="SourceGraphic" in2="an" />
      <feComposite operator="in" in="ao" />
      <feComposite operator="in" in2="SourceGraphic" />
    </filter>
    <linearGradient id="ap" x1="0.241" y1="0.609" x2="0.908" y2="0.684" gradientUnits="objectBoundingBox">
      <stop offset="0" stop-color="#42506b" />
      <stop offset="1" stop-color="#474f61" />
    </linearGradient>
    <linearGradient id="aq" x1="0.019" y1="0.5" x2="1" y2="0.5" gradientUnits="objectBoundingBox">
      <stop offset="0" stop-color="#56688e" />
      <stop offset="0.146" stop-color="#4d5f83" />
      <stop offset="0.49" stop-color="#425273" />
      <stop offset="0.709" stop-color="#3f4d6a" />
      <stop offset="1" stop-color="#3b4457" />
    </linearGradient>
    <radialGradient id="ar" cx="0.5" cy="0.5" r="0.711"
      gradientTransform="matrix(0.695, -0.719, 0.693, 0.671, -0.194, 0.524)" gradientUnits="objectBoundingBox">
      <stop offset="0" stop-color="#616875" />
      <stop offset="1" stop-color="#4d5f83" />
    </radialGradient>
    <filter id="as">
      <feOffset dx="5" dy="2" input="SourceAlpha" />
      <feGaussianBlur stdDeviation="3" result="at" />
      <feFlood flood-color="#5c7098" result="au" />
      <feComposite operator="out" in="SourceGraphic" in2="at" />
      <feComposite operator="in" in="au" />
      <feComposite operator="in" in2="SourceGraphic" />
    </filter>
    <linearGradient id="av" x1="0.712" y1="0.5" x2="0.107" y2="0.5" gradientUnits="objectBoundingBox">
      <stop offset="0" stop-color="#444c5b" stop-opacity="0.631" />
      <stop offset="1" stop-color="#4b5260" stop-opacity="0.302" />
    </linearGradient>
    <linearGradient id="aw" x1="-0.082" y1="0.301" x2="1.274" y2="1.034" gradientUnits="objectBoundingBox">
      <stop offset="0" stop-color="#31ffec" />
      <stop offset="1" stop-color="#2da59a" />
    </linearGradient>
  </defs>
  <g transform="translate(-1549 -125)">
    <g transform="translate(-448 -1)">
      <g class="a" transform="translate(2011 141)">
        <circle class="aw" cx="41" cy="41" r="41" />
        <circle class="ax" cx="41" cy="41" r="40.5" />
      </g>
      <g class="b" transform="matrix(0.998, 0.07, -0.07, 0.998, 2016.743, 141.442)">
        <circle class="aw" cx="38" cy="38" r="38" />
        <circle class="ax" cx="38" cy="38" r="37" />
      </g>
      <g class="c" transform="translate(1997 127)">
        <circle class="aw" cx="55.5" cy="55.5" r="55.5" />
        <circle class="ax" cx="55.5" cy="55.5" r="55" />
      </g>
      <path class="d"
        d="M513.5,120a53.545,53.545,0,0,1-50.909-70H473.25A43.5,43.5,0,1,0,516,23.071V13.056A53.516,53.516,0,0,1,534.325,115.8,53.164,53.164,0,0,1,513.5,120Z"
        transform="translate(1539 116)" />
      <g class="e" transform="translate(1997 126)">
        <rect class="aw" width="9" height="9" rx="2" />
        <rect class="ax" x="0.5" y="0.5" width="8" height="8" rx="1.5" />
      </g>
      <g class="e" transform="translate(2099 127)">
        <rect class="aw" width="9" height="9" rx="2" />
        <rect class="ax" x="0.5" y="0.5" width="8" height="8" rx="1.5" />
      </g>
      <g class="e" transform="translate(2099 229)">
        <rect class="aw" width="9" height="9" rx="2" />
        <rect class="ax" x="0.5" y="0.5" width="8" height="8" rx="1.5" />
      </g>
      <g class="e" transform="translate(1997 229)">
        <rect class="aw" width="9" height="9" rx="2" />
        <rect class="ax" x="0.5" y="0.5" width="8" height="8" rx="1.5" />
      </g><text class="f" transform="translate(2030 185)">
        <tspan x="0" y="0">600</tspan>
      </text><text class="g" transform="translate(2034 203)">
        <!-- <tspan x="0" y="0"></tspan> -->
        <tspan class="h" y="0">总数量</tspan>
      </text>
      <g class="i" transform="translate(2119 127)">
        <path class="aw" d="M0,0H205V45.363H81.164L69.482,60H0Z" />
        <path class="ay"
          d="M 1.5 1.5 L 1.5 58.5 L 68.76040649414062 58.5 L 80.44231414794922 43.86310577392578 L 203.5 43.86310577392578 L 203.5 1.5 L 1.5 1.5 M 0 0 L 205 0 L 205 45.36310577392578 L 81.16431427001953 45.36310577392578 L 69.482421875 60 L 0 60 L 0 0 Z" />
      </g>
      <g class="j" transform="translate(2119 177)">
        <path class="aw" d="M205,61H0V14.881H123.836L135.518,0H205Z" />
        <path class="az"
          d="M 196 61 L 191 61 L 191 59 L 196 59 L 196 61 Z M 187 61 L 182 61 L 182 59 L 187 59 L 187 61 Z M 178 61 L 173 61 L 173 59 L 178 59 L 178 61 Z M 169 61 L 164 61 L 164 59 L 169 59 L 169 61 Z M 160 61 L 155 61 L 155 59 L 160 59 L 160 61 Z M 151 61 L 146 61 L 146 59 L 151 59 L 151 61 Z M 142 61 L 137 61 L 137 59 L 142 59 L 142 61 Z M 133 61 L 128 61 L 128 59 L 133 59 L 133 61 Z M 124 61 L 119 61 L 119 59 L 124 59 L 124 61 Z M 115 61 L 110 61 L 110 59 L 115 59 L 115 61 Z M 106 61 L 101 61 L 101 59 L 106 59 L 106 61 Z M 97 61 L 92 61 L 92 59 L 97 59 L 97 61 Z M 88 61 L 83 61 L 83 59 L 88 59 L 88 61 Z M 79 61 L 74 61 L 74 59 L 79 59 L 79 61 Z M 70 61 L 65 61 L 65 59 L 70 59 L 70 61 Z M 61 61 L 56 61 L 56 59 L 61 59 L 61 61 Z M 52 61 L 47 61 L 47 59 L 52 59 L 52 61 Z M 43 61 L 38 61 L 38 59 L 43 59 L 43 61 Z M 34 61 L 29 61 L 29 59 L 34 59 L 34 61 Z M 25 61 L 20 61 L 20 59 L 25 59 L 25 61 Z M 16 61 L 11 61 L 11 59 L 16 59 L 16 61 Z M 7 61 L 2 61 L 2 59 L 0 59 C 0 59 0 54 0 54 L 2 54 L 2 59 L 7 59 L 7 61 Z M 2 50 L 0 50 C 0 50 0 45 0 45 L 2 45 L 2 50 Z M 2 41 L 0 41 C 0 41 0 36 0 36 L 2 36 L 2 41 Z M 2 32 L 0 32 C 0 32 0 27 0 27 L 2 27 L 2 32 Z M 2 23 L 0 23 C 0 23 0 18 0 18 L 2 18 L 2 23 Z M 5.880861282348633 16.88086128234863 L 0.8808611035346985 16.88086128234863 L 0.8808611035346985 14.88086128234863 C 0.8808611035346985 14.88086128234863 5.880861282348633 14.88086128234863 5.880861282348633 14.88086128234863 L 5.880861282348633 16.88086128234863 Z M 14.88086128234863 16.88086128234863 L 9.880861282348633 16.88086128234863 L 9.880861282348633 14.88086128234863 C 9.880861282348633 14.88086128234863 14.88086128234863 14.88086128234863 14.88086128234863 14.88086128234863 L 14.88086128234863 16.88086128234863 Z M 23.88086128234863 16.88086128234863 L 18.88086128234863 16.88086128234863 L 18.88086128234863 14.88086128234863 C 18.88086128234863 14.88086128234863 23.88086128234863 14.88086128234863 23.88086128234863 14.88086128234863 L 23.88086128234863 16.88086128234863 Z M 32.880859375 16.88086128234863 L 27.88086128234863 16.88086128234863 L 27.88086128234863 14.88086128234863 C 27.88086128234863 14.88086128234863 32.880859375 14.88086128234863 32.880859375 14.88086128234863 L 32.880859375 16.88086128234863 Z M 41.880859375 16.88086128234863 L 36.880859375 16.88086128234863 L 36.880859375 14.88086128234863 C 36.880859375 14.88086128234863 41.880859375 14.88086128234863 41.880859375 14.88086128234863 L 41.880859375 16.88086128234863 Z M 50.880859375 16.88086128234863 L 45.880859375 16.88086128234863 L 45.880859375 14.88086128234863 C 45.880859375 14.88086128234863 50.880859375 14.88086128234863 50.880859375 14.88086128234863 L 50.880859375 16.88086128234863 Z M 59.880859375 16.88086128234863 L 54.880859375 16.88086128234863 L 54.880859375 14.88086128234863 C 54.880859375 14.88086128234863 59.880859375 14.88086128234863 59.880859375 14.88086128234863 L 59.880859375 16.88086128234863 Z M 68.880859375 16.88086128234863 L 63.880859375 16.88086128234863 L 63.880859375 14.88086128234863 C 63.880859375 14.88086128234863 68.880859375 14.88086128234863 68.880859375 14.88086128234863 L 68.880859375 16.88086128234863 Z M 77.880859375 16.88086128234863 L 72.880859375 16.88086128234863 L 72.880859375 14.88086128234863 C 72.880859375 14.88086128234863 77.880859375 14.88086128234863 77.880859375 14.88086128234863 L 77.880859375 16.88086128234863 Z M 86.880859375 16.88086128234863 L 81.880859375 16.88086128234863 L 81.880859375 14.88086128234863 C 81.880859375 14.88086128234863 86.880859375 14.88086128234863 86.880859375 14.88086128234863 L 86.880859375 16.88086128234863 Z M 95.880859375 16.88086128234863 L 90.880859375 16.88086128234863 L 90.880859375 14.88086128234863 C 90.880859375 14.88086128234863 95.880859375 14.88086128234863 95.880859375 14.88086128234863 L 95.880859375 16.88086128234863 Z M 104.880859375 16.88086128234863 L 99.880859375 16.88086128234863 L 99.880859375 14.88086128234863 C 99.880859375 14.88086128234863 104.880859375 14.88086128234863 104.880859375 14.88086128234863 L 104.880859375 16.88086128234863 Z M 113.880859375 16.88086128234863 L 108.880859375 16.88086128234863 L 108.880859375 14.88086128234863 C 108.880859375 14.88086128234863 113.880859375 14.88086128234863 113.880859375 14.88086128234863 L 113.880859375 16.88086128234863 Z M 122.880859375 16.88086128234863 L 117.880859375 16.88086128234863 L 117.880859375 14.88086128234863 C 117.880859375 14.88086128234863 122.880859375 14.88086128234863 122.880859375 14.88086128234863 L 122.880859375 16.88086128234863 Z M 127.2892227172852 13.72055530548096 L 125.7160568237305 12.48558330535889 C 125.7160568237305 12.48558330535889 125.8973388671875 12.25465393066406 126.1720428466797 11.90472888946533 L 126.2067794799805 11.86048126220703 C 126.2077026367188 11.85930347442627 126.208610534668 11.85814380645752 126.2095413208008 11.85696411132812 L 128.8034820556641 8.552699089050293 L 130.3766326904297 9.787666320800781 L 127.2892227172852 13.72055530548096 Z M 132.8465881347656 6.641333103179932 L 131.2734375 5.406361103057861 C 131.2734375 5.406361103057861 131.9205780029297 4.582022666931152 132.6222839355469 3.688141584396362 L 132.6256713867188 3.683828115463257 C 132.6269836425781 3.682159423828125 132.6281585693359 3.680662631988525 132.6294708251953 3.678993225097656 L 134.3608703613281 1.473474979400635 L 135.9340209960938 2.708444356918335 L 132.8465881347656 6.641333103179932 Z M 142.6443328857422 2 L 137.6443328857422 2 L 137.6443328857422 0 C 137.6443328857422 0 142.6443328857422 0 142.6443328857422 0 L 142.6443328857422 2 Z M 151.6443328857422 2 L 146.6443328857422 2 L 146.6443328857422 0 C 146.6443328857422 0 151.6443328857422 0 151.6443328857422 0 L 151.6443328857422 2 Z M 160.6443328857422 2 L 155.6443328857422 2 L 155.6443328857422 0 C 155.6443328857422 0 160.6443328857422 0 160.6443328857422 0 L 160.6443328857422 2 Z M 169.6443328857422 2 L 164.6443328857422 2 L 164.6443328857422 0 C 164.6443328857422 0 169.6443328857422 0 169.6443328857422 0 L 169.6443328857422 2 Z M 178.6443328857422 2 L 173.6443328857422 2 L 173.6443328857422 0 C 173.6443328857422 0 178.6443328857422 0 178.6443328857422 0 L 178.6443328857422 2 Z M 187.6443328857422 2 L 182.6443328857422 2 L 182.6443328857422 0 C 182.6443328857422 0 187.6443328857422 0 187.6443328857422 0 L 187.6443328857422 2 Z M 196.6443328857422 2 L 191.6443328857422 2 L 191.6443328857422 0 C 191.6443328857422 0 196.6443328857422 0 196.6443328857422 0 L 196.6443328857422 2 Z M 205 2 L 200.6443328857422 2 L 200.6443328857422 0 C 200.6443328857422 0 205 0 205 0 L 205 2 Z M 205 9.644332885742188 L 203 9.644332885742188 L 203 4.644333362579346 L 205 4.644333362579346 L 205 9.644332885742188 Z M 205 18.64433288574219 L 203 18.64433288574219 L 203 13.64433288574219 L 205 13.64433288574219 L 205 18.64433288574219 Z M 205 27.64433288574219 L 203 27.64433288574219 L 203 22.64433288574219 L 205 22.64433288574219 L 205 27.64433288574219 Z M 205 36.64433288574219 L 203 36.64433288574219 L 203 31.64433288574219 L 205 31.64433288574219 L 205 36.64433288574219 Z M 205 45.64433288574219 L 203 45.64433288574219 L 203 40.64433288574219 L 205 40.64433288574219 L 205 45.64433288574219 Z M 205 54.64433288574219 L 203 54.64433288574219 L 203 49.64433288574219 L 205 49.64433288574219 L 205 54.64433288574219 Z M 205 61 L 200 61 L 200 59 L 203 59 L 203 58.64433288574219 L 205 58.64433288574219 L 205 61 Z" />
      </g><text class="k" transform="translate(2259 158)">
        <tspan x="0" y="0">空余车位</tspan>
        <!-- <tspan class="l" y="0"></tspan>
        <tspan y="0"></tspan> -->
      </text><text class="k" transform="translate(2136 223)">
        <tspan x="0" y="0">已用车位</tspan>
        <!-- <tspan class="l" y="0"></tspan>
        <tspan y="0"></tspan> -->
      </text><text class="m" transform="translate(2204 159)">
        <tspan x="0" y="0">544</tspan>
      </text><text class="n" transform="translate(2211 223)">
        <tspan x="0" y="0">96</tspan>
      </text>
    </g>
    <g transform="translate(0 7)">
      <rect class="o" width="158" height="3" rx="1.5" transform="translate(1718 242)" />
      <rect class="p" width="75" height="3" rx="1.5" transform="translate(1716 242)" />
      <g transform="translate(1786 241)">
        <path class="p" d="M3.5,0C5.433,0,7,1.119,7,2.5S5.433,5,3.5,5,0,3.881,0,2.5,1.567,0,3.5,0Z" />
        <path class="p" d="M3.5,0C5.433,0,7,1.119,7,2.5S5.433,5,3.5,5,0,3.881,0,2.5,1.567,0,3.5,0Z" />
        <path class="q" d="M3.5,0C5.433,0,7,1.119,7,2.5S5.433,5,3.5,5,0,3.881,0,2.5,1.567,0,3.5,0Z" />
      </g>
    </g>
    <g transform="translate(0 6.87)">
      <rect class="r" width="164" height="2.87" rx="1.435" transform="translate(1549 242.13)" />
      <rect class="s" width="86" height="2.87" rx="1.435" transform="translate(1549 242.13)" />
      <path class="s" d="M3.5,0C5.433,0,7,1.119,7,2.5S5.433,5,3.5,5,0,3.881,0,2.5,1.567,0,3.5,0Z"
        transform="translate(1631 241)" />
      <path class="s" d="M3.5,0C5.433,0,7,1.119,7,2.5S5.433,5,3.5,5,0,3.881,0,2.5,1.567,0,3.5,0Z"
        transform="translate(1631 241)" />
      <path class="q" d="M3.5,0C5.433,0,7,1.119,7,2.5S5.433,5,3.5,5,0,3.881,0,2.5,1.567,0,3.5,0Z"
        transform="translate(1631 241)" />
    </g><text class="k" transform="translate(1600 343)">
      <tspan x="0" y="0">空余</tspan>
    </text><text class="k" transform="translate(1665 343)">
      <tspan x="0" y="0">已用</tspan>
    </text><text class="t" transform="translate(1596 277)">
      <tspan x="0" y="0">120</tspan>
    </text><text class="t" transform="translate(1665 277)">
      <tspan x="0" y="0">80</tspan>
    </text><text class="k" transform="translate(1754 343)">
      <tspan x="0" y="0">空余</tspan>
    </text><text class="k" transform="translate(1817 343)">
      <tspan x="0" y="0">已用</tspan>
    </text><text class="t" transform="translate(1755 277)">
      <tspan x="0" y="0">34</tspan>
    </text><text class="t" transform="translate(1813 277)">
      <tspan x="0" y="0">396</tspan>
    </text><text class="k" transform="translate(1549 270)">
      <tspan x="0" y="0">新能源</tspan>
    </text><text class="k" transform="translate(1718 270)">
      <tspan x="0" y="0">常</tspan>
      <tspan class="l" y="0">规</tspan>
    </text>
    <g transform="translate(1707 151)">
      <path class="d"
        d="M35.155,9.875h-4.21L29.776,6.95A7.835,7.835,0,0,0,22.465,2h-8.93A7.837,7.837,0,0,0,6.223,6.95L5.053,9.875H.844a.843.843,0,0,0-.818,1.048l.422,1.688a.843.843,0,0,0,.818.639H2.677a4.469,4.469,0,0,0-1.552,3.375V20A4.463,4.463,0,0,0,2.25,22.948v3.8A2.25,2.25,0,0,0,4.5,29H6.75A2.25,2.25,0,0,0,9,26.75V24.5H27v2.25A2.25,2.25,0,0,0,29.25,29H31.5a2.25,2.25,0,0,0,2.25-2.25v-3.8A4.46,4.46,0,0,0,34.875,20V16.625a4.47,4.47,0,0,0-1.552-3.375h1.411a.843.843,0,0,0,.819-.639l.422-1.688A.844.844,0,0,0,35.155,9.875ZM10.4,8.621A3.375,3.375,0,0,1,13.535,6.5h8.93A3.375,3.375,0,0,1,25.6,8.621l1.4,3.5H9ZM6.75,19.986A2.122,2.122,0,0,1,4.5,17.743,2.122,2.122,0,0,1,6.75,15.5c1.35,0,3.375,2.019,3.375,3.364S8.1,19.986,6.75,19.986Zm22.5,0c-1.35,0-3.375.224-3.375-1.121S27.9,15.5,29.25,15.5a2.122,2.122,0,0,1,2.25,2.243,2.122,2.122,0,0,1-2.25,2.243Z"
        transform="translate(-13 -11)" />
    </g>
    <g transform="translate(1830 200)">
      <path class="u"
        d="M35.155,9.875h-4.21L29.776,6.95A7.835,7.835,0,0,0,22.465,2h-8.93A7.837,7.837,0,0,0,6.223,6.95L5.053,9.875H.844a.843.843,0,0,0-.818,1.048l.422,1.688a.843.843,0,0,0,.818.639H2.677a4.469,4.469,0,0,0-1.552,3.375V20A4.463,4.463,0,0,0,2.25,22.948v3.8A2.25,2.25,0,0,0,4.5,29H6.75A2.25,2.25,0,0,0,9,26.75V24.5H27v2.25A2.25,2.25,0,0,0,29.25,29H31.5a2.25,2.25,0,0,0,2.25-2.25v-3.8A4.46,4.46,0,0,0,34.875,20V16.625a4.47,4.47,0,0,0-1.552-3.375h1.411a.843.843,0,0,0,.819-.639l.422-1.688A.844.844,0,0,0,35.155,9.875ZM10.4,8.621A3.375,3.375,0,0,1,13.535,6.5h8.93A3.375,3.375,0,0,1,25.6,8.621l1.4,3.5H9ZM6.75,19.986A2.122,2.122,0,0,1,4.5,17.743,2.122,2.122,0,0,1,6.75,15.5c1.35,0,3.375,2.019,3.375,3.364S8.1,19.986,6.75,19.986Zm22.5,0c-1.35,0-3.375.224-3.375-1.121S27.9,15.5,29.25,15.5a2.122,2.122,0,0,1,2.25,2.243,2.122,2.122,0,0,1-2.25,2.243Z"
        transform="translate(-13 -11)" />
    </g>
    <g transform="translate(375.378 1125.049)">
      <g transform="translate(1215.285 -822)">
        <g transform="translate(0 3.473)">
          <path class="v"
            d="M0,8.186H0V8.115C0,3.633,9.329,0,20.838,0S41.675,3.633,41.675,8.115v.071h0c-.1,4.448-9.39,8.043-20.837,8.043S.1,12.635,0,8.186Z"
            transform="translate(0 4.251)" />
          <g data-type="innerShadowGroup">
            <ellipse class="w" cx="20.838" cy="8.113" rx="20.838" ry="8.113" transform="translate(0 3)" />
            <g class="bh" transform="matrix(1, 0, 0, 1, -41.66, -181.52)">
              <ellipse class="q" cx="20.838" cy="8.113" rx="20.838" ry="8.113" transform="translate(41.66 184.52)" />
            </g>
          </g>
        </g>
        <g transform="translate(4.167 5)">
          <ellipse class="x" cx="16.323" cy="5.877" rx="16.323" ry="5.877" transform="translate(0 3.473)" />
          <path class="y"
            d="M.039,6.454H0v-.64H.01C.312,2.584,7.344,0,15.976,0S31.639,2.584,31.941,5.814h.01v.64h-.039c-.576,3.132-7.491,5.606-15.936,5.606S.615,9.586.039,6.454Z"
            transform="translate(0.695 0.951)" />
          <g data-type="innerShadowGroup">
            <ellipse class="z" cx="15.975" cy="6.03" rx="15.975" ry="6.03" transform="translate(0.695)" />
            <g class="bg" transform="matrix(1, 0, 0, 1, -45.83, -183.05)">
              <ellipse class="q" cx="15.975" cy="6.03" rx="15.975" ry="6.03" transform="translate(46.52 183.05)" />
            </g>
          </g>
        </g>
      </g>
      <g transform="translate(1224.791 -820.163)">
        <path class="aa"
          d="M651.972-397.7c6.393.5,12.76,1.118,12.76,1.118a2.6,2.6,0,0,1,2.061,3.117c-.4,2.683-3.478,2.762-6.023,1.47s-8.593.82-10.067-1.764S651.972-397.7,651.972-397.7Z"
          transform="translate(-693.755 308.211) rotate(8)" />
      </g>
    </g>
    <g transform="translate(529.378 1125.049)">
      <g transform="translate(1215.285 -822)">
        <g transform="translate(0 3.473)">
          <path class="ab"
            d="M0,8.186H0V8.115C0,3.633,9.329,0,20.838,0S41.675,3.633,41.675,8.115v.071h0c-.1,4.448-9.39,8.043-20.837,8.043S.1,12.635,0,8.186Z"
            transform="translate(0 4.251)" />
          <g data-type="innerShadowGroup">
            <ellipse class="ac" cx="20.838" cy="8.113" rx="20.838" ry="8.113" transform="translate(0 3)" />
            <g class="bf" transform="matrix(1, 0, 0, 1, -195.66, -181.52)">
              <ellipse class="q" cx="20.838" cy="8.113" rx="20.838" ry="8.113" transform="translate(195.66 184.52)" />
            </g>
          </g>
        </g>
        <g transform="translate(4.167 5)">
          <ellipse class="ad" cx="16.323" cy="5.877" rx="16.323" ry="5.877" transform="translate(0 3.473)" />
          <path class="ae"
            d="M.039,6.454H0v-.64H.01C.312,2.584,7.344,0,15.976,0S31.639,2.584,31.941,5.814h.01v.64h-.039c-.576,3.132-7.491,5.606-15.936,5.606S.615,9.586.039,6.454Z"
            transform="translate(0.695 0.951)" />
          <g data-type="innerShadowGroup">
            <ellipse class="af" cx="15.975" cy="6.03" rx="15.975" ry="6.03" transform="translate(0.695)" />
            <g class="be" transform="matrix(1, 0, 0, 1, -199.83, -183.05)">
              <ellipse class="q" cx="15.975" cy="6.03" rx="15.975" ry="6.03" transform="translate(200.52 183.05)" />
            </g>
          </g>
        </g>
      </g>
      <g transform="translate(1224.791 -820.163)">
        <path class="ag"
          d="M651.972-397.7c6.393.5,12.76,1.118,12.76,1.118a2.6,2.6,0,0,1,2.061,3.117c-.4,2.683-3.478,2.762-6.023,1.47s-8.593.82-10.067-1.764S651.972-397.7,651.972-397.7Z"
          transform="translate(-693.755 308.211) rotate(8)" />
      </g>
    </g>
    <g transform="translate(439.378 1125.049)">
      <g transform="translate(1215.285 -822)">
        <g transform="translate(0 3.473)">
          <path class="ah"
            d="M0,8.186H0V8.115C0,3.633,9.329,0,20.838,0S41.675,3.633,41.675,8.115v.071h0c-.1,4.448-9.39,8.043-20.837,8.043S.1,12.635,0,8.186Z"
            transform="translate(0 4.251)" />
          <g data-type="innerShadowGroup">
            <ellipse class="ai" cx="20.838" cy="8.113" rx="20.838" ry="8.113" transform="translate(0 3)" />
            <g class="bd" transform="matrix(1, 0, 0, 1, -105.66, -181.52)">
              <ellipse class="q" cx="20.838" cy="8.113" rx="20.838" ry="8.113" transform="translate(105.66 184.52)" />
            </g>
          </g>
        </g>
        <g transform="translate(4.167 5)">
          <ellipse class="aj" cx="16.323" cy="5.877" rx="16.323" ry="5.877" transform="translate(0 3.473)" />
          <path class="ak"
            d="M.039,6.454H0v-.64H.01C.312,2.584,7.344,0,15.976,0S31.639,2.584,31.941,5.814h.01v.64h-.039c-.576,3.132-7.491,5.606-15.936,5.606S.615,9.586.039,6.454Z"
            transform="translate(0.695 0.951)" />
          <g data-type="innerShadowGroup">
            <ellipse class="al" cx="15.975" cy="6.03" rx="15.975" ry="6.03" transform="translate(0.695)" />
            <g class="bc" transform="matrix(1, 0, 0, 1, -109.83, -183.05)">
              <ellipse class="q" cx="15.975" cy="6.03" rx="15.975" ry="6.03" transform="translate(110.52 183.05)" />
            </g>
          </g>
        </g>
      </g>
      <g transform="translate(1224.791 -820.163)">
        <path class="am"
          d="M651.972-397.7c6.393.5,12.76,1.118,12.76,1.118a2.6,2.6,0,0,1,2.061,3.117c-.4,2.683-3.478,2.762-6.023,1.47s-8.593.82-10.067-1.764S651.972-397.7,651.972-397.7Z"
          transform="translate(-693.755 308.211) rotate(8)" />
      </g>
    </g>
    <g transform="translate(592.378 1125.049)">
      <g transform="translate(1215.285 -822)">
        <g transform="translate(0 3.473)">
          <path class="an"
            d="M0,8.186H0V8.115C0,3.633,9.329,0,20.838,0S41.675,3.633,41.675,8.115v.071h0c-.1,4.448-9.39,8.043-20.837,8.043S.1,12.635,0,8.186Z"
            transform="translate(0 4.251)" />
          <g data-type="innerShadowGroup">
            <ellipse class="ao" cx="20.838" cy="8.113" rx="20.838" ry="8.113" transform="translate(0 3)" />
            <g class="bb" transform="matrix(1, 0, 0, 1, -258.66, -181.52)">
              <ellipse class="q" cx="20.838" cy="8.113" rx="20.838" ry="8.113" transform="translate(258.66 184.52)" />
            </g>
          </g>
        </g>
        <g transform="translate(4.167 5)">
          <ellipse class="ap" cx="16.323" cy="5.877" rx="16.323" ry="5.877" transform="translate(0 3.473)" />
          <path class="aq"
            d="M.039,6.454H0v-.64H.01C.312,2.584,7.344,0,15.976,0S31.639,2.584,31.941,5.814h.01v.64h-.039c-.576,3.132-7.491,5.606-15.936,5.606S.615,9.586.039,6.454Z"
            transform="translate(0.695 0.951)" />
          <g data-type="innerShadowGroup">
            <ellipse class="ar" cx="15.975" cy="6.03" rx="15.975" ry="6.03" transform="translate(0.695)" />
            <g class="ba" transform="matrix(1, 0, 0, 1, -262.83, -183.05)">
              <ellipse class="q" cx="15.975" cy="6.03" rx="15.975" ry="6.03" transform="translate(263.52 183.05)" />
            </g>
          </g>
        </g>
      </g>
      <g transform="translate(1224.791 -820.163)">
        <path class="as"
          d="M651.972-397.7c6.393.5,12.76,1.118,12.76,1.118a2.6,2.6,0,0,1,2.061,3.117c-.4,2.683-3.478,2.762-6.023,1.47s-8.593.82-10.067-1.764S651.972-397.7,651.972-397.7Z"
          transform="translate(-693.755 308.211) rotate(8)" />
      </g>
    </g>
    <g transform="translate(1603.571 284.999)">
      <path class="at" d="M12.536,1l-.99,8.332h3.883L6.9,21l.99-8.332H4Z" />
    </g>
    <g transform="translate(1667.571 284.999)">
      <path class="au" d="M12.536,1l-.99,8.332h3.883L6.9,21l.99-8.332H4Z" />
    </g>
    <path class="p"
      d="M202.941,63.7a.572.572,0,0,0-.582.582v1.237h4.116V64.282a.589.589,0,0,0-.582-.582S202.941,63.7,202.941,63.7Zm10.886,20a1.553,1.553,0,0,0,1.566-1.541V73.476a2.161,2.161,0,0,0-.732-1.591l-6.72-5.051a1.4,1.4,0,0,0-.908-.277h-4.7a.82.82,0,0,0-.834.808V82.217a1.553,1.553,0,0,0,1.566,1.541h10.761Zm-7.678-5.658a1.338,1.338,0,0,1-2.676,0c0-.582.277-1.313,1.338-3.537C205.869,76.76,206.149,77.492,206.149,78.049Zm6.87-5.28a.873.873,0,0,1-.555,1.566.914.914,0,0,1-.555-.177l-4.8-3.613a.859.859,0,0,1-.152-1.237.915.915,0,0,1,1.264-.152Z"
      transform="translate(1557.554 222.242)" />
    <path class="av"
      d="M202.941,63.7a.572.572,0,0,0-.582.582v1.237h4.116V64.282a.589.589,0,0,0-.582-.582S202.941,63.7,202.941,63.7Zm10.886,20a1.553,1.553,0,0,0,1.566-1.541V73.476a2.161,2.161,0,0,0-.732-1.591l-6.72-5.051a1.4,1.4,0,0,0-.908-.277h-4.7a.82.82,0,0,0-.834.808V82.217a1.553,1.553,0,0,0,1.566,1.541h10.761Zm-7.678-5.658a1.338,1.338,0,0,1-2.676,0c0-.582.277-1.313,1.338-3.537C205.869,76.76,206.149,77.492,206.149,78.049Zm6.87-5.28a.873.873,0,0,1-.555,1.566.914.914,0,0,1-.555-.177l-4.8-3.613a.859.859,0,0,1-.152-1.237.915.915,0,0,1,1.264-.152Z"
      transform="translate(1620.554 222.242)" />
  </g>
</svg>