<?xml version="1.0" encoding="UTF-8"?>
<svg width="152px" height="48px" viewBox="0 0 152 48" version="1.1" xmlns="http://www.w3.org/2000/svg" xmlns:xlink="http://www.w3.org/1999/xlink">
    <title>-mockplus-</title>
    <defs>
        <filter x="-14.8%" y="-14.8%" width="129.5%" height="129.5%" filterUnits="objectBoundingBox" id="filter-1">
            <feGaussianBlur stdDeviation="1.53846154" in="SourceGraphic"></feGaussianBlur>
        </filter>
        <linearGradient x1="50%" y1="0.855004371%" x2="50%" y2="99.9808785%" id="linearGradient-2">
            <stop stop-color="#19F2FF" offset="0.0191215035%"></stop>
            <stop stop-color="#107FDB" offset="100%"></stop>
        </linearGradient>
        <linearGradient x1="50%" y1="0.855004371%" x2="50%" y2="99.9808785%" id="linearGradient-3">
            <stop stop-color="#38B7FD" offset="0.0191215035%"></stop>
            <stop stop-color="#38B7FD" offset="100%"></stop>
        </linearGradient>
    </defs>
    <g id="页面" stroke="none" stroke-width="1" fill="none" fill-rule="evenodd">
        <g id="摄像头" transform="translate(-436.000000, -356.000000)">
            <g id="气泡展开" transform="translate(248.000000, 168.000000)">
                <g id="数据" transform="translate(20.000000, 188.000000)">
                    <g id="-mockplus-" transform="translate(168.000000, 0.000000)">
                        <g id="2" transform="translate(-4.000000, -4.000000)">
                            <path d="M160,52 L156,56 L4,56 L0,52 L0,4 L4,0 L156,0 L160,4 L160,52 Z" id="形状结合" fill="#38B7FD" opacity="0.199999988"></path>
                            <text id="550" font-family="HelveticaNeue-Bold, Helvetica Neue" font-size="28" font-weight="bold" fill="#FFFFFF">
                                <tspan x="56" y="47">550</tspan>
                            </text>
                            <text id="摄像头/个" font-family="SourceHanSansCN-Regular, Source Han Sans CN" font-size="12" font-weight="normal" fill="#FFFFFF">
                                <tspan x="56" y="19">摄像头/个</tspan>
                            </text>
                            <g id="图标" transform="translate(8.000000, 8.000000)">
                                <g id="图标bg">
                                    <path d="M20,0 C8.954305,0 0,8.954305 0,20 C0,31.045695 8.954305,40 20,40 C31.045695,40 40,31.045695 40,20" id="路径" stroke="#FFFFFF" stroke-width="1.53846154" opacity="0.244396391"></path>
                                    <path d="M40,20 C40,8.954305 31.045695,0 20,0" id="路径" stroke="#A92929" stroke-width="1.53846154" stroke-dasharray="1.538461538461539,1.538461538461539"></path>
                                    <path d="M40,20 C40,8.954305 31.045695,0 20,0" id="路径" stroke="#FF3434" stroke-width="0.5" stroke-dasharray="1.538461538461539,1.538461538461539"></path>
                                    <circle id="椭圆形" stroke="#38FDDF" stroke-width="0.769230769" filter="url(#filter-1)" cx="20" cy="20" r="16.9230769"></circle>
                                    <circle id="椭圆形" stroke="#38FDDF" stroke-width="0.5" cx="20" cy="20" r="16.9230769"></circle>
                                </g>
                                <g id="1.图标/2.设计/" transform="translate(10.000000, 10.000000)" fill="url(#linearGradient-3)">
                                    <path d="M0.625,10.8012368 C0.625,10.5209298 0.829981384,10.3837102 1.08070971,10.4970066 L2.40559926,11.3663647 C2.65632756,11.4792098 2.86130897,11.8005924 2.86130897,12.0808994 L2.86130897,13.2125094 L6.09438457,13.2125094 L6.71900598,11.8272238 L8.62981965,12.7390117 L7.72631798,14.7431394 C7.55305246,15.1252816 7.17944711,15.3695374 6.76871177,15.3692036 L2.86042921,15.3692036 L2.86042921,16.5008135 C2.86042921,16.7815719 2.6558877,17.1025032 2.4047195,17.2153482 L1.08070971,18.0856091 C0.829981406,18.1980027 0.625,18.0616859 0.625,17.7809275 L0.625,10.8012368 Z M18.2177583,10.8775201 L16.900335,13.7672556 L15.0154739,12.8681064 L18.2177583,10.8775201 Z M5.89556142,1.9699849 L18.9875382,8.21528015 C19.4832765,8.45270609 19.5065898,8.88422548 19.0385636,9.17491429 L13.1675622,12.8247739 C12.6995361,13.1154627 11.9104017,13.1596979 11.4137837,12.9231747 L2.7803721,8.80478258 C2.28371736,8.56663157 2.0681854,7.96124013 2.29826995,7.45064224 L4.57153998,2.46289199 C4.80625118,1.95354956 5.3971878,1.7335555 5.89556142,1.9699849 Z" id="形状"></path>
                                </g>
                            </g>
                            <g id="-mockplus-" transform="translate(118.000000, 40.000000)" fill-rule="nonzero">
                                <g id="1.图标/2.设计/hand" transform="translate(0.550000, 0.000000)">
                                    <path d="M13.9921666,10.1567785 L13.9921666,10.1594168 L13.9961074,10.1594168 L13.9961074,6.85142731 C13.9961074,6.01095868 13.2062676,6.04383737 13.2062676,6.04383737 C12.7564191,6.04383737 12.4216877,6.40553627 12.4216877,6.85142731 L12.4216877,8.62839569 L12.412487,8.62839569 C12.4182032,8.65831942 12.4212764,8.68868795 12.421671,8.7191502 C12.4234369,8.8377202 12.3774775,8.95202543 12.2941242,9.03637106 C12.2107709,9.12071668 12.0970175,9.16802549 11.978435,9.16766285 C11.8431965,9.1679049 11.7149824,9.1074656 11.6291064,9.00299166 C11.5432304,8.89851772 11.5087513,8.76102969 11.5351655,8.62839569 L11.5259815,8.62839569 L11.5259815,6.02147853 C11.5259815,5.26451741 10.7117791,5.21322066 10.7117791,5.21322066 C10.261964,5.21322066 9.94232779,5.57557079 9.94232779,6.02147853 L9.94232779,8.09109891 L9.93180794,8.09109891 C9.95845513,8.22365103 9.92415752,8.36116274 9.8383827,8.46567502 C9.75260787,8.5701873 9.6244269,8.6306475 9.48922314,8.63036607 C9.35398763,8.63060311 9.22577821,8.57016168 9.13990601,8.46568841 C9.0540338,8.36121514 9.01955674,8.22373004 9.04597041,8.09109891 L9.03675302,8.09109891 L9.03675302,5.12508776 C9.03675302,4.30500759 8.2390317,4.31617866 8.2390317,4.31617866 C7.78918319,4.31617866 7.46300128,4.67789426 7.46300128,5.12508776 L7.46300128,7.37162517 L7.45445182,7.37162517 C7.48117626,7.50452224 7.44663459,7.64238836 7.36040707,7.74698587 C7.27417954,7.85158338 7.14543454,7.91179067 7.00987994,7.91090903 C6.87464087,7.91114707 6.74642801,7.85070341 6.66055513,7.74622608 C6.57468225,7.64174876 6.54020784,7.5042588 6.56662721,7.37162517 L6.55807775,7.37162517 L6.55807775,1.88878344 C6.55807775,1.4429091 6.25029722,1.07989104 5.80046541,1.07989104 C5.34931445,1.07989104 4.98497724,1.4429091 4.98497724,1.88880014 L4.98497724,10.5086255 C4.16290999,9.69313734 3.34216189,8.87633001 2.5214138,8.06019061 C2.20311342,7.74451184 1.59872342,7.75635084 1.2699032,8.08649022 C0.941734211,8.41532713 0.839791928,8.92894592 1.24161652,9.33208966 L5.78862641,13.8494937 C6.63238458,14.6873407 7.7464526,15.1003531 9.59971488,15.1003531 C13.9790084,15.1003531 13.9921666,12.8873456 13.9921666,10.1567785 L13.9921666,10.1567785 Z" id="路径" fill="#FFFFFF"></path>
                                    <path d="M13.2542748,5.03500117 L13.2542748,5.03368201 C14.2045672,5.03368201 14.9003797,5.79852466 14.9003797,6.74225472 L14.9003797,10.1567785 C14.9003797,13.3838655 14.4505312,16 9.60233649,16 C7.48075143,16 6.47717515,15.5764845 5.60118954,14.8622707 C5.48385311,14.7920281 5.37524403,14.7081429 5.27762924,14.612366 L0.473484332,9.83847815 C-0.344625452,9.01970044 0.0295803747,7.86881297 0.603045377,7.29665042 C1.17520792,6.72318542 2.36358277,6.62914137 3.03635174,7.29665042 L4.07873455,8.33706285 L4.07873455,1.70729111 C4.08271995,0.760912183 4.85276459,-0.0032504266 5.79914626,1.03971813e-05 C6.7494387,1.03971813e-05 7.46300128,0.76356105 7.46300128,1.70729111 L7.46300128,3.44084427 C7.71245298,3.30672767 7.99131243,3.23667427 8.27453199,3.2369764 C9.03084188,3.2369764 9.61811626,3.7223252 9.84895166,4.39444295 C10.1120145,4.23200322 10.4309828,4.13533756 10.765063,4.13533756 C11.5213561,4.13533756 12.1073281,4.62066966 12.3381635,5.29410656 C12.597067,5.12497528 12.8996378,5.03493808 13.2088892,5.03500117 L13.254926,5.03500117 L13.2542748,5.03500117 Z M13.9921666,10.1567785 L13.9921666,10.1594168 L13.9961074,10.1594168 L13.9961074,6.85142731 C13.9961074,6.01095868 13.2062676,6.04383737 13.2062676,6.04383737 C12.7564191,6.04383737 12.4216877,6.40553627 12.4216877,6.85142731 L12.4216877,8.62839569 L12.412487,8.62839569 C12.4182032,8.65831942 12.4212764,8.68868795 12.421671,8.7191502 C12.4234369,8.8377202 12.3774775,8.95202543 12.2941242,9.03637106 C12.2107709,9.12071668 12.0970175,9.16802549 11.978435,9.16766285 C11.8431965,9.1679049 11.7149824,9.1074656 11.6291064,9.00299166 C11.5432304,8.89851772 11.5087513,8.76102969 11.5351655,8.62839569 L11.5259815,8.62839569 L11.5259815,6.02147853 C11.5259815,5.26451741 10.7117791,5.21322066 10.7117791,5.21322066 C10.261964,5.21322066 9.94232779,5.57557079 9.94232779,6.02147853 L9.94232779,8.09109891 L9.93180794,8.09109891 C9.95845513,8.22365103 9.92415752,8.36116274 9.8383827,8.46567502 C9.75260787,8.5701873 9.6244269,8.6306475 9.48922314,8.63036607 C9.35398763,8.63060311 9.22577821,8.57016168 9.13990601,8.46568841 C9.0540338,8.36121514 9.01955674,8.22373004 9.04597041,8.09109891 L9.03675302,8.09109891 L9.03675302,5.12508776 C9.03675302,4.30500759 8.2390317,4.31617866 8.2390317,4.31617866 C7.78918319,4.31617866 7.46300128,4.67789426 7.46300128,5.12508776 L7.46300128,7.37162517 L7.45445182,7.37162517 C7.48117626,7.50452224 7.44663459,7.64238836 7.36040707,7.74698587 C7.27417954,7.85158338 7.14543454,7.91179067 7.00987994,7.91090903 C6.87464087,7.91114707 6.74642801,7.85070341 6.66055513,7.74622608 C6.57468225,7.64174876 6.54020784,7.5042588 6.56662721,7.37162517 L6.55807775,7.37162517 L6.55807775,1.88878344 C6.55807775,1.4429091 6.25029722,1.07989104 5.80046541,1.07989104 C5.34931445,1.07989104 4.98497724,1.4429091 4.98497724,1.88880014 L4.98497724,10.5086255 C4.16290999,9.69313734 3.34216189,8.87633001 2.5214138,8.06019061 C2.20311342,7.74451184 1.59872342,7.75635084 1.2699032,8.08649022 C0.941734211,8.41532713 0.839791928,8.92894592 1.24161652,9.33208966 L5.78862641,13.8494937 C6.63238458,14.6873407 7.7464526,15.1003531 9.59971488,15.1003531 C13.9790084,15.1003531 13.9921666,12.8873456 13.9921666,10.1567785 L13.9921666,10.1567785 Z" id="形状" fill="#000000"></path>
                                </g>
                            </g>
                        </g>
                    </g>
                </g>
            </g>
        </g>
    </g>
</svg>