<?xml version="1.0" encoding="UTF-8"?>
<svg width="60px" height="34px" viewBox="0 0 60 34" version="1.1" xmlns="http://www.w3.org/2000/svg" xmlns:xlink="http://www.w3.org/1999/xlink">
    <title>3.导航/开关/开-默认</title>
    <defs>
        <linearGradient x1="50%" y1="0%" x2="50%" y2="100%" id="linearGradient-1">
            <stop stop-color="#444444" stop-opacity="0.7" offset="0%"></stop>
            <stop stop-color="#000000" stop-opacity="0.7" offset="100%"></stop>
        </linearGradient>
    </defs>
    <g id="3.导航/开关/开-默认" stroke="none" stroke-width="1" fill="none" fill-rule="evenodd">
        <path d="M59.5,0.5 L59.5,33.5 L0.5,33.5 L0.5,0.5 L59.5,0.5 Z" id="矩形" stroke="#38B7FD" fill="url(#linearGradient-1)"></path>
        <path d="M10,8 C11.1045695,8 12,7.1045695 12,6 C12,4.8954305 11.1045695,4 10,4 C8.8954305,4 8,4.8954305 8,6 C8,7.1045695 8.8954305,8 10,8 Z" id="椭圆形" stroke="#38B7FD"></path>
        <g id="编组" transform="translate(20.000000, 7.000000)" fill="#38B7FD" fill-rule="nonzero">
            <g id="1.图标/2.设计/">
                <path d="M18.125,2.734375 L1.875,2.734375 C1.52929688,2.734375 1.25,3.01367188 1.25,3.359375 L1.25,13.046875 C1.25,13.3925781 1.52929688,13.671875 1.875,13.671875 L9.296875,13.671875 L9.296875,15.859375 L6.29166667,15.859375 C5.92347683,15.859375 5.625,16.1578518 5.625,16.5260417 L5.625,16.5989583 C5.625,16.9671482 5.92347683,17.265625 6.29166667,17.265625 L13.7083333,17.265625 C14.0765232,17.265625 14.375,16.9671482 14.375,16.5989583 L14.375,16.5260417 C14.375,16.1578518 14.0765232,15.859375 13.7083333,15.859375 L10.703125,15.859375 L10.703125,15.859375 L10.703125,13.671875 L18.125,13.671875 C18.4707031,13.671875 18.75,13.3925781 18.75,13.046875 L18.75,3.359375 C18.75,3.01367188 18.4707031,2.734375 18.125,2.734375 Z" id="形状"></path>
            </g>
        </g>
    </g>
</svg>