<svg xmlns="http://www.w3.org/2000/svg" width="160" height="29" viewBox="0 0 160 29"><defs><style>.a{fill:rgba(120,164,251,0.41);}.b{fill:#437ef3;}.c{fill:#fff;}</style></defs><g transform="translate(-1716 -229)"><rect class="a" width="158" height="3" rx="1.5" transform="translate(1718 242)"/><rect class="b" width="75" height="3" rx="1.5" transform="translate(1716 242)"/><g transform="translate(1786 241)"><path class="b" d="M3.5,0C5.433,0,7,1.119,7,2.5S5.433,5,3.5,5,0,3.881,0,2.5,1.567,0,3.5,0Z"/><path class="b" d="M3.5,0C5.433,0,7,1.119,7,2.5S5.433,5,3.5,5,0,3.881,0,2.5,1.567,0,3.5,0Z"/><path class="c" d="M3.5,0C5.433,0,7,1.119,7,2.5S5.433,5,3.5,5,0,3.881,0,2.5,1.567,0,3.5,0Z"/></g></g></svg>