<?xml version="1.0" encoding="UTF-8"?>
<svg width="164px" height="128px" viewBox="0 0 164 128" version="1.1" xmlns="http://www.w3.org/2000/svg" xmlns:xlink="http://www.w3.org/1999/xlink">
    <title>表盘-转速@2x</title>
    <defs>
        <filter x="-4.3%" y="-5.7%" width="108.6%" height="111.1%" filterUnits="objectBoundingBox" id="filter-1">
            <feGaussianBlur stdDeviation="2" in="SourceGraphic"></feGaussianBlur>
        </filter>
        <linearGradient x1="50%" y1="0%" x2="50%" y2="100%" id="linearGradient-2">
            <stop stop-color="#FFFFFF" stop-opacity="0.8" offset="0%"></stop>
            <stop stop-color="#FFFFFF" stop-opacity="0" offset="100%"></stop>
        </linearGradient>
        <linearGradient x1="50%" y1="0%" x2="50%" y2="100%" id="linearGradient-3">
            <stop stop-color="#022C44" stop-opacity="0.8" offset="0%"></stop>
            <stop stop-color="#022C44" stop-opacity="0" offset="100%"></stop>
        </linearGradient>
    </defs>
    <g id="控件" stroke="none" stroke-width="1" fill="none" fill-rule="evenodd">
        <g id="3.沉浸式/10.内容-转速" transform="translate(7.000000, 7.000000)">
            <g id="表盘-转速" transform="translate(-0.500000, -0.500000)">
                <path d="M10.622806,114.500487 C3.87757405,103.245925 0,90.0757903 0,76 L0,75 C0,33.5786438 33.5786438,0 75,0 L76,0 C117.421356,0 151,33.5786438 151,75 L151,76 C151,90.0757903 147.122426,103.245925 140.377194,114.500487" id="路径" stroke="#38B7FD" filter="url(#filter-1)"></path>
                <g id="表盘颜色" fill="url(#linearGradient-3)">
                    <path d="M76,0 C117.421356,-7.6089797e-15 151,33.5786438 151,75 L151,76 C151,90.0757903 147.122426,103.245925 140.377194,114.500487 L10.622806,114.500487 C3.87757405,103.245925 1.72378716e-15,90.0757903 0,76 L0,75 C-5.07265313e-15,33.5786438 33.5786438,7.6089797e-15 75,0 L76,0 Z" id="形状结合"></path>
                </g>
                <path d="M75.5,1.5 C116.369071,1.5 149.5,34.6309285 149.5,75.5 C149.5,88.3828824 146.196967,100.753337 140.093774,111.637918 L138.794673,110.887779 C144.767884,100.228441 148,88.1159686 148,75.5 C148,35.4593556 115.540644,3 75.5,3 C35.4593556,3 3,35.4593556 3,75.5 C3,88.1161342 6.23220062,100.228759 12.2055624,110.888199 L10.9062258,111.637918 C4.80303264,100.753337 1.5,88.3828824 1.5,75.5 C1.5,34.6309285 34.6309285,1.5 75.5,1.5 Z" id="正常" fill="#FFFFFF" fill-rule="nonzero" opacity="0.48999998"></path>
                <g id="表盘" transform="translate(20.500000, 18.500000)" fill="#FFFFFF" font-family="HelveticaNeue-Bold, Helvetica Neue" font-size="12" font-weight="bold">
                    <text id="8">
                        <tspan x="95.164" y="88">8</tspan>
                    </text>
                    <text id="7">
                        <tspan x="103.164" y="61">7</tspan>
                    </text>
                    <text id="6">
                        <tspan x="96.164" y="36">6</tspan>
                    </text>
                    <text id="5">
                        <tspan x="77.164" y="18">5</tspan>
                    </text>
                    <text id="4">
                        <tspan x="51.664" y="12">4</tspan>
                    </text>
                    <text id="3">
                        <tspan x="26.164" y="18">3</tspan>
                    </text>
                    <text id="2">
                        <tspan x="7.164" y="36">2</tspan>
                    </text>
                    <text id="1">
                        <tspan x="0.164" y="61">1</tspan>
                    </text>
                    <text id="0">
                        <tspan x="8.164" y="88">0</tspan>
                    </text>
                </g>
                <g id="刻度" transform="translate(4.500000, 4.500000)" fill="#FFFFFF" opacity="0.399999976">
                    <path d="M21.136552,98.6339746 L22.136552,100.366025 L10.0121963,107.366025 L9.01219633,105.633975 L21.136552,98.6339746 Z M120.863448,98.6339746 L132.987804,105.633975 L131.987804,107.366025 L119.863448,100.366025 L120.863448,98.6339746 Z M14,70 L14,72 L0,72 L-3.6739404e-16,70 L14,70 Z M142,70 L142,72 L128,72 L128,70 L142,70 Z M10.0121963,34.6339746 L22.136552,41.6339746 L21.136552,43.3660254 L9.01219633,36.3660254 L10.0121963,34.6339746 Z M131.987804,34.6339746 L132.987804,36.3660254 L120.863448,43.3660254 L119.863448,41.6339746 L131.987804,34.6339746 Z M36.3660254,9.01219633 L43.3660254,21.136552 L41.6339746,22.136552 L34.6339746,10.0121963 L36.3660254,9.01219633 Z M105.633975,9.01219633 L107.366025,10.0121963 L100.366025,22.136552 L98.6339746,21.136552 L105.633975,9.01219633 Z M72,0 L72,14 L70,14 L70,0 L72,0 Z" id="形状结合"></path>
                    <path d="M127.269608,99.3340995 L134.39766,102.966024 L134.125266,103.500627 L126.997214,99.8687034 L127.269608,99.3340995 Z M14.7303918,99.3340995 L15.0027861,99.8687034 L7.87473393,103.500627 L7.60233963,102.966024 L14.7303918,99.3340995 Z M128.675385,96.3503449 L135.983748,99.604238 L135.739706,100.152365 L128.431343,96.8984722 L128.675385,96.3503449 Z M13.3246152,96.3503449 L13.5686572,96.8984722 L6.2602935,100.152365 L6.01625151,99.604238 L13.3246152,96.3503449 Z M12.0769227,93.2971067 L12.2919435,93.8572549 L4.8233001,96.7241985 L4.60827933,96.1640503 L12.0769227,93.2971067 Z M129.923077,93.2971067 L137.391721,96.1640503 L137.1767,96.7241985 L129.708056,93.8572549 L129.923077,93.2971067 Z M10.9907344,90.1827537 L11.1761446,90.7533876 L3.56769244,93.2255236 L3.38228224,92.6548896 L10.9907344,90.1827537 Z M131.009266,90.1827537 L138.617718,92.6548896 L138.432308,93.2255236 L130.823855,90.7533876 L131.009266,90.1827537 Z M131.930973,87.0158221 L139.658379,89.0863745 L139.503088,89.66593 L131.775681,87.5953776 L131.930973,87.0158221 Z M10.0690272,87.0158221 L10.2243187,87.5953776 L2.49691205,89.66593 L2.34162062,89.0863745 L10.0690272,87.0158221 Z M9.31432765,83.8049922 L9.43907466,84.3918808 L1.61389386,86.0551743 L1.48914684,85.4682858 L9.31432765,83.8049922 Z M132.685672,83.8049922 L140.510853,85.4682858 L140.386106,86.0551743 L132.560925,84.3918808 L132.685672,83.8049922 Z M8.7287042,80.5590648 L8.82256488,81.1516778 L0.921058157,82.4031535 L0.827197478,81.8105405 L8.7287042,80.5590648 Z M133.271296,80.5590648 L141.172803,81.8105405 L141.078942,82.4031535 L133.177435,81.1516778 L133.271296,80.5590648 Z M8.31376205,77.2869366 L8.37647913,77.8836498 L0.420303968,78.7198775 L0.35758689,78.1231643 L8.31376205,77.2869366 Z M133.686238,77.2869366 L141.642413,78.1231643 L141.579696,78.7198775 L133.623521,77.8836498 L133.686238,77.2869366 Z M8.07063852,73.9975764 L8.1020401,74.5967541 L0.113003819,75.0154418 L0.0816022456,74.416264 L8.07063852,73.9975764 Z M133.929361,73.9975764 L141.918398,74.416264 L141.886996,75.0154418 L133.89796,74.5967541 L133.929361,73.9975764 Z M141.886996,66.9845582 L141.918398,67.583736 L133.929361,68.0024236 L133.89796,67.4032459 L141.886996,66.9845582 Z M0.113003819,66.9845582 L8.1020401,67.4032459 L8.07063852,68.0024236 L0.0816022456,67.583736 L0.113003819,66.9845582 Z M0.420303968,63.2801225 L8.37647913,64.1163502 L8.31376205,64.7130634 L0.35758689,63.8768357 L0.420303968,63.2801225 Z M141.579696,63.2801225 L141.642413,63.8768357 L133.686238,64.7130634 L133.623521,64.1163502 L141.579696,63.2801225 Z M0.921058157,59.5968465 L8.82256488,60.8483222 L8.7287042,61.4409352 L0.827197478,60.1894595 L0.921058157,59.5968465 Z M141.078942,59.5968465 L141.172803,60.1894595 L133.271296,61.4409352 L133.177435,60.8483222 L141.078942,59.5968465 Z M1.61389386,55.9448257 L9.43907466,57.6081192 L9.31432765,58.1950078 L1.48914684,56.5317142 L1.61389386,55.9448257 Z M140.386106,55.9448257 L140.510853,56.5317142 L132.685672,58.1950078 L132.560925,57.6081192 L140.386106,55.9448257 Z M2.49691205,52.33407 L10.2243187,54.4046224 L10.0690272,54.9841779 L2.34162062,52.9136255 L2.49691205,52.33407 Z M139.503088,52.33407 L139.658379,52.9136255 L131.930973,54.9841779 L131.775681,54.4046224 L139.503088,52.33407 Z M3.56769244,48.7744764 L11.1761446,51.2466124 L10.9907344,51.8172463 L3.38228224,49.3451104 L3.56769244,48.7744764 Z M138.432308,48.7744764 L138.617718,49.3451104 L131.009266,51.8172463 L130.823855,51.2466124 L138.432308,48.7744764 Z M4.8233001,45.2758015 L12.2919435,48.1427451 L12.0769227,48.7028933 L4.60827933,45.8359497 L4.8233001,45.2758015 Z M137.1767,45.2758015 L137.391721,45.8359497 L129.923077,48.7028933 L129.708056,48.1427451 L137.1767,45.2758015 Z M6.2602935,41.8476347 L13.5686572,45.1015278 L13.3246152,45.6496551 L6.01625151,42.395762 L6.2602935,41.8476347 Z M135.739706,41.8476347 L135.983748,42.395762 L128.675385,45.6496551 L128.431343,45.1015278 L135.739706,41.8476347 Z M7.87473393,38.4993726 L15.0027861,42.1312966 L14.7303918,42.6659005 L7.60233963,39.0339765 L7.87473393,38.4993726 Z M134.125266,38.4993726 L134.39766,39.0339765 L127.269608,42.6659005 L126.997214,42.1312966 L134.125266,38.4993726 Z M11.6177814,32.0790273 L18.3271459,36.4361396 L18.0003625,36.939342 L11.290998,32.5822297 L11.6177814,32.0790273 Z M130.382219,32.0790273 L130.709002,32.5822297 L123.999637,36.939342 L123.672854,36.4361396 L130.382219,32.0790273 Z M13.736129,29.024542 L20.2082649,33.726824 L19.8555938,34.2122342 L13.3834578,29.5099522 L13.736129,29.024542 Z M128.263871,29.024542 L128.616542,29.5099522 L122.144406,34.2122342 L121.791735,33.726824 L128.263871,29.024542 Z M125.988567,26.0851084 L126.366159,26.551396 L120.148992,31.5859592 L119.771399,31.1196716 L125.988567,26.0851084 Z M16.0114329,26.0851084 L22.2286005,31.1196716 L21.8510083,31.5859592 L15.6338406,26.551396 L16.0114329,26.0851084 Z M123.562543,23.2687835 L123.964022,23.7146704 L118.018863,29.0677152 L117.617385,28.6218284 L123.562543,23.2687835 Z M18.4374566,23.2687835 L24.3826152,28.6218284 L23.9811368,29.0677152 L18.0359782,23.7146704 L18.4374566,23.2687835 Z M120.992449,20.5832865 L121.416713,21.0075506 L115.759859,26.6644048 L115.335595,26.2401408 L120.992449,20.5832865 Z M21.0075506,20.5832865 L26.6644048,26.2401408 L26.2401408,26.6644048 L20.5832865,21.0075506 L21.0075506,20.5832865 Z M23.7146704,18.0359782 L29.0677152,23.9811368 L28.6218284,24.3826152 L23.2687835,18.4374566 L23.7146704,18.0359782 Z M118.28533,18.0359782 L118.731216,18.4374566 L113.378172,24.3826152 L112.932285,23.9811368 L118.28533,18.0359782 Z M115.448604,15.6338406 L115.914892,16.0114329 L110.880328,22.2286005 L110.414041,21.8510083 L115.448604,15.6338406 Z M26.551396,15.6338406 L31.5859592,21.8510083 L31.1196716,22.2286005 L26.0851084,16.0114329 L26.551396,15.6338406 Z M112.490048,13.3834578 L112.975458,13.736129 L108.273176,20.2082649 L107.787766,19.8555938 L112.490048,13.3834578 Z M29.5099522,13.3834578 L34.2122342,19.8555938 L33.726824,20.2082649 L29.024542,13.736129 L29.5099522,13.3834578 Z M109.41777,11.290998 L109.920973,11.6177814 L105.56386,18.3271459 L105.060658,18.0003625 L109.41777,11.290998 Z M32.5822297,11.290998 L36.939342,18.0003625 L36.4361396,18.3271459 L32.0790273,11.6177814 L32.5822297,11.290998 Z M102.966024,7.60233963 L103.500627,7.87473393 L99.8687034,15.0027861 L99.3340995,14.7303918 L102.966024,7.60233963 Z M39.0339765,7.60233963 L42.6659005,14.7303918 L42.1312966,15.0027861 L38.4993726,7.87473393 L39.0339765,7.60233963 Z M42.395762,6.01625151 L45.6496551,13.3246152 L45.1015278,13.5686572 L41.8476347,6.2602935 L42.395762,6.01625151 Z M99.604238,6.01625151 L100.152365,6.2602935 L96.8984722,13.5686572 L96.3503449,13.3246152 L99.604238,6.01625151 Z M45.8359497,4.60827933 L48.7028933,12.0769227 L48.1427451,12.2919435 L45.2758015,4.8233001 L45.8359497,4.60827933 Z M96.1640503,4.60827933 L96.7241985,4.8233001 L93.8572549,12.2919435 L93.2971067,12.0769227 L96.1640503,4.60827933 Z M49.3451104,3.38228224 L51.8172463,10.9907344 L51.2466124,11.1761446 L48.7744764,3.56769244 L49.3451104,3.38228224 Z M92.6548896,3.38228224 L93.2255236,3.56769244 L90.7533876,11.1761446 L90.1827537,10.9907344 L92.6548896,3.38228224 Z M52.9136255,2.34162062 L54.9841779,10.0690272 L54.4046224,10.2243187 L52.33407,2.49691205 L52.9136255,2.34162062 Z M89.0863745,2.34162062 L89.66593,2.49691205 L87.5953776,10.2243187 L87.0158221,10.0690272 L89.0863745,2.34162062 Z M56.5317142,1.48914684 L58.1950078,9.31432765 L57.6081192,9.43907466 L55.9448257,1.61389386 L56.5317142,1.48914684 Z M85.4682858,1.48914684 L86.0551743,1.61389386 L84.3918808,9.43907466 L83.8049922,9.31432765 L85.4682858,1.48914684 Z M60.1894595,0.827197478 L61.4409352,8.7287042 L60.8483222,8.82256488 L59.5968465,0.921058157 L60.1894595,0.827197478 Z M81.8105405,0.827197478 L82.4031535,0.921058157 L81.1516778,8.82256488 L80.5590648,8.7287042 L81.8105405,0.827197478 Z M63.8768357,0.35758689 L64.7130634,8.31376205 L64.1163502,8.37647913 L63.2801225,0.420303968 L63.8768357,0.35758689 Z M78.1231643,0.35758689 L78.7198775,0.420303968 L77.8836498,8.37647913 L77.2869366,8.31376205 L78.1231643,0.35758689 Z M67.583736,0.0816022456 L68.0024236,8.07063852 L67.4032459,8.1020401 L66.9845582,0.113003819 L67.583736,0.0816022456 Z M74.416264,0.0816022456 L75.0154418,0.113003819 L74.5967541,8.1020401 L73.9975764,8.07063852 L74.416264,0.0816022456 Z" id="形状结合"></path>
                </g>
            </g>
        </g>
    </g>
</svg>