<?xml version="1.0" encoding="UTF-8"?>
<svg width="164px" height="128px" viewBox="0 0 164 128" version="1.1" xmlns="http://www.w3.org/2000/svg" xmlns:xlink="http://www.w3.org/1999/xlink">
    <title>表盘-温度@2x</title>
    <defs>
        <filter x="-4.3%" y="-5.7%" width="108.6%" height="111.1%" filterUnits="objectBoundingBox" id="filter-1">
            <feGaussianBlur stdDeviation="2" in="SourceGraphic"></feGaussianBlur>
        </filter>
        <linearGradient x1="50%" y1="0%" x2="50%" y2="100%" id="linearGradient-2">
            <stop stop-color="#002216" stop-opacity="0.8" offset="0%"></stop>
            <stop stop-color="#002216" stop-opacity="0" offset="100%"></stop>
        </linearGradient>
        <linearGradient x1="50%" y1="0%" x2="50%" y2="100%" id="linearGradient-3">
            <stop stop-color="#022C44" stop-opacity="0.8" offset="0%"></stop>
            <stop stop-color="#022C44" stop-opacity="0" offset="100%"></stop>
        </linearGradient>
        <polygon id="path-4" points="-4.22777284e-14 118.5 0 0 150.000439 0 150.000439 118.5 75 75"></polygon>
        <polygon id="path-6" points="108.500439 -9.0448482e-15 75 75 -1.51252481e-14 118.5 0.000438763306 0"></polygon>
        <polygon id="path-8" points="33.5004388 -9.0448482e-15 -2.31721168e-14 75 75.0004388 118.5 75.0004388 -9.0448482e-15"></polygon>
    </defs>
    <g id="控件" stroke="none" stroke-width="1" fill="none" fill-rule="evenodd">
        <g id="3.沉浸式/10.内容-温度" transform="translate(7.000000, 7.000000)">
            <g id="表盘-温度" transform="translate(-0.500000, -0.500000)">
                <path d="M10.622806,114.500487 C3.87757405,103.245925 0,90.0757903 0,76 L0,75 C0,33.5786438 33.5786438,0 75,0 L76,0 C117.421356,0 151,33.5786438 151,75 L151,76 C151,90.0757903 147.122426,103.245925 140.377194,114.500487" id="路径" stroke="#38B7FD" filter="url(#filter-1)"></path>
                <g id="表盘颜色" fill="url(#linearGradient-3)">
                    <path d="M76,0 C117.421356,-7.6089797e-15 151,33.5786438 151,75 L151,76 C151,90.0757903 147.122426,103.245925 140.377194,114.500487 L10.622806,114.500487 C3.87757405,103.245925 1.72378716e-15,90.0757903 0,76 L0,75 C-5.07265313e-15,33.5786438 33.5786438,7.6089797e-15 75,0 L76,0 Z" id="形状结合"></path>
                </g>
                <g id="数据背景" transform="translate(0.499561, 0.500000)">
                    <mask id="mask-5" fill="white">
                        <use xlink:href="#path-4"></use>
                    </mask>
                    <use id="路径" fill="#38B7FD" opacity="0" xlink:href="#path-4"></use>
                    <path d="M75.0004388,1 C115.86951,1 149.000439,34.1309285 149.000439,75 C149.000439,115.869071 115.86951,149 75.0004388,149 C34.1313673,149 1.00043876,115.869071 1.00043876,75 C1.00043876,34.1309285 34.1313673,1 75.0004388,1 Z M75.0004388,15 C41.8633538,15 15.0004388,41.862915 15.0004388,75 C15.0004388,108.137085 41.8633538,135 75.0004388,135 C108.137524,135 135.000439,108.137085 135.000439,75 C135.000439,41.862915 108.137524,15 75.0004388,15 Z" id="形状结合" fill="#38B7FD" opacity="0.258882068" mask="url(#mask-5)"></path>
                </g>
                <g id="标记颜色-绿" transform="translate(0.499561, 0.500000)">
                    <mask id="mask-7" fill="white">
                        <use xlink:href="#path-6"></use>
                    </mask>
                    <use id="路径" fill="#20F09D" opacity="0" xlink:href="#path-6"></use>
                    <path d="M75.0004388,17 C107.032954,17 133.000439,42.9674845 133.000439,75 C133.000439,107.032515 107.032954,133 75.0004388,133 C42.9679233,133 17.0004388,107.032515 17.0004388,75 C17.0004388,42.9674845 42.9679233,17 75.0004388,17 Z M75.0004388,18 C43.520208,18 18.0004388,43.5197693 18.0004388,75 C18.0004388,106.480231 43.520208,132 75.0004388,132 C106.48067,132 132.000439,106.480231 132.000439,75 C132.000439,43.5197693 106.48067,18 75.0004388,18 Z" id="形状结合" fill="#20F09D" mask="url(#mask-7)"></path>
                </g>
                <g id="标记颜色-红" transform="translate(75.499561, 0.500000)">
                    <mask id="mask-9" fill="white">
                        <use xlink:href="#path-8"></use>
                    </mask>
                    <use id="路径" fill="#FF4848" opacity="0" xlink:href="#path-8"></use>
                    <path d="M0.000438763306,17 C32.0329543,17 58.0004388,42.9674845 58.0004388,75 C58.0004388,107.032515 32.0329543,133 0.000438763306,133 C-32.0320767,133 -57.9995612,107.032515 -57.9995612,75 C-57.9995612,42.9674845 -32.0320767,17 0.000438763306,17 Z M0.000438763306,18 C-31.479792,18 -56.9995612,43.5197693 -56.9995612,75 C-56.9995612,106.480231 -31.479792,132 0.000438763306,132 C31.4806695,132 57.0004388,106.480231 57.0004388,75 C57.0004388,43.5197693 31.4806695,18 0.000438763306,18 Z" id="形状结合" fill="#FF4848" mask="url(#mask-9)"></path>
                </g>
                <g id="表盘" transform="translate(20.000000, 18.500000)" fill="#FFFFFF" font-family="HelveticaNeue-Bold, Helvetica Neue" font-size="12" font-weight="bold">
                    <text id="100">
                        <tspan x="82.984" y="88">100</tspan>
                    </text>
                    <text id="90">
                        <tspan x="97.656" y="66">90</tspan>
                    </text>
                    <text id="80">
                        <tspan x="93.656" y="45">80</tspan>
                    </text>
                    <text id="70">
                        <tspan x="83.656" y="28">70</tspan>
                    </text>
                    <text id="60">
                        <tspan x="67.656" y="16">60</tspan>
                    </text>
                    <text id="50">
                        <tspan x="48.828" y="12">50</tspan>
                    </text>
                    <text id="40">
                        <tspan x="30" y="16">40</tspan>
                    </text>
                    <text id="30">
                        <tspan x="14" y="28">30</tspan>
                    </text>
                    <text id="20">
                        <tspan x="4" y="45">20</tspan>
                    </text>
                    <text id="0">
                        <tspan x="8.164" y="88">0</tspan>
                    </text>
                    <text id="10">
                        <tspan x="0" y="66">10</tspan>
                    </text>
                </g>
                <g id="刻度" transform="translate(2.795373, 2.500000)" fill="#FFFFFF">
                    <path d="M126.032176,102.633975 L136.424481,108.633975 L135.424481,110.366025 L125.032176,104.366025 L126.032176,102.633975 Z M128.689318,101.898064 L135.752898,105.653836 L135.471216,106.183605 L128.407635,102.427832 L128.689318,101.898064 Z M129.829594,99.5648472 L137.080056,102.945793 L136.826485,103.489578 L129.576023,100.108632 L129.829594,99.5648472 Z M130.904658,97.1244683 L138.268697,100.250317 L138.034258,100.80262 L130.670219,97.6767712 L130.904658,97.1244683 Z M131.846356,94.7043388 L139.363897,97.4405 L139.158685,98.0043155 L131.641144,95.2681544 L131.846356,94.7043388 Z M132.713892,92.1827537 L140.322345,94.6548896 L140.136934,95.2255236 L132.528482,92.7533876 L132.713892,92.1827537 Z M133.474163,89.6267 L141.164257,91.8317989 L140.998874,92.4085559 L133.308781,90.2034571 L133.474163,89.6267 Z M134.104418,87.1073931 L141.899379,88.9070015 L141.764408,89.4916235 L133.969448,87.6920151 L134.104418,87.1073931 Z M134.648607,84.4968239 L142.501624,86.0232959 L142.387139,86.6122722 L134.534121,85.0858003 L134.648607,84.4968239 Z M135.066553,81.9337901 L142.988697,83.0471749 L142.905193,83.6413357 L134.983049,82.5279509 L135.066553,81.9337901 Z M133.474991,78.3817144 L145.409254,79.6360559 L145.200197,81.6250997 L133.265934,80.3707582 L133.474991,78.3817144 Z M135.603088,76.6286697 L143.583601,77.1867215 L143.541747,77.7852599 L135.561234,77.2272081 L135.603088,76.6286697 Z M135.695778,74.0333782 L143.694559,74.1729974 L143.684088,74.7729061 L135.685306,74.6332868 L135.695778,74.0333782 Z M143.684088,71.2270939 L143.694559,71.8270026 L135.695778,71.9666218 L135.685306,71.3667132 L143.684088,71.2270939 Z M143.541747,68.2147401 L143.583601,68.8132785 L135.603088,69.3713303 L135.561234,68.7727919 L143.541747,68.2147401 Z M143.284323,65.2801225 L143.34704,65.8768357 L135.390865,66.7130634 L135.328148,66.1163502 L143.284323,65.2801225 Z M142.905193,62.3586643 L142.988697,62.9528251 L135.066553,64.0662099 L134.983049,63.4720491 L142.905193,62.3586643 Z M142.387139,59.3877278 L142.501624,59.9767041 L134.648607,61.5031761 L134.534121,60.9141997 L142.387139,59.3877278 Z M141.764408,56.5083765 L141.899379,57.0929985 L134.104418,58.8926069 L133.969448,58.3079849 L141.764408,56.5083765 Z M140.998874,53.5914441 L141.164257,54.1682011 L133.474163,56.3733 L133.308781,55.7965429 L140.998874,53.5914441 Z M141.822736,49.4907029 L142.44077,51.3928159 L131.028091,55.1010199 L130.410057,53.1989068 L141.822736,49.4907029 Z M139.158685,47.9956845 L139.363897,48.5595 L131.846356,51.2956612 L131.641144,50.7318456 L139.158685,47.9956845 Z M138.034258,45.1973797 L138.268697,45.7496826 L130.904658,48.8755317 L130.670219,48.3232288 L138.034258,45.1973797 Z M136.826485,42.5104221 L137.080056,43.0542068 L129.829594,46.4351528 L129.576023,45.8913682 L136.826485,42.5104221 Z M135.471216,39.8163951 L135.752898,40.3461637 L128.689318,44.1019362 L128.407635,43.5721676 L135.471216,39.8163951 Z M134.04243,37.2401924 L134.34243,37.7598076 L127.414227,41.7598076 L127.114227,41.2401924 L134.04243,37.2401924 Z M132.507814,34.7255133 L132.825766,35.2343421 L126.041381,39.4736962 L125.72343,38.9648674 L132.507814,34.7255133 Z M130.826159,32.2221396 L131.170305,32.7136308 L124.617089,37.3022423 L124.272943,36.8107511 L130.826159,32.2221396 Z M129.086129,29.8450086 L129.447218,30.3241899 L123.058134,35.13871 L122.697045,34.6595287 L129.086129,29.8450086 Z M127.200356,27.4916289 L127.586028,27.9512556 L121.457673,33.0935565 L121.072,32.6339298 L127.200356,27.4916289 Z M126.285068,23.4103209 L127.62333,24.8966106 L118.705592,32.9261778 L117.367331,31.4398882 L126.285068,23.4103209 Z M123.243258,23.1281208 L123.660053,23.5597246 L117.905335,29.1169916 L117.48854,28.6853877 L123.243258,23.1281208 Z M121.07787,21.0290876 L121.516682,21.4382867 L116.060696,27.2891163 L115.621883,26.8799173 L121.07787,21.0290876 Z M118.881631,19.0656752 L119.334456,19.4593107 L114.085984,25.4969873 L113.633158,25.1033519 L118.881631,19.0656752 Z M116.547771,17.1557969 L117.020577,17.5251938 L112.095285,23.8292798 L111.622479,23.4598829 L116.547771,17.1557969 Z M31.214579,15.3834578 L35.916861,21.8555938 L35.4314508,22.2082649 L30.7291688,15.736129 L31.214579,15.3834578 Z M114.194675,15.3834578 L114.680085,15.736129 L109.977803,22.2082649 L109.492393,21.8555938 L114.194675,15.3834578 Z M111.769921,13.7103687 L112.267344,14.0458845 L107.7938,20.678185 L107.296378,20.3426693 L111.769921,13.7103687 Z M33.6393327,13.7103687 L38.1128759,20.3426693 L37.6154534,20.678185 L33.1419101,14.0458845 L33.6393327,13.7103687 Z M36.1938151,12.1074139 L40.3141197,18.9647523 L39.7998193,19.2737752 L35.6795147,12.4164368 L36.1938151,12.1074139 Z M109.215439,12.1074139 L109.729739,12.4164368 L105.609434,19.2737752 L105.095134,18.9647523 L109.215439,12.1074139 Z M38.7502781,10.6435307 L42.6287551,17.6404884 L42.1039832,17.9313742 L38.2255063,10.9344165 L38.7502781,10.6435307 Z M106.658976,10.6435307 L107.183747,10.9344165 L103.30527,17.9313742 L102.780499,17.6404884 L106.658976,10.6435307 Z M101.482856,5.90444495 L103.309947,6.71791824 L98.4291075,17.6804637 L96.6020166,16.8669904 L101.482856,5.90444495 Z M43.9263973,5.90444495 L48.8072371,16.8669904 L46.9801461,17.6804637 L42.0993064,6.71791824 L43.9263973,5.90444495 Z M103.97903,9.26062453 L104.518307,9.52364722 L101.011337,16.7139996 L100.472061,16.4509769 L103.97903,9.26062453 Z M41.4302234,9.26062453 L44.9371926,16.4509769 L44.3979162,16.7139996 L40.890947,9.52364722 L41.4302234,9.26062453 Z M46.8200106,6.88385805 L49.8168633,14.3013289 L49.260553,14.5260928 L46.2637003,7.10862201 L46.8200106,6.88385805 Z M98.5892431,6.88385805 L99.1455534,7.10862201 L96.1487006,14.5260928 L95.5923903,14.3013289 L98.5892431,6.88385805 Z M49.6519444,5.84703845 L52.2564897,13.4111871 L51.6891785,13.6065279 L49.0846333,6.04237934 L49.6519444,5.84703845 Z M95.7573092,5.84703845 L96.3246203,6.04237934 L93.7200751,13.6065279 L93.152764,13.4111871 L95.7573092,5.84703845 Z M52.456901,4.94666313 L54.7958747,12.5971012 L54.2220918,12.7725242 L51.8831182,5.12208615 L52.456901,4.94666313 Z M92.9523526,4.94666313 L93.5261355,5.12208615 L91.1871618,12.7725242 L90.613379,12.5971012 L92.9523526,4.94666313 Z M55.3658055,4.15116873 L57.3011807,11.9135345 L56.7190032,12.0586877 L54.7836281,4.29632187 L55.3658055,4.15116873 Z M90.0434481,4.15116873 L90.6256256,4.29632187 L88.6902504,12.0586877 L88.108073,11.9135345 L90.0434481,4.15116873 Z M73.7046268,0 L73.7046268,12 L71.7046268,12 L71.7046268,0 L73.7046268,0 Z M58.2363411,3.48914684 L59.8996346,11.3143276 L59.312746,11.4390747 L57.6494525,3.61389386 L58.2363411,3.48914684 Z M87.1729126,3.48914684 L87.7598012,3.61389386 L86.0965076,11.4390747 L85.5096191,11.3143276 L87.1729126,3.48914684 Z M61.1319704,2.94694005 L62.5211558,10.8254021 L61.9302712,10.929591 L60.5410858,3.05112896 L61.1319704,2.94694005 Z M84.2772832,2.94694005 L84.8681679,3.05112896 L83.4789825,10.929591 L82.8880978,10.8254021 L84.2772832,2.94694005 Z M64.1175866,2.5215696 L65.0925414,10.4619388 L64.4970137,10.5350604 L63.522059,2.59469121 L64.1175866,2.5215696 Z M81.291667,2.5215696 L81.8871947,2.59469121 L80.9122399,10.5350604 L80.3167123,10.4619388 L81.291667,2.5215696 Z M67.0484468,2.22405292 L67.7456927,10.1936105 L67.1479759,10.2459039 L66.4507299,2.27634636 L67.0484468,2.22405292 Z M78.3608069,2.22405292 L78.9585237,2.27634636 L78.2612778,10.2459039 L77.6635609,10.1936105 L78.3608069,2.22405292 Z M70.0591773,2.05073723 L70.3383733,10.0458638 L69.7387388,10.0668035 L69.4595428,2.07167692 L70.0591773,2.05073723 Z M75.3500764,2.05073723 L75.9497109,2.07167692 L75.6705149,10.0668035 L75.0708804,10.0458638 L75.3500764,2.05073723 Z" id="形状结合" opacity="0.599999964"></path>
                    <path d="M19.3770772,102.633975 L20.3770772,104.366025 L9.98477235,110.366025 L8.98477235,108.633975 L19.3770772,102.633975 Z M16.7199359,101.898064 L17.0016189,102.427832 L9.93803811,106.183605 L9.65635518,105.653836 L16.7199359,101.898064 Z M15.57966,99.5648472 L15.8332309,100.108632 L8.58276864,103.489578 L8.32919768,102.945793 L15.57966,99.5648472 Z M14.5045957,97.1244683 L14.7390344,97.6767712 L7.37499559,100.80262 L7.14055692,100.250317 L14.5045957,97.1244683 Z M13.562898,94.7043388 L13.7681101,95.2681544 L6.25056909,98.0043155 L6.045357,97.4405 L13.562898,94.7043388 Z M12.6953612,92.1827537 L12.8807714,92.7533876 L5.27231927,95.2255236 L5.08690907,94.6548896 L12.6953612,92.1827537 Z M11.9350904,89.6267 L12.1004728,90.2034571 L4.41037927,92.4085559 L4.24499686,91.8317989 L11.9350904,89.6267 Z M11.3048353,87.1073931 L11.4398059,87.6920151 L3.64484539,89.4916235 L3.50987476,88.9070015 L11.3048353,87.1073931 Z M10.7606471,84.4968239 L10.8751325,85.0858003 L3.02211499,86.6122722 L2.90762959,86.0232959 L10.7606471,84.4968239 Z M10.3427009,81.9337901 L10.4262047,82.5279509 L2.50406017,83.6413357 L2.42055631,83.0471749 L10.3427009,81.9337901 Z M11.9342627,78.3817144 L12.1433197,80.3707582 L0.209056927,81.6250997 L1.14630527e-14,79.6360559 L11.9342627,78.3817144 Z M9.80616528,76.6286697 L9.84801916,77.2272081 L1.86750676,77.7852599 L1.82565288,77.1867215 L9.80616528,76.6286697 Z M9.71347609,74.0333782 L9.72394753,74.6332868 L1.72516597,74.7729061 L1.71469453,74.1729974 L9.71347609,74.0333782 Z M1.72516597,71.2270939 L9.72394753,71.3667132 L9.71347609,71.9666218 L1.71469453,71.8270026 L1.72516597,71.2270939 Z M1.86750676,68.2147401 L9.84801916,68.7727919 L9.80616528,69.3713303 L1.82565288,68.8132785 L1.86750676,68.2147401 Z M2.12493079,65.2801225 L10.081106,66.1163502 L10.0183889,66.7130634 L2.06221372,65.8768357 L2.12493079,65.2801225 Z M2.50406017,62.3586643 L10.4262047,63.4720491 L10.3427009,64.0662099 L2.42055631,62.9528251 L2.50406017,62.3586643 Z M3.02211499,59.3877278 L10.8751325,60.9141997 L10.7606471,61.5031761 L2.90762959,59.9767041 L3.02211499,59.3877278 Z M3.64484539,56.5083765 L11.4398059,58.3079849 L11.3048353,58.8926069 L3.50987476,57.0929985 L3.64484539,56.5083765 Z M4.41037927,53.5914441 L12.1004728,55.7965429 L11.9350904,56.3733 L4.24499686,54.1682011 L4.41037927,53.5914441 Z M3.58651813,49.4907029 L14.9991963,53.1989068 L14.3811623,55.1010199 L2.96848414,51.3928159 L3.58651813,49.4907029 Z M6.25056909,47.9956845 L13.7681101,50.7318456 L13.562898,51.2956612 L6.045357,48.5595 L6.25056909,47.9956845 Z M7.37499559,45.1973797 L14.7390344,48.3232288 L14.5045957,48.8755317 L7.14055692,45.7496826 L7.37499559,45.1973797 Z M8.58276864,42.5104221 L15.8332309,45.8913682 L15.57966,46.4351528 L8.32919768,43.0542068 L8.58276864,42.5104221 Z M9.93803811,39.8163951 L17.0016189,43.5721676 L16.7199359,44.1019362 L9.65635518,40.3461637 L9.93803811,39.8163951 Z M11.3668232,37.2401924 L18.2950264,41.2401924 L17.9950264,41.7598076 L11.0668232,37.7598076 L11.3668232,37.2401924 Z M12.9014392,34.7255133 L19.685824,38.9648674 L19.3678724,39.4736962 L12.5834877,35.2343421 L12.9014392,34.7255133 Z M14.5830946,32.2221396 L21.1363109,36.8107511 L20.7921651,37.3022423 L14.2389487,32.7136308 L14.5830946,32.2221396 Z M16.3231248,29.8450086 L22.7122089,34.6595287 L22.3511199,35.13871 L15.9620358,30.3241899 L16.3231248,29.8450086 Z M18.2088981,27.4916289 L24.3372536,32.6339298 L23.951581,33.0935565 L17.8232255,27.9512556 L18.2088981,27.4916289 Z M19.1241852,23.4103209 L28.0419231,31.4398882 L26.7036619,32.9261778 L17.785924,24.8966106 L19.1241852,23.4103209 Z M22.1659956,23.1281208 L27.920714,28.6853877 L27.503919,29.1169916 L21.7492006,23.5597246 L22.1659956,23.1281208 Z M24.3313834,21.0290876 L29.7873703,26.8799173 L29.3485581,27.2891163 L23.8925712,21.4382867 L24.3313834,21.0290876 Z M26.5276231,19.0656752 L31.7760953,25.1033519 L31.3232696,25.4969873 L26.0747974,19.4593107 L26.5276231,19.0656752 Z M28.8614829,17.1557969 L33.7867747,23.4598829 L33.3139682,23.8292798 L28.3886764,17.5251938 L28.8614829,17.1557969 Z" id="形状结合"></path>
                </g>
            </g>
        </g>
    </g>
</svg>