<?xml version="1.0" encoding="UTF-8"?>
<svg width="60px" height="34px" viewBox="0 0 60 34" version="1.1" xmlns="http://www.w3.org/2000/svg" xmlns:xlink="http://www.w3.org/1999/xlink">
    <title>-mockplus-</title>
    <defs>
        <linearGradient x1="50%" y1="0%" x2="50%" y2="100%" id="linearGradient-1">
            <stop stop-color="#0085CE" offset="0%"></stop>
            <stop stop-color="#38B7FD" offset="100%"></stop>
        </linearGradient>
    </defs>
    <g id="页面" stroke="none" stroke-width="1" fill="none" fill-rule="evenodd">
        <g id="一些切图" transform="translate(-108.000000, -384.000000)">
            <g id="关-选中" transform="translate(108.000000, 384.000000)">
                <path d="M59.5,0.5 L59.5,33.5 L0.5,33.5 L0.5,0.5 L59.5,0.5 Z" id="矩形" stroke="#3889FF" fill="url(#linearGradient-1)" transform="translate(30.000000, 17.000000) scale(-1, 1) translate(-30.000000, -17.000000) "></path>
                <path d="M50,8 C51.1045695,8 52,7.1045695 52,6 C52,4.8954305 51.1045695,4 50,4 C48.8954305,4 48,4.8954305 48,6 C48,7.1045695 48.8954305,8 50,8 Z" id="椭圆形" fill="#FFFFFF"></path>
                <g id="-mockplus-" transform="translate(20.000000, 7.000000)" fill="#FFFFFF" fill-rule="nonzero">
                    <g id="1.图标/2.设计/" transform="translate(1.250000, 0.610877)">
                        <path d="M3.52003175,0.31260436 L4.566,2.123 L16.875,2.12349848 C17.1892756,2.12349848 17.4486699,2.35432235 17.4932352,2.6560222 L17.5,2.74849848 L17.5,12.4359985 C17.5,12.7817016 17.2207031,13.0609985 16.875,13.0609985 L16.875,13.0609985 L10.88,13.06 L12.143,15.248 L12.4583333,15.2484985 C12.7930514,15.2484985 13.0701553,15.4951736 13.1177716,15.81665 L13.125,15.9151651 L13.125,15.9880818 C13.125,16.1997684 13.0263372,16.388411 12.8724878,16.5105334 L13.5200318,17.6331124 C13.6926207,17.9320453 13.5901988,18.3142893 13.2912659,18.4868783 C12.992333,18.6594673 12.610089,18.5570453 12.4375,18.2581124 L2.4375,0.93760436 C2.26491102,0.63867147 2.36733299,0.256427466 2.66626588,0.0838384822 C2.96519877,-0.0887505022 3.34744277,0.0136714699 3.52003175,0.31260436 Z M8.046,13.153 L10.067,16.654 L5.04166667,16.6547485 C4.70694864,16.6547485 4.42984466,16.4080734 4.38222838,16.0865969 L4.375,15.9880818 L4.375,15.9151651 C4.375,15.5469753 4.67347683,15.2484985 5.04166667,15.2484985 L5.04166667,15.2484985 L8.046875,15.2484985 L8.046,13.153 Z M1.678,2.123 L7.992,13.06 L0.625,13.0609985 C0.310724432,13.0609985 0.051330062,12.8301746 0.00676476803,12.5284748 L0,12.4359985 L0,2.74849848 C0,2.40279536 0.279296875,2.12349848 0.625,2.12349848 L0.625,2.12349848 L1.678,2.123 Z" id="形状结合"></path>
                    </g>
                </g>
            </g>
        </g>
    </g>
</svg>