<?xml version="1.0" encoding="UTF-8"?>
<svg width="60px" height="34px" viewBox="0 0 60 34" version="1.1" xmlns="http://www.w3.org/2000/svg" xmlns:xlink="http://www.w3.org/1999/xlink">
    <title>-mockplus-</title>
    <defs>
        <linearGradient x1="50%" y1="0%" x2="50%" y2="100%" id="linearGradient-1">
            <stop stop-color="#0085CE" offset="0%"></stop>
            <stop stop-color="#38B7FD" offset="100%"></stop>
        </linearGradient>
    </defs>
    <g id="页面" stroke="none" stroke-width="1" fill="none" fill-rule="evenodd">
        <g id="一些切图" transform="translate(-32.000000, -384.000000)">
            <g id="开-选中" transform="translate(32.000000, 384.000000)">
                <path d="M59.5,0.5 L59.5,33.5 L0.5,33.5 L0.5,0.5 L59.5,0.5 Z" id="矩形" stroke="#3889FF" fill="url(#linearGradient-1)"></path>
                <path d="M10,8 C11.1045695,8 12,7.1045695 12,6 C12,4.8954305 11.1045695,4 10,4 C8.8954305,4 8,4.8954305 8,6 C8,7.1045695 8.8954305,8 10,8 Z" id="椭圆形" fill="#FFFFFF"></path>
                <g id="-mockplus-" transform="translate(20.000000, 7.000000)" fill="#FFFFFF" fill-rule="nonzero">
                    <g id="1.图标/2.设计/" transform="translate(1.250000, 2.734375)">
                        <path d="M16.875,0 L0.625,0 C0.279296875,0 0,0.279296875 0,0.625 L0,10.3125 C0,10.6582031 0.279296875,10.9375 0.625,10.9375 L8.046875,10.9375 L8.046875,13.125 L5.04166667,13.125 C4.67347683,13.125 4.375,13.4234768 4.375,13.7916667 L4.375,13.8645833 C4.375,14.2327732 4.67347683,14.53125 5.04166667,14.53125 L12.4583333,14.53125 C12.8265232,14.53125 13.125,14.2327732 13.125,13.8645833 L13.125,13.7916667 C13.125,13.4234768 12.8265232,13.125 12.4583333,13.125 L9.453125,13.125 L9.453125,13.125 L9.453125,10.9375 L16.875,10.9375 C17.2207031,10.9375 17.5,10.6582031 17.5,10.3125 L17.5,0.625 C17.5,0.279296875 17.2207031,0 16.875,0 Z" id="形状"></path>
                    </g>
                </g>
            </g>
        </g>
    </g>
</svg>