<svg xmlns="http://www.w3.org/2000/svg" xmlns:xlink="http://www.w3.org/1999/xlink" width="18" height="18" viewBox="0 0 18 18"><defs><style>.a{fill:#747e8d;}</style><linearGradient id="a" x1="0.5" x2="0.5" y2="1" gradientUnits="objectBoundingBox"><stop offset="0" stop-color="#747e8d"/><stop offset="1" stop-color="#25bac5"/></linearGradient></defs><path class="a" d="M23.855,10.79a9,9,0,1,0,9,9A9,9,0,0,0,23.855,10.79Zm-.5,13.107-.541.524a2.585,2.585,0,0,1-3.566,0,2.395,2.395,0,0,1,0-3.463l1.991-1.926c1.238-1.2,2.658-1.369,3.62-.439a.634.634,0,0,1,0,.913.674.674,0,0,1-.937,0c-.565-.547-1.341.04-1.754.439l-1.991,1.926a1.127,1.127,0,0,0,0,1.63,1.232,1.232,0,0,0,1.7,0l.541-.524a.675.675,0,0,1,.937,0A.634.634,0,0,1,23.359,23.9Zm5.1-4.933-2.124,2.054a2.947,2.947,0,0,1-2,.956,2.113,2.113,0,0,1-1.488-.645.634.634,0,0,1,0-.913.674.674,0,0,1,.936,0c.194.188.65.629,1.621-.31l2.124-2.054a1.127,1.127,0,0,0,0-1.631,1.091,1.091,0,0,0-1.567-.128l-.674.652a.675.675,0,0,1-.937,0,.634.634,0,0,1,0-.913l.674-.652a2.485,2.485,0,0,1,3.433,3.592Z" transform="translate(-14.855 -10.79)"/></svg>
