<?xml version="1.0" encoding="UTF-8"?>
<svg width="87px" height="44px" viewBox="0 0 87 44" version="1.1" xmlns="http://www.w3.org/2000/svg" xmlns:xlink="http://www.w3.org/1999/xlink">
    <title>3.导航/切换/2资产-悬停</title>
    <defs>
        <linearGradient x1="50%" y1="0%" x2="50%" y2="99.8716128%" id="linearGradient-1">
            <stop stop-color="#0085CE" offset="0%"></stop>
            <stop stop-color="#19F2FF" offset="100%"></stop>
        </linearGradient>
    </defs>
    <g id="3.导航/切换/2资产-悬停" stroke="none" stroke-width="1" fill="none" fill-rule="evenodd" opacity="0.639999986">
        <g id="2">
            <path d="M86.5,0.5 L86.5,43.5 L9.40807981,43.5 L0.612625263,0.5 L86.5,0.5 Z" id="矩形" stroke="#3889FF" fill="url(#linearGradient-1)"></path>
            <g id="编组" transform="translate(38.000000, 12.000000)" fill="#FFFFFF" fill-rule="nonzero">
                <g id="1.图标/2.设计/">
                    <path d="M5.92125,17.99875 C5.92125,18.56125 5.60875,19.015 5.2225,19.015 L0.69875,19.015 C0.3125,19.015 0,18.55875 0,17.99875 L0,17.99875 C0,17.4375 0.3125,16.9824974 0.69875,16.9824974 L5.22125,16.9824974 C5.60875,16.98125 5.92125,17.4375 5.92125,17.99875 L5.92125,17.99875 Z M5.92125,14.065 C5.92125,14.62625 5.60875,15.08125 5.2225,15.08125 L0.69875,15.08125 C0.3125,15.08125 0,14.62625 0,14.065 L0,14.065 C0,13.5025 0.3125,13.04875 0.69875,13.04875 L5.22125,13.04875 C5.60875,13.04875 5.92125,13.50375 5.92125,14.065 L5.92125,14.065 Z M5.92125,17.99875 C5.92125,18.56125 5.60875,19.015 5.2225,19.015 L0.69875,19.015 C0.3125,19.015 0,18.55875 0,17.99875 L0,17.99875 C0,17.4375 0.3125,16.9824974 0.69875,16.9824974 L5.22125,16.9824974 C5.60875,16.98125 5.92125,17.4375 5.92125,17.99875 L5.92125,17.99875 Z M5.92125,14.065 C5.92125,14.62625 5.60875,15.08125 5.2225,15.08125 L0.69875,15.08125 C0.3125,15.08125 0,14.62625 0,14.065 L0,14.065 C0,13.5025 0.3125,13.04875 0.69875,13.04875 L5.22125,13.04875 C5.60875,13.04875 5.92125,13.50375 5.92125,14.065 L5.92125,14.065 Z M5.92125,10.1325 C5.92125,10.695 5.60875,11.14875 5.2225,11.14875 L0.69875,11.14875 C0.3125,11.14875 0,10.69375 0,10.1325 L0,10.1325 C0,9.57 0.3125,9.11624744 0.69875,9.11624744 L5.22125,9.11624744 C5.60875,9.115 5.92125,9.57125 5.92125,10.1325 L5.92125,10.1325 Z M5.92125,6.275 C5.92125,6.8375 5.60875,7.29125256 5.2225,7.29125256 L0.69875,7.29125256 C0.3125,7.2925 0,6.83625 0,6.275 L0,6.275 C0,5.7125 0.3125,5.25874743 0.69875,5.25874743 L5.22125,5.25874743 C5.60875,5.2575 5.92125,5.7125 5.92125,6.275 L5.92125,6.275 Z M5.92125,17.99875 C5.92125,18.56125 5.60875,19.015 5.2225,19.015 L0.69875,19.015 C0.3125,19.015 0,18.55875 0,17.99875 L0,17.99875 C0,17.4375 0.3125,16.9824974 0.69875,16.9824974 L5.22125,16.9824974 C5.60875,16.98125 5.92125,17.4375 5.92125,17.99875 L5.92125,17.99875 Z M5.92125,14.065 C5.92125,14.62625 5.60875,15.08125 5.2225,15.08125 L0.69875,15.08125 C0.3125,15.08125 0,14.62625 0,14.065 L0,14.065 C0,13.5025 0.3125,13.04875 0.69875,13.04875 L5.22125,13.04875 C5.60875,13.04875 5.92125,13.50375 5.92125,14.065 L5.92125,14.065 Z M5.92125,14.065 C5.92125,14.62625 5.60875,15.08125 5.2225,15.08125 L0.69875,15.08125 C0.3125,15.08125 0,14.62625 0,14.065 L0,14.065 C0,13.5025 0.3125,13.04875 0.69875,13.04875 L5.22125,13.04875 C5.60875,13.04875 5.92125,13.50375 5.92125,14.065 L5.92125,14.065 Z M12.82125,17.99875 C12.82125,18.56125 12.50875,19.015 12.1225,19.015 L7.59875,19.015 C7.2125,19.015 6.9,18.56 6.9,17.99875 L6.9,17.99875 C6.9,17.4375 7.2125,16.9824974 7.59875,16.9824974 L12.1225,16.9824974 C12.50875,16.98125 12.82125,17.4375 12.82125,17.99875 L12.82125,17.99875 Z M12.82125,14.065 C12.82125,14.62625 12.50875,15.08125 12.1225,15.08125 L7.59875,15.08125 C7.2125,15.08125 6.9,14.62625 6.9,14.065 L6.9,14.065 C6.9,13.5025 7.2125,13.04875 7.59875,13.04875 L12.1225,13.04875 C12.50875,13.04875 12.82125,13.50375 12.82125,14.065 L12.82125,14.065 Z M12.82125,17.99875 C12.82125,18.56125 12.50875,19.015 12.1225,19.015 L7.59875,19.015 C7.2125,19.015 6.9,18.56 6.9,17.99875 L6.9,17.99875 C6.9,17.4375 7.2125,16.9824974 7.59875,16.9824974 L12.1225,16.9824974 C12.50875,16.98125 12.82125,17.4375 12.82125,17.99875 L12.82125,17.99875 Z M12.82125,14.065 C12.82125,14.62625 12.50875,15.08125 12.1225,15.08125 L7.59875,15.08125 C7.2125,15.08125 6.9,14.62625 6.9,14.065 L6.9,14.065 C6.9,13.5025 7.2125,13.04875 7.59875,13.04875 L12.1225,13.04875 C12.50875,13.04875 12.82125,13.50375 12.82125,14.065 L12.82125,14.065 Z M12.82125,10.1325 C12.82125,10.695 12.50875,11.14875 12.1225,11.14875 L7.59875,11.14875 C7.2125,11.14875 6.9,10.69375 6.9,10.1325 L6.9,10.1325 C6.9,9.57 7.2125,9.11624744 7.59875,9.11624744 L12.1225,9.11624744 C12.50875,9.115 12.82125,9.57125 12.82125,10.1325 L12.82125,10.1325 Z M12.82125,17.99875 C12.82125,18.56125 12.50875,19.015 12.1225,19.015 L7.59875,19.015 C7.2125,19.015 6.9,18.56 6.9,17.99875 L6.9,17.99875 C6.9,17.4375 7.2125,16.9824974 7.59875,16.9824974 L12.1225,16.9824974 C12.50875,16.98125 12.82125,17.4375 12.82125,17.99875 L12.82125,17.99875 Z M12.82125,14.065 C12.82125,14.62625 12.50875,15.08125 12.1225,15.08125 L7.59875,15.08125 C7.2125,15.08125 6.9,14.62625 6.9,14.065 L6.9,14.065 C6.9,13.5025 7.2125,13.04875 7.59875,13.04875 L12.1225,13.04875 C12.50875,13.04875 12.82125,13.50375 12.82125,14.065 L12.82125,14.065 Z M12.82125,10.1325 C12.82125,10.695 12.50875,11.14875 12.1225,11.14875 L7.59875,11.14875 C7.2125,11.14875 6.9,10.69375 6.9,10.1325 L6.9,10.1325 C6.9,9.57 7.2125,9.11624744 7.59875,9.11624744 L12.1225,9.11624744 C12.50875,9.115 12.82125,9.57125 12.82125,10.1325 L12.82125,10.1325 Z M12.82125,6.19875 C12.82125,6.76125 12.50875,7.215 12.1225,7.215 L7.59875,7.215 C7.2125,7.215 6.9,6.76 6.9,6.19875 L6.9,6.19875 C6.9,5.63625 7.2125,5.1825 7.59875,5.1825 L12.1225,5.1825 C12.50875,5.1825 12.82125,5.63875 12.82125,6.19875 L12.82125,6.19875 Z M12.82125,14.065 C12.82125,14.62625 12.50875,15.08125 12.1225,15.08125 L7.59875,15.08125 C7.2125,15.08125 6.9,14.62625 6.9,14.065 L6.9,14.065 C6.9,13.5025 7.2125,13.04875 7.59875,13.04875 L12.1225,13.04875 C12.50875,13.04875 12.82125,13.50375 12.82125,14.065 L12.82125,14.065 Z M12.82125,10.1325 C12.82125,10.695 12.50875,11.14875 12.1225,11.14875 L7.59875,11.14875 C7.2125,11.14875 6.9,10.69375 6.9,10.1325 L6.9,10.1325 C6.9,9.57 7.2125,9.11624744 7.59875,9.11624744 L12.1225,9.11624744 C12.50875,9.115 12.82125,9.57125 12.82125,10.1325 L12.82125,10.1325 Z M12.82125,6.19875 C12.82125,6.76125 12.50875,7.215 12.1225,7.215 L7.59875,7.215 C7.2125,7.215 6.9,6.76 6.9,6.19875 L6.9,6.19875 C6.9,5.63625 7.2125,5.1825 7.59875,5.1825 L12.1225,5.1825 C12.50875,5.1825 12.82125,5.63875 12.82125,6.19875 L12.82125,6.19875 Z M12.82125,2.00125 C12.82125,2.56375 12.50875,3.01750256 12.1225,3.01750256 L7.59875,3.01750256 C7.2125,3.01875 6.9,2.5625 6.9,2.00125 L6.9,2.00125 C6.9,1.43875 7.2125,0.984997438 7.59875,0.984997438 L12.1225,0.984997438 C12.50875,0.98375 12.82125,1.44 12.82125,2.00125 L12.82125,2.00125 Z M20,17.99875 C20,18.56125 19.6875,19.015 19.30125,19.015 L14.77875,19.015 C14.3925,19.015 14.08,18.56 14.08,17.99875 L14.08,17.99875 C14.08,17.4375 14.3925,16.9824974 14.77875,16.9824974 L19.30125,16.9824974 C19.6875,16.98125 20,17.4375 20,17.99875 L20,17.99875 Z M20,14.065 C20,14.62625 19.6875,15.08125 19.30125,15.08125 L14.77875,15.08125 C14.3925,15.08125 14.08,14.62625 14.08,14.065 L14.08,14.065 C14.08,13.5025 14.3925,13.04875 14.77875,13.04875 L19.30125,13.04875 C19.6875,13.04875 20,13.50375 20,14.065 L20,14.065 Z M20,17.99875 C20,18.56125 19.6875,19.015 19.30125,19.015 L14.77875,19.015 C14.3925,19.015 14.08,18.56 14.08,17.99875 L14.08,17.99875 C14.08,17.4375 14.3925,16.9824974 14.77875,16.9824974 L19.30125,16.9824974 C19.6875,16.98125 20,17.4375 20,17.99875 L20,17.99875 Z M20,14.065 C20,14.62625 19.6875,15.08125 19.30125,15.08125 L14.77875,15.08125 C14.3925,15.08125 14.08,14.62625 14.08,14.065 L14.08,14.065 C14.08,13.5025 14.3925,13.04875 14.77875,13.04875 L19.30125,13.04875 C19.6875,13.04875 20,13.50375 20,14.065 L20,14.065 Z M20,17.99875 C20,18.56125 19.6875,19.015 19.30125,19.015 L14.77875,19.015 C14.3925,19.015 14.08,18.56 14.08,17.99875 L14.08,17.99875 C14.08,17.4375 14.3925,16.9824974 14.77875,16.9824974 L19.30125,16.9824974 C19.6875,16.98125 20,17.4375 20,17.99875 L20,17.99875 Z M20,14.065 C20,14.62625 19.6875,15.08125 19.30125,15.08125 L14.77875,15.08125 C14.3925,15.08125 14.08,14.62625 14.08,14.065 L14.08,14.065 C14.08,13.5025 14.3925,13.04875 14.77875,13.04875 L19.30125,13.04875 C19.6875,13.04875 20,13.50375 20,14.065 L20,14.065 Z M20,14.065 C20,14.62625 19.6875,15.08125 19.30125,15.08125 L14.77875,15.08125 C14.3925,15.08125 14.08,14.62625 14.08,14.065 L14.08,14.065 C14.08,13.5025 14.3925,13.04875 14.77875,13.04875 L19.30125,13.04875 C19.6875,13.04875 20,13.50375 20,14.065 L20,14.065 Z" id="形状"></path>
                </g>
            </g>
            <path d="M18,8 C19.1045695,8 20,7.1045695 20,6 C20,4.8954305 19.1045695,4 18,4 C16.8954305,4 16,4.8954305 16,6 C16,7.1045695 16.8954305,8 18,8 Z" id="椭圆形" fill="#FFFFFF"></path>
        </g>
    </g>
</svg>