<?xml version="1.0" standalone="no"?><!DOCTYPE svg PUBLIC "-//W3C//DTD SVG 1.1//EN" "http://www.w3.org/Graphics/SVG/1.1/DTD/svg11.dtd"><svg t="1644549700053" class="icon" viewBox="0 0 1024 1024" version="1.1" xmlns="http://www.w3.org/2000/svg" p-id="4230" width="48" height="48" xmlns:xlink="http://www.w3.org/1999/xlink"><defs><style type="text/css"></style></defs><path d="M950.784 442.88c0-243.2-197.12-440.32-440.32-440.32S70.144 199.68 70.144 442.88c0 153.6 78.336 288.256 197.632 367.104L510.464 1016.32l242.688-206.336c118.784-78.848 197.632-214.016 197.632-367.104z" fill="#1C97FB" p-id="4231"></path><path d="M321.568 223.888a16 16 0 0 0-20.768 8.672l-70.352 168.8a16 16 0 0 0 9.28 21.2l319.376 116.368a16 16 0 0 0 18.272-5.424l106.272-141.36a16 16 0 0 0-6.8-24.448l-355.28-143.808z m421.488 218.56a6.4 6.4 0 0 0-5.536 4.032l-35.968 90.496a6.4 6.4 0 0 0 1.312 6.784l54.32 56.992a6.4 6.4 0 0 0 10.56-2.048l60.528-152.64a6.4 6.4 0 0 0-6.368-8.752l-78.848 5.152z m-46.192-28.224a6.4 6.4 0 0 0-7.52 2.208l-71.872 99.456a6.4 6.4 0 0 0 2.88 9.712l54.272 21.136a6.4 6.4 0 0 0 8.272-3.6l43.728-110.4a6.4 6.4 0 0 0-3.616-8.32l-26.144-10.192z m-415.84 67.104a6.4 6.4 0 0 0 3.6 8.384l35.856 14.016a3.2 3.2 0 0 1 1.728 4.336l-14.64 31.248a6.4 6.4 0 0 1-5.792 3.68H230.4a6.4 6.4 0 0 0-6.4 6.4v21.92c0 3.52 2.88 6.4 6.4 6.4h93.52a6.4 6.4 0 0 0 5.808-3.712l24.96-53.632a3.2 3.2 0 0 1 4.064-1.632l40.832 15.888a6.4 6.4 0 0 0 8.272-3.616l10.32-26.128a6.4 6.4 0 0 0-3.616-8.32l-114.544-44.928a6.4 6.4 0 0 0-8.256 3.52l-10.72 26.176z" fill="#FFFFFF" p-id="4232"></path></svg>