<svg xmlns="http://www.w3.org/2000/svg" width="36" height="27" viewBox="0 0 36 27">
  <g id="编组" transform="translate(13 9)">
    <path id="形状" d="M35.155,9.875h-4.21L29.776,6.95A7.835,7.835,0,0,0,22.465,2h-8.93A7.837,7.837,0,0,0,6.223,6.95L5.053,9.875H.844a.843.843,0,0,0-.818,1.048l.422,1.688a.843.843,0,0,0,.818.639H2.677a4.469,4.469,0,0,0-1.552,3.375V20A4.463,4.463,0,0,0,2.25,22.948v3.8A2.25,2.25,0,0,0,4.5,29H6.75A2.25,2.25,0,0,0,9,26.75V24.5H27v2.25A2.25,2.25,0,0,0,29.25,29H31.5a2.25,2.25,0,0,0,2.25-2.25v-3.8A4.46,4.46,0,0,0,34.875,20V16.625a4.47,4.47,0,0,0-1.552-3.375h1.411a.843.843,0,0,0,.819-.639l.422-1.688A.844.844,0,0,0,35.155,9.875ZM10.4,8.621A3.375,3.375,0,0,1,13.535,6.5h8.93A3.375,3.375,0,0,1,25.6,8.621l1.4,3.5H9ZM6.75,19.986A2.122,2.122,0,0,1,4.5,17.743,2.122,2.122,0,0,1,6.75,15.5c1.35,0,3.375,2.019,3.375,3.364S8.1,19.986,6.75,19.986Zm22.5,0c-1.35,0-3.375.224-3.375-1.121S27.9,15.5,29.25,15.5a2.122,2.122,0,0,1,2.25,2.243,2.122,2.122,0,0,1-2.25,2.243Z" transform="translate(-13 -11)" fill="#38b7fd"/>
  </g>
</svg>
