<?xml version="1.0" encoding="UTF-8"?>
<svg width="87px" height="44px" viewBox="0 0 87 44" version="1.1" xmlns="http://www.w3.org/2000/svg" xmlns:xlink="http://www.w3.org/1999/xlink">
    <title>3.导航/切换/4能源-悬停</title>
    <defs>
        <linearGradient x1="50%" y1="0%" x2="50%" y2="99.8716128%" id="linearGradient-1">
            <stop stop-color="#0085CE" offset="0%"></stop>
            <stop stop-color="#19F2FF" offset="100%"></stop>
        </linearGradient>
    </defs>
    <g id="3.导航/切换/4能源-悬停" stroke="none" stroke-width="1" fill="none" fill-rule="evenodd" opacity="0.639999986">
        <g id="4">
            <path d="M77.5919202,0.5 L86.3873747,43.5 L19.3287162,43.5 L0.760534408,0.5 L77.5919202,0.5 Z" id="矩形" stroke="#3889FF" fill="url(#linearGradient-1)" transform="translate(43.500000, 22.000000) scale(-1, 1) translate(-43.500000, -22.000000) "></path>
            <g id="编组" transform="translate(33.000000, 12.000000)" fill="#FFFFFF" fill-rule="nonzero">
                <g id="1.图标/2.设计/">
                    <path d="M1.87732727,9.31820501 C1.87732725,9.31820501 4.14019603,10.7594261 6.59300255,12.4178922 C8.19127445,13.5212041 8.76049692,15.6165581 7.94016496,17.3769063 C8.45871677,17.4995631 8.98991931,17.5606677 9.52277739,17.5589553 C9.90500788,17.5589553 10.2148669,17.8688143 10.2148669,18.2510448 C10.2148669,18.6332753 9.90500788,18.9431343 9.52277739,18.9431343 C8.68725896,18.9441047 7.85654293,18.816806 7.05965476,18.5656861 C6.98703765,18.626456 6.91128205,18.683374 6.83270037,18.7362053 C6.10054581,19.2626611 5.22785944,19.558487 4.32649282,19.5857672 C3.10101156,19.5416227 1.95988479,18.950348 1.21709634,17.9746337 C-1.86438597,14.4252856 1.87732729,9.31820501 1.87732727,9.31820501 Z M15.9582086,8.14884376 C16.2410869,8.63736055 16.4725167,9.15390861 16.6487811,9.69019174 C16.9592758,9.73053354 17.2612768,9.82047821 17.5432484,9.95659008 C19.4717538,10.9002106 20.577398,12.6266417 19.6883921,15.2026347 C18.4783733,18.7082911 14.1595648,19.058432 12.4786459,19.058432 C12.0623606,19.058432 11.807492,19.0365861 11.807492,19.0365861 C11.807492,19.0365861 11.9786181,16.2773305 12.1885812,13.3244961 C12.3185486,11.6121791 13.5414204,10.1807099 15.2124147,9.7848572 C15.085874,9.45890282 14.9343218,9.14321969 14.7591127,8.84062987 C14.5680813,8.50950869 14.6816465,8.08622035 15.0127676,7.89518889 C15.3438888,7.70415743 15.7671772,7.81772258 15.9582086,8.14884376 Z M15.3119348,5.49881753 C15.3119348,5.49881753 12.8378892,6.73068226 10.1751195,8.02565729 C9.64971529,8.28539947 9.07180446,8.42136627 8.48570505,8.42313088 C7.29134035,8.40608346 6.16347696,7.87028191 5.39572713,6.95520932 C5.10369382,7.28746342 4.84533556,7.64786404 4.6244463,8.03111875 C4.50430398,8.25212934 4.27374481,8.39059202 4.02219961,8.39279896 C3.77065441,8.39500591 3.5377013,8.26060989 3.41369967,8.04174131 C3.28969804,7.82287273 3.2941583,7.55396838 3.42535039,7.33933265 C3.77420546,6.7344332 4.20034405,6.17753595 4.69301809,5.68268699 C4.63387774,5.48509053 4.59663745,5.28159175 4.5819682,5.07585708 C4.43450855,2.92949966 5.37630857,1.10900991 8.05121483,0.591383999 C12.6024392,-0.290339876 15.3119348,5.49881753 15.3119348,5.49881753 Z" id="形状结合"></path>
                </g>
            </g>
            <path d="M73,8 C74.1045695,8 75,7.1045695 75,6 C75,4.8954305 74.1045695,4 73,4 C71.8954305,4 71,4.8954305 71,6 C71,7.1045695 71.8954305,8 73,8 Z" id="椭圆形" fill="#FFFFFF"></path>
        </g>
    </g>
</svg>