<svg xmlns="http://www.w3.org/2000/svg" width="32" height="32" viewBox="0 0 32 32">
  <g id="组_247" data-name="组 247" transform="translate(-831 -749)">
    <g id="编组" transform="translate(834 751.341)">
      <path id="形状结合" d="M5.232,1A1.244,1.244,0,0,1,6.476,2.244V2.48a15.324,15.324,0,0,1,3.9-.636,14.971,14.971,0,0,1,4.651.933l.089.034a1,1,0,0,1,.109.05,7.787,7.787,0,0,0,3.175.764,7.476,7.476,0,0,0,3.125-.76,1.144,1.144,0,0,1,1.025-.015.881.881,0,0,1,.517.775V15.194a.87.87,0,0,1-.462.747,9.068,9.068,0,0,1-4.12,1.034A10.612,10.612,0,0,1,14.27,16a14.256,14.256,0,0,0-4-.8,13.829,13.829,0,0,0-3.8.736l0,5.8h7.049a1.244,1.244,0,0,1,0,2.488H2.744a1.244,1.244,0,0,1,0-2.488H3.988V2.244A1.244,1.244,0,0,1,5.232,1ZM20.575,5.147a.829.829,0,0,0-.829.829h0v4.976a.829.829,0,1,0,1.659,0h0V5.976A.829.829,0,0,0,20.575,5.147Z" transform="translate(0.988 0.659)" fill="#38b7fd"/>
    </g>
    <rect id="矩形_130" data-name="矩形 130" width="32" height="32" transform="translate(831 749)" fill="none" opacity="0.32"/>
  </g>
</svg>
