<?xml version="1.0" encoding="UTF-8"?>
<svg width="76px" height="76px" viewBox="0 0 76 76" version="1.1" xmlns="http://www.w3.org/2000/svg" xmlns:xlink="http://www.w3.org/1999/xlink">
    <title>企业-默认</title>
    <defs>
        <filter x="-21.4%" y="-21.4%" width="142.9%" height="142.9%" filterUnits="objectBoundingBox" id="filter-1">
            <feGaussianBlur stdDeviation="4" in="SourceGraphic"></feGaussianBlur>
        </filter>
        <filter x="-1.0%" y="-1.0%" width="102.0%" height="102.0%" filterUnits="objectBoundingBox" id="filter-2">
            <feGaussianBlur stdDeviation="0" in="SourceGraphic"></feGaussianBlur>
        </filter>
        <filter x="-0.5%" y="-0.6%" width="101.1%" height="101.1%" filterUnits="objectBoundingBox" id="filter-3">
            <feGaussianBlur stdDeviation="0" in="SourceGraphic"></feGaussianBlur>
        </filter>
        <filter x="0.0%" y="0.0%" width="100.0%" height="100.0%" filterUnits="objectBoundingBox" id="filter-4">
            <feGaussianBlur stdDeviation="0" in="SourceGraphic"></feGaussianBlur>
        </filter>
        <filter x="-44.1%" y="-44.1%" width="188.2%" height="188.2%" filterUnits="objectBoundingBox" id="filter-5">
            <feGaussianBlur stdDeviation="5" in="SourceGraphic"></feGaussianBlur>
        </filter>
        <filter x="-75.0%" y="-75.0%" width="250.0%" height="250.0%" filterUnits="objectBoundingBox" id="filter-6">
            <feGaussianBlur stdDeviation="7" in="SourceGraphic"></feGaussianBlur>
        </filter>
        <filter x="-2.0%" y="-2.0%" width="104.0%" height="104.0%" filterUnits="objectBoundingBox" id="filter-7">
            <feGaussianBlur stdDeviation="0" in="SourceGraphic"></feGaussianBlur>
        </filter>
        <filter x="-0.2%" y="-0.2%" width="100.5%" height="100.5%" filterUnits="objectBoundingBox" id="filter-8">
            <feGaussianBlur stdDeviation="0" in="SourceGraphic"></feGaussianBlur>
        </filter>
    </defs>
    <g id="控件" stroke="none" stroke-width="1" fill="none" fill-rule="evenodd" opacity="0.64">
        <g id="企业-默认" transform="translate(6.000000, 6.000000)">
            <g id="颜色" transform="translate(3.500000, 3.500000)">
                <circle id="椭圆形" fill="#FFFFFF" fill-rule="nonzero" opacity="0.180560826" filter="url(#filter-1)" cx="28.5" cy="28.5" r="28"></circle>
                <path d="M28.75,56.5 L28.75,57 L28.25,57 L28.25,56.5 L28.75,56.5 Z M29.6284768,56.4774877 L29.6459265,56.9771832 L29.1462311,56.9946329 L29.1287814,56.4949375 L29.6284768,56.4774877 Z M27.3715232,56.4774877 L27.8712186,56.4949375 L27.8537689,56.9946329 L27.3540735,56.9771832 L27.3715232,56.4774877 Z M30.5057841,56.4274249 L30.5406623,56.926207 L30.0418803,56.9610852 L30.007002,56.4623032 L30.5057841,56.4274249 Z M26.4942159,56.4274249 L26.992998,56.4623032 L26.9581197,56.9610852 L26.4593377,56.926207 L26.4942159,56.4274249 Z M31.3858196,56.3537879 L31.4293975,56.8518852 L30.9313001,56.8954631 L30.8877222,56.3973658 L31.3858196,56.3537879 Z M25.6141804,56.3537879 L26.1122778,56.3973658 L26.0686999,56.8954631 L25.5706025,56.8518852 L25.6141804,56.3537879 Z M32.2583331,56.2486364 L32.3192677,56.7449095 L31.8229946,56.8058442 L31.76206,56.3095711 L32.2583331,56.2486364 Z M24.7416669,56.2486364 L25.23794,56.3095711 L25.1770054,56.8058442 L24.6807323,56.7449095 L24.7416669,56.2486364 Z M33.1270871,56.1161649 L33.2053043,56.6100091 L32.7114602,56.6882263 L32.6332429,56.1943822 L33.1270871,56.1161649 Z M23.8729129,56.1161649 L24.3667571,56.1943822 L24.2885398,56.6882263 L23.7946957,56.6100091 L23.8729129,56.1161649 Z M33.9912267,55.9565058 L34.0866312,56.4473194 L33.5958176,56.5427239 L33.5004131,56.0519103 L33.9912267,55.9565058 Z M23.0087733,55.9565058 L23.4995869,56.0519103 L23.4041824,56.5427239 L22.9133688,56.4473194 L23.0087733,55.9565058 Z M34.8499013,55.7698182 L34.9623768,56.2570033 L34.4751918,56.3694788 L34.3627163,55.8822938 L34.8499013,55.7698182 Z M22.1500987,55.7698182 L22.6372837,55.8822938 L22.5248082,56.3694788 L22.0376232,56.2570033 L22.1500987,55.7698182 Z M35.7075828,55.5594199 L35.8285437,56.0445678 L35.3433959,56.1655287 L35.2224349,55.6803808 L35.7075828,55.5594199 Z M21.2924172,55.5594199 L21.7775651,55.6803808 L21.6566041,56.1655287 L21.1714563,56.0445678 L21.2924172,55.5594199 Z M36.5529048,55.3190719 L36.6907235,55.7997027 L36.2100927,55.9375214 L36.072274,55.4568905 L36.5529048,55.3190719 Z M20.4470952,55.3190719 L20.927726,55.4568905 L20.7899073,55.9375214 L20.3092765,55.7997027 L20.4470952,55.3190719 Z M37.39024,55.0523282 L37.5447485,55.5278565 L37.0692202,55.682365 L36.9147117,55.2068367 L37.39024,55.0523282 Z M19.60976,55.0523282 L20.0852883,55.2068367 L19.9307798,55.682365 L19.4552515,55.5278565 L19.60976,55.0523282 Z M38.2187644,54.7594535 L38.3897744,55.2292998 L37.9199281,55.4003099 L37.7489181,54.9304636 L38.2187644,54.7594535 Z M18.7812356,54.7594535 L19.2510819,54.9304636 L19.0800719,55.4003099 L18.6102256,55.2292998 L18.7812356,54.7594535 Z M39.0376629,54.4407381 L39.2249662,54.90433 L38.7613743,55.0916333 L38.574071,54.6280414 L39.0376629,54.4407381 Z M17.9623371,54.4407381 L18.425929,54.6280414 L18.2386257,55.0916333 L17.7750338,54.90433 L17.9623371,54.4407381 Z M39.8518713,54.0987592 L40.0472369,54.5590116 L39.5869845,54.7543772 L39.3916189,54.2941247 L39.8518713,54.0987592 Z M17.1481287,54.0987592 L17.6083811,54.2941247 L17.4130155,54.7543772 L16.9527631,54.5590116 L17.1481287,54.0987592 Z M40.6491874,53.7291327 L40.8604965,54.1822866 L40.4073426,54.3935957 L40.1960335,53.9404419 L40.6491874,53.7291327 Z M16.3508126,53.7291327 L16.8039665,53.9404419 L16.5926574,54.3935957 L16.1395035,54.1822866 L16.3508126,53.7291327 Z M41.4344856,53.3346851 L41.6614809,53.7801883 L41.2159776,54.0071836 L40.9889824,53.5616803 L41.4344856,53.3346851 Z M15.5655144,53.3346851 L16.0110176,53.5616803 L15.7840224,54.0071836 L15.3385191,53.7801883 L15.5655144,53.3346851 Z M42.2069938,52.9158064 L42.4493986,53.3531162 L42.0120888,53.595521 L41.769684,53.1582112 L42.2069938,52.9158064 Z M14.7930062,52.9158064 L15.230316,53.1582112 L14.9879112,53.595521 L14.5506014,53.3531162 L14.7930062,52.9158064 Z M42.9659523,52.4729109 L43.2234713,52.9014946 L42.7948877,53.1590136 L42.5373687,52.73043 L42.9659523,52.4729109 Z M14.0340477,52.4729109 L14.4626313,52.73043 L14.2051123,53.1590136 L13.7765287,52.9014946 L14.0340477,52.4729109 Z M43.7166392,52.0077721 L43.9815988,52.4317961 L43.5575748,52.6967557 L43.2926151,52.2727317 L43.7166392,52.0077721 Z M13.2833608,52.0077721 L13.7073849,52.2727317 L13.4424252,52.6967557 L13.0184012,52.4317961 L13.2833608,52.0077721 Z M44.4463166,51.5179686 L44.725913,51.9324874 L44.3113943,52.2120838 L44.0317978,51.7975651 L44.4463166,51.5179686 Z M12.5536834,51.5179686 L12.9682022,51.7975651 L12.6886057,52.2120838 L12.274087,51.9324874 L12.5536834,51.5179686 Z M45.1602413,51.0055295 L45.4541339,51.410038 L45.0496254,51.7039307 L44.7557328,51.2994222 L45.1602413,51.0055295 Z M11.8397587,51.0055295 L12.2442672,51.2994222 L11.9503746,51.7039307 L11.5458661,51.410038 L11.8397587,51.0055295 Z M45.8577116,50.470961 L46.1655423,50.8649664 L45.7715369,51.1727972 L45.4637062,50.7787918 L45.8577116,50.470961 Z M11.1422884,50.470961 L11.5362938,50.7787918 L11.2284631,51.1727972 L10.8344577,50.8649664 L11.1422884,50.470961 Z M46.5380419,49.9147911 L46.8594357,50.2978133 L46.4764135,50.6192071 L46.1550197,50.2361849 L46.5380419,49.9147911 Z M10.4619581,49.9147911 L10.8449803,50.2361849 L10.5235865,50.6192071 L10.1405643,50.2978133 L10.4619581,49.9147911 Z M47.2067228,49.3379456 L47.5347523,49.7153004 L47.1573976,50.0433299 L46.829368,49.6659751 L47.2067228,49.3379456 Z M9.79327717,49.3379456 L10.170632,49.6659751 L9.84260244,50.0433299 L9.46524765,49.7153004 L9.79327717,49.3379456 Z M47.8507946,48.7400257 L48.1917938,49.1057026 L47.8261169,49.4467017 L47.4851177,49.0810249 L47.8507946,48.7400257 Z M9.14920542,48.7400257 L9.51488227,49.0810249 L9.17388309,49.4467017 L8.80820624,49.1057026 L9.14920542,48.7400257 Z M48.4757666,48.1222132 L48.82932,48.4757666 L48.4757666,48.82932 L48.1222132,48.4757666 L48.4757666,48.1222132 Z M8.52423343,48.1222132 L8.87778682,48.4757666 L8.52423343,48.82932 L8.17068004,48.4757666 L8.52423343,48.1222132 Z M49.0810249,47.4851177 L49.4467017,47.8261169 L49.1057026,48.1917938 L48.7400257,47.8507946 L49.0810249,47.4851177 Z M7.91897511,47.4851177 L8.25997429,47.8507946 L7.89429744,48.1917938 L7.55329826,47.8261169 L7.91897511,47.4851177 Z M49.6659751,46.829368 L50.0433299,47.1573976 L49.7153004,47.5347523 L49.3379456,47.2067228 L49.6659751,46.829368 Z M7.33402492,46.829368 L7.66205444,47.2067228 L7.28469965,47.5347523 L6.95667013,47.1573976 L7.33402492,46.829368 Z M50.2361849,46.1550197 L50.6192071,46.4764135 L50.2978133,46.8594357 L49.9147911,46.5380419 L50.2361849,46.1550197 Z M6.7638151,46.1550197 L7.0852089,46.5380419 L6.70218668,46.8594357 L6.38079288,46.4764135 L6.7638151,46.1550197 Z M50.7787918,45.4637062 L51.1727972,45.7715369 L50.8649664,46.1655423 L50.470961,45.8577116 L50.7787918,45.4637062 Z M6.22120822,45.4637062 L6.52903896,45.8577116 L6.13503358,46.1655423 L5.82720284,45.7715369 L6.22120822,45.4637062 Z M51.2994222,44.7557328 L51.7039307,45.0496254 L51.410038,45.4541339 L51.0055295,45.1602413 L51.2994222,44.7557328 Z M5.70057784,44.7557328 L5.99447047,45.1602413 L5.58996197,45.4541339 L5.29606935,45.0496254 L5.70057784,44.7557328 Z M51.7975651,44.0317978 L52.2120838,44.3113943 L51.9324874,44.725913 L51.5179686,44.4463166 L51.7975651,44.0317978 Z M5.20243494,44.0317978 L5.4820314,44.4463166 L5.06751261,44.725913 L4.78791616,44.3113943 L5.20243494,44.0317978 Z M52.2727317,43.2926151 L52.6967557,43.5575748 L52.4317961,43.9815988 L52.0077721,43.7166392 L52.2727317,43.2926151 Z M4.72726831,43.2926151 L4.99222794,43.7166392 L4.5682039,43.9815988 L4.30324426,43.5575748 L4.72726831,43.2926151 Z M52.73043,42.5373687 L53.1590136,42.7948877 L52.9014946,43.2234713 L52.4729109,42.9659523 L52.73043,42.5373687 Z M4.26957004,42.5373687 L4.52708908,42.9659523 L4.09850543,43.2234713 L3.84098639,42.7948877 L4.26957004,42.5373687 Z M53.1582112,41.769684 L53.595521,42.0120888 L53.3531162,42.4493986 L52.9158064,42.2069938 L53.1582112,41.769684 Z M3.84178881,41.769684 L4.08419362,42.2069938 L3.64688377,42.4493986 L3.40447896,42.0120888 L3.84178881,41.769684 Z M53.5616803,40.9889824 L54.0071836,41.2159776 L53.7801883,41.6614809 L53.3346851,41.4344856 L53.5616803,40.9889824 Z M3.4383197,40.9889824 L3.66531495,41.4344856 L3.21981169,41.6614809 L2.99281644,41.2159776 L3.4383197,40.9889824 Z M53.9404419,40.1960335 L54.3935957,40.4073426 L54.1822866,40.8604965 L53.7291327,40.6491874 L53.9404419,40.1960335 Z M3.05955815,40.1960335 L3.27086728,40.6491874 L2.81771339,40.8604965 L2.60640426,40.4073426 L3.05955815,40.1960335 Z M54.2941247,39.3916189 L54.7543772,39.5869845 L54.5590116,40.0472369 L54.0987592,39.8518713 L54.2941247,39.3916189 Z M2.70587526,39.3916189 L2.90124082,39.8518713 L2.44098839,40.0472369 L2.24562283,39.5869845 L2.70587526,39.3916189 Z M54.6280414,38.574071 L55.0916333,38.7613743 L54.90433,39.2249662 L54.4407381,39.0376629 L54.6280414,38.574071 Z M2.37195859,38.574071 L2.55926189,39.0376629 L2.09566996,39.2249662 L1.90836666,38.7613743 L2.37195859,38.574071 Z M54.9304636,37.7489181 L55.4003099,37.9199281 L55.2292998,38.3897744 L54.7594535,38.2187644 L54.9304636,37.7489181 Z M2.0695364,37.7489181 L2.24054647,38.2187644 L1.77070016,38.3897744 L1.59969009,37.9199281 L2.0695364,37.7489181 Z M55.2068367,36.9147117 L55.682365,37.0692202 L55.5278565,37.5447485 L55.0523282,37.39024 L55.2068367,36.9147117 Z M1.7931633,36.9147117 L1.94767179,37.39024 L1.47214353,37.5447485 L1.31763504,37.0692202 L1.7931633,36.9147117 Z M55.4568905,36.072274 L55.9375214,36.2100927 L55.7997027,36.6907235 L55.3190719,36.5529048 L55.4568905,36.072274 Z M1.54310946,36.072274 L1.68092814,36.5529048 L1.20029729,36.6907235 L1.06247862,36.2100927 L1.54310946,36.072274 Z M55.6803808,35.2224349 L56.1655287,35.3433959 L56.0445678,35.8285437 L55.5594199,35.7075828 L55.6803808,35.2224349 Z M1.31961916,35.2224349 L1.4405801,35.7075828 L0.95543224,35.8285437 L0.834471293,35.3433959 L1.31961916,35.2224349 Z M55.8822938,34.3627163 L56.3694788,34.4751918 L56.2570033,34.9623768 L55.7698182,34.8499013 L55.8822938,34.3627163 Z M1.11770623,34.3627163 L1.23018176,34.8499013 L0.742996723,34.9623768 L0.630521195,34.4751918 L1.11770623,34.3627163 Z M56.0519103,33.5004131 L56.5427239,33.5958176 L56.4473194,34.0866312 L55.9565058,33.9912267 L56.0519103,33.5004131 Z M0.948089714,33.5004131 L1.04349421,33.9912267 L0.55268062,34.0866312 L0.457276122,33.5958176 L0.948089714,33.5004131 Z M56.1943822,32.6332429 L56.6882263,32.7114602 L56.6100091,33.2053043 L56.1161649,33.1270871 L56.1943822,32.6332429 Z M0.805617847,32.6332429 L0.88383508,33.1270871 L0.389990909,33.2053043 L0.311773677,32.7114602 L0.805617847,32.6332429 Z M56.3095711,31.76206 L56.8058442,31.8229946 L56.7449095,32.3192677 L56.2486364,32.2583331 L56.3095711,31.76206 Z M0.69042889,31.76206 L0.751363562,32.2583331 L0.255090486,32.3192677 L0.194155814,31.8229946 L0.69042889,31.76206 Z M56.3973658,30.8877222 L56.8954631,30.9313001 L56.8518852,31.4293975 L56.3537879,31.3858196 L56.3973658,30.8877222 Z M0.602634239,30.8877222 L0.64621211,31.3858196 L0.148114761,31.4293975 L0.10453689,30.9313001 L0.602634239,30.8877222 Z M56.4623032,30.007002 L56.9610852,30.0418803 L56.926207,30.5406623 L56.4274249,30.5057841 L56.4623032,30.007002 Z M0.537696816,30.007002 L0.572575053,30.5057841 L0.0737930278,30.5406623 L0.0389147909,30.0418803 L0.537696816,30.007002 Z M56.4949375,29.1287814 L56.9946329,29.1462311 L56.9771832,29.6459265 L56.4774877,29.6284768 L56.4949375,29.1287814 Z M0.505062502,29.1287814 L0.522512251,29.6284768 L0.0228168371,29.6459265 L0.00536708874,29.1462311 L0.505062502,29.1287814 Z M57,28.25 L57,28.75 L56.5,28.75 L56.5,28.25 L57,28.25 Z M0.5,28.25 L0.5,28.75 L5.55111512e-17,28.75 L-3.63373587e-17,28.25 L0.5,28.25 Z M56.9771832,27.3540735 L56.9946329,27.8537689 L56.4949375,27.8712186 L56.4774877,27.3715232 L56.9771832,27.3540735 Z M0.0228168371,27.3540735 L0.522512251,27.3715232 L0.505062502,27.8712186 L0.00536708874,27.8537689 L0.0228168371,27.3540735 Z M56.926207,26.4593377 L56.9610852,26.9581197 L56.4623032,26.992998 L56.4274249,26.4942159 L56.926207,26.4593377 Z M0.0737930278,26.4593377 L0.572575053,26.4942159 L0.537696816,26.992998 L0.0389147909,26.9581197 L0.0737930278,26.4593377 Z M56.8518852,25.5706025 L56.8954631,26.0686999 L56.3973658,26.1122778 L56.3537879,25.6141804 L56.8518852,25.5706025 Z M0.148114761,25.5706025 L0.64621211,25.6141804 L0.602634239,26.1122778 L0.10453689,26.0686999 L0.148114761,25.5706025 Z M56.7449095,24.6807323 L56.8058442,25.1770054 L56.3095711,25.23794 L56.2486364,24.7416669 L56.7449095,24.6807323 Z M0.255090486,24.6807323 L0.751363562,24.7416669 L0.69042889,25.23794 L0.194155814,25.1770054 L0.255090486,24.6807323 Z M56.6100091,23.7946957 L56.6882263,24.2885398 L56.1943822,24.3667571 L56.1161649,23.8729129 L56.6100091,23.7946957 Z M0.389990909,23.7946957 L0.88383508,23.8729129 L0.805617847,24.3667571 L0.311773677,24.2885398 L0.389990909,23.7946957 Z M56.4473194,22.9133688 L56.5427239,23.4041824 L56.0519103,23.4995869 L55.9565058,23.0087733 L56.4473194,22.9133688 Z M0.55268062,22.9133688 L1.04349421,23.0087733 L0.948089714,23.4995869 L0.457276122,23.4041824 L0.55268062,22.9133688 Z M56.2570033,22.0376232 L56.3694788,22.5248082 L55.8822938,22.6372837 L55.7698182,22.1500987 L56.2570033,22.0376232 Z M0.742996723,22.0376232 L1.23018176,22.1500987 L1.11770623,22.6372837 L0.630521195,22.5248082 L0.742996723,22.0376232 Z M56.0445678,21.1714563 L56.1655287,21.6566041 L55.6803808,21.7775651 L55.5594199,21.2924172 L56.0445678,21.1714563 Z M0.95543224,21.1714563 L1.4405801,21.2924172 L1.31961916,21.7775651 L0.834471293,21.6566041 L0.95543224,21.1714563 Z M55.7997027,20.3092765 L55.9375214,20.7899073 L55.4568905,20.927726 L55.3190719,20.4470952 L55.7997027,20.3092765 Z M1.20029729,20.3092765 L1.68092814,20.4470952 L1.54310946,20.927726 L1.06247862,20.7899073 L1.20029729,20.3092765 Z M55.5278565,19.4552515 L55.682365,19.9307798 L55.2068367,20.0852883 L55.0523282,19.60976 L55.5278565,19.4552515 Z M1.47214353,19.4552515 L1.94767179,19.60976 L1.7931633,20.0852883 L1.31763504,19.9307798 L1.47214353,19.4552515 Z M55.2292998,18.6102256 L55.4003099,19.0800719 L54.9304636,19.2510819 L54.7594535,18.7812356 L55.2292998,18.6102256 Z M1.77070016,18.6102256 L2.24054647,18.7812356 L2.0695364,19.2510819 L1.59969009,19.0800719 L1.77070016,18.6102256 Z M54.90433,17.7750338 L55.0916333,18.2386257 L54.6280414,18.425929 L54.4407381,17.9623371 L54.90433,17.7750338 Z M2.09566996,17.7750338 L2.55926189,17.9623371 L2.37195859,18.425929 L1.90836666,18.2386257 L2.09566996,17.7750338 Z M54.5590116,16.9527631 L54.7543772,17.4130155 L54.2941247,17.6083811 L54.0987592,17.1481287 L54.5590116,16.9527631 Z M2.44098839,16.9527631 L2.90124082,17.1481287 L2.70587526,17.6083811 L2.24562283,17.4130155 L2.44098839,16.9527631 Z M54.1822866,16.1395035 L54.3935957,16.5926574 L53.9404419,16.8039665 L53.7291327,16.3508126 L54.1822866,16.1395035 Z M2.81771339,16.1395035 L3.27086728,16.3508126 L3.05955815,16.8039665 L2.60640426,16.5926574 L2.81771339,16.1395035 Z M53.7801883,15.3385191 L54.0071836,15.7840224 L53.5616803,16.0110176 L53.3346851,15.5655144 L53.7801883,15.3385191 Z M3.21981169,15.3385191 L3.66531495,15.5655144 L3.4383197,16.0110176 L2.99281644,15.7840224 L3.21981169,15.3385191 Z M53.3531162,14.5506014 L53.595521,14.9879112 L53.1582112,15.230316 L52.9158064,14.7930062 L53.3531162,14.5506014 Z M3.64688377,14.5506014 L4.08419362,14.7930062 L3.84178881,15.230316 L3.40447896,14.9879112 L3.64688377,14.5506014 Z M52.9014946,13.7765287 L53.1590136,14.2051123 L52.73043,14.4626313 L52.4729109,14.0340477 L52.9014946,13.7765287 Z M4.09850543,13.7765287 L4.52708908,14.0340477 L4.26957004,14.4626313 L3.84098639,14.2051123 L4.09850543,13.7765287 Z M52.4317961,13.0184012 L52.6967557,13.4424252 L52.2727317,13.7073849 L52.0077721,13.2833608 L52.4317961,13.0184012 Z M4.5682039,13.0184012 L4.99222794,13.2833608 L4.72726831,13.7073849 L4.30324426,13.4424252 L4.5682039,13.0184012 Z M51.9324874,12.274087 L52.2120838,12.6886057 L51.7975651,12.9682022 L51.5179686,12.5536834 L51.9324874,12.274087 Z M5.06751261,12.274087 L5.4820314,12.5536834 L5.20243494,12.9682022 L4.78791616,12.6886057 L5.06751261,12.274087 Z M51.410038,11.5458661 L51.7039307,11.9503746 L51.2994222,12.2442672 L51.0055295,11.8397587 L51.410038,11.5458661 Z M5.58996197,11.5458661 L5.99447047,11.8397587 L5.70057784,12.2442672 L5.29606935,11.9503746 L5.58996197,11.5458661 Z M50.8649664,10.8344577 L51.1727972,11.2284631 L50.7787918,11.5362938 L50.470961,11.1422884 L50.8649664,10.8344577 Z M6.13503358,10.8344577 L6.52903896,11.1422884 L6.22120822,11.5362938 L5.82720284,11.2284631 L6.13503358,10.8344577 Z M50.2978133,10.1405643 L50.6192071,10.5235865 L50.2361849,10.8449803 L49.9147911,10.4619581 L50.2978133,10.1405643 Z M6.70218668,10.1405643 L7.0852089,10.4619581 L6.7638151,10.8449803 L6.38079288,10.5235865 L6.70218668,10.1405643 Z M49.7153004,9.46524765 L50.0433299,9.84260244 L49.6659751,10.170632 L49.3379456,9.79327717 L49.7153004,9.46524765 Z M7.28469965,9.46524765 L7.66205444,9.79327717 L7.33402492,10.170632 L6.95667013,9.84260244 L7.28469965,9.46524765 Z M49.1057026,8.80820624 L49.4467017,9.17388309 L49.0810249,9.51488227 L48.7400257,9.14920542 L49.1057026,8.80820624 Z M7.89429744,8.80820624 L8.25997429,9.14920542 L7.91897511,9.51488227 L7.55329826,9.17388309 L7.89429744,8.80820624 Z M48.4757666,8.17068004 L48.82932,8.52423343 L48.4757666,8.87778682 L48.1222132,8.52423343 L48.4757666,8.17068004 Z M8.52423343,8.17068004 L8.87778682,8.52423343 L8.52423343,8.87778682 L8.17068004,8.52423343 L8.52423343,8.17068004 Z M47.8261169,7.55329826 L48.1917938,7.89429744 L47.8507946,8.25997429 L47.4851177,7.91897511 L47.8261169,7.55329826 Z M9.17388309,7.55329826 L9.51488227,7.91897511 L9.14920542,8.25997429 L8.80820624,7.89429744 L9.17388309,7.55329826 Z M47.1573976,6.95667013 L47.5347523,7.28469965 L47.2067228,7.66205444 L46.829368,7.33402492 L47.1573976,6.95667013 Z M9.84260244,6.95667013 L10.170632,7.33402492 L9.79327717,7.66205444 L9.46524765,7.28469965 L9.84260244,6.95667013 Z M46.4764135,6.38079288 L46.8594357,6.70218668 L46.5380419,7.0852089 L46.1550197,6.7638151 L46.4764135,6.38079288 Z M10.5235865,6.38079288 L10.8449803,6.7638151 L10.4619581,7.0852089 L10.1405643,6.70218668 L10.5235865,6.38079288 Z M45.7715369,5.82720284 L46.1655423,6.13503358 L45.8577116,6.52903896 L45.4637062,6.22120822 L45.7715369,5.82720284 Z M11.2284631,5.82720284 L11.5362938,6.22120822 L11.1422884,6.52903896 L10.8344577,6.13503358 L11.2284631,5.82720284 Z M45.0496254,5.29606935 L45.4541339,5.58996197 L45.1602413,5.99447047 L44.7557328,5.70057784 L45.0496254,5.29606935 Z M11.9503746,5.29606935 L12.2442672,5.70057784 L11.8397587,5.99447047 L11.5458661,5.58996197 L11.9503746,5.29606935 Z M44.3113943,4.78791616 L44.725913,5.06751261 L44.4463166,5.4820314 L44.0317978,5.20243494 L44.3113943,4.78791616 Z M12.6886057,4.78791616 L12.9682022,5.20243494 L12.5536834,5.4820314 L12.274087,5.06751261 L12.6886057,4.78791616 Z M43.5575748,4.30324426 L43.9815988,4.5682039 L43.7166392,4.99222794 L43.2926151,4.72726831 L43.5575748,4.30324426 Z M13.4424252,4.30324426 L13.7073849,4.72726831 L13.2833608,4.99222794 L13.0184012,4.5682039 L13.4424252,4.30324426 Z M42.7948877,3.84098639 L43.2234713,4.09850543 L42.9659523,4.52708908 L42.5373687,4.26957004 L42.7948877,3.84098639 Z M14.2051123,3.84098639 L14.4626313,4.26957004 L14.0340477,4.52708908 L13.7765287,4.09850543 L14.2051123,3.84098639 Z M42.0120888,3.40447896 L42.4493986,3.64688377 L42.2069938,4.08419362 L41.769684,3.84178881 L42.0120888,3.40447896 Z M14.9879112,3.40447896 L15.230316,3.84178881 L14.7930062,4.08419362 L14.5506014,3.64688377 L14.9879112,3.40447896 Z M41.2159776,2.99281644 L41.6614809,3.21981169 L41.4344856,3.66531495 L40.9889824,3.4383197 L41.2159776,2.99281644 Z M15.7840224,2.99281644 L16.0110176,3.4383197 L15.5655144,3.66531495 L15.3385191,3.21981169 L15.7840224,2.99281644 Z M40.4073426,2.60640426 L40.8604965,2.81771339 L40.6491874,3.27086728 L40.1960335,3.05955815 L40.4073426,2.60640426 Z M16.5926574,2.60640426 L16.8039665,3.05955815 L16.3508126,3.27086728 L16.1395035,2.81771339 L16.5926574,2.60640426 Z M39.5869845,2.24562283 L40.0472369,2.44098839 L39.8518713,2.90124082 L39.3916189,2.70587526 L39.5869845,2.24562283 Z M17.4130155,2.24562283 L17.6083811,2.70587526 L17.1481287,2.90124082 L16.9527631,2.44098839 L17.4130155,2.24562283 Z M38.7613743,1.90836666 L39.2249662,2.09566996 L39.0376629,2.55926189 L38.574071,2.37195859 L38.7613743,1.90836666 Z M18.2386257,1.90836666 L18.425929,2.37195859 L17.9623371,2.55926189 L17.7750338,2.09566996 L18.2386257,1.90836666 Z M37.9199281,1.59969009 L38.3897744,1.77070016 L38.2187644,2.24054647 L37.7489181,2.0695364 L37.9199281,1.59969009 Z M19.0800719,1.59969009 L19.2510819,2.0695364 L18.7812356,2.24054647 L18.6102256,1.77070016 L19.0800719,1.59969009 Z M37.0692202,1.31763504 L37.5447485,1.47214353 L37.39024,1.94767179 L36.9147117,1.7931633 L37.0692202,1.31763504 Z M19.9307798,1.31763504 L20.0852883,1.7931633 L19.60976,1.94767179 L19.4552515,1.47214353 L19.9307798,1.31763504 Z M36.2100927,1.06247862 L36.6907235,1.20029729 L36.5529048,1.68092814 L36.072274,1.54310946 L36.2100927,1.06247862 Z M20.7899073,1.06247862 L20.927726,1.54310946 L20.4470952,1.68092814 L20.3092765,1.20029729 L20.7899073,1.06247862 Z M35.3433959,0.834471293 L35.8285437,0.95543224 L35.7075828,1.4405801 L35.2224349,1.31961916 L35.3433959,0.834471293 Z M21.6566041,0.834471293 L21.7775651,1.31961916 L21.2924172,1.4405801 L21.1714563,0.95543224 L21.6566041,0.834471293 Z M34.4751918,0.630521195 L34.9623768,0.742996723 L34.8499013,1.23018176 L34.3627163,1.11770623 L34.4751918,0.630521195 Z M22.5248082,0.630521195 L22.6372837,1.11770623 L22.1500987,1.23018176 L22.0376232,0.742996723 L22.5248082,0.630521195 Z M33.5958176,0.457276122 L34.0866312,0.55268062 L33.9912267,1.04349421 L33.5004131,0.948089714 L33.5958176,0.457276122 Z M23.4041824,0.457276122 L23.4995869,0.948089714 L23.0087733,1.04349421 L22.9133688,0.55268062 L23.4041824,0.457276122 Z M32.7114602,0.311773677 L33.2053043,0.389990909 L33.1270871,0.88383508 L32.6332429,0.805617847 L32.7114602,0.311773677 Z M24.2885398,0.311773677 L24.3667571,0.805617847 L23.8729129,0.88383508 L23.7946957,0.389990909 L24.2885398,0.311773677 Z M31.8229946,0.194155814 L32.3192677,0.255090486 L32.2583331,0.751363562 L31.76206,0.69042889 L31.8229946,0.194155814 Z M25.1770054,0.194155814 L25.23794,0.69042889 L24.7416669,0.751363562 L24.6807323,0.255090486 L25.1770054,0.194155814 Z M30.9313001,0.10453689 L31.4293975,0.148114761 L31.3858196,0.64621211 L30.8877222,0.602634239 L30.9313001,0.10453689 Z M26.0686999,0.10453689 L26.1122778,0.602634239 L25.6141804,0.64621211 L25.5706025,0.148114761 L26.0686999,0.10453689 Z M30.0418803,0.0389147909 L30.5406623,0.0737930278 L30.5057841,0.572575053 L30.007002,0.537696816 L30.0418803,0.0389147909 Z M26.9581197,0.0389147909 L26.992998,0.537696816 L26.4942159,0.572575053 L26.4593377,0.0737930278 L26.9581197,0.0389147909 Z M29.1462311,0.00536708874 L29.6459265,0.0228168371 L29.6284768,0.522512251 L29.1287814,0.505062502 L29.1462311,0.00536708874 Z M27.8537689,0.00536708874 L27.8712186,0.505062502 L27.3715232,0.522512251 L27.3540735,0.0228168371 L27.8537689,0.00536708874 Z M28.75,0 L28.75,0.5 L28.25,0.5 L28.25,0 L28.75,0 Z" id="形状结合" fill="#FFFFFF"></path>
                <circle id="椭圆形" stroke="#FFFFFF" opacity="0.804175967" fill-rule="nonzero" filter="url(#filter-2)" cx="28.5" cy="28.5" r="24.5"></circle>
                <path d="M4.88809067,32.5630452 C5.15959843,34.1518224 5.58891511,35.686756 6.15933605,37.1511414 M52.0477147,28.533851 C52.0477147,25.0161864 51.282962,21.6771394 49.9106468,18.6739002 M6.09886753,20.0734467 C5.09662803,22.7016511 4.54771469,25.5536482 4.54771469,28.533851" id="形状" stroke="#FFFFFF" stroke-width="0.5" fill-rule="nonzero" filter="url(#filter-3)" transform="translate(28.297715, 27.912521) rotate(-19.000000) translate(-28.297715, -27.912521) "></path>
                <circle id="椭圆形" fill="#FFFFFF" fill-rule="nonzero" opacity="0.0746605283" filter="url(#filter-4)" cx="28.5" cy="28.5" r="22"></circle>
                <circle id="椭圆形" fill="#FFFFFF" fill-rule="nonzero" opacity="0.183221726" filter="url(#filter-5)" cx="28.5" cy="28.5" r="17"></circle>
                <circle id="椭圆形" fill="#FFFFFF" fill-rule="nonzero" opacity="0.24562872" filter="url(#filter-6)" cx="28.5" cy="28.5" r="14"></circle>
                <path d="M38.3122621,51.5008895 C35.2996778,52.7877253 31.9830193,53.5 28.5,53.5 C25.0168932,53.5 21.7001555,52.7876895 18.6875109,51.5007925 M18.6855038,5.5000649 C21.6986824,4.21262691 25.0161197,3.5 28.5,3.5 C31.9837906,3.5 35.3011468,4.21259023 38.3142635,5.4999655" id="形状" stroke="#FFFFFF" stroke-width="2" fill-rule="nonzero" filter="url(#filter-7)" transform="translate(28.499884, 28.500000) rotate(-30.000000) translate(-28.499884, -28.500000) "></path>
                <g id="编组" transform="translate(16.500000, 16.500000)" fill="#FFFFFF" fill-rule="nonzero">
                    <g id="1.图标/2.设计/">
                        <path d="M5.625,1.5 C6.24632034,1.5 6.75,2.00367966 6.75,2.625 L6.74825424,2.83845461 C7.63578712,2.58686393 9.02280534,2.26277433 10.2779161,2.26277433 C12.3018633,2.26277433 14.4735212,3.10153364 14.5651302,3.13688569 C14.599108,3.14978895 14.6321025,3.16511454 14.6641411,3.18195113 C14.6751757,3.18761128 16.0098703,3.87256289 17.5351575,3.87256289 C19.0531793,3.87256289 20.3484061,3.19238405 20.361298,3.18514097 C20.6463676,3.03541048 20.9982456,3.02903081 21.2879584,3.17149423 C21.5758138,3.31484503 21.7555357,3.58197593 21.7555357,3.87256289 L21.7555357,14.3366203 C21.7555357,14.6095312 21.5977738,14.8630154 21.3374502,15.0118824 C21.2714611,15.0505682 19.6736843,15.9464328 17.6112798,15.9464328 C15.760472,15.9464328 14.1325139,15.2236109 13.7979526,15.064215 C13.4990352,14.9595739 11.6584699,14.3366203 10.1825379,14.3366203 C8.989733,14.3366203 7.46353571,14.7631242 6.74764976,15.002069 L6.749,20.25 L13.125,20.25 C13.7463203,20.25 14.25,20.7536797 14.25,21.375 C14.25,21.9963203 13.7463203,22.5 13.125,22.5 L3.375,22.5 C2.75367966,22.5 2.25,21.9963203 2.25,21.375 C2.25,20.7536797 2.75367966,20.25 3.375,20.25 L4.499,20.25 L4.5,2.625 C4.5,2.00367966 5.00367966,1.5 5.625,1.5 Z M19.95,5.25 L19.05,5.25 C18.8843146,5.25 18.75,5.38431458 18.75,5.55 L18.75,5.55 L18.75,10.95 C18.75,11.1156854 18.8843146,11.25 19.05,11.25 L19.05,11.25 L19.95,11.25 C20.1156854,11.25 20.25,11.1156854 20.25,10.95 L20.25,10.95 L20.25,5.55 C20.25,5.38431458 20.1156854,5.25 19.95,5.25 L19.95,5.25 Z" id="形状结合"></path>
                    </g>
                </g>
            </g>
            <path d="M32,52 C43.045695,52 52,43.045695 52,32 C52,20.954305 43.045695,12 32,12 C20.954305,12 12,20.954305 12,32 C12,43.045695 20.954305,52 32,52 Z" id="椭圆形" stroke="#FFFFFF" stroke-width="0.2" stroke-dasharray="0,1" fill-rule="nonzero" filter="url(#filter-8)"></path>
        </g>
    </g>
</svg>