<?xml version="1.0" encoding="UTF-8"?>
<svg width="20px" height="20px" viewBox="0 0 20 20" version="1.1" xmlns="http://www.w3.org/2000/svg" xmlns:xlink="http://www.w3.org/1999/xlink">
    <title>-mockplus-</title>
    <g id="页面" stroke="none" stroke-width="1" fill="none" fill-rule="evenodd" opacity="0.699999988">
        <g id="事件处理" transform="translate(-1278.000000, -358.000000)" fill="#38B7FD" fill-rule="nonzero">
            <g id="气泡展开" transform="translate(708.000000, 342.000000)">
                <g id="-mockplus-" transform="translate(550.000000, 0.000000)">
                    <g id="编组" transform="translate(20.000000, 16.000000)">
                        <path d="M9.97851563,4.99996015 C13.0839844,4.98828125 15.625,7.5625 15.625,10.6679688 L15.625,10.6679688 L15.625,17.499375 L17.125,17.5 C17.3321068,17.5 17.5,17.6678932 17.5,17.875 L17.5,19 C17.5,19.2071068 17.3321068,19.375 17.125,19.375 L2.875,19.375 C2.66789322,19.375 2.5,19.2071068 2.5,19 L2.5,17.875 C2.5,17.6678932 2.66789322,17.5 2.875,17.5 L4.375,17.499375 L4.375,10.625 C4.375,7.59919085 6.76481452,5.13174957 9.7584197,5.00502914 Z M11.0800781,8.4375 L7.8125,13.1777344 L9.30078125,13.1777344 L8.921875,16.5625 L12.1875,11.8222656 L10.7011719,11.8222656 L11.0800781,8.4375 Z M15.9109707,3.71966034 C16.1855581,3.44507295 16.6307523,3.44507295 16.9053397,3.71966034 C17.1799271,3.99424773 17.1799271,4.43944186 16.9053397,4.71402925 L16.9053397,4.71402925 L16.1319416,5.48742729 C15.8573542,5.76201469 15.4121601,5.76201469 15.1375727,5.48742729 C14.8629853,5.2128399 14.8629853,4.76764577 15.1375727,4.49305838 L15.1375727,4.49305838 Z M3.09466034,3.71966034 C3.36924773,3.44507295 3.81444186,3.44507295 4.08902925,3.71966034 L4.08902925,3.71966034 L4.86242729,4.49305838 C5.13701469,4.76764577 5.13701469,5.2128399 4.86242729,5.48742729 C4.5878399,5.76201469 4.14264577,5.76201469 3.86805838,5.48742729 L3.86805838,5.48742729 L3.09466034,4.71402925 C2.82007295,4.43944186 2.82007295,3.99424773 3.09466034,3.71966034 Z M10,0.859375 C10.3883252,0.859375 10.703125,1.17417479 10.703125,1.5625 L10.703125,1.5625 L10.703125,2.65625 C10.703125,3.04457521 10.3883252,3.359375 10,3.359375 C9.61167479,3.359375 9.296875,3.04457521 9.296875,2.65625 L9.296875,2.65625 L9.296875,1.5625 C9.296875,1.17417479 9.61167479,0.859375 10,0.859375 Z" id="形状"></path>
                    </g>
                </g>
            </g>
        </g>
    </g>
</svg>