<?xml version="1.0" encoding="UTF-8"?>
<svg width="21px" height="20px" viewBox="0 0 21 20" version="1.1" xmlns="http://www.w3.org/2000/svg" xmlns:xlink="http://www.w3.org/1999/xlink">
    <title>-mockplus-</title>
    <g id="页面" stroke="none" stroke-width="1" fill="none" fill-rule="evenodd" opacity="0.699999988">
        <g id="沉浸式列表V1.0" transform="translate(-2133.000000, -218.000000)" fill="#38B7FD" fill-rule="nonzero">
            <g id="气泡式" transform="translate(100.000000, 100.000000)">
                <g id="事件处理" transform="translate(1420.000000, 60.000000)">
                    <g id="详情" transform="translate(594.000000, 0.000000)">
                        <g transform="translate(0.000000, 44.000000)" id="-mockplus-">
                            <g id="-mockplus-" transform="translate(19.888268, 14.877193)">
                                <g id="1.图标/2.设计/" transform="translate(2.237430, 0.871711)">
                                    <path d="M12.8920447,16.7984628 L2.56643247,16.7984628 C1.14974158,16.7984628 0,16.0042476 0,14.6536396 L0,3.64955903 C0,2.29983516 1.16770629,1.20591049 2.6086653,1.20473169 L2.6086653,1.24215854 C2.60929564,2.57125343 3.75935239,3.64808553 5.17761913,3.64808553 L10.4759485,3.64808553 C11.8942153,3.64808553 13.044272,2.57095873 13.0445872,1.24215854 L13.0445872,1.20473169 L13.0616064,1.20473169 C14.5050868,1.20473169 15.4134078,2.22291858 15.4134078,3.57352655 L15.4134078,14.4408666 C15.4134078,15.742931 14.2845551,16.7984628 12.8920447,16.7984628 Z M11.5481582,6.57003141 L3.84129669,6.57003141 C3.48632961,6.57051935 3.19894622,6.83989629 3.19929429,7.17180786 C3.19894622,7.50371942 3.48632961,7.77309636 3.84129669,7.7735843 L11.5481582,7.7735843 C11.7186785,7.77342806 11.8821484,7.709939 12.0026063,7.59708401 C12.1230641,7.48422902 12.1906427,7.3312526 12.1904757,7.17180786 C12.1906427,7.01236311 12.1230641,6.85938669 12.0026063,6.7465317 C11.8821484,6.63367671 11.7186785,6.57018765 11.5481582,6.57003141 L11.5481582,6.57003141 Z M11.5481582,8.9771372 L3.84129669,8.9771372 C3.48632961,8.97762515 3.19894622,9.24700208 3.19929429,9.57891365 C3.19894622,9.91082521 3.48632961,10.1802021 3.84129669,10.1806901 L9.34196547,10.1806901 C9.5124858,10.1805339 9.67595567,10.1170448 9.79641354,10.0041898 C9.91687141,9.89133481 9.98444998,9.73835839 9.98428272,9.57891365 C9.98444998,9.41946891 9.91687141,9.26649249 9.79641354,9.15363749 C9.67595567,9.0407825 9.5124858,8.97729344 9.34196547,8.9771372 L11.5481582,8.9771372 L11.5481582,8.9771372 Z M11.5481582,11.629433 L3.84129669,11.629433 C3.48632961,11.6299209 3.19894622,11.8992979 3.19929429,12.2312095 C3.19894622,12.563121 3.48632961,12.832498 3.84129669,12.8329859 L7.76611353,12.8329859 C7.93663386,12.8328297 8.10010373,12.7693406 8.2205616,12.6564856 C8.34101947,12.5436306 8.40859804,12.3906542 8.40843078,12.2312095 C8.40859804,12.0717647 8.34101947,11.9187883 8.2205616,11.8059333 C8.10010373,11.6930783 7.93663386,11.6295892 7.76611353,11.629433 L11.5481582,11.629433 L11.5481582,11.629433 Z M10.4762637,2.44453305 L5.21922162,2.44453305 C4.87827114,2.44461111 4.55127943,2.3179203 4.3103093,2.09238046 C4.06933916,1.86684063 3.93416877,1.56096347 3.93458613,1.24215854 L3.93458613,1.2038476 C3.93371619,0.539909441 4.50853391,0.000975880934 5.21859128,0 L10.4762637,0 C11.186321,0.000813330398 11.7612797,0.539614844 11.7605837,1.2035529 L11.7605837,1.24186384 C11.7605837,1.56131813 11.6253749,1.86721625 11.3845848,2.09266139 C11.1438676,2.31818278 10.8170213,2.44479859 10.4762637,2.44453305 L10.4762637,2.44453305 Z" id="形状"></path>
                                </g>
                            </g>
                        </g>
                    </g>
                </g>
            </g>
        </g>
    </g>
</svg>