<svg xmlns="http://www.w3.org/2000/svg" width="32" height="32" viewBox="0 0 32 32">
  <g id="组_250" data-name="组 250" transform="translate(-1198 -749)">
    <g id="事件" transform="translate(1203 754)">
      <path id="路径_37" data-name="路径 37" d="M0,0H23V23H0Z" fill="#38b7fd" opacity="0.01"/>
      <path id="路径_38" data-name="路径 38" d="M126.7,52.485H114.926A2.66,2.66,0,0,1,112,49.87V36.451a2.979,2.979,0,0,1,2.975-2.981v.046a2.932,2.932,0,0,0,2.929,2.934h6.041a2.932,2.932,0,0,0,2.929-2.934v-.046h.019a2.661,2.661,0,0,1,2.682,2.889V49.61A2.875,2.875,0,0,1,126.7,52.485Zm-1.532-12.473H116.38a.734.734,0,0,0,0,1.468h8.788a.734.734,0,0,0,0-1.468Zm0,2.935H116.38a.734.734,0,0,0,0,1.468h6.272a.734.734,0,0,0,0-1.468Zm0,3.234H116.38a.734.734,0,0,0,0,1.468h4.475a.734.734,0,0,0,0-1.468Zm-1.222-11.2h-5.994a1.464,1.464,0,0,1-1.465-1.466v-.047A1.466,1.466,0,0,1,117.951,32h6a1.466,1.466,0,0,1,1.464,1.468v.047a1.464,1.464,0,0,1-1.464,1.467Z" transform="translate(-109.484 -31.281)" fill="#38b7fd"/>
    </g>
    <rect id="矩形_133" data-name="矩形 133" width="32" height="32" transform="translate(1198 749)" fill="none" opacity="0.32"/>
  </g>
</svg>
