<?xml version="1.0" encoding="UTF-8"?>
<svg width="20px" height="20px" viewBox="0 0 20 20" version="1.1" xmlns="http://www.w3.org/2000/svg" xmlns:xlink="http://www.w3.org/1999/xlink">
    <title>-mockplus-</title>
    <g id="页面" stroke="none" stroke-width="1" fill="none" fill-rule="evenodd" opacity="0.699999988">
        <g id="沉浸式列表" transform="translate(-280.000000, -220.000000)" fill="#38B7FD" fill-rule="nonzero">
            <g id="气泡式" transform="translate(100.000000, 100.000000)">
                <g id="排风机" transform="translate(0.000000, 60.000000)">
                    <g id="展开" transform="translate(160.000000, 0.000000)">
                        <g id="气泡展开" transform="translate(0.000000, 44.000000)">
                            <g id="编组" transform="translate(20.000000, 16.000000)">
                                <path d="M14.9205864,1.74201852 C16.2108767,2.34441948 16.9881795,3.38620605 17.001665,4.52785303 C17.0216235,6.27621923 15.8149431,7.48156091 13.7743209,7.74605596 C13.1779679,7.83881007 12.5966875,8.01094032 12.0459305,8.25787008 C12.2266572,8.46932236 12.3747761,8.7092858 12.483038,8.96997316 L12.4444884,8.97457047 C13.8446928,8.80681117 16.6774887,8.69623025 17.9702757,10.2783462 C18.8911502,11.4078897 19.0082838,13.3185119 18.2579815,14.9205864 C17.6555805,16.2108767 16.6137939,16.9881795 15.472147,17.001665 C13.7237808,17.0216235 12.5184391,15.8149431 12.253944,13.7743209 C12.1611899,13.1779679 11.9890597,12.5966875 11.7421299,12.0459305 C11.5306776,12.2266572 11.2907142,12.3747761 11.0300268,12.483038 L11.0254295,12.4444884 C11.1931888,13.8446928 11.3037698,16.6774887 9.72165376,17.9702757 C8.59211034,18.8911502 6.68148814,19.0082838 5.07941361,18.2579815 C3.78912331,17.6555805 3.01182049,16.6137939 2.99833501,15.472147 C2.9783765,13.7237808 4.18505688,12.5184391 6.22567906,12.253944 C6.82203212,12.1611899 7.40331249,11.9890597 7.95406946,11.7421299 C7.77334277,11.5306776 7.62522387,11.2907142 7.51696198,11.0300268 L7.55551157,11.0254295 C6.1553072,11.1931888 3.32251132,11.3037698 2.02972434,9.72165376 C1.10884976,8.59211034 0.991716241,6.68148814 1.74201852,5.07941361 C2.34441948,3.78912331 3.38620605,3.01182049 4.52785303,2.99833501 C6.27621923,2.9783765 7.48156091,4.18505688 7.74605596,6.22567906 C7.83881007,6.82203212 8.01094032,7.40331249 8.25787008,7.95406946 C8.46932236,7.77334277 8.7092858,7.62522387 8.96997316,7.51696198 L8.97457047,7.55551157 C8.80681117,6.1553072 8.69623025,3.32251132 10.2783462,2.02972434 C11.4078897,1.10884976 13.3185119,0.991716241 14.9205864,1.74201852 Z M10,8.375 C9.10253728,8.375 8.375,9.10253728 8.375,10 C8.375,10.8974627 9.10253728,11.625 10,11.625 C10.8974627,11.625 11.625,10.8974627 11.625,10 C11.625,9.10253728 10.8974627,8.375 10,8.375 Z" id="形状结合"></path>
                            </g>
                        </g>
                    </g>
                </g>
            </g>
        </g>
    </g>
</svg>