<?xml version="1.0" encoding="UTF-8"?>
<svg width="48px" height="48px" viewBox="0 0 48 48" version="1.1" xmlns="http://www.w3.org/2000/svg" xmlns:xlink="http://www.w3.org/1999/xlink">
    <title>-mockplus-</title>
    <defs>
        <linearGradient x1="50%" y1="-2.48949813e-15%" x2="50%" y2="100%" id="linearGradient-1">
            <stop stop-color="#20E4F0" offset="0%"></stop>
            <stop stop-color="#38B7FD" offset="100%"></stop>
        </linearGradient>
    </defs>
    <g id="页面" stroke="none" stroke-width="1" fill="none" fill-rule="evenodd">
        <g id="沉浸式列表" transform="translate(-260.000000, -468.000000)">
            <g id="气泡式" transform="translate(100.000000, 100.000000)">
                <g id="排风机" transform="translate(0.000000, 60.000000)">
                    <g id="展开" transform="translate(160.000000, 0.000000)">
                        <g id="气泡展开" transform="translate(0.000000, 44.000000)">
                            <g id="气泡" transform="translate(0.000000, 264.000000)">
                                <rect id="矩形" fill="url(#linearGradient-1)" transform="translate(24.000000, 24.000000) scale(1, -1) translate(-24.000000, -24.000000) " x="0" y="0" width="48" height="48" rx="24"></rect>
                                <g id="-mockplus-" transform="translate(8.000000, 8.000000)" fill="#FFFFFF" fill-rule="nonzero">
                                    <g id="编组">
                                        <path d="M23.8729382,2.78722962 C25.9374027,3.75107116 27.1810872,5.41792969 27.202664,7.24456484 C27.2345976,10.0419508 25.303909,11.9704975 22.0389135,12.3936895 C21.0848946,12.5420734 20.1549846,12.8174203 19.2738933,13.2124108 C19.5624585,13.5505751 19.7996509,13.9347985 19.9729732,14.3522276 L19.9111815,14.3593127 C22.1515085,14.0908979 26.6839819,13.9139684 28.7524411,16.445354 C30.2258404,18.2526235 30.413254,21.309619 29.2127704,23.8729382 C28.2489288,25.9374027 26.5820703,27.1810872 24.7554352,27.202664 C21.9580492,27.2345976 20.0295025,25.303909 19.6063105,22.0389135 C19.4579266,21.0848946 19.1825797,20.1549846 18.7875892,19.2738933 C18.4494249,19.5624585 18.0652015,19.7996509 17.6477724,19.9729732 L17.6406873,19.9111815 C17.9091021,22.1515085 18.0860316,26.6839819 15.554646,28.7524411 C13.7473765,30.2258404 10.690381,30.413254 8.12706177,29.2127704 C6.0625973,28.2489288 4.81891278,26.5820703 4.79733602,24.7554352 C4.7654024,21.9580492 6.69609101,20.0295025 9.96108649,19.6063105 C10.9151054,19.4579266 11.8450154,19.1825797 12.7261067,18.7875892 C12.4375415,18.4494249 12.2003491,18.0652015 12.0270268,17.6477724 L12.0888185,17.6406873 C9.84849152,17.9091021 5.31601811,18.0860316 3.24755894,15.554646 C1.77415962,13.7473765 1.58674599,10.690381 2.78722962,8.12706177 C3.75107116,6.0625973 5.41792969,4.81891278 7.24456484,4.79733602 C10.0419508,4.7654024 11.9704975,6.69609101 12.3936895,9.96108649 C12.5420734,10.9151054 12.8174203,11.8450154 13.2124108,12.7261067 C13.5505751,12.4375415 13.9347985,12.2003491 14.3522276,12.0270268 L14.3593127,12.0888185 C14.0908979,9.84849152 13.9139684,5.31601811 16.445354,3.24755894 C18.2526235,1.77415962 21.309619,1.58674599 23.8729382,2.78722962 Z M16,13.4 C14.5640597,13.4 13.4,14.5640597 13.4,16 C13.4,17.4359403 14.5640597,18.6 16,18.6 C17.4359403,18.6 18.6,17.4359403 18.6,16 C18.6,14.5640597 17.4359403,13.4 16,13.4 Z" id="形状结合"></path>
                                    </g>
                                </g>
                            </g>
                        </g>
                    </g>
                </g>
            </g>
        </g>
    </g>
</svg>