<?xml version="1.0" encoding="UTF-8"?>
<svg width="87px" height="44px" viewBox="0 0 87 44" version="1.1" xmlns="http://www.w3.org/2000/svg" xmlns:xlink="http://www.w3.org/1999/xlink">
    <title>3.导航/切换/1首页-悬停</title>
    <defs>
        <linearGradient x1="50%" y1="0%" x2="50%" y2="99.8716128%" id="linearGradient-1">
            <stop stop-color="#0085CE" offset="0%"></stop>
            <stop stop-color="#19F2FF" offset="100%"></stop>
        </linearGradient>
    </defs>
    <g id="3.导航/切换/1首页-悬停" stroke="none" stroke-width="1" fill="none" fill-rule="evenodd" opacity="0.639999986">
        <g id="1">
            <path d="M77.5919202,0.5 L86.3873747,43.5 L19.3287162,43.5 L0.760534408,0.5 L77.5919202,0.5 Z" id="矩形" stroke="#3889FF" fill="url(#linearGradient-1)"></path>
            <path d="M14,8 C15.1045695,8 16,7.1045695 16,6 C16,4.8954305 15.1045695,4 14,4 C12.8954305,4 12,4.8954305 12,6 C12,7.1045695 12.8954305,8 14,8 Z" id="椭圆形" fill="#FFFFFF"></path>
            <g id="编组" transform="translate(34.000000, 12.000000)" fill="#FFFFFF" fill-rule="nonzero">
                <g id="1.图标/2.设计/">
                    <path d="M14.8229949,19.5347229 L11.4238262,19.5347229 L11.4238262,15.9064799 C11.4238262,15.640458 11.2095308,15.4261625 10.9435089,15.4261625 L9.22175611,15.4261625 C8.95573421,15.4261625 8.7414388,15.6441527 8.7414388,15.9064799 L8.7414388,19.5347229 L5.06885878,19.5347229 C4.05649768,19.5347229 3.23256876,18.710794 3.23256876,17.6984329 L3.23256876,11.7055508 L1.15981485,11.0589698 L0.993551164,10.8927061 C0.502149612,10.4013046 0.502149612,9.60693364 0.993551164,9.11553209 L9.1146084,0.994474851 C9.3510723,0.758010947 9.66512593,0.625 10.001348,0.625 C10.3375702,0.625 10.6516238,0.754316198 10.8880877,0.994474851 L19.0091449,9.11922683 C19.2456088,9.35569074 19.3786198,9.67343911 19.375,10.0059665 C19.375,10.3421886 19.2419141,10.6562422 19.0054502,10.8927061 L18.8391865,11.0589698 L16.6518954,11.7092455 L16.6518954,17.6984329 C16.6555901,18.710794 15.8353559,19.5347229 14.8229949,19.5347229 L14.8229949,19.5347229 Z" id="路径"></path>
                </g>
            </g>
        </g>
    </g>
</svg>