<?xml version="1.0" encoding="UTF-8"?>
<svg width="20px" height="20px" viewBox="0 0 20 20" version="1.1" xmlns="http://www.w3.org/2000/svg" xmlns:xlink="http://www.w3.org/1999/xlink">
    <title>-mockplus-</title>
    <g id="页面" stroke="none" stroke-width="1" fill="none" fill-rule="evenodd" opacity="0.699999988">
        <g id="入驻信息" transform="translate(-308.000000, -337.000000)" fill="#38B7FD" fill-rule="nonzero">
            <g id="气泡展开" transform="translate(288.000000, 321.000000)">
                <g id="-mockplus-" transform="translate(20.000000, 16.000000)">
                    <g id="1.图标/2.设计/" transform="translate(0.000000, 2.500000)">
                        <path d="M10.125,0 C10.4011424,-5.07265313e-17 10.625,0.223857625 10.625,0.5 L10.625,13.75 L11.875,13.75 L11.875,1.27165172 C11.875,1.13358053 11.9869288,1.02165172 12.125,1.02165172 C12.1954362,1.02165172 12.2626045,1.05136492 12.309985,1.10348352 L17.8649401,7.21393408 C18.0322782,7.39800605 18.125,7.63784083 18.125,7.88660687 L18.125,13.75 L19.0625,13.75 C19.580267,13.75 20,14.169733 20,14.6875 C20,15.205267 19.580267,15.625 19.0625,15.625 L0.9375,15.625 C0.419733047,15.625 6.34081642e-17,15.205267 0,14.6875 C-6.34081642e-17,14.169733 0.419733047,13.75 0.9375,13.75 L1.875,13.75 L1.875,0.5 C1.875,0.223857625 2.09885763,-6.02957711e-17 2.375,0 L10.125,0 Z M7.25,6.25 L5.25,6.25 C5.11192881,6.25 5,6.36192881 5,6.5 L5,6.5 L5,13.75 L7.5,13.75 L7.5,6.5 C7.5,6.36192881 7.38807119,6.25 7.25,6.25 L7.25,6.25 Z" id="形状结合"></path>
                    </g>
                </g>
            </g>
        </g>
    </g>
</svg>