<?xml version="1.0" encoding="UTF-8"?>
<svg width="20px" height="20px" viewBox="0 0 20 20" version="1.1" xmlns="http://www.w3.org/2000/svg" xmlns:xlink="http://www.w3.org/1999/xlink">
    <title>-mockplus-</title>
    <defs>
        <linearGradient x1="50%" y1="0.855004371%" x2="50%" y2="99.9808785%" id="linearGradient-1">
            <stop stop-color="#19F2FF" offset="0.0191215035%"></stop>
            <stop stop-color="#107FDB" offset="100%"></stop>
        </linearGradient>
        <linearGradient x1="50%" y1="0.855004371%" x2="50%" y2="99.9808785%" id="linearGradient-2">
            <stop stop-color="#38B7FD" offset="0.0191215035%"></stop>
            <stop stop-color="#38B7FD" offset="100%"></stop>
        </linearGradient>
    </defs>
    <g id="页面" stroke="none" stroke-width="1" fill="none" fill-rule="evenodd" opacity="0.699999988">
        <g id="实时监控" transform="translate(-1305.000000, -246.000000)" fill="url(#linearGradient-2)">
            <g id="气泡展开" transform="translate(243.000000, 230.000000)">
                <g id="-mockplus-" transform="translate(1042.000000, 0.000000)">
                    <g id="-mockplus-" transform="translate(20.000000, 16.000000)">
                        <g id="1.图标/2.设计/" transform="translate(0.000000, 1.875000)">
                            <path d="M0,9.27861659 C0,8.9872439 0.218646809,8.84460734 0.486090357,8.96237635 L1.89930588,9.86605396 C2.1667494,9.98335376 2.38539624,10.3174236 2.38539624,10.6087963 L2.38539624,11.7850786 L5.8340102,11.7850786 L6.50027304,10.3451063 L8.5384743,11.2928887 L7.57473918,13.376133 C7.38992263,13.773361 6.99141025,14.0272594 6.55329256,14.0269123 L2.38445783,14.0269123 L2.38445783,15.2031946 C2.38445783,15.4950365 2.16628021,15.8286371 1.89836747,15.9459369 L0.486090357,16.850553 C0.218646833,16.9673836 0,16.8256854 0,16.5338435 L0,9.27861659 Z M18.7656089,9.35791125 L17.3603573,12.3617244 L15.3498388,11.4270796 L18.7656089,9.35791125 Z M5.62193218,0.0987346092 L19.5867074,6.59057447 C20.1154949,6.83737325 20.1403624,7.28592766 19.6411345,7.58809195 L13.378733,11.3820365 C12.8795051,11.6842008 12.0377618,11.7301823 11.5080359,11.484322 L2.29906358,7.20334861 C1.76929852,6.95579615 1.53939776,6.32650575 1.78482128,5.79575107 L4.20964264,0.611100115 C4.46000126,0.0816504457 5.09033366,-0.147028287 5.62193218,0.0987346092 Z" id="形状"></path>
                        </g>
                    </g>
                </g>
            </g>
        </g>
    </g>
</svg>