<?xml version="1.0" encoding="UTF-8"?>
<svg width="13px" height="12px" viewBox="0 0 13 12" version="1.1" xmlns="http://www.w3.org/2000/svg" xmlns:xlink="http://www.w3.org/1999/xlink">
    <title>左</title>
    <g id="页面" stroke="none" stroke-width="1" fill="none" fill-rule="evenodd">
        <g id="事件处理" transform="translate(-1194.000000, -691.000000)">
            <g id="气泡展开" transform="translate(708.000000, 342.000000)">
                <g id="-mockplus-" transform="translate(0.000000, 158.000000)">
                    <g id="表格" transform="translate(19.888268, 44.631579)">
                        <g id="编组" transform="translate(466.379888, 146.912281)">
                            <rect id="矩形" stroke="#FFFFFF" stroke-width="0.3" x="0" y="0" width="11.9329609" height="11.1578947" rx="2"></rect>
                            <path d="M4.17237308,5.42288557 L7.13302172,3.05001461 C7.21921227,2.98093548 7.34508322,2.99480702 7.41416235,3.08099757 C7.44260262,3.1164827 7.45810056,3.16060066 7.45810056,3.20607641 L7.45810056,7.95181833 C7.45810056,8.06227528 7.36855751,8.15181833 7.25810056,8.15181833 C7.21262481,8.15181833 7.16850685,8.13632039 7.13302172,8.10788012 L4.17237308,5.73500916 C4.08618254,5.66593003 4.072311,5.54005908 4.14139013,5.45386853 C4.1505519,5.44243733 4.16094188,5.43204734 4.17237308,5.42288557 Z" id="矩形" fill="#FFFFFF"></path>
                        </g>
                    </g>
                </g>
            </g>
        </g>
    </g>
</svg>