<?xml version="1.0" encoding="UTF-8"?>
<svg width="16px" height="16px" viewBox="0 0 16 16" version="1.1" xmlns="http://www.w3.org/2000/svg" xmlns:xlink="http://www.w3.org/1999/xlink">
    <title>-mockplus-</title>
    <g id="页面" stroke="none" stroke-width="1" fill="none" fill-rule="evenodd">
        <g id="沉浸式列表" transform="translate(-120.000000, -834.000000)" fill="#FFFFFF" fill-rule="nonzero">
            <g id="广告牌" transform="translate(100.000000, 674.000000)">
                <g id="会议室" transform="translate(0.000000, 60.000000)">
                    <g id="广告牌" transform="translate(0.000000, 44.000000)">
                        <g id="-mockplus-" transform="translate(20.000000, 52.000000)">
                            <g id="编组" transform="translate(0.000000, 4.000000)">
                                <path d="M8.02666667,6.24308233 C8.58372043,6.23146833 9.1198358,6.46126537 9.50386174,6.87625771 C9.88788767,7.29125005 10.0844028,7.85316013 10.0453333,8.42452669 C10.0190695,9.36246131 9.64930244,10.2556216 9.01,10.9253405 C8.75133333,11.6168509 9.11333333,11.9889917 9.16733333,11.9889917 C10.3006667,12.3611325 11.6486667,13.1588709 11.7006667,13.9572946 L11.7006667,13.9572946 L11.7006667,14.2232074 C11.7006667,15.2875439 9.78533333,15.5 8.026,15.5 C6.21466667,15.5 4.3,15.2340872 4.3,14.2232074 L4.3,14.2232074 L4.3,13.9572946 C4.3,13.1595562 5.594,12.4145892 6.73266667,11.9889917 C7.03500737,11.7301805 7.1396299,11.299967 6.99133333,10.9253405 C6.36738228,10.2497867 6.01596086,9.35605152 6.008,8.42452669 C5.96033775,7.85099662 6.15397432,7.28395519 6.53990621,6.86690321 C6.9258381,6.44985122 7.46708236,6.22275379 8.02666667,6.24308233 Z M11.2963322,4.91181828 L11.4413333,4.91283303 C11.9661679,4.90277271 12.4701435,5.1238822 12.826185,5.52040976 C13.1822264,5.91693732 13.3563556,6.45104113 13.3046667,6.98804934 C13.3085034,7.8544883 12.994248,8.69052504 12.4246667,9.32917845 C12.218,9.96791742 12.528,10.0741455 12.58,10.0734601 C13.7186667,10.4462863 14.9606667,11.1377966 14.9086667,11.935535 L14.9086667,11.935535 L14.9086667,12.2014478 C14.9086667,12.9998715 13.6666667,13.3185556 12.3213333,13.3720123 C11.9593333,12.3076758 10.614,11.6161655 9.734,11.296796 C10.4035224,10.494066 10.7868285,9.48067242 10.8206667,8.42384134 C10.8504633,7.50497098 10.4689156,6.62275545 9.78533333,6.02994089 C10.0424036,5.32708001 10.7117964,4.87551967 11.4413333,4.91283303 Z M6.05933333,6.02994089 C5.37591803,6.62282687 4.99460615,7.50506528 5.02466667,8.42384134 C5.05850486,9.48067242 5.44181095,10.494066 6.11133333,11.296796 C5.23133333,11.6161655 3.886,12.3076758 3.524,13.3720123 C2.17866667,13.3185556 0.936666667,12.9998715 0.936666667,12.2014478 L0.936666667,11.935535 C0.936666667,11.1377966 2.17866667,10.4462863 3.26533333,10.0734601 C3.31666667,10.0741455 3.62666667,9.96791742 3.42,9.32917845 C2.85041865,8.69052504 2.53616331,7.8544883 2.54,6.98804934 C2.50595777,6.45532011 2.68612101,5.93157861 3.03836651,5.53927865 C3.39061201,5.14697868 3.88405778,4.92051388 4.40333333,4.91283303 C5.13287031,4.87551967 5.80226308,5.32708001 6.05933333,6.02994089 Z M15.3423333,0.500342671 C15.4174821,0.500342671 15.4896871,0.513299925 15.5569495,0.53715976 C15.6375708,0.565643608 15.710747,0.609726607 15.7734776,0.66583351 L15.8386855,0.732868013 C15.9391638,0.851590571 16,1.00670813 16,1.17643279 L16,5.58378309 C16,5.95717735 15.7055526,6.25987321 15.3423333,6.25987321 C14.9791141,6.25987321 14.6846667,5.95717735 14.6846667,5.58378309 L14.684,1.852 L1.315,1.852 L1.31533333,5.58378309 C1.31533333,5.95717735 1.02088594,6.25987321 0.657666667,6.25987321 C0.294447396,6.25987321 0,5.95717735 0,5.58378309 L0,1.17643279 C-0.000333333333,0.802695858 0.294114063,0.5 0.657333333,0.5 L15.3423333,0.500342671 L15.3423333,0.500342671 Z" id="形状结合"></path>
                            </g>
                        </g>
                    </g>
                </g>
            </g>
        </g>
    </g>
</svg>