<svg xmlns="http://www.w3.org/2000/svg" width="32" height="32" viewBox="0 0 32 32">
  <g id="组_249" data-name="组 249" transform="translate(-1068 -749)">
    <g id="_54_会议室" data-name="54_会议室" transform="translate(933.76 560.867)">
      <path id="路径_28" data-name="路径 28" d="M350,416.539c-.078,0-.621-.543-.233-1.552a5.433,5.433,0,0,0,1.553-3.649,2.975,2.975,0,0,0-3.028-3.183,2.935,2.935,0,0,0-3.028,3.183,5.368,5.368,0,0,0,1.475,3.649,1.355,1.355,0,0,1-.388,1.552c-1.708.621-3.649,1.708-3.649,2.872v.388c0,1.475,2.872,1.863,5.589,1.863,2.639,0,5.512-.31,5.512-1.863v-.388c-.078-1.165-2.1-2.329-3.8-2.872Zm0,0" transform="translate(-197.897 -206.183)" fill="#38b7fd"/>
      <path id="路径_29" data-name="路径 29" d="M203.016,355.23c-.078,0-.543-.155-.233-1.087a5.021,5.021,0,0,0,1.32-3.416,2.757,2.757,0,0,0-2.795-3.028,2.52,2.52,0,0,0-2.484,1.63,4.379,4.379,0,0,1,1.553,3.493,6.783,6.783,0,0,1-1.63,4.192c1.32.466,3.338,1.475,3.881,3.028,2.018-.078,3.881-.543,3.881-1.708v-.388c.078-1.164-1.785-2.173-3.493-2.717Zm-13.973,0c.078,0,.543-.155.233-1.087a5.021,5.021,0,0,1-1.32-3.416,2.842,2.842,0,0,1,2.795-3.028,2.52,2.52,0,0,1,2.484,1.63,4.378,4.378,0,0,0-1.552,3.493,6.783,6.783,0,0,0,1.63,4.192c-1.32.466-3.338,1.475-3.881,3.028-2.018-.078-3.881-.543-3.881-1.708v-.388c0-1.164,1.863-2.173,3.493-2.717Zm0,0" transform="translate(-45.791 -147.668)" fill="#38b7fd"/>
      <path id="路径_30" data-name="路径 30" d="M161.254,197.106H139.226a.986.986,0,0,1,0-1.973h22.027a.986.986,0,0,1,0,1.973Z" transform="translate(0.115 -3)" fill="#38b7fd"/>
      <path id="路径_31" data-name="路径 31" d="M138.24,204.01v-7.89a.986.986,0,0,1,1.973,0v7.89a.986.986,0,0,1-1.973,0Zm22.027,0v-7.89a.986.986,0,1,1,1.973,0v7.89a.986.986,0,0,1-1.973,0Z" transform="translate(0.115 -3)" fill="#38b7fd"/>
    </g>
    <rect id="矩形_132" data-name="矩形 132" width="32" height="32" transform="translate(1068 749)" fill="none" opacity="0.32"/>
  </g>
</svg>
