<svg xmlns="http://www.w3.org/2000/svg" width="32" height="32" viewBox="0 0 32 32">
  <g id="组_248" data-name="组 248" transform="translate(-944 -749)">
    <g id="编组" transform="translate(944.563 748.287)">
      <path id="形状" d="M15.557,2.5a10.7,10.7,0,1,1-10.7,10.7A10.708,10.708,0,0,1,15.557,2.5ZM15.3,8.917a5.181,5.181,0,0,0-1.559.236,1.13,1.13,0,0,0-.788,1.075v6.943h2.251V15.686h.1c2.763,0,4.209-1.7,4.209-3.382C19.513,10.4,17.667,8.917,15.3,8.917Zm-.1,2.256c1.148-.017,2.048.585,2.048,1.131.006.664-.8,1.131-1.952,1.131h-.1ZM28.273,7.182a1.264,1.264,0,0,1,1.676.621,12.962,12.962,0,0,1,0,10.782,1.264,1.264,0,1,1-2.3-1.055,10.435,10.435,0,0,0,0-8.672A1.264,1.264,0,0,1,28.273,7.182ZM1.175,7.8a1.264,1.264,0,1,1,2.3,1.055,10.435,10.435,0,0,0,0,8.672,1.264,1.264,0,1,1-2.3,1.055,12.963,12.963,0,0,1,0-10.782Z" transform="translate(0 3.101)" fill="#38b7fd"/>
    </g>
    <rect id="矩形_131" data-name="矩形 131" width="32" height="32" transform="translate(944 749)" fill="none" opacity="0.32"/>
  </g>
</svg>
