<?xml version="1.0" encoding="UTF-8"?>
<svg width="87px" height="44px" viewBox="0 0 87 44" version="1.1" xmlns="http://www.w3.org/2000/svg" xmlns:xlink="http://www.w3.org/1999/xlink">
    <title>3.导航/切换/3物业-悬停</title>
    <defs>
        <linearGradient x1="50%" y1="0%" x2="50%" y2="99.8716128%" id="linearGradient-1">
            <stop stop-color="#0085CE" offset="0%"></stop>
            <stop stop-color="#19F2FF" offset="100%"></stop>
        </linearGradient>
    </defs>
    <g id="3.导航/切换/3物业-悬停" stroke="none" stroke-width="1" fill="none" fill-rule="evenodd" opacity="0.639999986">
        <g id="3">
            <path d="M86.5,0.5 L86.5,43.5 L9.40807981,43.5 L0.612625263,0.5 L86.5,0.5 Z" id="矩形" stroke="#3889FF" fill="url(#linearGradient-1)" transform="translate(43.500000, 22.000000) scale(-1, 1) translate(-43.500000, -22.000000) "></path>
            <g id="编组" transform="translate(29.000000, 12.000000)" fill="#FFFFFF" fill-rule="nonzero">
                <g id="1.图标/2.设计/">
                    <path d="M5.14685664,5.64951868 L8.6264217,3.02734645 C9.58130234,2.32243456 10.8436445,2.13995737 11.9435071,2.56240457 L17.4778153,4.65964241 C17.8452693,4.8021246 18.2302212,4.8621171 18.5976753,4.8621171 L19.5125609,4.8621171 C19.7775278,4.8621171 20,5.06459179 20,5.32705898 L20,12.0662166 C20,12.3286838 19.7750281,12.551156 19.5125609,12.551156 L18.3127109,12.551156 C18.1502312,12.551156 17.967754,12.6111485 17.8452693,12.7136357 L17.5803025,12.9361079 C17.52031,12.9961004 17.4178228,12.9761029 17.3553306,12.9161104 L10.9061367,5.12708398 C10.743657,4.92460929 10.4586927,4.88461429 10.2337208,5.00709898 L7.28408949,6.64189463 C6.69416323,6.96435432 5.98175228,7.00434932 5.35183102,6.74188213 C5.02687164,6.59939994 4.86439195,6.21694775 5.00687414,5.87449055 C5.00437445,5.79200087 5.06436695,5.71201086 5.14685664,5.64951868 Z M0.589926259,12.5311585 L1.62729659,12.5311585 L2.35970504,11.6437694 C3.0096238,10.8563678 4.18947632,10.7563803 4.98437695,11.4012997 C5.26934133,11.6437694 5.49181352,11.9662291 5.59430071,12.3286838 C6.22422197,12.4911635 6.71416073,12.9736032 6.89663792,13.6010247 C7.34408199,13.7410072 7.75153106,14.0259716 7.97400325,14.4484188 C8.36145482,14.5084113 8.7264092,14.6908885 9.01137358,14.9733532 C9.60129984,15.5982751 9.72378453,16.5281588 9.27634046,17.2730657 L9.17385327,17.4555429 L9.17385327,17.4755404 C9.66129234,17.7980001 10.3137108,17.6980126 10.6586677,17.2130732 C10.8211474,16.9706035 10.8836395,16.6881388 10.8211474,16.4056742 L10.8211474,16.3856767 L10.8411449,16.3856767 L10.9236345,16.4656667 C11.2910886,16.8281214 11.8810149,16.8906135 12.3059618,16.6056492 C12.6509186,16.3631795 12.8133983,15.9407323 12.7334083,15.5357829 L12.7334083,15.5157854 L12.7534058,15.5157854 L12.8358955,15.5957754 C13.2008499,15.9582301 13.7707787,16.0182226 14.2182227,15.7357579 C14.5631796,15.4932882 14.7481565,15.070841 14.6656668,14.6658916 L14.6656668,14.6483938 L14.6856643,14.6483938 L14.768154,14.7283838 C15.1131109,15.070841 15.6630421,15.1308335 16.0704912,14.8908635 C16.5779278,14.5884013 16.7429071,13.9434819 16.4379453,13.438545 C16.3979503,13.3785525 16.3554556,13.31856 16.3154606,13.2760654 L15.6655418,12.4886638 L10.3962005,6.13445806 C10.336208,6.07446556 10.2537183,6.05446806 10.1712286,6.09446306 L7.64904387,7.48678902 C6.83414573,7.9317334 5.87926509,8.0117234 5.00437445,7.68926371 C4.51693538,7.52678402 4.14948131,7.14433182 3.96700412,6.67938994 C3.82452193,6.19445056 3.88451444,5.66951618 4.14948131,5.24706898 C4.20947382,5.12708398 4.16947882,4.98460179 4.04699413,4.92460929 C4.00699913,4.90461179 3.96450444,4.90461179 3.92450944,4.90461179 L0.48743907,4.90461179 C0.222472191,4.90461179 0,5.10708648 0,5.36955367 L0,12.0887138 C0.102487189,12.3286838 0.32495938,12.5311585 0.589926259,12.5311585 L0.589926259,12.5311585 Z M4.2519685,12.0462191 C3.84451944,11.8237469 3.35708036,11.9262341 3.07211599,12.2886888 L2.35970504,13.1560804 C2.05474316,13.5385325 2.09473816,14.1034619 2.48218973,14.4059241 L2.50218723,14.4059241 L2.60467442,14.4859141 C2.8896388,14.7083863 3.29708786,14.7283838 3.60204974,14.5659041 C3.62204724,14.5459066 3.64204474,14.5659041 3.66204224,14.5859016 L3.66204224,14.6258966 C3.60204974,14.9483563 3.72203475,15.2908135 3.98700162,15.4932882 L4.06949131,15.5532807 C4.35445569,15.7757529 4.71941007,15.7957504 5.04686914,15.6532682 C5.06686664,15.6332707 5.10686164,15.6532682 5.10686164,15.6732657 L5.10686164,15.6932632 C5.06686664,15.9957254 5.20934883,16.2981876 5.45181852,16.5006623 L5.51181102,16.5406573 C5.7967754,16.7631295 6.16172978,16.8031245 6.48918885,16.6206473 C6.50918635,16.6006498 6.54918135,16.6206473 6.54918135,16.6406448 L6.54918135,16.6606423 C6.58917635,16.8831145 6.71166104,17.0855892 6.89413823,17.2255717 L6.93413323,17.2455692 C7.3415823,17.5480314 7.91151106,17.4880389 8.21647294,17.0830895 C8.23647044,17.0430945 8.27646544,17.0030995 8.29896263,16.983102 L8.42144732,16.7606298 C8.6464192,16.3781776 8.58392701,15.9132357 8.25896763,15.6107735 C7.99400075,15.3683038 7.60904887,15.3083113 7.2615923,15.4482938 C7.2415948,15.4482938 7.2415948,15.4482938 7.2215973,15.4282963 L7.2215973,15.4082988 C7.2415948,14.9233594 6.85414323,14.5009123 6.36670416,14.4609173 C6.24421947,14.4609173 6.12173478,14.4809148 5.99925009,14.5209098 C5.8567679,14.5409073 5.8967629,14.4209223 5.8967629,14.4209223 C6.07924009,13.9559804 5.8767654,13.4535432 5.40932383,13.2510685 C5.16435446,13.151081 4.85939258,13.1710785 4.63692038,13.2910635 C4.5344332,13.311061 4.5544307,13.2110735 4.5544307,13.2110735 C4.82189726,12.8336207 4.67941507,12.2886888 4.2519685,12.0462191 L4.2519685,12.0462191 Z" id="形状"></path>
                </g>
            </g>
            <path d="M69,8 C70.1045695,8 71,7.1045695 71,6 C71,4.8954305 70.1045695,4 69,4 C67.8954305,4 67,4.8954305 67,6 C67,7.1045695 67.8954305,8 69,8 Z" id="椭圆形" fill="#FFFFFF"></path>
        </g>
    </g>
</svg>