<?xml version="1.0" encoding="UTF-8"?>
<svg width="20px" height="20px" viewBox="0 0 20 20" version="1.1" xmlns="http://www.w3.org/2000/svg" xmlns:xlink="http://www.w3.org/1999/xlink">
    <title>-mockplus-</title>
    <g id="页面" stroke="none" stroke-width="1" fill="none" fill-rule="evenodd" opacity="0.699999988">
        <g id="沉浸式列表" transform="translate(-2088.000000, -793.000000)" fill="#38B7FD" fill-rule="nonzero">
            <g id="广告牌" transform="translate(100.000000, 674.000000)">
                <g id="会议室" transform="translate(0.000000, 60.000000)">
                    <g id="3" transform="translate(1216.000000, 0.000000)">
                        <g id="广告牌" transform="translate(0.000000, 44.000000)">
                            <g id="-mockplus-" transform="translate(752.000000, 0.000000)">
                                <g id="编组" transform="translate(20.000000, 15.522388)">
                                    <path d="M10,0.606343284 C4.82242384,0.606343284 0.625,4.67847089 0.625,9.70149254 C0.625,14.7239864 4.82242384,18.7966418 10,18.7966418 C15.178214,18.7966418 19.375,14.7239864 19.375,9.70149254 C19.375,4.67847089 15.178214,0.606343284 10,0.606343284 Z M9.0723729,14.0186647 C7.63136988,12.3885893 5.93650695,11.1471051 4.75,10.7596756 L7.54674368,9.20694456 L8.90255918,11.6137122 C8.90255918,11.6137122 11.1063581,6.72335898 14.5820012,5.09328358 C14.4967201,6.25735086 14.1569804,7.26676584 14.75,8.50825006 C13.2255495,8.81889793 10.0890661,12.3117896 9.0723729,14.0186647 Z" id="形状"></path>
                                </g>
                            </g>
                        </g>
                    </g>
                </g>
            </g>
        </g>
    </g>
</svg>