<?xml version="1.0" encoding="UTF-8"?>
<svg width="12px" height="12px" viewBox="0 0 12 12" version="1.1" xmlns="http://www.w3.org/2000/svg" xmlns:xlink="http://www.w3.org/1999/xlink">
    <title>right_</title>
    <g id="控件" stroke="none" stroke-width="1" fill="none" fill-rule="evenodd">
        <g id="right_" fill="#FFFFFF" transform="translate(6.000000, 6.000000) scale(-1, 1) translate(-6.000000, -6.000000) ">
            <path d="M10,0 C11.1045695,-2.02906125e-16 12,0.8954305 12,2 L12,10 C12,11.1045695 11.1045695,12 10,12 L2,12 C0.8954305,12 -7.52907669e-16,11.1045695 0,10 L0,2 C-1.3527075e-16,0.8954305 0.8954305,-6.85272294e-16 2,0 L10,0 Z M9.85,0.3 L2.15,0.3 C1.12827321,0.3 0.3,1.12827321 0.3,2.15 L0.3,2.15 L0.3,9.85 C0.3,10.8717268 1.12827321,11.7 2.15,11.7 L2.15,11.7 L9.85,11.7 C10.8717268,11.7 11.7,10.8717268 11.7,9.85 L11.7,9.85 L11.7,2.15 C11.7,1.12827321 10.8717268,0.3 9.85,0.3 L9.85,0.3 Z" id="形状结合"></path>
            <path d="M4.17715987,5.84814868 L7.16984173,3.28299281 C7.25370689,3.21110838 7.37996689,3.22082068 7.45185132,3.30468585 C7.48292157,3.34093447 7.5,3.38710187 7.5,3.43484413 L7.5,8.56515587 C7.5,8.67561282 7.41045695,8.76515587 7.3,8.76515587 C7.25225775,8.76515587 7.20609035,8.74807744 7.16984173,8.71700719 L4.17715987,6.15185132 C4.09329471,6.07996689 4.0835824,5.95370689 4.15546683,5.86984173 C4.16213177,5.86206596 4.16938411,5.85481362 4.17715987,5.84814868 Z" id="矩形"></path>
        </g>
    </g>
</svg>