<?xml version="1.0" standalone="no"?><!DOCTYPE svg PUBLIC "-//W3C//DTD SVG 1.1//EN" "http://www.w3.org/Graphics/SVG/1.1/DTD/svg11.dtd"><svg t="1644397302172" class="icon" viewBox="0 0 1024 1024" version="1.1" xmlns="http://www.w3.org/2000/svg" p-id="2204" xmlns:xlink="http://www.w3.org/1999/xlink" width="32" height="32"><defs><style type="text/css"></style></defs><path d="M85.2992 375.5008 17.1008 375.5008C5.7344 375.5008 0 369.7664 0 358.4c0-11.3664 5.7344-17.1008 17.1008-17.1008l68.3008 0C96.6656 341.2992 102.4 347.0336 102.4 358.4 102.4 369.7664 96.6656 375.5008 85.2992 375.5008zM140.8 166.4 106.7008 132.3008c-8.4992-8.4992-8.4992-17.1008 0-25.6 8.4992-8.4992 17.1008-8.4992 25.6 0l34.0992 34.0992c8.4992 8.4992 8.4992 17.1008 0 25.6C160.6656 169.2672 156.4672 170.7008 153.6 170.7008 150.7328 170.7008 146.5344 169.2672 140.8 166.4zM106.7008 610.0992c-8.4992-8.4992-8.4992-17.1008 0-25.6l34.0992-34.0992c8.4992-8.4992 17.1008-8.4992 25.6 0 8.4992 8.4992 8.4992 17.1008 0 25.6L132.3008 610.0992C126.5664 612.9664 122.2656 614.4 119.5008 614.4 116.6336 614.4 112.3328 612.9664 106.7008 610.0992zM819.2 409.6 804.2496 409.6C785.8176 364.1344 756.224 327.0656 715.776 298.7008 675.2256 270.2336 630.0672 256 580.3008 256c-11.3664 0-19.1488 0.7168-23.4496 2.1504C538.3168 221.184 510.976 191.6928 474.624 169.5744 438.3744 147.5584 399.6672 136.4992 358.4 136.4992c-61.1328 0-113.4592 21.7088-156.7744 65.024C158.208 244.9408 136.4992 297.2672 136.4992 358.4c0 45.4656 12.8 87.1424 38.4 124.8256 25.6 37.6832 59.6992 65.024 102.4 82.1248C251.6992 593.8176 238.8992 627.2 238.8992 665.6c0 42.7008 14.9504 78.9504 44.8512 108.7488C313.5488 804.2496 349.9008 819.2 392.4992 819.2L819.2 819.2c56.9344 0 105.2672-19.8656 145.1008-59.6992C1004.1344 719.6672 1024 671.3344 1024 614.4S1004.1344 509.1328 964.3008 469.2992C924.4672 429.4656 876.1344 409.6 819.2 409.6zM170.7008 358.4c0-52.6336 18.1248-97.0752 54.3744-133.3248C261.3248 188.8256 305.7664 170.7008 358.4 170.7008c71.0656 0 125.1328 31.3344 162.0992 93.9008-51.2 12.8-93.9008 40.5504-128 83.1488-34.0992 42.7008-51.2 91.7504-51.2 147.2512 0 11.3664 0.7168 19.8656 2.1504 25.6C336.384 521.9328 323.584 527.6672 305.0496 537.6 265.216 527.6672 232.8576 505.6512 207.9744 471.4496 183.0912 437.3504 170.7008 399.6672 170.7008 358.4zM819.2 785.1008 392.4992 785.1008c-32.6656 0-60.8256-11.776-84.2752-35.2256C284.7744 726.4256 273.1008 698.2656 273.1008 665.6c0-27.0336 8.4992-51.5072 25.6-73.6256 17.1008-22.016 39.1168-36.6592 66.1504-43.7248 11.3664-2.8672 15.6672-9.216 12.8-19.2512C376.2176 521.9328 375.5008 510.5664 375.5008 494.8992c0-56.9344 19.8656-105.2672 59.6992-145.1008s88.1664-59.6992 145.1008-59.6992c44.1344 0 84.2752 13.1072 120.5248 39.424s61.5424 60.8256 75.776 103.424c2.8672 11.3664 9.216 15.6672 19.2512 12.8C801.3824 444.416 809.2672 443.6992 819.2 443.6992c46.8992 0 87.1424 16.6912 120.5248 50.176C973.1072 527.2576 989.9008 567.5008 989.9008 614.4s-16.6912 87.1424-50.176 120.5248C906.3424 768.3072 866.0992 785.1008 819.2 785.1008zM341.2992 85.2992 341.2992 17.1008C341.2992 5.7344 347.0336 0 358.4 0s17.1008 5.7344 17.1008 17.1008l0 68.3008C375.5008 96.6656 369.7664 102.4 358.4 102.4S341.2992 96.6656 341.2992 85.2992zM550.4 166.4c-8.4992-8.4992-8.4992-17.1008 0-25.6l34.0992-34.0992c8.4992-8.4992 17.1008-8.4992 25.6 0 8.4992 8.4992 8.4992 17.1008 0 25.6L576 166.4C570.2656 169.2672 566.0672 170.7008 563.2 170.7008 560.3328 170.7008 556.1344 169.2672 550.4 166.4z" p-id="2205" fill="#8a8a8a"></path></svg>