<?xml version="1.0" encoding="UTF-8"?>
<svg width="12px" height="12px" viewBox="0 0 12 12" version="1.1" xmlns="http://www.w3.org/2000/svg" xmlns:xlink="http://www.w3.org/1999/xlink">
    <title>right_act</title>
    <g id="控件" stroke="none" stroke-width="1" fill="none" fill-rule="evenodd">
        <g id="4.沉浸式/10.内容/分页-2" transform="translate(-16.000000, 0.000000)">
            <g id="right_act" transform="translate(16.000000, 0.000000)">
                <rect id="矩形" fill="#38B7FD" x="0" y="0" width="12" height="12" rx="2"></rect>
                <path d="M4.67715987,5.84814868 L7.66984173,3.28299281 C7.75370689,3.21110838 7.87996689,3.22082068 7.95185132,3.30468585 C7.98292157,3.34093447 8,3.38710187 8,3.43484413 L8,8.56515587 C8,8.67561282 7.91045695,8.76515587 7.8,8.76515587 C7.75225775,8.76515587 7.70609035,8.74807744 7.66984173,8.71700719 L4.67715987,6.15185132 C4.59329471,6.07996689 4.5835824,5.95370689 4.65546683,5.86984173 C4.66213177,5.86206596 4.66938411,5.85481362 4.67715987,5.84814868 Z" id="矩形" fill="#FFFFFF" transform="translate(6.250000, 6.000000) scale(-1, 1) translate(-6.250000, -6.000000) "></path>
            </g>
        </g>
    </g>
</svg>