<svg xmlns="http://www.w3.org/2000/svg" xmlns:xlink="http://www.w3.org/1999/xlink" width="31.6" height="36.3" viewBox="0 0 31.6 36.3">
  <defs>
    <radialGradient id="radial-gradient" cx="0.5" cy="0.5" r="0.5" gradientUnits="objectBoundingBox">
      <stop offset="0" stop-color="#ff4848" stop-opacity="0.361"/>
      <stop offset="0.473" stop-color="#ff4848" stop-opacity="0.957"/>
      <stop offset="1" stop-color="#ff4848" stop-opacity="0.259"/>
    </radialGradient>
    <radialGradient id="radial-gradient-2" cx="0.5" cy="0.5" r="0.5" gradientUnits="objectBoundingBox">
      <stop offset="0" stop-color="#ff4848"/>
      <stop offset="1" stop-color="#ff4848" stop-opacity="0.259"/>
    </radialGradient>
    <linearGradient id="linear-gradient" x1="0.412" y1="-0.089" x2="0.654" y2="1" gradientUnits="objectBoundingBox">
      <stop offset="0" stop-color="#ff4848"/>
      <stop offset="0.331" stop-color="#ff4848"/>
      <stop offset="1" stop-color="#ff4848" stop-opacity="0.102"/>
    </linearGradient>
    <linearGradient id="linear-gradient-2" x1="0.577" y1="-0.062" x2="0.305" y2="1" gradientUnits="objectBoundingBox">
      <stop offset="0" stop-color="#ff4848"/>
      <stop offset="0.262" stop-color="#ff4848"/>
      <stop offset="1" stop-color="#ff4848" stop-opacity="0.102"/>
    </linearGradient>
  </defs>
  <g id="定位" transform="translate(0.3 0.3)">
    <g id="椭圆_2181" data-name="椭圆 2181" transform="translate(5 28)" stroke="rgba(243,148,148,0.65)" stroke-width="0.5" fill="url(#radial-gradient)">
      <ellipse cx="10" cy="4" rx="10" ry="4" stroke="none"/>
      <ellipse cx="10" cy="4" rx="9.75" ry="3.75" fill="none"/>
    </g>
    <ellipse id="椭圆_2182" data-name="椭圆 2182" cx="6" cy="2.5" rx="6" ry="2.5" transform="translate(9 29)" fill="url(#radial-gradient-2)"/>
    <path id="路径-2" d="M0,4,15,31V11Z" stroke="#f39494" stroke-linejoin="round" stroke-width="0.6" fill-rule="evenodd" fill="url(#linear-gradient)"/>
    <path id="路径-7" d="M15,11,30,7,15,31Z" stroke="#f39494" stroke-linejoin="round" stroke-width="0.6" fill-rule="evenodd" fill="url(#linear-gradient-2)"/>
    <path id="路径-8" d="M4,0,0,4l15,7,3-6Z" fill="#ff4848" stroke="#f39494" stroke-linejoin="round" stroke-width="0.6" fill-rule="evenodd"/>
    <path id="路径-9" d="M31,2,18,5l-3,6L30,7Z" fill="#ff4848" stroke="#f39494" stroke-linejoin="round" stroke-width="0.6" fill-rule="evenodd"/>
  </g>
</svg>
