<?xml version="1.0" encoding="UTF-8"?>
<svg width="76px" height="96px" viewBox="0 0 76 96" version="1.1" xmlns="http://www.w3.org/2000/svg" xmlns:xlink="http://www.w3.org/1999/xlink">
    <title>资质/1-高亮</title>
    <defs>
        <linearGradient x1="50%" y1="37.8855387%" x2="50%" y2="100%" id="linearGradient-1">
            <stop stop-color="#006349" stop-opacity="0" offset="0%"></stop>
            <stop stop-color="#007953" offset="100%"></stop>
        </linearGradient>
        <linearGradient x1="50%" y1="0%" x2="50%" y2="55.9884884%" id="linearGradient-2">
            <stop stop-color="#007953" offset="0%"></stop>
            <stop stop-color="#006349" stop-opacity="0" offset="100%"></stop>
        </linearGradient>
        <linearGradient x1="50%" y1="0%" x2="50%" y2="55.9884884%" id="linearGradient-3">
            <stop stop-color="#007953" offset="0%"></stop>
            <stop stop-color="#006349" stop-opacity="0" offset="100%"></stop>
        </linearGradient>
        <radialGradient cx="50%" cy="50%" fx="50%" fy="50%" r="84.5898438%" id="radialGradient-4">
            <stop stop-color="#B6FFEC" offset="0%"></stop>
            <stop stop-color="#02F7B7" offset="100%"></stop>
        </radialGradient>
        <linearGradient x1="50%" y1="0%" x2="50%" y2="100%" id="linearGradient-5">
            <stop stop-color="#02F7B7" stop-opacity="0" offset="0%"></stop>
            <stop stop-color="#02F7B7" offset="49.8060533%"></stop>
            <stop stop-color="#02F7B7" stop-opacity="0" offset="100%"></stop>
        </linearGradient>
    </defs>
    <g id="控件" stroke="none" stroke-width="1" fill="none" fill-rule="evenodd">
        <g id="编组备份" transform="translate(0.000000, -116.000000)">
            <g id="资质/1-高亮" transform="translate(0.000000, 116.000000)">
                <g id="1">
                    <path d="M76,0 L75.0407636,23.0216732 C74.3472221,39.6666698 74.3472221,56.3333302 75.0407636,72.9783268 L75.0407636,72.9783268 L76,96 L0,96 L0.959236382,72.9783268 C1.65277791,56.3333302 1.65277791,39.6666698 0.959236382,23.0216732 L0.959236382,23.0216732 L0,0 L76,0 Z M38,5 C36.3431458,5 35,6.34314575 35,8 C35,9.65685425 36.3431458,11 38,11 C39.6568542,11 41,9.65685425 41,8 C41,6.34314575 39.6568542,5 38,5 Z" id="形状结合" fill="url(#linearGradient-1)" opacity="0.372512091"></path>
                    <path d="M76,0 L75.0407636,23.0216732 C74.3472221,39.6666698 74.3472221,56.3333302 75.0407636,72.9783268 L76,96 L0,96 L0.959236382,72.9783268 C1.65277791,56.3333302 1.65277791,39.6666698 0.959236382,23.0216732 L0,0 L76,0 Z M38,5 C36.3431458,5 35,6.34314575 35,8 C35,9.65685425 36.3431458,11 38,11 C39.6568542,11 41,9.65685425 41,8 C41,6.34314575 39.6568542,5 38,5 Z" id="形状结合" fill="url(#linearGradient-2)" opacity="0.372512091"></path>
                    <polygon id="矩形" fill="url(#linearGradient-3)" opacity="0.372512091" transform="translate(38.000000, 90.000000) scale(1, -1) translate(-38.000000, -90.000000) " points="4.21884749e-15 84 76 84 76 96 4.21884749e-15 96"></polygon>
                    <polygon id="矩形" fill="#02F7B7" transform="translate(38.000000, 95.000000) scale(1, -1) translate(-38.000000, -95.000000) " points="4.21884749e-15 94 76 94 76 96 4.21884749e-15 96"></polygon>
                    <path d="M70,0 L76,0 L76,6 L70,0 Z M6,0 L0,0 L0,6 L6,0 Z" id="形状结合" fill="#02F7B7"></path>
                    <g id="编组" transform="translate(35.000000, 5.000000)">
                        <path d="M3,6 C4.65685425,6 6,4.65685425 6,3 C6,1.34314575 4.65685425,0 3,0 C1.34314575,0 0,1.34314575 0,3 C0,4.65685425 1.34314575,6 3,6 Z" id="椭圆形" stroke="#02F7B7" stroke-width="0.5"></path>
                        <path d="M3,5.5 C4.38071187,5.5 5.5,4.38071187 5.5,3 C5.5,1.61928813 4.38071187,0.5 3,0.5 C1.61928813,0.5 0.5,1.61928813 0.5,3 C0.5,4.38071187 1.61928813,5.5 3,5.5 Z" id="椭圆形" fill="url(#radialGradient-4)"></path>
                    </g>
                    <path d="M68,15 L68.221457,17.6574839 C68.4054618,19.8655413 69.0091039,22.0182079 70,24 L70,24 L70,24 C69.0091039,25.9817921 68.4054618,28.1344587 68.221457,30.3425161 L68,33 L68,33 L68,15 Z" id="矩形" fill="url(#linearGradient-5)" transform="translate(69.000000, 24.000000) scale(-1, 1) translate(-69.000000, -24.000000) "></path>
                    <text id="上市公司" font-family="SourceHanSansCN-Regular, Source Han Sans CN" font-size="12" font-weight="normal" fill="#FFFFFF">
                        <tspan x="14" y="29">企业总数</tspan>
                    </text>
                    <path d="M6,15 L6.22145699,17.6574839 C6.40546177,19.8655413 7.00910394,22.0182079 8,24 L8,24 L8,24 C7.00910394,25.9817921 6.40546177,28.1344587 6.22145699,30.3425161 L6,33 L6,33 L6,15 Z" id="矩形" fill="url(#linearGradient-5)"></path>
                </g>
                <g id="数" transform="translate(13.000000, 56.000000)" fill="#02F7B7">
                    <path d="M37,2.5 L39,4.5 L39,11.5 L35,13.5 L35,3.5 L37,2.5 Z M48,2.5 L50,3.5 L50,13.5 L46,11.5 L46,4.5 L48,2.5 Z M46.5,0 L47.5,2 L46,4 L39,4 L37.5,2 L38.5,0 L46.5,0 Z M46,24 L47.5,26 L46.5,28 L38.5,28 L37.5,26 L39,24 L46,24 Z M35,14.5 L39,16.5 L39,23.5 L37,25.5 L35,24.5 L35,14.5 Z M50,14.5 L50,24.5 L48,25.5 L46,23.5 L46,16.5 L50,14.5 Z" id="3"></path>
                    <path d="M32,3.5 L30,2.5 L28,4.5 L28,11.5 L32,13.5 L32,3.5 Z M32,24.5 L30,25.5 L28,23.5 L28,16.5 L32,14.5 L32,24.5 Z" id="2"></path>
                    <path d="M10,24 L11.5,26 L10.5,28 L2.5,28 L1.5,26 L3,24 L10,24 Z M14,14.5 L14,24.5 L12,25.5 L10,23.5 L10,16.5 L14,14.5 Z M10,12 L13,13.5 L13,14.5 L10,16 L3,16 L0,14.5 L0,13.5 L3,12 L10,12 Z M12,2.5 L14,3.5 L14,13.5 L10,11.5 L10,4.5 L12,2.5 Z M10.5,0 L11.5,2 L10,4 L3,4 L1.5,2 L2.5,0 L10.5,0 Z" id="2"></path>
                </g>
            </g>
        </g>
    </g>
</svg>