<?xml version="1.0" encoding="UTF-8"?>
<svg width="76px" height="96px" viewBox="0 0 76 96" version="1.1" xmlns="http://www.w3.org/2000/svg" xmlns:xlink="http://www.w3.org/1999/xlink">
    <title>资质/2-默认</title>
    <defs>
        <linearGradient x1="50%" y1="16.8295716%" x2="50%" y2="100%" id="linearGradient-1">
            <stop stop-color="#1D55A5" stop-opacity="0" offset="0%"></stop>
            <stop stop-color="#3889FF" offset="100%"></stop>
        </linearGradient>
        <linearGradient x1="50%" y1="0%" x2="50%" y2="75.229458%" id="linearGradient-2">
            <stop stop-color="#3889FF" offset="0%"></stop>
            <stop stop-color="#1D55A5" stop-opacity="0" offset="74.4236233%"></stop>
        </linearGradient>
        <linearGradient x1="50%" y1="0%" x2="50%" y2="100%" id="linearGradient-3">
            <stop stop-color="#3889FF" offset="0%"></stop>
            <stop stop-color="#1D55A5" stop-opacity="0" offset="100%"></stop>
        </linearGradient>
        <radialGradient cx="50%" cy="50%" fx="50%" fy="50%" r="84.5898438%" id="radialGradient-4">
            <stop stop-color="#8FD7FF" offset="0%"></stop>
            <stop stop-color="#38B7FD" offset="100%"></stop>
        </radialGradient>
        <linearGradient x1="50%" y1="0%" x2="50%" y2="100%" id="linearGradient-5">
            <stop stop-color="#38B7FD" stop-opacity="0" offset="0%"></stop>
            <stop stop-color="#38B7FD" offset="49.8060533%"></stop>
            <stop stop-color="#38B7FD" stop-opacity="0" offset="100%"></stop>
        </linearGradient>
    </defs>
    <g id="控件" stroke="none" stroke-width="1" fill="none" fill-rule="evenodd">
        <g id="编组备份" transform="translate(-77.000000, 0.000000)">
            <g id="资质/2-默认" transform="translate(77.000000, 0.000000)">
                <g id="2">
                    <path d="M76,0 L75.0407636,23.0216732 C74.3472221,39.6666698 74.3472221,56.3333302 75.0407636,72.9783268 L75.0407636,72.9783268 L76,96 L0,96 L0.959236382,72.9783268 C1.65277791,56.3333302 1.65277791,39.6666698 0.959236382,23.0216732 L0.959236382,23.0216732 L0,0 L76,0 Z M38,5 C36.3431458,5 35,6.34314575 35,8 C35,9.65685425 36.3431458,11 38,11 C39.6568542,11 41,9.65685425 41,8 C41,6.34314575 39.6568542,5 38,5 Z" id="形状结合" fill="url(#linearGradient-1)" opacity="0.372512091"></path>
                    <path d="M76,0 L75.0407636,23.0216732 C74.3472221,39.6666698 74.3472221,56.3333302 75.0407636,72.9783268 L76,96 L0,96 L0.959236382,72.9783268 C1.65277791,56.3333302 1.65277791,39.6666698 0.959236382,23.0216732 L0,0 L76,0 Z M38,5 C36.3431458,5 35,6.34314575 35,8 C35,9.65685425 36.3431458,11 38,11 C39.6568542,11 41,9.65685425 41,8 C41,6.34314575 39.6568542,5 38,5 Z" id="形状结合" fill="url(#linearGradient-2)" opacity="0.372512091"></path>
                    <polygon id="矩形" fill="url(#linearGradient-3)" opacity="0.372512091" transform="translate(38.000000, 90.000000) scale(1, -1) translate(-38.000000, -90.000000) " points="4.21884749e-15 84 76 84 76 96 4.21884749e-15 96"></polygon>
                    <polygon id="矩形" fill="#38B7FD" transform="translate(38.000000, 95.000000) scale(1, -1) translate(-38.000000, -95.000000) " points="4.21884749e-15 94 76 94 76 96 4.21884749e-15 96"></polygon>
                    <path d="M70,0 L76,0 L76,6 L70,0 Z M6,0 L0,0 L0,6 L6,0 Z" id="形状结合" fill="#38B7FD"></path>
                    <g id="编组" transform="translate(35.000000, 5.000000)">
                        <path d="M3,6 C4.65685425,6 6,4.65685425 6,3 C6,1.34314575 4.65685425,0 3,0 C1.34314575,0 0,1.34314575 0,3 C0,4.65685425 1.34314575,6 3,6 Z" id="椭圆形" stroke="#38B7FD" stroke-width="0.5"></path>
                        <path d="M3,5.5 C4.38071187,5.5 5.5,4.38071187 5.5,3 C5.5,1.61928813 4.38071187,0.5 3,0.5 C1.61928813,0.5 0.5,1.61928813 0.5,3 C0.5,4.38071187 1.61928813,5.5 3,5.5 Z" id="椭圆形" fill="url(#radialGradient-4)"></path>
                    </g>
                    <path d="M68,15 L68.221457,17.6574839 C68.4054618,19.8655413 69.0091039,22.0182079 70,24 L70,24 L70,24 C69.0091039,25.9817921 68.4054618,28.1344587 68.221457,30.3425161 L68,33 L68,33 L68,15 Z" id="矩形" fill="url(#linearGradient-5)" transform="translate(69.000000, 24.000000) scale(-1, 1) translate(-69.000000, -24.000000) "></path>
                    <text id="上市公司" font-family="SourceHanSansCN-Regular, Source Han Sans CN" font-size="12" font-weight="normal" fill="#FFFFFF">
                        <tspan x="14" y="29">高新企业</tspan>
                    </text>
                    <path d="M6,15 L6.22145699,17.6574839 C6.40546177,19.8655413 7.00910394,22.0182079 8,24 L8,24 L8,24 C7.00910394,25.9817921 6.40546177,28.1344587 6.22145699,30.3425161 L6,33 L6,33 L6,15 Z" id="矩形" fill="url(#linearGradient-5)"></path>
                </g>
                <g id="数" transform="translate(21.500000, 56.000000)" fill="#38B7FD">
                    <path d="M29,24 L30.5,26 L29.5,28 L21.5,28 L20.5,26 L22,24 L29,24 Z M18,14.5 L22,16.5 L22,23.5 L20,25.5 L18,24.5 L18,14.5 Z M29,12 L32,13.5 L32,14.5 L29,16 L22,16 L19,14.5 L19,13.5 L22,12 L29,12 Z M31,2.5 L33,3.5 L33,13.5 L29,11.5 L29,4.5 L31,2.5 Z M29.5,0 L30.5,2 L29,4 L22,4 L20.5,2 L21.5,0 L29.5,0 Z" id="4" transform="translate(25.500000, 14.000000) scale(-1, 1) translate(-25.500000, -14.000000) "></path>
                    <path d="M11,24 L12.5,26 L11.5,28 L3.5,28 L2.5,26 L4,24 L11,24 Z M0,14.5 L4,16.5 L4,23.5 L2,25.5 L0,24.5 L0,14.5 Z M15,14.5 L15,24.5 L13,25.5 L11,23.5 L11,16.5 L15,14.5 Z M11,12 L14,13.5 L14,14.5 L11,16 L4,16 L1,14.5 L1,13.5 L4,12 L11,12 Z M2,2.5 L4,4.5 L4,11.5 L0,13.5 L0,3.5 L2,2.5 Z M11.5,0 L12.5,2 L11,4 L4,4 L2.5,2 L3.5,0 L11.5,0 Z" id="3"></path>
                </g>
            </g>
        </g>
    </g>
</svg>