<?xml version="1.0" encoding="UTF-8"?>
<svg width="89px" height="44px" viewBox="0 0 89 44" version="1.1" xmlns="http://www.w3.org/2000/svg" xmlns:xlink="http://www.w3.org/1999/xlink">
    <title>-mockplus-</title>
    <defs>
        <linearGradient x1="50%" y1="0%" x2="50%" y2="99.8716128%" id="linearGradient-1">
            <stop stop-color="#0085CE" offset="0%"></stop>
            <stop stop-color="#19F2FF" offset="100%"></stop>
        </linearGradient>
    </defs>
    <g id="页面" stroke="none" stroke-width="1" fill="none" fill-rule="evenodd" opacity="0.639999986">
        <g id="一些切图" transform="translate(-441.000000, -440.000000)">
            <g id="3" transform="translate(441.000000, 440.000000)">
                <path d="M87.9710145,0.5 L87.9710145,43.5 L9.55887382,43.5 L0.614703857,0.5 L87.9710145,0.5 Z" id="矩形" stroke="#3889FF" fill="url(#linearGradient-1)" transform="translate(44.235507, 22.000000) scale(-1, 1) translate(-44.235507, -22.000000) "></path>
                <g id="-mockplus-" transform="translate(29.490338, 12.000000)" fill="#FFFFFF" fill-rule="nonzero">
                    <g id="1.图标/2.设计/" transform="translate(0.000000, 0.984995)">
                        <path d="M6.02136775,17.0137551 C6.02136775,17.5762551 5.70358394,18.0300051 5.31080314,18.0300051 L0.710564614,18.0300051 C0.317783816,18.0300051 0,17.5737551 0,17.0137551 L0,17.0137551 C0,16.4525051 0.317783816,15.9975026 0.710564614,15.9975026 L5.309532,15.9975026 C5.70358394,15.9962551 6.02136775,16.4525051 6.02136775,17.0137551 L6.02136775,17.0137551 Z M6.02136775,13.0800051 C6.02136775,13.6412551 5.70358394,14.0962551 5.31080314,14.0962551 L0.710564614,14.0962551 C0.317783816,14.0962551 0,13.6412551 0,13.0800051 L0,13.0800051 C0,12.5175051 0.317783816,12.0637551 0.710564614,12.0637551 L5.309532,12.0637551 C5.70358394,12.0637551 6.02136775,12.5187551 6.02136775,13.0800051 L6.02136775,13.0800051 Z M6.02136775,17.0137551 C6.02136775,17.5762551 5.70358394,18.0300051 5.31080314,18.0300051 L0.710564614,18.0300051 C0.317783816,18.0300051 0,17.5737551 0,17.0137551 L0,17.0137551 C0,16.4525051 0.317783816,15.9975026 0.710564614,15.9975026 L5.309532,15.9975026 C5.70358394,15.9962551 6.02136775,16.4525051 6.02136775,17.0137551 L6.02136775,17.0137551 Z M6.02136775,13.0800051 C6.02136775,13.6412551 5.70358394,14.0962551 5.31080314,14.0962551 L0.710564614,14.0962551 C0.317783816,14.0962551 0,13.6412551 0,13.0800051 L0,13.0800051 C0,12.5175051 0.317783816,12.0637551 0.710564614,12.0637551 L5.309532,12.0637551 C5.70358394,12.0637551 6.02136775,12.5187551 6.02136775,13.0800051 L6.02136775,13.0800051 Z M6.02136775,9.14750511 C6.02136775,9.71000511 5.70358394,10.1637551 5.31080314,10.1637551 L0.710564614,10.1637551 C0.317783816,10.1637551 0,9.70875511 0,9.14750511 L0,9.14750511 C0,8.58500511 0.317783816,8.13125255 0.710564614,8.13125255 L5.309532,8.13125255 C5.70358394,8.13000511 6.02136775,8.58625511 6.02136775,9.14750511 L6.02136775,9.14750511 Z M6.02136775,5.29000511 C6.02136775,5.85250511 5.70358394,6.30625768 5.31080314,6.30625768 L0.710564614,6.30625768 C0.317783816,6.30750511 0,5.85125511 0,5.29000511 L0,5.29000511 C0,4.72750511 0.317783816,4.27375254 0.710564614,4.27375254 L5.309532,4.27375254 C5.70358394,4.27250511 6.02136775,4.72750511 6.02136775,5.29000511 L6.02136775,5.29000511 Z M6.02136775,17.0137551 C6.02136775,17.5762551 5.70358394,18.0300051 5.31080314,18.0300051 L0.710564614,18.0300051 C0.317783816,18.0300051 0,17.5737551 0,17.0137551 L0,17.0137551 C0,16.4525051 0.317783816,15.9975026 0.710564614,15.9975026 L5.309532,15.9975026 C5.70358394,15.9962551 6.02136775,16.4525051 6.02136775,17.0137551 L6.02136775,17.0137551 Z M6.02136775,13.0800051 C6.02136775,13.6412551 5.70358394,14.0962551 5.31080314,14.0962551 L0.710564614,14.0962551 C0.317783816,14.0962551 0,13.6412551 0,13.0800051 L0,13.0800051 C0,12.5175051 0.317783816,12.0637551 0.710564614,12.0637551 L5.309532,12.0637551 C5.70358394,12.0637551 6.02136775,12.5187551 6.02136775,13.0800051 L6.02136775,13.0800051 Z M6.02136775,13.0800051 C6.02136775,13.6412551 5.70358394,14.0962551 5.31080314,14.0962551 L0.710564614,14.0962551 C0.317783816,14.0962551 0,13.6412551 0,13.0800051 L0,13.0800051 C0,12.5175051 0.317783816,12.0637551 0.710564614,12.0637551 L5.309532,12.0637551 C5.70358394,12.0637551 6.02136775,12.5187551 6.02136775,13.0800051 L6.02136775,13.0800051 Z M13.0380344,17.0137551 C13.0380344,17.5762551 12.7202506,18.0300051 12.3274698,18.0300051 L7.72723128,18.0300051 C7.33445048,18.0300051 7.01666667,17.5750051 7.01666667,17.0137551 L7.01666667,17.0137551 C7.01666667,16.4525051 7.33445048,15.9975026 7.72723128,15.9975026 L12.3274698,15.9975026 C12.7202506,15.9962551 13.0380344,16.4525051 13.0380344,17.0137551 L13.0380344,17.0137551 Z M13.0380344,13.0800051 C13.0380344,13.6412551 12.7202506,14.0962551 12.3274698,14.0962551 L7.72723128,14.0962551 C7.33445048,14.0962551 7.01666667,13.6412551 7.01666667,13.0800051 L7.01666667,13.0800051 C7.01666667,12.5175051 7.33445048,12.0637551 7.72723128,12.0637551 L12.3274698,12.0637551 C12.7202506,12.0637551 13.0380344,12.5187551 13.0380344,13.0800051 L13.0380344,13.0800051 Z M13.0380344,17.0137551 C13.0380344,17.5762551 12.7202506,18.0300051 12.3274698,18.0300051 L7.72723128,18.0300051 C7.33445048,18.0300051 7.01666667,17.5750051 7.01666667,17.0137551 L7.01666667,17.0137551 C7.01666667,16.4525051 7.33445048,15.9975026 7.72723128,15.9975026 L12.3274698,15.9975026 C12.7202506,15.9962551 13.0380344,16.4525051 13.0380344,17.0137551 L13.0380344,17.0137551 Z M13.0380344,13.0800051 C13.0380344,13.6412551 12.7202506,14.0962551 12.3274698,14.0962551 L7.72723128,14.0962551 C7.33445048,14.0962551 7.01666667,13.6412551 7.01666667,13.0800051 L7.01666667,13.0800051 C7.01666667,12.5175051 7.33445048,12.0637551 7.72723128,12.0637551 L12.3274698,12.0637551 C12.7202506,12.0637551 13.0380344,12.5187551 13.0380344,13.0800051 L13.0380344,13.0800051 Z M13.0380344,9.14750511 C13.0380344,9.71000511 12.7202506,10.1637551 12.3274698,10.1637551 L7.72723128,10.1637551 C7.33445048,10.1637551 7.01666667,9.70875511 7.01666667,9.14750511 L7.01666667,9.14750511 C7.01666667,8.58500511 7.33445048,8.13125255 7.72723128,8.13125255 L12.3274698,8.13125255 C12.7202506,8.13000511 13.0380344,8.58625511 13.0380344,9.14750511 L13.0380344,9.14750511 Z M13.0380344,17.0137551 C13.0380344,17.5762551 12.7202506,18.0300051 12.3274698,18.0300051 L7.72723128,18.0300051 C7.33445048,18.0300051 7.01666667,17.5750051 7.01666667,17.0137551 L7.01666667,17.0137551 C7.01666667,16.4525051 7.33445048,15.9975026 7.72723128,15.9975026 L12.3274698,15.9975026 C12.7202506,15.9962551 13.0380344,16.4525051 13.0380344,17.0137551 L13.0380344,17.0137551 Z M13.0380344,13.0800051 C13.0380344,13.6412551 12.7202506,14.0962551 12.3274698,14.0962551 L7.72723128,14.0962551 C7.33445048,14.0962551 7.01666667,13.6412551 7.01666667,13.0800051 L7.01666667,13.0800051 C7.01666667,12.5175051 7.33445048,12.0637551 7.72723128,12.0637551 L12.3274698,12.0637551 C12.7202506,12.0637551 13.0380344,12.5187551 13.0380344,13.0800051 L13.0380344,13.0800051 Z M13.0380344,9.14750511 C13.0380344,9.71000511 12.7202506,10.1637551 12.3274698,10.1637551 L7.72723128,10.1637551 C7.33445048,10.1637551 7.01666667,9.70875511 7.01666667,9.14750511 L7.01666667,9.14750511 C7.01666667,8.58500511 7.33445048,8.13125255 7.72723128,8.13125255 L12.3274698,8.13125255 C12.7202506,8.13000511 13.0380344,8.58625511 13.0380344,9.14750511 L13.0380344,9.14750511 Z M13.0380344,5.21375511 C13.0380344,5.77625511 12.7202506,6.23000511 12.3274698,6.23000511 L7.72723128,6.23000511 C7.33445048,6.23000511 7.01666667,5.77500511 7.01666667,5.21375511 L7.01666667,5.21375511 C7.01666667,4.65125511 7.33445048,4.19750511 7.72723128,4.19750511 L12.3274698,4.19750511 C12.7202506,4.19750511 13.0380344,4.65375511 13.0380344,5.21375511 L13.0380344,5.21375511 Z M13.0380344,13.0800051 C13.0380344,13.6412551 12.7202506,14.0962551 12.3274698,14.0962551 L7.72723128,14.0962551 C7.33445048,14.0962551 7.01666667,13.6412551 7.01666667,13.0800051 L7.01666667,13.0800051 C7.01666667,12.5175051 7.33445048,12.0637551 7.72723128,12.0637551 L12.3274698,12.0637551 C12.7202506,12.0637551 13.0380344,12.5187551 13.0380344,13.0800051 L13.0380344,13.0800051 Z M13.0380344,9.14750511 C13.0380344,9.71000511 12.7202506,10.1637551 12.3274698,10.1637551 L7.72723128,10.1637551 C7.33445048,10.1637551 7.01666667,9.70875511 7.01666667,9.14750511 L7.01666667,9.14750511 C7.01666667,8.58500511 7.33445048,8.13125255 7.72723128,8.13125255 L12.3274698,8.13125255 C12.7202506,8.13000511 13.0380344,8.58625511 13.0380344,9.14750511 L13.0380344,9.14750511 Z M13.0380344,5.21375511 C13.0380344,5.77625511 12.7202506,6.23000511 12.3274698,6.23000511 L7.72723128,6.23000511 C7.33445048,6.23000511 7.01666667,5.77500511 7.01666667,5.21375511 L7.01666667,5.21375511 C7.01666667,4.65125511 7.33445048,4.19750511 7.72723128,4.19750511 L12.3274698,4.19750511 C12.7202506,4.19750511 13.0380344,4.65375511 13.0380344,5.21375511 L13.0380344,5.21375511 Z M13.0380344,1.01625511 C13.0380344,1.57875511 12.7202506,2.03250768 12.3274698,2.03250768 L7.72723128,2.03250768 C7.33445048,2.03375511 7.01666667,1.57750511 7.01666667,1.01625511 L7.01666667,1.01625511 C7.01666667,0.453755114 7.33445048,2.55189285e-06 7.72723128,2.55189285e-06 L12.3274698,2.55189285e-06 C12.7202506,-0.00124488573 13.0380344,0.455005114 13.0380344,1.01625511 L13.0380344,1.01625511 Z M20.3381643,17.0137551 C20.3381643,17.5762551 20.0203804,18.0300051 19.6275996,18.0300051 L15.0286322,18.0300051 C14.6358514,18.0300051 14.3180676,17.5750051 14.3180676,17.0137551 L14.3180676,17.0137551 C14.3180676,16.4525051 14.6358514,15.9975026 15.0286322,15.9975026 L19.6275996,15.9975026 C20.0203804,15.9962551 20.3381643,16.4525051 20.3381643,17.0137551 L20.3381643,17.0137551 Z M20.3381643,13.0800051 C20.3381643,13.6412551 20.0203804,14.0962551 19.6275996,14.0962551 L15.0286322,14.0962551 C14.6358514,14.0962551 14.3180676,13.6412551 14.3180676,13.0800051 L14.3180676,13.0800051 C14.3180676,12.5175051 14.6358514,12.0637551 15.0286322,12.0637551 L19.6275996,12.0637551 C20.0203804,12.0637551 20.3381643,12.5187551 20.3381643,13.0800051 L20.3381643,13.0800051 Z M20.3381643,17.0137551 C20.3381643,17.5762551 20.0203804,18.0300051 19.6275996,18.0300051 L15.0286322,18.0300051 C14.6358514,18.0300051 14.3180676,17.5750051 14.3180676,17.0137551 L14.3180676,17.0137551 C14.3180676,16.4525051 14.6358514,15.9975026 15.0286322,15.9975026 L19.6275996,15.9975026 C20.0203804,15.9962551 20.3381643,16.4525051 20.3381643,17.0137551 L20.3381643,17.0137551 Z M20.3381643,13.0800051 C20.3381643,13.6412551 20.0203804,14.0962551 19.6275996,14.0962551 L15.0286322,14.0962551 C14.6358514,14.0962551 14.3180676,13.6412551 14.3180676,13.0800051 L14.3180676,13.0800051 C14.3180676,12.5175051 14.6358514,12.0637551 15.0286322,12.0637551 L19.6275996,12.0637551 C20.0203804,12.0637551 20.3381643,12.5187551 20.3381643,13.0800051 L20.3381643,13.0800051 Z M20.3381643,17.0137551 C20.3381643,17.5762551 20.0203804,18.0300051 19.6275996,18.0300051 L15.0286322,18.0300051 C14.6358514,18.0300051 14.3180676,17.5750051 14.3180676,17.0137551 L14.3180676,17.0137551 C14.3180676,16.4525051 14.6358514,15.9975026 15.0286322,15.9975026 L19.6275996,15.9975026 C20.0203804,15.9962551 20.3381643,16.4525051 20.3381643,17.0137551 L20.3381643,17.0137551 Z M20.3381643,13.0800051 C20.3381643,13.6412551 20.0203804,14.0962551 19.6275996,14.0962551 L15.0286322,14.0962551 C14.6358514,14.0962551 14.3180676,13.6412551 14.3180676,13.0800051 L14.3180676,13.0800051 C14.3180676,12.5175051 14.6358514,12.0637551 15.0286322,12.0637551 L19.6275996,12.0637551 C20.0203804,12.0637551 20.3381643,12.5187551 20.3381643,13.0800051 L20.3381643,13.0800051 Z M20.3381643,13.0800051 C20.3381643,13.6412551 20.0203804,14.0962551 19.6275996,14.0962551 L15.0286322,14.0962551 C14.6358514,14.0962551 14.3180676,13.6412551 14.3180676,13.0800051 L14.3180676,13.0800051 C14.3180676,12.5175051 14.6358514,12.0637551 15.0286322,12.0637551 L19.6275996,12.0637551 C20.0203804,12.0637551 20.3381643,12.5187551 20.3381643,13.0800051 L20.3381643,13.0800051 Z" id="形状"></path>
                    </g>
                </g>
                <path d="M70.1666667,8 C71.2899125,8 72.2004831,7.1045695 72.2004831,6 C72.2004831,4.8954305 71.2899125,4 70.1666667,4 C69.0434209,4 68.1328502,4.8954305 68.1328502,6 C68.1328502,7.1045695 69.0434209,8 70.1666667,8 Z" id="椭圆形" fill="#FFFFFF"></path>
            </g>
        </g>
    </g>
</svg>