<?xml version="1.0" encoding="UTF-8"?>
<svg width="89px" height="44px" viewBox="0 0 89 44" version="1.1" xmlns="http://www.w3.org/2000/svg" xmlns:xlink="http://www.w3.org/1999/xlink">
    <title>-mockplus-</title>
    <defs>
        <linearGradient x1="50%" y1="0%" x2="50%" y2="99.8716128%" id="linearGradient-1">
            <stop stop-color="#0085CE" offset="0%"></stop>
            <stop stop-color="#19F2FF" offset="100%"></stop>
        </linearGradient>
    </defs>
    <g id="页面" stroke="none" stroke-width="1" fill="none" fill-rule="evenodd">
        <g id="一些切图" transform="translate(-435.000000, -384.000000)">
            <g id="招商-选中" transform="translate(435.000000, 384.000000)">
                <path d="M0.5,0.5 L87.9710145,0.5 L87.9710145,43.5 L0.5,43.5 L0.5,0.5 Z" id="矩形" stroke="#3889FF" fill="url(#linearGradient-1)" transform="translate(44.235507, 22.000000) scale(-1, 1) translate(-44.235507, -22.000000) "></path>
                <g id="-mockplus-" transform="translate(34.066425, 12.000000)" fill="#FFFFFF" fill-rule="nonzero">
                    <g id="钱袋">
                        <rect id="矩形" opacity="0" x="0" y="0" width="20.3381643" height="20"></rect>
                        <path d="M10.3724638,2.04 C10.3995813,2.04 10.4334783,2.02666667 10.4741546,2 C10.5555072,1.94666667 10.6639775,1.85333333 10.7995652,1.72 C10.9622705,1.57333333 11.1249758,1.46666667 11.2876812,1.4 C11.4503865,1.33333333 11.6673269,1.35333333 11.9385024,1.46 C12.0740902,1.5 12.1825604,1.55666667 12.263913,1.63 C12.3452657,1.70333333 12.4232287,1.77333333 12.4978019,1.84 C12.5723752,1.90666667 12.6537279,1.96333333 12.7418599,2.01 C12.8299919,2.05666667 12.9418519,2.08 13.0774396,2.08 C13.2130274,2.08 13.328277,2.06 13.4231884,2.02 C13.5180998,1.98 13.6096216,1.94333333 13.6977536,1.91 C13.7858857,1.87666667 13.8740177,1.85333333 13.9621498,1.84 C14.0502818,1.82666667 14.1553623,1.84 14.2773913,1.88 C14.4129791,1.93333333 14.5045008,2.01 14.5519565,2.11 C14.5994122,2.21 14.612971,2.31333333 14.5926329,2.42 C14.5722947,2.52666667 14.524839,2.63333333 14.4502657,2.74 C14.3756924,2.84666667 14.2841707,2.93333333 14.1757005,3 C13.9180837,3.16 13.7214815,3.32333333 13.5858937,3.49 C13.450306,3.65666667 13.3147182,3.83333333 13.1791304,4.02 C13.1113366,4.11333333 13.0367633,4.22 12.9554106,4.34 C12.874058,4.46 12.7994847,4.58 12.7316908,4.7 C12.6503382,4.84666667 12.5622061,4.98666667 12.4672947,5.12 L8.25729469,5.12 C8.16238325,4.96 8.06747182,4.80666667 7.97256039,4.66 C7.89120773,4.52666667 7.80307568,4.39333333 7.70816425,4.26 C7.61325282,4.12666667 7.53190016,4.00666667 7.46410628,3.9 C7.32851852,3.7 7.17598229,3.52333333 7.00649758,3.37 C6.83701288,3.21666667 6.67091787,3.08 6.50821256,2.96 C6.33194847,2.84 6.20991948,2.67666667 6.1421256,2.47 C6.07433172,2.26333333 6.13534622,2.08666667 6.32516908,1.94 C6.42008052,1.87333333 6.52855072,1.84666667 6.65057971,1.86 C6.7726087,1.87333333 6.90141707,1.9 7.03700483,1.94 C7.17259259,1.98 7.30479066,2.02 7.43359903,2.06 C7.56240741,2.1 7.6810467,2.10666667 7.78951691,2.08 C7.97933977,2.04 8.12170692,1.97 8.21661836,1.87 C8.31152979,1.77 8.4742351,1.64666667 8.7047343,1.5 C8.88099839,1.39333333 9.07760064,1.35666667 9.29454106,1.39 C9.51148148,1.42333333 9.6741868,1.49333333 9.782657,1.6 C9.83689211,1.66666667 9.89451691,1.72333333 9.9555314,1.77 C10.0165459,1.81666667 10.0809501,1.86 10.148744,1.9 C10.2165378,1.95333333 10.2911111,2 10.3724638,2.04 Z M12.6706763,6.04 C12.8333816,6.25333333 13.0367633,6.48666667 13.2808213,6.74 C13.4842029,6.96666667 13.7350403,7.22333333 14.0333333,7.51 C14.3316264,7.79666667 14.6773752,8.1 15.0705797,8.42 C15.3959903,8.7 15.73157,9.03 16.0773188,9.41 C16.4230676,9.79 16.7247504,10.2333333 16.9823671,10.74 C17.2399839,11.2466667 17.4196377,11.83 17.5213285,12.49 C17.6230193,13.15 17.6060709,13.8866667 17.4704831,14.7 C17.3484541,15.3666667 17.1077858,15.9966667 16.7484783,16.59 C16.3891707,17.1833333 15.9112238,17.7 15.3146377,18.14 C14.7180515,18.58 14.0096055,18.93 13.1892995,19.19 C12.3689936,19.45 11.4368277,19.58 10.3928019,19.58 C9.32165862,19.58 8.37254428,19.43 7.54545894,19.13 C6.71837359,18.83 6.01670692,18.44 5.44045894,17.96 C4.86421095,17.48 4.40660225,16.9433333 4.06763285,16.35 C3.72866345,15.7566667 3.50494364,15.1666667 3.39647343,14.58 C3.27444444,13.9266667 3.25749597,13.3 3.34562802,12.7 C3.43376006,12.1 3.59307568,11.5366667 3.82357488,11.01 C4.05407407,10.4833333 4.34219807,10 4.68794686,9.56 C5.03369565,9.12 5.40995169,8.72666667 5.81671498,8.38 C6.16924316,8.07333333 6.4878744,7.78333333 6.7726087,7.51 C7.057343,7.23666667 7.29462158,6.98666667 7.48444444,6.76 C7.71494364,6.50666667 7.91832528,6.26666667 8.09458937,6.04 L12.6706763,6.04 L12.6706763,6.04 Z M10.5148309,12.18 L9.96570048,11.64 L9.53859903,11.22 C9.40301127,11.0866667 9.30809984,10.9866667 9.25386473,10.92 C9.14539452,10.8266667 9.00302738,10.75 8.82676329,10.69 C8.65049919,10.63 8.50135266,10.6666667 8.37932367,10.8 C8.27085346,10.9466667 8.24373591,11.09 8.29797101,11.23 C8.35220612,11.37 8.41322061,11.48 8.48101449,11.56 L8.78608696,11.84 C8.93523349,12 9.09793881,12.1733333 9.2742029,12.36 C9.47758454,12.5733333 9.70130435,12.8 9.94536232,13.04 L9.92502415,13.46 L8.54202899,13.46 C8.42,13.46 8.31491948,13.5066667 8.22678744,13.6 C8.13865539,13.6933333 8.09458937,13.7933333 8.09458937,13.9 C8.09458937,14.0066667 8.1352657,14.1 8.21661836,14.18 C8.29797101,14.26 8.40644122,14.3 8.54202899,14.3 L9.92502415,14.3 L9.92502415,15 L8.54202899,15 C8.42,15 8.31491948,15.0366667 8.22678744,15.11 C8.13865539,15.1833333 8.09458937,15.28 8.09458937,15.4 C8.0810306,15.5066667 8.11831723,15.5966667 8.20644928,15.67 C8.29458132,15.7433333 8.40644122,15.78 8.54202899,15.78 L9.92502415,15.78 L9.92502415,16.18 C9.93858293,16.3666667 9.99959742,16.4966667 10.1080676,16.57 C10.2165378,16.6433333 10.3521256,16.68 10.5148309,16.68 C10.6775362,16.6933333 10.8097343,16.6433333 10.9114251,16.53 C11.0131159,16.4166667 11.0639614,16.3 11.0639614,16.18 L11.0639614,15.78 L12.4876329,15.78 C12.6232206,15.78 12.7350805,15.75 12.8232126,15.69 C12.9113446,15.63 12.9486312,15.5333333 12.9350725,15.4 C12.9350725,15.12 12.7452496,14.98 12.3656039,14.98 L11.0639614,14.98 L11.0842995,14.3 L12.4062802,14.28 C12.5961031,14.2933333 12.7316908,14.2566667 12.8130435,14.17 C12.8943961,14.0833333 12.9350725,13.98 12.9350725,13.86 C12.9350725,13.7533333 12.8910064,13.6566667 12.8028744,13.57 C12.7147424,13.4833333 12.5757649,13.44 12.385942,13.44 L11.0639614,13.44 L11.0639614,13.06 C11.2944605,12.8466667 11.5046216,12.64 11.6944444,12.44 C11.8571498,12.28 12.0198551,12.1166667 12.1825604,11.95 C12.3452657,11.7833333 12.4672947,11.6666667 12.5486473,11.6 C12.8604992,11.3333333 12.9282931,11.1 12.752029,10.9 C12.6571176,10.78 12.5350886,10.72 12.385942,10.72 C12.2367955,10.72 12.1012077,10.7733333 11.9791787,10.88 C11.9113849,10.9333333 11.7961353,11.03 11.63343,11.17 C11.4707246,11.31 11.3080193,11.4533333 11.145314,11.6 C10.9554911,11.7733333 10.7453301,11.9666667 10.5148309,12.18 Z" id="形状"></path>
                    </g>
                </g>
                <path d="M78.3019324,8 C79.4251782,8 80.3357488,7.1045695 80.3357488,6 C80.3357488,4.8954305 79.4251782,4 78.3019324,4 C77.1786866,4 76.2681159,4.8954305 76.2681159,6 C76.2681159,7.1045695 77.1786866,8 78.3019324,8 Z" id="椭圆形" fill="#FFFFFF"></path>
            </g>
        </g>
    </g>
</svg>