<?xml version="1.0" encoding="UTF-8"?>
<svg width="89px" height="44px" viewBox="0 0 89 44" version="1.1" xmlns="http://www.w3.org/2000/svg" xmlns:xlink="http://www.w3.org/1999/xlink">
    <title>-mockplus-</title>
    <defs>
        <linearGradient x1="50%" y1="0%" x2="50%" y2="99.8716128%" id="linearGradient-1">
            <stop stop-color="#0085CE" offset="0%"></stop>
            <stop stop-color="#19F2FF" offset="100%"></stop>
        </linearGradient>
    </defs>
    <g id="页面" stroke="none" stroke-width="1" fill="none" fill-rule="evenodd" opacity="0.639999986">
        <g id="一些切图" transform="translate(-625.000000, -440.000000)">
            <g id="4" transform="translate(625.000000, 440.000000)">
                <path d="M78.9121407,0.5 L87.8563106,43.5 L19.6477792,43.5 L0.765642573,0.5 L78.9121407,0.5 Z" id="矩形" stroke="#3889FF" fill="url(#linearGradient-1)" transform="translate(44.235507, 22.000000) scale(-1, 1) translate(-44.235507, -22.000000) "></path>
                <g id="-mockplus-" transform="translate(33.557971, 12.000000)" fill="#FFFFFF" fill-rule="nonzero">
                    <g id="1.图标/2.设计/" transform="translate(0.000000, 0.500000)">
                        <path d="M1.90906952,8.81820501 C1.9090695,8.81820501 4.21019934,10.2594261 6.70447844,11.9178922 C8.32977426,13.0212041 8.90862126,15.1165581 8.07441895,16.8769063 C8.60173855,16.9995631 9.14192278,17.0606677 9.68379054,17.0589553 C10.0724839,17.0589553 10.387582,17.3688143 10.387582,17.7510448 C10.387582,18.1332753 10.0724839,18.4431343 9.68379054,18.4431343 C8.83414498,18.4441047 7.98938303,18.316806 7.1790209,18.0656861 C7.10517596,18.126456 7.02813948,18.183374 6.94822912,18.2362053 C6.20369513,18.7626611 5.31625319,19.058487 4.39964608,19.0857672 C3.15344412,19.0416227 1.99302293,18.450348 1.23767526,17.4746337 C-1.8959094,13.9252856 1.90906954,8.81820501 1.90906952,8.81820501 Z M16.2280334,7.64884376 C16.5156946,8.13736055 16.7510375,8.65390861 16.9302822,9.19019174 C17.2460268,9.23053354 17.5531341,9.32047821 17.8398733,9.45659008 C19.8009864,10.4002106 20.925325,12.1266417 20.0212876,14.7026347 C18.7908095,18.2082911 14.3989777,18.558432 12.6896375,18.558432 C12.2663135,18.558432 12.0071356,18.5365861 12.0071356,18.5365861 C12.0071356,18.5365861 12.1811551,15.7773305 12.3946683,12.8244961 C12.5268333,11.1121791 13.7703817,9.68070986 15.4696294,9.2848572 C15.3409492,8.95890282 15.1868344,8.64321969 15.0086629,8.34062987 C14.8144015,8.00950869 14.9298869,7.58622035 15.2666067,7.39518889 C15.6033265,7.20415743 16.0337719,7.31772258 16.2280334,7.64884376 Z M15.5708322,4.99881753 C15.5708322,4.99881753 13.054955,6.23068226 10.3471626,7.52565729 C9.81287472,7.78539947 9.22519245,7.92136627 8.62918316,7.92313088 C7.41462389,7.90608346 6.26769034,7.37028191 5.48695923,6.45520932 C5.18998816,6.78746342 4.92726153,7.14786404 4.70263742,7.53111875 C4.58046371,7.75212934 4.34600619,7.89059202 4.09020781,7.89279896 C3.83440943,7.89500591 3.5975175,7.76060989 3.47141923,7.54174131 C3.34532095,7.32287273 3.34985663,7.05396838 3.48326694,6.83933265 C3.83802052,6.2344332 4.27136436,5.67753595 4.77236864,5.18268699 C4.71222833,4.98509053 4.67435838,4.78159175 4.6594411,4.57585708 C4.50948816,2.42949966 5.46721234,0.609009912 8.18734648,0.0913839987 C12.8155239,-0.790339876 15.5708322,4.99881753 15.5708322,4.99881753 Z" id="形状结合"></path>
                    </g>
                </g>
                <path d="M74.2342995,8 C75.3575453,8 76.2681159,7.1045695 76.2681159,6 C76.2681159,4.8954305 75.3575453,4 74.2342995,4 C73.1110537,4 72.2004831,4.8954305 72.2004831,6 C72.2004831,7.1045695 73.1110537,8 74.2342995,8 Z" id="椭圆形" fill="#FFFFFF"></path>
            </g>
        </g>
    </g>
</svg>