<?xml version="1.0" encoding="UTF-8"?>
<svg width="89px" height="44px" viewBox="0 0 89 44" version="1.1" xmlns="http://www.w3.org/2000/svg" xmlns:xlink="http://www.w3.org/1999/xlink">
    <title>-mockplus-</title>
    <defs>
        <linearGradient x1="50%" y1="0%" x2="50%" y2="99.8716128%" id="linearGradient-1">
            <stop stop-color="#0085CE" offset="0%"></stop>
            <stop stop-color="#19F2FF" offset="100%"></stop>
        </linearGradient>
    </defs>
    <g id="页面" stroke="none" stroke-width="1" fill="none" fill-rule="evenodd" opacity="0.639999986">
        <g id="一些切图" transform="translate(-246.000000, -440.000000)">
            <g id="1" transform="translate(246.000000, 440.000000)">
                <path d="M78.9121407,0.5 L87.8563106,43.5 L19.6477792,43.5 L0.765642573,0.5 L78.9121407,0.5 Z" id="矩形" stroke="#3889FF" fill="url(#linearGradient-1)"></path>
                <path d="M14.236715,8 C15.3599608,8 16.2705314,7.1045695 16.2705314,6 C16.2705314,4.8954305 15.3599608,4 14.236715,4 C13.1134692,4 12.2028986,4.8954305 12.2028986,6 C12.2028986,7.1045695 13.1134692,8 14.236715,8 Z" id="椭圆形" fill="#FFFFFF"></path>
                <g id="-mockplus-" transform="translate(34.574879, 12.000000)" fill="#FFFFFF" fill-rule="nonzero">
                    <g id="1.图标/2.设计/" transform="translate(0.635568, 0.625000)">
                        <path d="M14.4380576,18.9097229 L10.9814151,18.9097229 L10.9814151,15.2814799 C10.9814151,15.015458 10.7634963,14.8011625 10.4929765,14.8011625 L8.74211189,14.8011625 C8.47159204,14.8011625 8.25367327,15.0191527 8.25367327,15.2814799 L8.25367327,18.9097229 L4.51899648,18.9097229 C3.48951818,18.9097229 2.65165809,18.085794 2.65165809,17.0734329 L2.65165809,11.0805508 L0.543857611,10.4339698 L0.374782706,10.2677061 C-0.124927569,9.77630457 -0.124927569,8.98193364 0.374782706,8.49053209 L8.6331525,0.369474851 C8.87361459,0.133010947 9.1929783,2.22044605e-16 9.53488533,2.22044605e-16 C9.87679236,2.22044605e-16 10.1961561,0.129316198 10.4366182,0.369474851 L18.694988,8.49422683 C18.93545,8.73069074 19.07071,9.04843911 19.067029,9.38096648 C19.067029,9.71718859 18.9316928,10.0312422 18.6912307,10.2677061 L18.5221558,10.4339698 L16.2978815,11.0842455 L16.2978815,17.0734329 C16.3016387,18.085794 15.4675359,18.9097229 14.4380576,18.9097229 L14.4380576,18.9097229 Z" id="路径"></path>
                    </g>
                </g>
            </g>
        </g>
    </g>
</svg>