<?xml version="1.0" encoding="UTF-8"?>
<svg width="89px" height="44px" viewBox="0 0 89 44" version="1.1" xmlns="http://www.w3.org/2000/svg" xmlns:xlink="http://www.w3.org/1999/xlink">
    <title>-mockplus-</title>
    <defs>
        <linearGradient x1="50%" y1="0%" x2="50%" y2="99.8716128%" id="linearGradient-1">
            <stop stop-color="#0085CE" offset="0%"></stop>
            <stop stop-color="#19F2FF" offset="100%"></stop>
        </linearGradient>
    </defs>
    <g id="页面" stroke="none" stroke-width="1" fill="none" fill-rule="evenodd">
        <g id="一些切图" transform="translate(-336.000000, -384.000000)">
            <g id="物业-选中" transform="translate(336.000000, 384.000000)">
                <path d="M87.9710145,0.5 L87.9710145,43.5 L9.55887382,43.5 L0.614703857,0.5 L87.9710145,0.5 Z" id="矩形" stroke="#3889FF" fill="url(#linearGradient-1)"></path>
                <g id="-mockplus-" transform="translate(38.642512, 12.000000)" fill="#FFFFFF" fill-rule="nonzero">
                    <g id="1.图标/2.设计/" transform="translate(0.000000, 2.337500)">
                        <path d="M5.23388079,3.31201868 L8.77227907,0.689846448 C9.74330503,-0.0150654383 11.0269912,-0.197542629 12.1454504,0.224904565 L17.7733339,2.32214241 C18.1470009,2.4646246 18.5384617,2.5246171 18.9121287,2.5246171 L19.8424835,2.5246171 C20.1119305,2.5246171 20.3381643,2.72709179 20.3381643,2.98955898 L20.3381643,9.72871659 C20.3381643,9.99118378 20.1093885,10.213656 19.8424835,10.213656 L18.6223461,10.213656 C18.4571192,10.213656 18.2715566,10.2736485 18.1470009,10.3761357 L17.877554,10.5986079 C17.8165471,10.6586004 17.712327,10.6386029 17.6487782,10.5786104 L11.09054,2.78958398 C10.9253131,2.58710929 10.6355305,2.54711429 10.4067547,2.66959898 L7.40725042,4.30439463 C6.80734956,4.62685432 6.08289302,4.66684932 5.44232092,4.40438213 C5.11186706,4.26189994 4.94664012,3.87944775 5.09153143,3.53699055 C5.08898948,3.45450087 5.14999635,3.37451086 5.23388079,3.31201868 Z M0.599900858,10.1936585 L1.65481126,10.1936585 L2.39960343,9.30626939 C3.06051116,8.51886782 4.26031287,8.41888032 5.06865386,9.0637997 C5.35843648,9.30626939 5.58467027,9.62872909 5.68889034,9.99118378 C6.32946244,10.1536635 6.82768519,10.6361032 7.01324774,11.2635247 C7.46825729,11.4035072 7.88259559,11.6884716 8.10882939,12.1109188 C8.50283207,12.1709113 8.87395718,12.3533885 9.1637398,12.6358532 C9.76364066,13.2607751 9.88819634,14.1906588 9.43318679,14.9355657 L9.32896673,15.1180429 L9.32896673,15.1380404 C9.82464752,15.4605001 10.4880972,15.3605126 10.8388867,14.8755732 C11.0041136,14.6331035 11.0676624,14.3506388 11.0041136,14.0681742 L11.0041136,14.0481767 L11.0244492,14.0481767 L11.1083337,14.1281667 C11.4820007,14.4906214 12.0819016,14.5531135 12.5140336,14.2681492 C12.8648231,14.0256795 13.03005,13.6032323 12.9487075,13.1982829 L12.9487075,13.1782854 L12.9690431,13.1782854 L13.0529276,13.2582754 C13.4240527,13.6207301 14.0036179,13.6807226 14.4586275,13.3982579 C14.8094169,13.1557882 14.9975214,12.733341 14.913637,12.3283916 L14.913637,12.3108938 L14.9339726,12.3108938 L15.0178571,12.3908838 C15.3686466,12.733341 15.9278762,12.7933335 16.3422145,12.5533635 C16.8582309,12.2509013 17.0259998,11.6059819 16.7158815,11.101045 C16.6752103,11.0410525 16.6319971,10.98106 16.5913258,10.9385654 L15.9304181,10.1511638 L10.5719816,3.79695806 C10.5109748,3.73696556 10.4270903,3.71696806 10.3432059,3.75696306 L7.77837553,5.14928902 C6.94969892,5.5942334 5.97867296,5.6742234 5.08898948,5.35176371 C4.59330869,5.18928402 4.21964163,4.80683182 4.03407907,4.34188994 C3.88918776,3.85695056 3.95019463,3.33201618 4.21964163,2.90956898 C4.28064849,2.78958398 4.23997725,2.64710179 4.11542156,2.58710929 C4.07475032,2.56711179 4.03153712,2.56711179 3.99086588,2.56711179 L0.495680794,2.56711179 C0.226233798,2.56711179 0,2.76958648 0,3.03205367 L0,9.75121378 C0.104220064,9.99118378 0.330453862,10.1936585 0.599900858,10.1936585 L0.599900858,10.1936585 Z M4.32386169,9.70871909 C3.90952339,9.4862469 3.41384259,9.58873409 3.12405998,9.95118878 L2.39960343,10.8185804 C2.08948519,11.2010325 2.13015644,11.7659619 2.52415912,12.0684241 L2.54449474,12.0684241 L2.6487148,12.1484141 C2.93849742,12.3708863 3.35283573,12.3908838 3.66295397,12.2284041 C3.68328959,12.2084066 3.70362521,12.2284041 3.72396083,12.2484016 L3.72396083,12.2883966 C3.66295397,12.6108563 3.7849677,12.9533135 4.0544147,13.1557882 L4.13829914,13.2157807 C4.42808176,13.4382529 4.79920686,13.4582504 5.13220268,13.3157682 C5.1525383,13.2957707 5.19320954,13.3157682 5.19320954,13.3357657 L5.19320954,13.3557632 C5.1525383,13.6582254 5.29742961,13.9606876 5.54399903,14.1631623 L5.6050059,14.2031573 C5.89478851,14.4256295 6.26591362,14.4656245 6.59890944,14.2831473 C6.61924506,14.2631498 6.6599163,14.2831473 6.6599163,14.3031448 L6.6599163,14.3231423 C6.70058755,14.5456145 6.82514323,14.7480892 7.01070579,14.8880717 L7.05137703,14.9080692 C7.46571534,15.2105314 8.04528057,15.1505389 8.35539881,14.7455895 C8.37573443,14.7055945 8.41640568,14.6655995 8.43928325,14.645602 L8.56383894,14.4231298 C8.79261469,14.0406776 8.72906587,13.5757357 8.39861201,13.2732735 C8.12916501,13.0308038 7.73770428,12.9708113 7.38437285,13.1107938 C7.36403722,13.1107938 7.36403722,13.1107938 7.3437016,13.0907963 L7.3437016,13.0707988 C7.36403722,12.5858594 6.97003454,12.1634123 6.47435375,12.1234173 C6.34979806,12.1234173 6.22524238,12.1434148 6.10068669,12.1834098 C5.95579538,12.2034073 5.99646663,12.0834223 5.99646663,12.0834223 C6.18202918,11.6184804 5.976131,11.1160432 5.50078583,10.9135685 C5.25167446,10.813581 4.94155622,10.8335785 4.71532242,10.9535635 C4.61110236,10.973561 4.63143798,10.8735735 4.63143798,10.8735735 C4.90342693,10.4961207 4.75853562,9.95118878 4.32386169,9.70871909 L4.32386169,9.70871909 Z" id="形状"></path>
                    </g>
                </g>
                <path d="M18.3043478,8 C19.4275936,8 20.3381643,7.1045695 20.3381643,6 C20.3381643,4.8954305 19.4275936,4 18.3043478,4 C17.181102,4 16.2705314,4.8954305 16.2705314,6 C16.2705314,7.1045695 17.181102,8 18.3043478,8 Z" id="椭圆形" fill="#FFFFFF"></path>
            </g>
        </g>
    </g>
</svg>