<?xml version="1.0" encoding="UTF-8"?>
<svg width="89px" height="44px" viewBox="0 0 89 44" version="1.1" xmlns="http://www.w3.org/2000/svg" xmlns:xlink="http://www.w3.org/1999/xlink">
    <title>-mockplus-</title>
    <defs>
        <linearGradient x1="50%" y1="0%" x2="50%" y2="99.8716128%" id="linearGradient-1">
            <stop stop-color="#0085CE" offset="0%"></stop>
            <stop stop-color="#19F2FF" offset="100%"></stop>
        </linearGradient>
    </defs>
    <g id="页面" stroke="none" stroke-width="1" fill="none" fill-rule="evenodd" opacity="0.639999986">
        <g id="一些切图" transform="translate(-535.000000, -440.000000)">
            <g id="3" transform="translate(535.000000, 440.000000)">
                <path d="M87.9710145,0.5 L87.9710145,43.5 L9.55887382,43.5 L0.614703857,0.5 L87.9710145,0.5 Z" id="矩形" stroke="#3889FF" fill="url(#linearGradient-1)" transform="translate(44.235507, 22.000000) scale(-1, 1) translate(-44.235507, -22.000000) "></path>
                <g id="-mockplus-" transform="translate(29.490338, 12.000000)" fill="#FFFFFF" fill-rule="nonzero">
                    <g id="1.图标/2.设计/" transform="translate(2.542271, 0.859375)">
                        <path d="M7.60496396,4.14058515 C10.7629406,4.12890625 13.3469203,6.703125 13.3469203,9.80859375 L13.3469203,9.80859375 L13.346,16.64 L14.8786232,16.640625 C15.08573,16.640625 15.2536232,16.8085182 15.2536232,17.015625 L15.2536232,18.140625 C15.2536232,18.3477318 15.08573,18.515625 14.8786232,18.515625 L0.375,18.515625 C0.167893219,18.515625 9.69052837e-16,18.3477318 8.8817842e-16,18.140625 L8.8817842e-16,17.015625 C9.18326305e-16,16.8085182 0.167893219,16.640625 0.375,16.640625 L1.906,16.64 L1.9067029,9.765625 C1.9067029,6.73981585 4.33692491,4.27237457 7.3811466,4.14565414 Z M8.72515191,7.578125 L5.40232488,12.3183594 L6.9157703,12.3183594 L6.53045743,15.703125 L9.85129831,10.9628906 L8.33983903,10.9628906 L8.72515191,7.578125 Z M13.6377263,2.86028534 C13.9183172,2.58435983 14.3683173,2.58435983 14.6489082,2.86028534 C14.6516868,2.86301777 14.6544425,2.86577344 14.6571749,2.86855206 C14.9271967,3.14313946 14.9234956,3.58463244 14.6489082,3.85465425 L14.6489082,3.85465425 L13.8624334,4.62805229 C13.5818425,4.9039778 13.1318424,4.9039778 12.8512515,4.62805229 C12.8484728,4.62531987 12.8457172,4.62256419 12.8429847,4.61978557 C12.5729629,4.34519818 12.5766641,3.90370519 12.8512515,3.63368338 L12.8512515,3.63368338 Z M0.604714983,2.86028534 C0.885305896,2.58435983 1.33530598,2.58435984 1.61589689,2.86028534 L1.61589689,2.86028534 L2.40237272,3.63368438 L2.40237272,3.63368438 L2.41063992,3.64195159 C2.68066119,3.91653899 2.67695961,4.35803153 2.40237222,4.6280528 C2.12178095,4.9039781 1.6717808,4.90397788 1.3911898,4.62805229 L1.3911898,4.62805229 L0.604714983,3.85465425 L0.604714983,3.85465425 L0.596448258,3.84638753 C0.326426452,3.57180013 0.330127591,3.13030715 0.604714983,2.86028534 Z M7.62681159,0 C8.02170269,-7.25403182e-17 8.34182518,0.320122487 8.34182518,0.715013587 L8.34182518,0.715013587 L8.34182518,1.78498641 C8.34182518,2.17987751 8.02170269,2.5 7.62681159,2.5 C7.23192049,2.5 6.91179801,2.17987751 6.91179801,1.78498641 L6.91179801,1.78498641 L6.91179801,0.715013587 C6.91179801,0.320122487 7.23192049,7.25403182e-17 7.62681159,0 Z" id="形状"></path>
                    </g>
                </g>
                <path d="M70.1666667,8 C71.2899125,8 72.2004831,7.1045695 72.2004831,6 C72.2004831,4.8954305 71.2899125,4 70.1666667,4 C69.0434209,4 68.1328502,4.8954305 68.1328502,6 C68.1328502,7.1045695 69.0434209,8 70.1666667,8 Z" id="椭圆形" fill="#FFFFFF"></path>
            </g>
        </g>
    </g>
</svg>