<?xml version="1.0" encoding="UTF-8"?>
<svg width="368px" height="208px" viewBox="0 0 368 208" version="1.1" xmlns="http://www.w3.org/2000/svg" xmlns:xlink="http://www.w3.org/1999/xlink">
    <title>一些数据/1</title>
    <defs>
        <filter x="-37.5%" y="-48.9%" width="175.0%" height="197.9%" filterUnits="objectBoundingBox" id="filter-1">
            <feOffset dx="0" dy="2" in="SourceAlpha" result="shadowOffsetOuter1"></feOffset>
            <feGaussianBlur stdDeviation="2" in="shadowOffsetOuter1" result="shadowBlurOuter1"></feGaussianBlur>
            <feColorMatrix values="0 0 0 0 0.00879318504   0 0 0 0 0.193733105   0 0 0 0 0.465290457  0 0 0 0.5 0" type="matrix" in="shadowBlurOuter1" result="shadowMatrixOuter1"></feColorMatrix>
            <feMerge>
                <feMergeNode in="shadowMatrixOuter1"></feMergeNode>
                <feMergeNode in="SourceGraphic"></feMergeNode>
            </feMerge>
        </filter>
    </defs>
    <g id="控件" stroke="none" stroke-width="1" fill="none" fill-rule="evenodd">
        <g id="一些数据/1">
            <g id="中间备份" transform="translate(127.431458, 47.431458)">
                <circle id="椭圆形" fill="#001432" opacity="0.587226504" cx="56.569442" cy="56.569442" r="40.9508995"></circle>
                <g id="背景" transform="translate(17.117876, 17.117643)">
                    <circle id="椭圆形" stroke="#3887FB" stroke-width="3.28757496" opacity="0.36122204" stroke-linejoin="round" cx="39.4508995" cy="39.4508995" r="39.4508995"></circle>
                    <circle id="椭圆形" stroke="#3887FB" stroke-width="3.28757496" opacity="0.271235875" stroke-linejoin="round" cx="39.4508995" cy="39.4508995" r="35.3414308"></circle>
                    <path d="M38.9564687,40.6414687 L38.9572117,72.3230176 C30.2516774,72.1948684 22.3657022,68.6829993 16.5558329,63.0439568 L38.9564687,40.6414687 Z M39.9424687,40.6394687 L62.34695,63.0430019 C56.4273591,68.7890162 48.3522585,72.3266491 39.4508995,72.3266491 L39.9431499,72.3221499 L39.9424687,40.6394687 Z M6.57914992,39.9431499 L38.2594687,39.9434687 L15.8587971,62.34695 C10.1127828,56.4273591 6.57514992,48.3522585 6.57514992,39.4508995 L6.57914992,39.9431499 Z M72.3230309,39.9436814 C72.1951049,48.6500659 68.6827985,56.5367855 63.0430019,62.34695 L40.6414687,39.9434687 Z M63.0439568,16.5558329 C68.7894082,22.4753346 72.3266491,30.5500336 72.3266491,39.4508995 L72.3221499,38.9571499 L40.6394687,38.9574687 Z M15.8578422,16.5558329 L38.2614687,38.9574687 L6.5787814,38.9572117 C6.70693055,30.2516774 10.2187996,22.3657022 15.8578422,16.5558329 Z M39.9436814,6.57876808 C48.6500659,6.70669413 56.5367855,10.2190005 62.34695,15.8587971 L39.9424687,38.2604687 Z M38.9571499,6.57914992 L38.9564687,38.2584687 L16.5558329,15.8578422 C22.4753346,10.1123908 30.5500336,6.57514992 39.4508995,6.57514992 L38.9571499,6.57914992 Z" id="形状结合" fill="#3887FB" opacity="0.792209251"></path>
                </g>
                <g id="编组-4" transform="translate(56.568542, 56.568542) rotate(-45.000000) translate(-56.568542, -56.568542) translate(16.568542, 16.568542)" stroke-linejoin="round" stroke-width="3.28757496">
                    <path d="M33.4243542,1.09468698 C35.5628784,0.735869281 37.7597446,0.549100503 40.000233,0.549100503 C42.2405587,0.549100503 44.4372685,0.735842152 46.5756458,1.09460879" id="路径" stroke="#30F9C0"></path>
                    <path d="M72.6024604,40.2727932 C74.7409846,39.9139755 76.9378508,39.7272068 79.1783392,39.7272068 C81.4186649,39.7272068 83.6153748,39.9139484 85.7537521,40.2727151" id="路径" stroke="#FFFFFF" opacity="0.602573213" transform="translate(79.178106, 40.000000) rotate(90.000000) translate(-79.178106, -40.000000) "></path>
                    <path d="M33.4243542,79.4508995 C35.5628784,79.0920818 37.7597446,78.905313 40.000233,78.905313 C42.2405587,78.905313 44.4372685,79.0920547 46.5756458,79.4508213" id="路径" stroke="#FFFFFF" opacity="0.602573213" transform="translate(40.000000, 79.178106) rotate(180.000000) translate(-40.000000, -79.178106) "></path>
                    <path d="M-5.75375208,40.2727932 C-3.61522791,39.9139755 -1.41836168,39.7272068 0.822126729,39.7272068 C3.06245241,39.7272068 5.25916224,39.9139484 7.39753956,40.2727151" id="路径" stroke="#FFFFFF" opacity="0.602573213" transform="translate(0.821894, 40.000000) rotate(270.000000) translate(-0.821894, -40.000000) "></path>
                </g>
                <g id="1.图标/1.使用/20" filter="url(#filter-1)" transform="translate(40.568542, 44.308542)" fill="#FFFFFF" fill-rule="nonzero">
                    <g id="1.图标/2.设计/">
                        <path d="M8.23497063,5.29922988 L13.8022747,1.10375432 C15.3300837,-0.0241047013 17.3498313,-0.316068206 19.1096113,0.359847305 L27.9645044,3.71542786 C28.5524309,3.94339936 29.168354,4.03938736 29.7562805,4.03938736 L31.2200975,4.03938736 C31.6440445,4.03938736 32,4.36334687 32,4.78329437 L32,15.5659465 C32,15.985894 31.640045,16.3418496 31.2200975,16.3418496 L29.3003375,16.3418496 C29.04037,16.3418496 28.7484064,16.4378376 28.5524309,16.6018171 L28.1284839,16.9577726 C28.0324959,17.0537606 27.8685164,17.0217646 27.7685289,16.9257766 L17.4498188,4.46333437 C17.1898513,4.13937486 16.7339083,4.07538286 16.3739533,4.27135837 L11.6545432,6.88703141 C10.7106612,7.40296691 9.57080365,7.46695892 8.56292963,7.04701141 C8.04299463,6.81903991 7.78302712,6.2071164 8.01099863,5.65918489 C8.00699913,5.52720139 8.10298713,5.39921738 8.23497063,5.29922988 Z M0.943882015,16.3098536 L2.60367454,16.3098536 L3.77552806,14.890031 C4.81539808,13.6301885 6.7031621,13.4702085 7.97500312,14.5020795 C8.43094613,14.890031 8.78690164,15.4059665 8.95088114,15.985894 C9.95875516,16.2458616 10.7426572,17.0177651 11.0346207,18.0216396 C11.7505312,18.2456116 12.4024497,18.7015546 12.7584052,19.3774701 C13.3783277,19.4734581 13.9622547,19.7654216 14.4181977,20.2173651 C15.3620797,21.2172401 15.5580552,22.7050542 14.8421447,23.8969052 L14.6781652,24.1888687 L14.6781652,24.2208647 C15.4580677,24.7368002 16.5019373,24.5768202 17.0538683,23.8009172 C17.3138358,23.4129657 17.4138233,22.9610222 17.3138358,22.5090787 L17.3138358,22.4770827 L17.3458318,22.4770827 L17.4778153,22.6050667 C18.0657418,23.1849942 19.0096238,23.2849817 19.6895388,22.8290387 C20.2414698,22.4410871 20.5014373,21.7651716 20.3734533,21.1172526 L20.3734533,21.0852566 L20.4054493,21.0852566 L20.5374328,21.2132406 C21.1213598,21.7931681 22.0332458,21.8891561 22.7491564,21.4372126 C23.3010874,21.0492611 23.5970504,20.3733456 23.4650669,19.7254266 L23.4650669,19.6974301 L23.4970629,19.6974301 L23.6290464,19.8254141 C24.1809774,20.3733456 25.0608674,20.4693336 25.7127859,20.0853816 C26.5246844,19.6014421 26.7886514,18.5695711 26.3007124,17.7616721 C26.2367204,17.6656841 26.1687289,17.5696961 26.1047369,17.5017046 L25.0648669,16.2418621 L16.6339208,6.07513289 C16.5379328,5.97914489 16.4059493,5.94714889 16.2739658,6.01114089 L12.2384702,8.23886243 C10.9346332,8.95077344 9.40682415,9.07875744 8.00699913,8.56282193 C7.22709661,8.30285443 6.6391701,7.69093092 6.3472066,6.94702391 C6.1192351,6.1711209 6.2152231,5.33122588 6.6391701,4.65531037 C6.73515811,4.46333437 6.6711661,4.23536287 6.4751906,4.13937486 C6.4111986,4.10737886 6.3432071,4.10737886 6.2792151,4.10737886 L0.779902512,4.10737886 C0.355955506,4.10737886 0,4.43133837 0,4.85128587 L0,15.601942 C0.163979503,15.985894 0.519935008,16.3098536 0.943882015,16.3098536 L0.943882015,16.3098536 Z M6.80314961,15.5339505 C6.1512311,15.177995 5.37132858,15.3419745 4.91538558,15.921902 L3.77552806,17.3097286 C3.28758905,17.9216521 3.35158105,18.8255391 3.97150356,19.3094786 L4.00349956,19.3094786 L4.16747907,19.4374626 C4.62342207,19.7934181 5.27534058,19.8254141 5.76327959,19.5654466 C5.79527559,19.5334506 5.82727159,19.5654466 5.85926759,19.5974426 L5.85926759,19.6614346 C5.76327959,20.1773701 5.95525559,20.7253016 6.3792026,21.0492611 L6.5111861,21.1452491 C6.96712911,21.5012046 7.55105612,21.5332006 8.07499063,21.3052291 C8.10698663,21.2732331 8.17097863,21.3052291 8.17097863,21.3372251 L8.17097863,21.3692211 C8.10698663,21.8531606 8.33495813,22.3371001 8.72290964,22.6610597 L8.81889764,22.7250517 C9.27484064,23.0810072 9.85876765,23.1449992 10.3827022,22.8530357 C10.4146982,22.8210397 10.4786902,22.8530357 10.4786902,22.8850317 L10.4786902,22.9170277 C10.5426822,23.2729832 10.7386577,23.5969427 11.0306212,23.8209147 L11.0946132,23.8529107 C11.7465317,24.3368502 12.6584177,24.2408622 13.1463567,23.5929432 C13.1783527,23.5289512 13.2423447,23.4649592 13.2783402,23.4329632 L13.4743157,23.0770077 C13.8342707,22.4650842 13.7342832,21.7211771 13.2143482,21.2372376 C12.7904012,20.8492861 12.1744782,20.7532981 11.6185477,20.9772701 C11.5865517,20.9772701 11.5865517,20.9772701 11.5545557,20.9452741 L11.5545557,20.9132781 C11.5865517,20.1373751 10.9666292,19.4614596 10.1867267,19.3974676 C9.99075116,19.3974676 9.79477565,19.4294636 9.59880015,19.4934556 C9.37082865,19.5254516 9.43482065,19.3334756 9.43482065,19.3334756 C9.72678415,18.5895686 9.40282465,17.7856691 8.65491814,17.4617096 C8.26296713,17.3017296 7.77502812,17.3337256 7.41907262,17.5257016 C7.25509311,17.5576976 7.28708911,17.3977176 7.28708911,17.3977176 C7.71503562,16.7937931 7.48706412,15.921902 6.80314961,15.5339505 L6.80314961,15.5339505 Z" id="形状"></path>
                    </g>
                </g>
            </g>
            <g id="右下备份" transform="translate(187.000000, 107.000000)">
                <g id="右下" transform="translate(90.500000, 50.500000) scale(-1, -1) translate(-90.500000, -50.500000) ">
                    <path d="M180,1 L180.000292,54.1576651 C155.575816,56.0909386 136.091172,75.5755826 134.157898,100.000059 L1,100 L1,1 L180,1 Z" id="形状结合" fill-opacity="0.839999974" fill="#1F2426" fill-rule="nonzero"></path>
                    <g id="颜色" transform="translate(1.000000, 1.000000)" fill="#3887FB" fill-opacity="0.3" stroke="#3887FB" stroke-opacity="0.615590342">
                        <path d="M179.499997,-0.5 L179.500294,53.6217977 C167.225857,54.4790595 156.18505,59.8116114 147.998447,67.9982143 C139.811845,76.1848168 134.479293,87.2256223 133.622031,99.500059 L133.622031,99.500059 L-0.5,99.4999998 L-0.5,-0.5 L179.499997,-0.5 Z" id="形状结合"></path>
                    </g>
                    <polygon id="矩形" fill="#FFFFFF" points="134.16 100 135.16 100 135.08 101 134.08 101"></polygon>
                    <rect id="矩形" fill="#FFFFFF" x="180" y="0" width="1" height="1"></rect>
                    <polyline id="路径-14" stroke="#FFFFFF" points="0.5 96.5 0.5 100.5 3.5 100.5"></polyline>
                    <polygon id="矩形" fill="#FFFFFF" points="1.13742349e-13 35 3 35 3 66 1.13742349e-13 66"></polygon>
                    <polyline id="路径-14" stroke="#FFFFFF" transform="translate(2.000000, 2.500000) scale(1, -1) translate(-2.000000, -2.500000) " points="0.5 0.5 0.5 4.5 3.5 4.5"></polyline>
                </g>
            </g>
            <g id="右上备份" transform="translate(187.000000, 0.000000)">
                <g id="右上" transform="translate(90.500000, 50.500000) scale(-1, 1) translate(-90.500000, -50.500000) ">
                    <path d="M180,1 L180.000292,54.1576651 C155.575816,56.0909386 136.091172,75.5755826 134.157898,100.000059 L1,100 L1,1 L180,1 Z" id="形状结合" fill-opacity="0.839999974" fill="#1F2426" fill-rule="nonzero"></path>
                    <g id="颜色" transform="translate(1.000000, 1.000000)" fill="#3887FB" fill-opacity="0.3" stroke="#3887FB" stroke-opacity="0.615590342">
                        <path d="M179.499997,-0.5 L179.500294,53.6217977 C167.225857,54.4790595 156.18505,59.8116114 147.998447,67.9982143 C139.811845,76.1848168 134.479293,87.2256223 133.622031,99.500059 L133.622031,99.500059 L-0.5,99.4999998 L-0.5,-0.5 L179.499997,-0.5 Z" id="形状结合"></path>
                    </g>
                    <polygon id="矩形" fill="#FFFFFF" points="134.16 100 135.16 100 135.08 101 134.08 101"></polygon>
                    <rect id="矩形" fill="#FFFFFF" x="180" y="0" width="1" height="1"></rect>
                    <polyline id="路径-14" stroke="#FFFFFF" points="0.5 96.5 0.5 100.5 3.5 100.5"></polyline>
                    <polygon id="矩形" fill="#FFFFFF" points="1.13742349e-13 35 3 35 3 66 1.13742349e-13 66"></polygon>
                    <polyline id="路径-14" stroke="#FFFFFF" transform="translate(2.000000, 2.500000) scale(1, -1) translate(-2.000000, -2.500000) " points="0.5 0.5 0.5 4.5 3.5 4.5"></polyline>
                </g>
            </g>
            <g id="左下备份" transform="translate(0.000000, 107.000000)">
                <g id="左下" transform="translate(90.500000, 50.500000) scale(1, -1) translate(-90.500000, -50.500000) ">
                    <path d="M180,1 L180.000292,54.1576651 C155.575816,56.0909386 136.091172,75.5755826 134.157898,100.000059 L1,100 L1,1 L180,1 Z" id="形状结合" fill-opacity="0.839999974" fill="#1F2426" fill-rule="nonzero"></path>
                    <g id="颜色" transform="translate(1.000000, 1.000000)" fill="#3887FB" fill-opacity="0.3" stroke="#3887FB" stroke-opacity="0.615590342">
                        <path d="M179.499997,-0.5 L179.500294,53.6217977 C167.225857,54.4790595 156.18505,59.8116114 147.998447,67.9982143 C139.811845,76.1848168 134.479293,87.2256223 133.622031,99.500059 L133.622031,99.500059 L-0.5,99.4999998 L-0.5,-0.5 L179.499997,-0.5 Z" id="形状结合"></path>
                    </g>
                    <polygon id="矩形" fill="#FFFFFF" points="134.16 100 135.16 100 135.08 101 134.08 101"></polygon>
                    <rect id="矩形" fill="#FFFFFF" x="180" y="0" width="1" height="1"></rect>
                    <polyline id="路径-14" stroke="#FFFFFF" points="0.5 96.5 0.5 100.5 3.5 100.5"></polyline>
                    <polygon id="矩形" fill="#FFFFFF" points="1.13742349e-13 35 3 35 3 66 1.13742349e-13 66"></polygon>
                    <polyline id="路径-14" stroke="#FFFFFF" transform="translate(2.000000, 2.500000) scale(1, -1) translate(-2.000000, -2.500000) " points="0.5 0.5 0.5 4.5 3.5 4.5"></polyline>
                </g>
            </g>
            <g id="左上">
                <g id="颜色" transform="translate(1.000000, 1.000000)" fill="#3887FB">
                    <path d="M179,0 L179.000292,53.1576651 C154.575816,55.0909386 135.091172,74.5755826 133.157898,99.0000588 L0,99 L0,0 L179,0 Z" id="形状结合" fill-opacity="0.839999974" fill-rule="nonzero"></path>
                    <path d="M179.499997,-0.5 L179.500294,53.6217977 C167.225857,54.4790595 156.18505,59.8116114 147.998447,67.9982143 C139.811845,76.1848168 134.479293,87.2256223 133.622031,99.500059 L133.622031,99.500059 L-0.5,99.4999998 L-0.5,-0.5 L179.499997,-0.5 Z" id="形状结合" stroke-opacity="0.615590342" stroke="#3887FB" fill-opacity="0.3"></path>
                </g>
                <polygon id="矩形" fill="#FFFFFF" points="134.16 100 135.16 100 135.08 101 134.08 101"></polygon>
                <rect id="矩形" fill="#FFFFFF" x="180" y="0" width="1" height="1"></rect>
                <polyline id="路径-14" stroke="#FFFFFF" points="0.5 96.5 0.5 100.5 3.5 100.5"></polyline>
                <polygon id="矩形" fill="#30F9C0" points="1.13742349e-13 35 3 35 3 66 1.13742349e-13 66"></polygon>
                <polyline id="路径-14" stroke="#FFFFFF" transform="translate(2.000000, 2.500000) scale(1, -1) translate(-2.000000, -2.500000) " points="0.5 0.5 0.5 4.5 3.5 4.5"></polyline>
            </g>
        </g>
    </g>
</svg>