<?xml version="1.0" encoding="UTF-8"?>
<svg width="128px" height="71px" viewBox="0 0 128 71" version="1.1" xmlns="http://www.w3.org/2000/svg" xmlns:xlink="http://www.w3.org/1999/xlink">
    <title>沉浸式/切换/4预警事件-悬停</title>
    <defs>
        <linearGradient x1="50%" y1="0%" x2="50%" y2="100%" id="linearGradient-1">
            <stop stop-color="#38B7FD" offset="0%"></stop>
            <stop stop-color="#21668E" stop-opacity="0" offset="53.7086327%"></stop>
            <stop stop-color="#38B7FD" offset="100%"></stop>
        </linearGradient>
        <linearGradient x1="50%" y1="0%" x2="50%" y2="100%" id="linearGradient-2">
            <stop stop-color="#25F0FF" offset="0%"></stop>
            <stop stop-color="#33AAEC" offset="51.7007041%"></stop>
            <stop stop-color="#25F0FF" offset="99.9475012%"></stop>
        </linearGradient>
    </defs>
    <g id="控件" stroke="none" stroke-width="1" fill="none" fill-rule="evenodd" opacity="0.639999986">
        <g id="3.导航/区域/0" transform="translate(-1040.000000, -6.000000)">
            <g id="区域备份-2" transform="translate(476.000000, 6.000000)">
                <g id="编组-8" transform="translate(564.000000, 0.000000)">
                    <g id="背景备份">
                        <polygon id="路径" fill="#167BB0" points="79 6.98209965 86 0 116 0 122 5.98465684 122 45.8823691 98 69.8209965 30 69.8209965 6 45.8823691 6 5.98465684 12 0 42 0 49 6.98209965"></polygon>
                        <path d="M18.896634,0.25 L25.896634,7.23209965 L31.1046478,7.23209965 L24.1046478,0.25 L27.396634,0.25 L34.396634,7.23209965 L39.6046478,7.23209965 L32.6046478,0.25 L41.896634,0.25 L48.896634,7.23209965 L79.103366,7.23209965 L86.103366,0.25 L95.3953522,0.25 L88.3953522,7.23209965 L93.603366,7.23209965 L100.603366,0.25 L103.895352,0.25 L96.8953522,7.23209965 L102.103366,7.23209965 L109.103366,0.25 L115.896634,0.25 L121.75,6.08839777 L121.75,45.7786282 L97.896634,69.5709965 L30.103366,69.5709965 L6.25,45.7786282 L6.25,6.08839777 L12.103366,0.25 L18.896634,0.25 Z M81.3953052,0.25 L77.3966421,4.238 L50.6033579,4.238 L46.6046948,0.25 L81.3953052,0.25 Z" id="形状" stroke="url(#linearGradient-2)" stroke-width="0.5" fill="url(#linearGradient-1)"></path>
                        <polyline id="路径" stroke="#0188CF" stroke-linejoin="round" points="23.1794624 70 2.5 49.3734189 2.5 38.9002695"></polyline>
                        <polyline id="路径" stroke="#0188CF" stroke-linejoin="round" transform="translate(115.160269, 54.450135) scale(-1, 1) translate(-115.160269, -54.450135) " points="125.5 70 104.820538 49.3734189 104.820538 38.9002695"></polyline>
                        <path d="M2.75,10.2244281 L2.75,34.6604982 L0.25,34.6604982 L0.25,10.2244281 L2.75,10.2244281 Z M127.75,10.2244281 L127.75,34.6604982 L125.25,34.6604982 L125.25,10.2244281 L127.75,10.2244281 Z" id="形状结合" stroke="#0188CF" stroke-width="0.5" fill="#003D5E" fill-rule="nonzero"></path>
                    </g>
                    <text id="区域切换" font-family="PingFangSC-Regular, PingFang SC" font-size="14" font-weight="normal" fill="#FFFFFF">
                        <tspan x="36" y="61">预警事件</tspan>
                    </text>
                    <g id="区域icon" transform="translate(52.600000, 14.000000)" fill="#FFFFFF" fill-rule="nonzero">
                        <g id="1.图标/2.设计/" transform="translate(0.000000, 0.000000)">
                            <path d="M18.7431551,27.9060341 L4.12936101,27.9060341 C1.84992128,27.9060341 0,26.5393845 0,24.2153195 L0,6.27999591 C0,3.9574522 1.8788263,2.07507617 4.19731316,2.07304775 L4.19731316,2.13745016 C4.19832737,4.42449647 6.04875575,6.27746038 8.33073101,6.27746038 L14.8556835,6.27746038 C17.1376587,6.27746038 18.9880871,4.42398937 18.9885942,2.13745016 L18.9885942,2.07304775 L19.0159779,2.07304775 C21.3385216,2.07304775 22.8,3.82509764 22.8,6.14916266 L22.8,23.8491892 C22.8,26.0897228 20.9836887,27.9060341 18.7431551,27.9060341 Z M6.18060321,11.3054125 C5.60946516,11.3062522 5.14706852,11.7697838 5.14762705,12.3409222 C5.14706852,12.9120606 5.60946516,13.3755922 6.18060321,13.3764319 L16.5808568,13.3764319 C16.8552221,13.376163 17.1182432,13.2669139 17.3120586,13.0727181 C17.505874,12.8785224 17.6146071,12.6152875 17.614339,12.3409222 C17.6146071,12.0665569 17.505874,11.803322 17.3120586,11.6091262 C17.1182432,11.4149305 16.8552221,11.3056814 16.5808568,11.3054125 L6.18060321,11.3054125 Z M6.18060321,15.4474512 C5.60946516,15.4482908 5.14706852,15.9118225 5.14762705,16.4829608 C5.14706852,17.0540992 5.60946516,17.5176309 6.18060321,17.5184705 L13.0311175,17.5184705 C13.3054828,17.5182017 13.568504,17.4089526 13.7623193,17.2147568 C13.9561347,17.020561 14.0648678,16.7573261 14.0645987,16.4829608 C14.0648678,16.2085956 13.9561347,15.9453607 13.7623193,15.7511649 C13.568504,15.5569691 13.3054828,15.44772 13.0311175,15.4474512 L16.5808568,15.4474512 L6.18060321,15.4474512 Z M6.18060321,20.0114017 C5.60946516,20.0122413 5.14706852,20.475773 5.14762705,21.0469114 C5.14706852,21.6180497 5.60946516,22.0815814 6.18060321,22.082421 L10.4955894,22.082421 C10.7699547,22.0821522 11.0329759,21.9729031 11.2267912,21.7787073 C11.4206066,21.5845115 11.5293398,21.3212767 11.5290706,21.0469114 C11.5293398,20.7725461 11.4206066,20.5093112 11.2267912,20.3151154 C11.0329759,20.1209196 10.7699547,20.0116706 10.4955894,20.0114017 L16.5808568,20.0114017 L6.18060321,20.0114017 Z M8.39766895,4.20644392 C7.84908346,4.20657609 7.32295747,3.98857228 6.93523923,3.60047355 C6.54752099,3.21237482 6.33003334,2.68603526 6.33070013,2.13745016 L6.33070013,2.07152643 C6.32930515,0.929051718 7.2541804,0.00167925172 8.39665474,0 L14.8561906,0 C15.9986648,0.00139954212 16.9237669,0.928544788 16.922648,2.07101932 L16.922648,2.13694305 C16.922648,2.68664554 16.7050976,3.21302116 16.317669,3.60095696 C15.9303578,3.98902395 15.4044658,4.20689871 14.8561906,4.20644392 L8.39766895,4.20644392 Z" id="形状"></path>
                        </g>
                    </g>
                </g>
            </g>
        </g>
    </g>
</svg>