<?xml version="1.0" encoding="UTF-8"?>
<svg width="128px" height="71px" viewBox="0 0 128 71" version="1.1" xmlns="http://www.w3.org/2000/svg" xmlns:xlink="http://www.w3.org/1999/xlink">
    <title>沉浸式/切换/2楼栋信息-选择</title>
    <defs>
        <linearGradient x1="50%" y1="0%" x2="50%" y2="100%" id="linearGradient-1">
            <stop stop-color="#38B7FD" offset="0%"></stop>
            <stop stop-color="#21668E" stop-opacity="0" offset="53.7086327%"></stop>
            <stop stop-color="#38B7FD" offset="100%"></stop>
        </linearGradient>
        <linearGradient x1="50%" y1="0%" x2="50%" y2="100%" id="linearGradient-2">
            <stop stop-color="#25F0FF" offset="0%"></stop>
            <stop stop-color="#33AAEC" offset="51.7007041%"></stop>
            <stop stop-color="#25F0FF" offset="99.9475012%"></stop>
        </linearGradient>
    </defs>
    <g id="控件" stroke="none" stroke-width="1" fill="none" fill-rule="evenodd">
        <g id="3.导航/区域/0" transform="translate(-664.000000, -50.000000)">
            <g id="区域备份" transform="translate(476.000000, 50.000000)">
                <g id="编组-8" transform="translate(188.000000, 0.000000)">
                    <g id="背景备份">
                        <polygon id="路径" fill="#167BB0" points="79 6.98209965 86 0 116 0 122 5.98465684 122 45.8823691 98 69.8209965 30 69.8209965 6 45.8823691 6 5.98465684 12 0 42 0 49 6.98209965"></polygon>
                        <path d="M18.896634,0.25 L25.896634,7.23209965 L31.1046478,7.23209965 L24.1046478,0.25 L27.396634,0.25 L34.396634,7.23209965 L39.6046478,7.23209965 L32.6046478,0.25 L41.896634,0.25 L48.896634,7.23209965 L79.103366,7.23209965 L86.103366,0.25 L95.3953522,0.25 L88.3953522,7.23209965 L93.603366,7.23209965 L100.603366,0.25 L103.895352,0.25 L96.8953522,7.23209965 L102.103366,7.23209965 L109.103366,0.25 L115.896634,0.25 L121.75,6.08839777 L121.75,45.7786282 L97.896634,69.5709965 L30.103366,69.5709965 L6.25,45.7786282 L6.25,6.08839777 L12.103366,0.25 L18.896634,0.25 Z M81.3953052,0.25 L77.3966421,4.238 L50.6033579,4.238 L46.6046948,0.25 L81.3953052,0.25 Z" id="形状" stroke="url(#linearGradient-2)" stroke-width="0.5" fill="url(#linearGradient-1)"></path>
                        <polyline id="路径" stroke="#0188CF" stroke-linejoin="round" points="23.1794624 70 2.5 49.3734189 2.5 38.9002695"></polyline>
                        <polyline id="路径" stroke="#0188CF" stroke-linejoin="round" transform="translate(115.160269, 54.450135) scale(-1, 1) translate(-115.160269, -54.450135) " points="125.5 70 104.820538 49.3734189 104.820538 38.9002695"></polyline>
                        <path d="M2.75,10.2244281 L2.75,34.6604982 L0.25,34.6604982 L0.25,10.2244281 L2.75,10.2244281 Z M127.75,10.2244281 L127.75,34.6604982 L125.25,34.6604982 L125.25,10.2244281 L127.75,10.2244281 Z" id="形状结合" stroke="#0188CF" stroke-width="0.5" fill="#003D5E" fill-rule="nonzero"></path>
                    </g>
                    <text id="区域切换" font-family="PingFangSC-Regular, PingFang SC" font-size="14" font-weight="normal" fill="#FFFFFF">
                        <tspan x="36" y="61">楼栋信息</tspan>
                    </text>
                    <g id="区域icon" transform="translate(48.000000, 16.000000)" fill="#FFFFFF" fill-rule="nonzero">
                        <g id="1.图标/2.设计/">
                            <path d="M16.2,0 C16.6418278,2.98598523e-17 17,0.3581722 17,0.8 L17,22 L19,22 L19,2.03464275 C19,1.81372885 19.1790861,1.63464275 19.4,1.63464275 C19.512698,1.63464275 19.6201672,1.68218387 19.695976,1.76557363 L28.5839041,11.5422945 C28.8516452,11.8368097 29,12.2205453 29,12.618571 L29,22 L30.5,22 C31.3284271,22 32,22.6715729 32,23.5 C32,24.3284271 31.3284271,25 30.5,25 L1.5,25 C0.671572875,25 1.01453063e-16,24.3284271 0,23.5 C-1.01453063e-16,22.6715729 0.671572875,22 1.5,22 L3,22 L3,0.8 C3,0.3581722 3.3581722,-1.40882155e-16 3.8,0 L16.2,0 Z M11.6,10 L8.4,10 C8.1790861,10 8,10.1790861 8,10.4 L8,10.4 L8,22 L12,22 L12,10.4 C12,10.1790861 11.8209139,10 11.6,10 L11.6,10 Z" id="形状结合"></path>
                        </g>
                    </g>
                </g>
            </g>
        </g>
    </g>
</svg>