<?xml version="1.0" encoding="UTF-8"?>
<svg width="128px" height="71px" viewBox="0 0 128 71" version="1.1" xmlns="http://www.w3.org/2000/svg" xmlns:xlink="http://www.w3.org/1999/xlink">
    <title>沉浸式/切换/3智慧停车-默认</title>
    <defs>
        <linearGradient x1="50%" y1="0%" x2="50%" y2="100%" id="linearGradient-1">
            <stop stop-color="#25F0FF" offset="0%"></stop>
            <stop stop-color="#33AAEC" offset="51.7007041%"></stop>
            <stop stop-color="#25F0FF" offset="99.9475012%"></stop>
        </linearGradient>
        <linearGradient x1="50%" y1="0%" x2="50%" y2="100%" id="linearGradient-2">
            <stop stop-color="#25F0FF" offset="0%"></stop>
            <stop stop-color="#33AAEC" offset="51.7007041%"></stop>
            <stop stop-color="#25F0FF" offset="99.9475012%"></stop>
        </linearGradient>
        <linearGradient x1="50%" y1="0%" x2="50%" y2="100%" id="linearGradient-3">
            <stop stop-color="#25F0FF" offset="0%"></stop>
            <stop stop-color="#33AAEC" offset="51.7007041%"></stop>
            <stop stop-color="#25F0FF" offset="99.9475012%"></stop>
        </linearGradient>
    </defs>
    <g id="控件" stroke="none" stroke-width="1" fill="none" fill-rule="evenodd">
        <g id="3.导航/区域/0" transform="translate(-852.000000, -154.000000)">
            <g id="区域" transform="translate(476.000000, 154.000000)">
                <g id="编组-8" transform="translate(376.000000, 0.000000)">
                    <g id="背景备份">
                        <polygon id="路径" fill="#00334E" opacity="0.561774844" points="79 6.98209965 86 0 116 0 122 5.98465684 122 45.8823691 98 69.8209965 30 69.8209965 6 45.8823691 6 5.98465684 12 0 42 0 49 6.98209965"></polygon>
                        <path d="M18.896634,0.25 L25.896634,7.23209965 L31.1046478,7.23209965 L24.1046478,0.25 L27.396634,0.25 L34.396634,7.23209965 L39.6046478,7.23209965 L32.6046478,0.25 L41.896634,0.25 L48.896634,7.23209965 L79.103366,7.23209965 L86.103366,0.25 L95.3953522,0.25 L88.3953522,7.23209965 L93.603366,7.23209965 L100.603366,0.25 L103.895352,0.25 L96.8953522,7.23209965 L102.103366,7.23209965 L109.103366,0.25 L115.896634,0.25 L121.75,6.08839777 L121.75,45.7786282 L97.896634,69.5709965 L30.103366,69.5709965 L6.25,45.7786282 L6.25,6.08839777 L12.103366,0.25 L18.896634,0.25 Z M81.3953052,0.25 L77.3966421,4.238 L50.6033579,4.238 L46.6046948,0.25 L81.3953052,0.25 Z" id="形状" stroke="url(#linearGradient-1)" stroke-width="0.5"></path>
                        <path d="M23.1794624,70 L2.5,49.3734189 L2.5,38.9002695" id="路径" stroke="url(#linearGradient-2)" stroke-width="0.5"></path>
                        <path d="M125.5,70 L104.820538,49.3734189 L104.820538,38.9002695" id="路径" stroke="url(#linearGradient-2)" stroke-width="0.5" transform="translate(115.160269, 54.450135) scale(-1, 1) translate(-115.160269, -54.450135) "></path>
                        <path d="M2.75,10.2244281 L2.75,34.6604982 L0.25,34.6604982 L0.25,10.2244281 L2.75,10.2244281 Z M127.75,10.2244281 L127.75,34.6604982 L125.25,34.6604982 L125.25,10.2244281 L127.75,10.2244281 Z" id="形状结合" stroke="url(#linearGradient-3)" stroke-width="0.5"></path>
                    </g>
                    <g id="区域icon" transform="translate(48.000000, 17.000000)" fill="#FFFFFF" fill-rule="nonzero">
                        <g id="1.图标/2.设计/">
                            <path d="M16,0 C22.0650888,0 27,4.93491124 27,11 C27,17.0650888 22.0650888,22 16,22 C9.93491124,22 5,17.0650888 5,11 C5,4.93491124 9.93491127,0 16,0 Z M15.7396022,6.6 C15.1898734,6.6 14.6517179,6.68101266 14.1367089,6.84303797 C13.6564195,6.99349006 13.3265823,7.4448463 13.3265823,7.94828209 L13.3265823,15.0889692 L15.6412297,15.0889692 L15.6412297,13.561302 L15.7396022,13.561302 C18.5808318,13.561302 20.0679928,11.8079566 20.0679928,10.0835443 C20.0679928,8.12766728 18.1699819,6.6 15.7396022,6.6 Z M15.6412297,8.92043399 C16.8216998,8.90307415 17.7475588,9.52224231 17.7475588,10.0835443 C17.7533454,10.7663653 16.925859,11.2466546 15.7396022,11.2466546 L15.6412297,11.2466546 L15.6412297,8.92043399 Z M29.077713,4.81558838 C29.7301535,4.51591756 30.5019922,4.80189387 30.801663,5.45433434 C31.5940435,7.17949759 32.0098061,9.0616264 32.0098061,11 C32.0098061,12.9375376 31.5944024,14.8188837 30.8026798,16.5434513 C30.5031291,17.1959469 29.731343,17.4820653 29.0788474,17.1825146 C28.4263518,16.8829638 28.1402334,16.1111778 28.4397842,15.4586821 C29.0760592,14.0727177 29.4098061,12.5611919 29.4098061,11 C29.4098061,9.43813552 29.0757711,7.92598221 28.438967,6.53953838 C28.1392962,5.88709791 28.4252725,5.11525921 29.077713,4.81558838 Z M1.2081431,5.45433434 C1.50781392,4.80189387 2.27965263,4.51591756 2.9320931,4.81558838 C3.58453357,5.11525921 3.87050988,5.88709791 3.57083906,6.53953838 C2.93403497,7.92598221 2.6,9.43813552 2.6,11 C2.6,12.5611919 2.93374691,14.0727177 3.57002193,15.4586821 C3.86957266,16.1111778 3.5834543,16.8829638 2.93095868,17.1825146 C2.27846306,17.4820653 1.50667701,17.1959469 1.20712628,16.5434513 C0.415403724,14.8188837 0,12.9375376 0,11 C0,9.0616264 0.415762631,7.17949759 1.2081431,5.45433434 Z" id="形状"></path>
                        </g>
                    </g>
                    <text id="区域切换" font-family="PingFangSC-Regular, PingFang SC" font-size="14" font-weight="normal" fill="#FFFFFF">
                        <tspan x="36" y="61">智慧停车</tspan>
                    </text>
                </g>
            </g>
        </g>
    </g>
</svg>