<?xml version="1.0" encoding="UTF-8"?>
<svg width="16px" height="16px" viewBox="0 0 16 16" version="1.1" xmlns="http://www.w3.org/2000/svg" xmlns:xlink="http://www.w3.org/1999/xlink">
    <title>1.图标/2.设计/car-fff</title>
    <g id="1.图标/2.设计/car-fff" stroke="none" stroke-width="1" fill="none" fill-rule="evenodd">
        <path d="M15.6245978,5.49996844 L13.7536711,5.49996844 L13.2336741,4.1999759 C12.6993021,2.86342107 11.4239969,1.99998852 9.98431771,1.99998852 L6.01559048,1.99998852 C4.57622374,1.99998852 3.30060606,2.86342107 2.76592163,4.1999759 L2.24592461,5.49996844 L0.375310346,5.49996844 C0.131249247,5.49996844 -0.0478122256,5.72934212 0.0115624337,5.96590327 L0.199061358,6.71589896 C0.240623619,6.882773 0.390622758,6.99995983 0.56280927,6.99995983 L1.18999317,6.99995983 C0.77030808,7.36652023 0.499997131,7.89932967 0.499997131,8.49995122 L0.499997131,9.99994262 C0.499997131,10.5036897 0.692496026,10.9583746 0.999994262,11.3102476 L0.999994262,12.9999254 C0.999994262,13.5521097 1.44780419,13.9999197 1.99998852,13.9999197 L2.99998279,13.9999197 C3.55216712,13.9999197 3.99997705,13.5521097 3.99997705,12.9999254 L3.99997705,11.9999311 L11.9999311,11.9999311 L11.9999311,12.9999254 C11.9999311,13.5521097 12.4477411,13.9999197 12.9999254,13.9999197 L13.9999197,13.9999197 C14.552104,13.9999197 14.9999139,13.5521097 14.9999139,12.9999254 L14.9999139,11.3102476 C15.3074122,10.9586871 15.4999111,10.5040022 15.4999111,9.99994262 L15.4999111,8.49995122 C15.4999111,7.89932967 15.2296001,7.36652023 14.8102275,6.99995983 L15.4374114,6.99995983 C15.6095979,6.99995983 15.7595971,6.882773 15.8011593,6.71589896 L15.9886583,5.96590327 C16.0477204,5.72934212 15.8686589,5.49996844 15.6245978,5.49996844 Z M4.62278597,4.94278414 C4.85059717,4.3734124 5.4021565,3.99997705 6.01559048,3.99997705 L9.98431771,3.99997705 C10.5977517,3.99997705 11.149311,4.3734124 11.3771222,4.94278414 L11.9999311,6.4999627 L3.99997705,6.4999627 L4.62278597,4.94278414 Z M2.99998852,9.99369265 C2.39998623,9.99369265 1.99998852,9.59494494 1.99998852,8.99682337 C1.99998852,8.39870181 2.39998623,7.99995409 2.99998852,7.99995409 C3.59997934,7.99995409 4.49997418,8.89713645 4.49997418,9.49525801 C4.49997418,10.0933796 3.59997934,9.99369265 2.99998852,9.99369265 Z M12.999934,9.99369265 C12.3999288,9.99369265 11.499934,10.0933796 11.499934,9.49525801 C11.499934,8.89713645 12.3999288,7.99995409 12.999934,7.99995409 C13.599922,7.99995409 13.9999197,8.39870181 13.9999197,8.99682337 C13.9999197,9.59494494 13.599922,9.99369265 12.999934,9.99369265 L12.999934,9.99369265 Z" id="形状" fill="#FFFFFF"></path>
    </g>
</svg>