<?xml version="1.0" encoding="UTF-8"?>
<svg width="28px" height="28px" viewBox="0 0 28 28" version="1.1" xmlns="http://www.w3.org/2000/svg" xmlns:xlink="http://www.w3.org/1999/xlink">
    <title>设备故障分析/icon</title>
    <defs>
        <linearGradient x1="99.0712413%" y1="0.928758741%" x2="-3.33066907e-13%" y2="100%" id="linearGradient-1">
            <stop stop-color="#06439B" stop-opacity="0.639204545" offset="0%"></stop>
            <stop stop-color="#001330" stop-opacity="0" offset="100%"></stop>
        </linearGradient>
    </defs>
    <g id="控件" stroke="none" stroke-width="1" fill="none" fill-rule="evenodd">
        <g id="设备故障分析/icon" transform="translate(1.000000, 1.000000)">
            <rect id="矩形" stroke="#45515D" fill-opacity="0.4" fill="url(#linearGradient-1)" x="0" y="0" width="26" height="26" rx="4"></rect>
            <path d="M26,20.5 L24.5,20.5 C22.290861,20.5 20.5,22.290861 20.5,24.5 L20.5,26 L20.5,26" id="路径-13" stroke="#2FF9C0" stroke-linecap="round" transform="translate(23.250000, 23.250000) scale(-1, -1) translate(-23.250000, -23.250000) "></path>
            <path d="M5.5,0 L4,0 C1.790861,4.05812251e-16 -2.705415e-16,1.790861 0,4 L0,5.5 L0,5.5" id="路径-13" stroke="#2FF9C0" stroke-linecap="round"></path>
            <g id="1.图标/1.使用/16" transform="translate(7.000000, 7.000000)" fill="#FFFFFF" fill-rule="nonzero">
                <g id="1.图标/2.设计/" transform="translate(-0.000000, 0.000000)">
                    <g id="故障:故障管理" transform="translate(-0.000000, 0.000000)">
                        <rect id="矩形" opacity="0" x="4.24457617e-06" y="3.60050713e-06" width="11.9999936" height="11.9999936"></rect>
                        <path d="M11.2049945,10.5599945 C11.0201771,10.5601623 10.8560695,10.4418321 10.797852,10.2664234 L8.92928259,4.67785791 L8.92928259,4.66071507 L7.56642689,0.589290828 C7.45049208,0.236875351 7.12099331,-0.000951847471 6.74999919,2.86387873e-06 L5.65714321,2.86387873e-06 C5.2888656,0.000285034898 4.9619293,0.235782686 4.84500122,0.585005119 L1.60929039,10.2664234 C1.55107296,10.4418321 1.38696537,10.5601623 1.20214796,10.5599945 L0.720005621,10.5599945 C0.528875357,10.5594231 0.345408556,10.6350964 0.210258446,10.7702466 C0.0751083364,10.9053967 -0.000565005512,11.0888635 3.176607e-06,11.2799937 C-0.000565005512,11.471124 0.0751083364,11.6545908 0.210258446,11.7897409 C0.345408556,11.924891 0.528875357,12.0005644 0.720005621,12.0000029 L11.2799944,12.0000029 C11.4711246,12.0005644 11.6545914,11.924891 11.7897415,11.7897409 C11.9248917,11.6545908 12.000565,11.471124 12.0000032,11.2799937 C12.000565,11.0888635 11.9248917,10.9053967 11.7897415,10.7702466 C11.6545914,10.6350964 11.4711246,10.5594231 11.2799944,10.5599945 L11.2049945,10.5599945 Z M5.86285729,1.07143317 L6.58928508,1.07143317 C6.68704029,1.07371318 6.772814,1.13718573 6.80357056,1.23000444 C6.82551823,1.29162318 6.82062228,1.35962158 6.79007354,1.41746053 C6.7595248,1.47529947 6.70612282,1.51767849 6.64285645,1.53428982 L5.82642875,1.7485753 C5.75188417,1.76636824 5.67351238,1.74299571 5.62089047,1.6872784 C5.56826857,1.63156109 5.54940891,1.55198267 5.57142903,1.4785756 L5.65500036,1.22143301 C5.6834467,1.13093686 5.76800774,1.06991344 5.86285729,1.07143317 L5.86285729,1.07143317 Z M4.85785836,4.0371443 L7.18714158,3.41357353 C7.40862093,3.34876802 7.64164848,3.47096539 7.71428388,3.69000181 L7.96928362,4.45071529 C8.00703104,4.56293915 7.99666897,4.68577917 7.9406556,4.79009392 C7.88464223,4.89440867 7.78796896,4.97090259 7.67356965,5.00142899 L4.77642987,5.78571387 C4.62415104,5.82684777 4.46158541,5.78100841 4.35322716,5.6663815 C4.2448689,5.55175459 4.20823496,5.38687043 4.25785899,5.23714303 L4.56214438,4.32642971 C4.60457048,4.1856619 4.71619221,4.07646673 4.85785836,4.0371443 Z M3.41571703,8.37642539 L8.39785459,7.03928396 C8.61722976,6.97996652 8.84476489,7.10219613 8.91642547,7.31785509 L9.30428219,8.48356814 C9.34140157,8.59522716 9.33097909,8.71723647 9.27545908,8.8209819 C9.21993906,8.92472732 9.1242058,9.00108203 9.01071108,9.03213898 L3.36643137,10.5449945 C3.33018391,10.5552345 3.29266792,10.5602848 3.25500292,10.5600063 L3.08143167,10.5600063 C2.94369949,10.5601196 2.8143,10.4940416 2.73364358,10.3823962 C2.65298716,10.2707507 2.63090354,10.1271442 2.67428925,9.99642366 L3.12000306,8.65499652 C3.16550517,8.5183502 3.27659989,8.41369576 3.41571703,8.37642539 L3.41571703,8.37642539 Z" id="形状"></path>
                    </g>
                </g>
            </g>
        </g>
    </g>
</svg>