<?xml version="1.0" encoding="UTF-8"?>
<svg width="16px" height="16px" viewBox="0 0 16 16" version="1.1" xmlns="http://www.w3.org/2000/svg" xmlns:xlink="http://www.w3.org/1999/xlink">
    <title>1.图标/2.设计/equipment-渐变</title>
    <defs>
        <linearGradient x1="50%" y1="0.855004371%" x2="50%" y2="99.9808785%" id="linearGradient-1">
            <stop stop-color="#19F2FF" offset="0.0191215035%"></stop>
            <stop stop-color="#107FDB" offset="100%"></stop>
        </linearGradient>
    </defs>
    <g id="1.图标/2.设计/equipment-渐变" stroke="none" stroke-width="1" fill="none" fill-rule="evenodd">
        <path d="M15.5,10.399 L15.5,13 C15.5,13.5522847 15.0522847,14 14.5,14 L1.5,14 C0.94771525,14 0.5,13.5522847 0.5,13 L0.5,10.399 L15.5,10.399 Z M13.5,11.75 L12.5,11.75 C12.2238576,11.75 12,11.9738576 12,12.25 C12,12.5261424 12.2238576,12.75 12.5,12.75 L12.5,12.75 L13.5,12.75 C13.7761424,12.75 14,12.5261424 14,12.25 C14,11.9738576 13.7761424,11.75 13.5,11.75 L13.5,11.75 Z M15.5,6.399 L15.5,9.6 L0.5,9.6 L0.5,6.399 L15.5,6.399 Z M13.5,7.5 L12.5,7.5 C12.2238576,7.5 12,7.72385763 12,8 C12,8.27614237 12.2238576,8.5 12.5,8.5 L12.5,8.5 L13.5,8.5 C13.7761424,8.5 14,8.27614237 14,8 C14,7.72385763 13.7761424,7.5 13.5,7.5 L13.5,7.5 Z M14.5,2 C15.0522847,2 15.5,2.44771525 15.5,3 L15.5,5.6 L0.5,5.6 L0.5,3 C0.5,2.44771525 0.94771525,2 1.5,2 L14.5,2 Z M13.5,3.25 L12.5,3.25 C12.2238576,3.25 12,3.47385763 12,3.75 C12,4.02614237 12.2238576,4.25 12.5,4.25 L12.5,4.25 L13.5,4.25 C13.7761424,4.25 14,4.02614237 14,3.75 C14,3.47385763 13.7761424,3.25 13.5,3.25 L13.5,3.25 Z" id="形状结合" fill="url(#linearGradient-1)"></path>
    </g>
</svg>