<?xml version="1.0" encoding="UTF-8"?>
<svg width="16px" height="16px" viewBox="0 0 16 16" version="1.1" xmlns="http://www.w3.org/2000/svg" xmlns:xlink="http://www.w3.org/1999/xlink">
    <title>1.图标/2.设计/money-渐变</title>
    <defs>
        <linearGradient x1="50%" y1="0.855004371%" x2="50%" y2="99.9808785%" id="linearGradient-1">
            <stop stop-color="#19F2FF" offset="0.0191215035%"></stop>
            <stop stop-color="#107FDB" offset="100%"></stop>
        </linearGradient>
    </defs>
    <g id="1.图标/2.设计/money-渐变" stroke="none" stroke-width="1" fill="none" fill-rule="evenodd">
        <path d="M8.16,1.132 C8.18133333,1.132 8.208,1.12133333 8.24,1.1 C8.304,1.05733333 8.38933333,0.982666667 8.496,0.876 C8.624,0.758666667 8.752,0.673333333 8.88,0.62 C9.008,0.566666667 9.17866667,0.582666667 9.392,0.668 C9.49866667,0.7 9.584,0.745333333 9.648,0.804 C9.712,0.862666667 9.77333333,0.918666667 9.832,0.972 C9.89066667,1.02533333 9.95466667,1.07066667 10.024,1.108 C10.0933333,1.14533333 10.1813333,1.164 10.288,1.164 C10.3946667,1.164 10.4853333,1.148 10.56,1.116 C10.6346667,1.084 10.7066667,1.05466667 10.776,1.028 C10.8453333,1.00133333 10.9146667,0.982666667 10.984,0.972 C11.0533333,0.961333333 11.136,0.972 11.232,1.004 C11.3386667,1.04666667 11.4106667,1.108 11.448,1.188 C11.4853333,1.268 11.496,1.35066667 11.48,1.436 C11.464,1.52133333 11.4266667,1.60666667 11.368,1.692 C11.3093333,1.77733333 11.2373333,1.84666667 11.152,1.9 C10.9493333,2.028 10.7946667,2.15866667 10.688,2.292 C10.5813333,2.42533333 10.4746667,2.56666667 10.368,2.716 C10.3146667,2.79066667 10.256,2.876 10.192,2.972 C10.128,3.068 10.0693333,3.164 10.016,3.26 C9.952,3.37733333 9.88266667,3.48933333 9.808,3.596 L6.496,3.596 C6.42133333,3.468 6.34666667,3.34533333 6.272,3.228 C6.208,3.12133333 6.13866667,3.01466667 6.064,2.908 C5.98933333,2.80133333 5.92533333,2.70533333 5.872,2.62 C5.76533333,2.46 5.64533333,2.31866667 5.512,2.196 C5.37866667,2.07333333 5.248,1.964 5.12,1.868 C4.98133333,1.772 4.88533333,1.64133333 4.832,1.476 C4.77866667,1.31066667 4.82666667,1.16933333 4.976,1.052 C5.05066667,0.998666667 5.136,0.977333333 5.232,0.988 C5.328,0.998666667 5.42933333,1.02 5.536,1.052 C5.64266667,1.084 5.74666667,1.116 5.848,1.148 C5.94933333,1.18 6.04266667,1.18533333 6.128,1.164 C6.27733333,1.132 6.38933333,1.076 6.464,0.996 C6.53866667,0.916 6.66666667,0.817333333 6.848,0.7 C6.98666667,0.614666667 7.14133333,0.585333333 7.312,0.612 C7.48266667,0.638666667 7.61066667,0.694666667 7.696,0.78 C7.73866667,0.833333333 7.784,0.878666667 7.832,0.916 C7.88,0.953333333 7.93066667,0.988 7.984,1.02 C8.03733333,1.06266667 8.096,1.1 8.16,1.132 Z M9.968,4.332 C10.096,4.50266667 10.256,4.68933333 10.448,4.892 C10.608,5.07333333 10.8053333,5.27866667 11.04,5.508 C11.2746667,5.73733333 11.5466667,5.98 11.856,6.236 C12.112,6.46 12.376,6.724 12.648,7.028 C12.92,7.332 13.1573333,7.68666667 13.36,8.092 C13.5626667,8.49733333 13.704,8.964 13.784,9.492 C13.864,10.02 13.8506667,10.6093333 13.744,11.26 C13.648,11.7933333 13.4586667,12.2973333 13.176,12.772 C12.8933333,13.2466667 12.5173333,13.66 12.048,14.012 C11.5786667,14.364 11.0213333,14.644 10.376,14.852 C9.73066667,15.06 8.99733333,15.164 8.176,15.164 C7.33333333,15.164 6.58666667,15.044 5.936,14.804 C5.28533333,14.564 4.73333333,14.252 4.28,13.868 C3.82666667,13.484 3.46666667,13.0546667 3.2,12.58 C2.93333333,12.1053333 2.75733333,11.6333333 2.672,11.164 C2.576,10.6413333 2.56266667,10.14 2.632,9.66 C2.70133333,9.18 2.82666667,8.72933333 3.008,8.308 C3.18933333,7.88666667 3.416,7.5 3.688,7.148 C3.96,6.796 4.256,6.48133333 4.576,6.204 C4.85333333,5.95866667 5.104,5.72666667 5.328,5.508 C5.552,5.28933333 5.73866667,5.08933333 5.888,4.908 C6.06933333,4.70533333 6.22933333,4.51333333 6.368,4.332 L9.968,4.332 L9.968,4.332 Z M8.272,9.244 L7.84,8.812 L7.504,8.476 C7.39733333,8.36933333 7.32266667,8.28933333 7.28,8.236 C7.19466667,8.16133333 7.08266667,8.1 6.944,8.052 C6.80533333,8.004 6.688,8.03333333 6.592,8.14 C6.50666667,8.25733333 6.48533333,8.372 6.528,8.484 C6.57066667,8.596 6.61866667,8.684 6.672,8.748 L6.912,8.972 C7.02933333,9.1 7.15733333,9.23866667 7.296,9.388 C7.456,9.55866667 7.632,9.74 7.824,9.932 L7.808,10.268 L6.72,10.268 C6.624,10.268 6.54133333,10.3053333 6.472,10.38 C6.40266667,10.4546667 6.368,10.5346667 6.368,10.62 C6.368,10.7053333 6.4,10.78 6.464,10.844 C6.528,10.908 6.61333333,10.94 6.72,10.94 L7.808,10.94 L7.808,11.5 L6.72,11.5 C6.624,11.5 6.54133333,11.5293333 6.472,11.588 C6.40266667,11.6466667 6.368,11.724 6.368,11.82 C6.35733333,11.9053333 6.38666667,11.9773333 6.456,12.036 C6.52533333,12.0946667 6.61333333,12.124 6.72,12.124 L7.808,12.124 L7.808,12.444 C7.81866667,12.5933333 7.86666667,12.6973333 7.952,12.756 C8.03733333,12.8146667 8.144,12.844 8.272,12.844 C8.4,12.8546667 8.504,12.8146667 8.584,12.724 C8.664,12.6333333 8.704,12.54 8.704,12.444 L8.704,12.124 L9.824,12.124 C9.93066667,12.124 10.0186667,12.1 10.088,12.052 C10.1573333,12.004 10.1866667,11.9266667 10.176,11.82 C10.176,11.596 10.0266667,11.484 9.728,11.484 L8.704,11.484 L8.72,10.94 L9.76,10.924 C9.90933333,10.9346667 10.016,10.9053333 10.08,10.836 C10.144,10.7666667 10.176,10.684 10.176,10.588 C10.176,10.5026667 10.1413333,10.4253333 10.072,10.356 C10.0026667,10.2866667 9.89333333,10.252 9.744,10.252 L8.704,10.252 L8.704,9.948 C8.88533333,9.77733333 9.05066667,9.612 9.2,9.452 C9.328,9.324 9.456,9.19333333 9.584,9.06 C9.712,8.92666667 9.808,8.83333333 9.872,8.78 C10.1173333,8.56666667 10.1706667,8.38 10.032,8.22 C9.95733333,8.124 9.86133333,8.076 9.744,8.076 C9.62666667,8.076 9.52,8.11866667 9.424,8.204 C9.37066667,8.24666667 9.28,8.324 9.152,8.436 C9.024,8.548 8.896,8.66266667 8.768,8.78 C8.61866667,8.91866667 8.45333333,9.07333333 8.272,9.244 Z" id="形状" fill="url(#linearGradient-1)"></path>
    </g>
</svg>