<?xml version="1.0" encoding="UTF-8"?>
<svg width="16px" height="16px" viewBox="0 0 16 16" version="1.1" xmlns="http://www.w3.org/2000/svg" xmlns:xlink="http://www.w3.org/1999/xlink">
    <title>1.图标/2.设计/people-渐变</title>
    <defs>
        <linearGradient x1="50%" y1="0.855004371%" x2="50%" y2="99.9808785%" id="linearGradient-1">
            <stop stop-color="#19F2FF" offset="0.0191215035%"></stop>
            <stop stop-color="#107FDB" offset="100%"></stop>
        </linearGradient>
    </defs>
    <g id="1.图标/2.设计/people-渐变" stroke="none" stroke-width="1" fill="none" fill-rule="evenodd">
        <path d="M8.03710063,3.50989764 C8.67493724,3.49673645 9.28879903,3.75714651 9.72851565,4.22742315 C10.1682323,4.69769979 10.3932457,5.3344662 10.3485104,5.98194886 C10.3184379,7.04483292 9.89504789,8.0569779 9.16303505,8.81591521 C8.86685705,9.59954691 9.28135358,10.0212635 9.34318456,10.0212635 C10.6408717,10.44298 12.184356,11.3469912 12.243897,12.251779 L12.243897,12.251779 L12.243897,12.5531161 C12.243897,13.759241 10.0508057,14 8.03633728,14 C5.96232791,14 3.77,13.6986629 3.77,12.5531161 L3.77,12.5531161 L3.77,12.251779 C3.77,11.3477679 5.25165337,10.5035581 6.55544726,10.0212635 C6.90163282,9.72797402 7.02142751,9.24044858 6.85162526,8.81591521 C6.13719005,8.05036566 5.73480617,7.03756923 5.72569084,5.98194886 C5.67111671,5.33201448 5.89283407,4.68943313 6.33473305,4.21682246 C6.77663204,3.7442118 7.3963665,3.48686099 8.03710063,3.50989764 Z M11.8723136,2.00093387 L12.028033,2.00243568 C12.6289781,1.99103514 13.2060393,2.24160032 13.6137131,2.69095235 C14.021387,3.14030437 14.2207681,3.74556023 14.1615833,4.35410741 C14.1659764,5.33597131 13.8061484,6.28338289 13.1539674,7.00711619 C12.9173304,7.73094646 13.272286,7.85132595 13.3318269,7.85054931 C14.6356208,8.27304251 16.0577332,9.05667421 15.9981923,9.9606854 L15.9981923,9.9606854 L15.9981923,10.2620225 C15.9981923,11.1668103 14.5760799,11.5279488 13.0356489,11.5885269 C12.6211524,10.382402 11.0807214,9.59877026 10.0731055,9.23685513 C10.8397207,8.32718733 11.2786131,7.17879184 11.3173585,5.98117222 C11.3514762,4.93989212 10.9145972,3.94014992 10.1318831,3.26836201 C10.4262332,2.47186766 11.1927,1.96015152 12.028033,2.00243568 Z M5.86554583,3.26836201 C5.08302297,3.94023085 4.64641399,4.93999898 4.68083382,5.98117222 C4.71957916,7.17879184 5.15847156,8.32718733 5.92508677,9.23685513 C4.91747088,9.59877026 3.37703992,10.382402 2.96254339,11.5885269 C1.42211243,11.5279488 0,11.1668103 0,10.2620225 L0,9.9606854 C0,9.05667421 1.42211243,8.27304251 2.66636538,7.85054931 C2.72514298,7.85132595 3.08009857,7.73094646 2.84346151,7.00711619 C2.19128058,6.28338289 1.83145254,5.33597131 1.83584562,4.35410741 C1.79686666,3.75040924 2.00315682,3.15689614 2.40648428,2.7123349 C2.80981174,2.26777366 3.37481604,2.01113976 3.96939593,2.00243568 C4.80472894,1.96015152 5.57119575,2.47186766 5.86554583,3.26836201 Z" id="形状结合" fill="url(#linearGradient-1)"></path>
    </g>
</svg>